<svg width="25" height="24" viewBox="0 0 25 24" fill="none" xmlns="http://www.w3.org/2000/svg">
    <path fill-rule="evenodd" clip-rule="evenodd" d="M18.4704 0.707031C19.9276 0.707031 21.1773 1.68609 21.4418 3.03506L24.4239 18.2406C24.8783 20.5578 23.2512 22.7831 20.7896 23.2109C20.5182 23.2581 20.2427 23.2818 19.9667 23.2818H5.03248C2.52926 23.2818 0.5 21.3716 0.5 19.0152C0.5 18.7554 0.525211 18.4961 0.575319 18.2406L3.55738 3.03506C3.82194 1.68609 5.07158 0.707031 6.52882 0.707031H18.4704ZM19.7356 15.9996H5.26361C3.55464 15.9996 2.16924 17.3038 2.16924 18.9125C2.16924 20.5213 3.55464 21.8254 5.26361 21.8254H19.7356C21.4446 21.8254 22.83 20.5213 22.83 18.9125C22.83 17.3038 21.4446 15.9996 19.7356 15.9996ZM13.5707 18.1843C13.998 18.1843 14.3443 18.5103 14.3443 18.9125C14.3443 19.3147 13.998 19.6407 13.5707 19.6407H11.4285C11.0012 19.6407 10.6549 19.3147 10.6549 18.9125C10.6549 18.5103 11.0012 18.1843 11.4285 18.1843H13.5707ZM15.4511 8.88067L12.4996 10.6384L9.54807 8.88067L12.4996 13.4509L15.4511 8.88067ZM12.4996 7.47445L9.54807 8.52911L12.4996 10.2869L15.4511 8.52911L12.4996 7.47445ZM12.4996 3.2558L9.54807 8.17756L12.4996 7.1229L15.4511 8.17756L12.4996 3.2558Z" fill="white"/>
</svg>
