<svg width="415" height="283" viewBox="0 0 415 283" fill="none" xmlns="http://www.w3.org/2000/svg">
<path d="M36 241L15 253V245L29 237M36 241V265.5L8 281.5M36 241L29 237M8 281.5V273.5M8 281.5L1 277.5V269.5M8 273.5L29 261.5V253.5L8 265.5M8 273.5L1 269.5M8 265.5V241M8 265.5L1 261.5V237M8 265.5L1 269.5M8 241L36 225M8 241L1 237M36 225V233L29 237M36 225L29 221L1 237" stroke="#6392CF"/>
<path d="M50 217.5V258.5M50 217.5L78 201.5M50 217.5L43 214M50 258.5L78 242.5V234M50 258.5L43 254.5V214M78 234L57 246.5V238.5M78 234L71 230.5L57 238.5M78 201.5V210L57 222V238.5M78 201.5L71.5 198L43 214" stroke="#6392CF"/>
<path d="M92 235L99 230.5V214.5L113 206.5V222.5M92 235V194M92 235L85 231V190.5M92 194L120 178M92 194L85 190.5M120 178V218.5L113 222.5M120 178L113 174L85 190.5M113 222.5L106 218.5V211M113 198.5L99 206.5V198L106 194M113 198.5V190L106 194M113 198.5L106 194" stroke="#6392CF"/>
<path d="M169 188L176 183.5V167.5L190 159.5V175.5M169 188V147M169 188L162 184V143.5M169 147L197 131M169 147L162 143.5M197 131V171.5L190 175.5M197 131L190 127L162 143.5M190 175.5L183 171.5V164M190 151.5L176 159.5V151L183 147M190 151.5V143L183 147M190 151.5L183 147" stroke="#6392CF"/>
<path d="M134 169.5V209.5M134 169.5L141 165M134 169.5L127 165.5M134 209.5L162 193V185M134 209.5L127 206V165.5M162 185L141 197V189M162 185L155 181.5L141 189M141 165V189M141 165L134 161L127 165.5" stroke="#6392CF"/>
<path d="M288 78.5V118.5M288 78.5L295 74M288 78.5L281 74.5M288 118.5L316 102V94M288 118.5L281 115V74.5M316 94L295 106V98M316 94L309 90.5L295 98M295 74V98M295 74L288 70L281 74.5" stroke="#6392CF"/>
<path d="M211 164V123.5M211 164L239 148V124L232 128V112M211 164L204 160V119.5M211 123.5L232 112M211 123.5L204 119.5M232 112L224 107.5L204 119.5M232 144L218 152.5V144L225 140M232 144V136L225 140M232 144L225 140M225 132L218 136V128M225 132V124L218 128M225 132L218 128" stroke="#6392CF"/>
<path d="M253 98V106.5M253 98L274 86M253 98L246 94M253 106.5L260 102V126.5M253 106.5L246 102.5V94M253 106.5V123M260 126.5L253 131M260 126.5L253 123M253 131V139M253 131L246 127M253 139L274 126.5V118.5M253 139L246 135V127M274 118.5L267 122.5V114.5M274 118.5L267 114.5M274 86V94L267 98V114.5M274 86L267 82L246 94M253 123L246 127" stroke="#6392CF"/>
<path d="M323 57V65.5M323 57L344 45M323 57L316 53M323 65.5L330 61V85.5M323 65.5L316 61.5V53M323 65.5V82M330 85.5L323 90M330 85.5L323 82M323 90V98M323 90L316 86M323 98L344 85.5V77.5M323 98L316 94V86M344 77.5L337 81.5V73.5M344 77.5L337 73.5M344 45V53L337 57V73.5M344 45L337 41L316 53M323 82L316 86" stroke="#6392CF"/>
<path d="M354 40.5V48.5M354 40.5L382.5 24M354 40.5L347 36M354 48.5L358 46.2386M354 48.5L347 44V36M365 74.5V42.2813L358 46.2386M365 74.5L372 70.5V38.2404L382.5 32V24M365 74.5L358 70.5V46.2386M382.5 24L375.5 20L347 36" stroke="#6392CF"/>
<path d="M393 17.5L400 13.5M393 17.5V42M393 17.5L386 13.5M400 13.5V29.5L407 25.5V9M400 13.5L393 9.5L386 13.5M400 13.5V5.5M407 9L414 5M407 9L400 5.5M414 5V29.5L407 33.5V50L400 54M414 5L407 1L400 5.5M400 54V37.5L393 42M400 54L393 50V42M393 42L386 38V13.5" stroke="#6392CF"/>
</svg>
