<svg width="267" height="164" viewBox="0 0 267 164" fill="none" xmlns="http://www.w3.org/2000/svg">
<path d="M56 5V37.5L63 41.5V49.5L70 53.5M56 5L63 9M56 5L63 1L70 5M70 53.5V45.5L77 49.5M70 53.5L77 49.5M77 49.5V57.5L84 61.5M84 61.5V53.5L91 57.5M84 61.5L91 57.5M91 57.5V25M91 57.5L98 53.5V21M91 25L84 21M91 25L98 21M84 21V45.5L77 41.5V17M84 21L91 17L98 21M84 21V13M77 17L70 13M77 17L84 13M70 13V29.5M70 13L77 9L84 13M70 13V5M63 33.5L70 37.5V29.5M63 33.5V9M63 33.5L70 29.5M63 9L70 5" stroke="#59A5FF"/>
<path d="M105 33V74L112 78M105 33L133.5 49.5M105 33L112 29L140 45.5M133.5 49.5V90.5M133.5 49.5L140 45.5M133.5 90.5L126 86V77.5L119.5 73.7857M133.5 90.5L140 86.5V45.5M112 78V69.5L119.5 73.7857M112 78L119.5 73.7857M112 62V45.5L126 53.5V61.5M112 62L126 69.5V61.5M112 62L119 58M119 58V50M119 58L126 61.5" stroke="#9671FF"/>
<path d="M175 114L147 98V56.5M175 114V98V90M175 114L182 110V86M175 90L161 82M175 90L182 86M161 82V90.5M161 82L168 78M161 90.5L168 94V102L154 94.5M161 90.5L154 94.5M154 94.5V70L168 78M175 82V73M175 82L168 78M175 82L182 86M175 82L182 78V69M175 73L147 56.5M175 73L182 69M147 56.5L153.5 52.5L182 69" stroke="#E6AFAA"/>
<path d="M196 126.5L189 122.5V81.5M196 126.5V94.5L203 98V122.5M196 126.5L203 122.5M210 134.5L203 130.5V122.5M210 134.5V102L217 106V130.5M210 134.5L217 130.5M224 142.5L217 138.5V130.5M224 142.5L224.5 102M224 142.5L231 138.5V98M224.5 102L189 81.5M224.5 102L231 98M189 81.5L195.5 77.5L231 98" stroke="#59A5FF"/>
<path d="M29 123.5L1 107.5V66M29 123.5V107.5V99.5M29 123.5L36 119.5V95.5M29 99.5L15 91.5M29 99.5L36 95.5M15 91.5V100M15 91.5L22 87.5M15 100L22 103.5V111.5L8 104M15 100L8 104M8 104V79.5L22 87.5M29 91.5V82.5M29 91.5L22 87.5M29 91.5L36 95.5M29 91.5L36 87.5V78.5M29 82.5L1 66M29 82.5L36 78.5M1 66L7.5 62L36 78.5" stroke="#E6AFAA"/>
<path d="M50 136L43 132V91M50 136V104L57 107.5V132M50 136L57 132M64 144L57 140V132M64 144V111.5L71 115.5V140M64 144L71 140M78 152L71 148V140M78 152L78.5 111.5M78 152L85 148V107.5M78.5 111.5L43 91M78.5 111.5L85 107.5M43 91L49.5 87L85 107.5" stroke="#59A5FF"/>
<path d="M238 142.5L245 146.5V138.5M238 142.5V150.5L259 163M238 142.5L245 138.5M238 109V118L245 122V138.5M238 109L259 121M238 109L244 105.5L266 117.5M259 121V130.5M259 121L266 117.5M259 130.5L252 126.5V150.5M259 130.5L266 126.5V117.5M259 130.5V146.5M252 150.5L259 154.5M252 150.5L259 146.5M259 154.5V163M259 154.5L266 150.5M259 163L266 159V150.5M266 150.5L259 146.5" stroke="#9671FF"/>
</svg>
