<svg width="385" height="352" viewBox="0 0 385 352" fill="none" xmlns="http://www.w3.org/2000/svg">
<path d="M159 47.3736V5.37207L167.231 9.51469V26.2002L184.09 34.8307V17.915L192.454 22.1727V64.1742L184.09 59.8014V43.1159L167.231 34.8307V51.5162L159 47.3736Z" stroke="#6392CF"/>
<path d="M159 5.25769L167.231 1L175.594 5.25769L167.231 9.51537" stroke="#6392CF"/>
<path d="M175.727 5.25781V22.0584L167.363 26.086" stroke="#6392CF"/>
<path d="M175.727 21.9434L184.09 26.201" stroke="#6392CF"/>
<path d="M184.091 17.8018L192.587 13.6592L200.95 17.8018L192.454 22.1746" stroke="#6392CF"/>
<path d="M200.95 17.8008V60.0324L192.454 64.2901" stroke="#6392CF"/>
<path d="M175.727 38.9746V47.3749L167.363 51.6326" stroke="#6392CF"/>
<path d="M205.752 165.423V140.092L214.371 144.411V169.976L205.752 165.423Z" stroke="#E6AFAA"/>
<path d="M231.339 178.264V152.933L239.958 157.252V182.816L231.339 178.264Z" stroke="#E6AFAA"/>
<path d="M214.37 144.411V135.89L231.473 144.411V152.933L214.37 144.411Z" stroke="#E6AFAA"/>
<path d="M214.37 178.499V169.978L231.473 178.499V187.021L214.37 178.499Z" stroke="#E6AFAA"/>
<path d="M205.752 139.975L214.236 135.89" stroke="#E6AFAA"/>
<path d="M214.37 135.773L222.854 131.454L239.957 139.976L231.473 144.412" stroke="#E6AFAA"/>
<path d="M231.474 152.932L239.958 148.613V139.975" stroke="#E6AFAA"/>
<path d="M240.092 148.613L248.441 152.816L240.092 157.135" stroke="#E6AFAA"/>
<path d="M248.577 152.817V178.382L239.958 182.818" stroke="#E6AFAA"/>
<path d="M231.474 187.018L239.823 182.815" stroke="#E6AFAA"/>
<path d="M214.506 169.976L222.855 165.773L231.205 169.976" stroke="#E6AFAA"/>
<path d="M222.855 148.613V165.773" stroke="#E6AFAA"/>
<path d="M339 130.969V105.638L347.619 109.957V135.521L339 130.969Z" stroke="#6392CF"/>
<path d="M364.587 143.81V118.479L373.206 122.798V148.362L364.587 143.81Z" stroke="#6392CF"/>
<path d="M347.618 109.957V101.436L364.721 109.957V118.479L347.618 109.957Z" stroke="#6392CF"/>
<path d="M347.618 144.045V135.523L364.721 144.045V152.567L347.618 144.045Z" stroke="#6392CF"/>
<path d="M339 105.521L347.484 101.436" stroke="#6392CF"/>
<path d="M347.618 101.319L356.102 97L373.205 105.522L364.721 109.957" stroke="#6392CF"/>
<path d="M364.722 118.478L373.206 114.159V105.521" stroke="#6392CF"/>
<path d="M373.34 114.159L381.689 118.362L373.34 122.681" stroke="#6392CF"/>
<path d="M381.825 118.363V143.928L373.206 148.364" stroke="#6392CF"/>
<path d="M364.722 152.564L373.071 148.361" stroke="#6392CF"/>
<path d="M347.754 135.522L356.103 131.319L364.453 135.522" stroke="#6392CF"/>
<path d="M356.104 114.159V131.319" stroke="#6392CF"/>
<path d="M301.502 221.57V178.962L309.986 183.048V217.367L327.089 225.772V234.41L301.502 221.57Z" stroke="#E6AFAA"/>
<path d="M301.367 178.846L309.851 174.644L318.47 178.846L309.986 183.048" stroke="#E6AFAA"/>
<path d="M318.605 178.962V213.048L310.121 217.251" stroke="#E6AFAA"/>
<path d="M318.604 213.05L335.707 221.571L327.089 225.774" stroke="#E6AFAA"/>
<path d="M335.708 221.569V230.091L327.089 234.41" stroke="#E6AFAA"/>
<path d="M258.135 96.9261V54.3184L266.619 58.404V92.7237L283.722 101.129V109.767L258.135 96.9261Z" stroke="#6392CF"/>
<path d="M258 54.2024L266.484 50L275.103 54.2024L266.619 58.4048" stroke="#6392CF"/>
<path d="M275.238 54.3184V88.4046L266.754 92.607" stroke="#6392CF"/>
<path d="M275.237 88.4062L292.34 96.9278L283.721 101.13" stroke="#6392CF"/>
<path d="M292.341 96.9258V105.447L283.722 109.766" stroke="#6392CF"/>
<path d="M300.135 117.926V75.3184L308.619 79.404V113.724L325.722 122.129V130.767L300.135 117.926Z" stroke="#6392CF"/>
<path d="M300 75.2024L308.484 71L317.103 75.2024L308.619 79.4048" stroke="#6392CF"/>
<path d="M317.238 75.3184V109.405L308.754 113.607" stroke="#6392CF"/>
<path d="M317.237 109.406L334.34 117.928L325.721 122.13" stroke="#6392CF"/>
<path d="M334.341 117.926V126.447L325.722 130.766" stroke="#6392CF"/>
<path d="M340.422 240.48V198.106V197.756L365.874 210.48V219.001L348.771 210.48V236.278L365.874 244.799V253.204L340.422 240.48Z" stroke="#E6AFAA"/>
<path d="M340.422 197.756L348.771 193.554L374.224 206.278L365.874 210.48" stroke="#E6AFAA"/>
<path d="M374.358 206.396V214.917L366.009 219.119" stroke="#E6AFAA"/>
<path d="M374.358 214.919L382.842 219.121L374.358 223.44L366.009 219.121" stroke="#E6AFAA"/>
<path d="M365.874 219.118V244.683L374.493 249.002V223.437" stroke="#E6AFAA"/>
<path d="M357.391 214.799V231.959" stroke="#E6AFAA"/>
<path d="M348.906 236.161L357.39 231.842" stroke="#E6AFAA"/>
<path d="M357.391 231.842L365.875 236.161" stroke="#E6AFAA"/>
<path d="M365.874 253.204L374.493 249.002" stroke="#E6AFAA"/>
<path d="M382.843 219.118V244.683L374.628 249.002" stroke="#E6AFAA"/>
<path d="M1 156.737V131.172L9.61882 135.724V161.056L1 156.737Z" stroke="#9671FF"/>
<path d="M9.61865 135.723V127.318L26.587 135.723V144.245L9.61865 135.723Z" stroke="#9671FF"/>
<path d="M9.61865 169.576V161.171L26.7216 169.576V178.097L9.61865 169.576Z" stroke="#9671FF"/>
<path d="M26.5874 169.459V161.054L35.0716 165.49V173.894L26.5874 169.459Z" stroke="#9671FF"/>
<path d="M26.5874 152.532V144.244V144.011L35.2062 148.213V156.735L26.5874 152.532Z" stroke="#9671FF"/>
<path d="M9.61865 127.202L17.9681 123L35.2058 131.638L26.7216 135.724" stroke="#9671FF"/>
<path d="M35.2062 131.755V139.693L26.5874 144.012" stroke="#9671FF"/>
<path d="M35.2061 139.691L43.8249 144.011L35.2061 148.213" stroke="#9671FF"/>
<path d="M43.8249 144.13V152.535L35.2061 156.854" stroke="#9671FF"/>
<path d="M26.5874 161.054L35.0716 156.852L43.6904 161.054L35.0716 165.373" stroke="#9671FF"/>
<path d="M43.6902 161.054V169.692L35.2061 173.894" stroke="#9671FF"/>
<path d="M26.8564 178.098L35.0713 174.013" stroke="#9671FF"/>
<path d="M1 131.054L9.48415 126.852L9.88816 127.085" stroke="#9671FF"/>
<path d="M18.1028 140.043V156.736L9.61865 160.938" stroke="#9671FF"/>
<path d="M18.1035 156.734L26.7223 161.054" stroke="#9671FF"/>
<path d="M50.02 180.779V155.098L58.5042 159.183V184.981L50.02 180.779Z" stroke="#9671FF"/>
<path d="M50.02 154.982L58.5042 150.779" stroke="#9671FF"/>
<path d="M58.5039 150.779V159.184L75.6069 167.939V159.418L58.5039 150.779Z" stroke="#9671FF"/>
<path d="M58.5039 150.78L67.1227 146.577L84.091 155.099L75.6069 159.418" stroke="#9671FF"/>
<path d="M84.0912 155.098V163.619L75.7417 167.822" stroke="#9671FF"/>
<path d="M84.0911 163.62L92.5752 167.823L84.0911 172.142L75.6069 167.823" stroke="#9671FF"/>
<path d="M75.6069 167.94V193.505L83.9564 197.707V172.143" stroke="#9671FF"/>
<path d="M58.5039 193.622V184.983L75.6069 193.622V202.026L58.5039 193.622Z" stroke="#9671FF"/>
<path d="M58.5039 184.865L66.9881 180.663L75.6069 184.982" stroke="#9671FF"/>
<path d="M66.9883 163.62V180.663" stroke="#9671FF"/>
<path d="M92.5759 167.94V193.505L83.957 197.824" stroke="#9671FF"/>
<path d="M75.6069 202.026L83.9564 197.823" stroke="#9671FF"/>
<path d="M99.0391 214.516V171.792L107.658 175.878V184.516L116.142 188.718V197.357L107.658 193.038V218.602L99.0391 214.516Z" stroke="#9671FF"/>
<path d="M99.0391 171.677L107.523 167.357L116.007 171.677L107.793 175.879" stroke="#9671FF"/>
<path d="M116.142 171.676V180.197L107.658 184.4" stroke="#9671FF"/>
<path d="M116.143 180.198L124.627 184.401L116.143 188.72" stroke="#9671FF"/>
<path d="M124.627 184.401V193.04L116.143 197.359" stroke="#9671FF"/>
<path d="M116.143 205.646V197.357L124.627 201.56V210.081L116.143 205.646Z" stroke="#9671FF"/>
<path d="M124.761 193.04L133.245 188.721" stroke="#9671FF"/>
<path d="M124.626 201.444V193.039L133.245 197.242V188.837L141.729 193.039V235.764L133.245 231.445V205.763L124.626 201.444Z" stroke="#9671FF"/>
<path d="M133.245 188.719L141.729 184.517L150.213 188.719L141.729 193.038" stroke="#9671FF"/>
<path d="M150.213 188.837V231.561L141.729 235.881" stroke="#9671FF"/>
<path d="M124.626 210.199L133.245 205.88" stroke="#9671FF"/>
<path d="M107.658 218.721L116.142 214.518V205.646" stroke="#9671FF"/>
<path d="M278.878 167.989L253.156 155.031V197.872L261.775 201.841V184.915L278.878 193.553V184.915L261.775 176.277V167.989L278.878 176.277V167.989Z" stroke="#E6AFAA"/>
<path d="M252.887 155.032L261.64 150.829L287.362 163.67L278.878 167.872" stroke="#E6AFAA"/>
<path d="M287.362 163.787V172.075L278.878 176.278" stroke="#E6AFAA"/>
<path d="M287.362 180.596L278.878 176.394V184.915L287.362 189.234V180.596Z" stroke="#E6AFAA"/>
<path d="M287.362 172.074L295.846 176.393L287.362 180.596" stroke="#E6AFAA"/>
<path d="M295.846 176.394V184.915L287.362 189.234" stroke="#E6AFAA"/>
<path d="M278.878 193.44L287.227 189.237" stroke="#E6AFAA"/>
<path d="M287.362 189.237L295.712 193.44L287.362 197.642" stroke="#E6AFAA"/>
<path d="M295.712 193.438V210.597L287.362 214.8" stroke="#E6AFAA"/>
<path d="M278.743 210.481V193.438L287.227 197.64V214.683L278.743 210.481Z" stroke="#E6AFAA"/>
<path d="M261.909 176.278L270.124 172.192" stroke="#E6AFAA"/>
<path d="M270.259 189.237V197.642L261.774 201.845" stroke="#E6AFAA"/>
<path d="M366.358 304.283L340.636 291.325V334.166L349.255 338.135V321.209L366.358 329.847V321.209L349.255 312.571V304.283L366.358 312.571V304.283Z" stroke="#9671FF"/>
<path d="M340.366 291.325L349.12 287.123L374.842 299.964L366.357 304.166" stroke="#9671FF"/>
<path d="M374.842 300.08V308.368L366.357 312.571" stroke="#9671FF"/>
<path d="M374.842 316.89L366.357 312.688V321.209L374.842 325.528V316.89Z" stroke="#9671FF"/>
<path d="M374.842 308.368L383.326 312.687L374.842 316.89" stroke="#9671FF"/>
<path d="M383.326 312.688V321.209L374.842 325.528" stroke="#9671FF"/>
<path d="M366.357 329.734L374.707 325.531" stroke="#9671FF"/>
<path d="M374.842 325.531L383.191 329.734L374.842 333.936" stroke="#9671FF"/>
<path d="M383.191 329.732V346.892L374.842 351.095" stroke="#9671FF"/>
<path d="M366.223 346.776V329.732L374.707 333.935V350.978L366.223 346.776Z" stroke="#9671FF"/>
<path d="M349.389 312.572L357.603 308.486" stroke="#9671FF"/>
<path d="M357.739 325.531V333.936L349.255 338.138" stroke="#9671FF"/>
<path d="M249.061 255.138V246.5L274.648 259.341V267.862L266.298 263.66V297.746L257.545 293.544V259.341L249.061 255.138Z" stroke="#9671FF"/>
<path d="M249.061 246.5L257.545 242.298L283.266 255.022L274.782 259.341" stroke="#9671FF"/>
<path d="M274.647 267.863L283.266 263.544V255.022" stroke="#9671FF"/>
<path d="M274.647 267.862V293.544L266.298 297.746" stroke="#9671FF"/>
<path d="M288.652 308.486V265.995V265.762L322.858 282.805V291.326L297.271 278.486V287.241L322.858 299.965V308.486L297.271 295.762V304.284L322.858 317.241V325.529L288.652 308.486Z" stroke="#9671FF"/>
<path d="M288.652 265.762L297.271 261.442L331.342 278.602L322.858 282.805" stroke="#9671FF"/>
<path d="M331.343 278.602V287.123L322.858 291.326" stroke="#9671FF"/>
<path d="M331.343 295.762V304.283L322.858 308.486" stroke="#9671FF"/>
<path d="M331.343 312.805V321.326L322.858 325.529" stroke="#9671FF"/>
<path d="M322.993 291.442L331.477 295.645L322.993 299.847" stroke="#9671FF"/>
<path d="M322.993 308.603L331.477 312.805L322.993 317.007" stroke="#9671FF"/>
<path d="M297.406 287.125L305.89 282.806" stroke="#9671FF"/>
<path d="M297.406 304.167L305.89 299.965" stroke="#9671FF"/>
<path d="M208 71.0438V28.5528V28.3193L242.206 45.3624V53.884L216.619 41.0433V49.7983L242.206 62.5223V71.0438L216.619 58.3199V66.8414L242.206 79.7988V88.0869L208 71.0438Z" stroke="#6392CF"/>
<path d="M208 28.3191L216.619 24L250.69 41.1598L242.206 45.3622" stroke="#6392CF"/>
<path d="M250.69 41.1592V49.6807L242.206 53.8831" stroke="#6392CF"/>
<path d="M250.69 58.3193V66.8409L242.206 71.0433" stroke="#6392CF"/>
<path d="M250.69 75.3623V83.8839L242.206 88.0863" stroke="#6392CF"/>
<path d="M242.341 54L250.825 58.2024L242.341 62.4048" stroke="#6392CF"/>
<path d="M242.341 71.1602L250.825 75.3626L242.341 79.565" stroke="#6392CF"/>
<path d="M216.754 49.6824L225.238 45.3633" stroke="#6392CF"/>
<path d="M216.754 66.7249L225.238 62.5225" stroke="#6392CF"/>
<path d="M150 103.319L158.484 99L167.103 103.319L158.484 107.522" stroke="#E6AFAA"/>
<path d="M158.484 107.521L150.135 103.318L150 137.521L158.484 141.724V107.521Z" stroke="#E6AFAA"/>
<path d="M167.238 137.406L158.484 141.725" stroke="#E6AFAA"/>
<path d="M158.484 150.36V141.839L167.103 146.041V154.68L158.484 150.36Z" stroke="#E6AFAA"/>
<path d="M175.587 133.202L167.237 129V145.926L175.587 150.362V133.202Z" stroke="#E6AFAA"/>
<path d="M167.237 129.001L175.587 124.682L184.071 129.001L175.587 133.203" stroke="#E6AFAA"/>
<path d="M175.587 158.882V150.478L184.071 154.563V163.085L175.587 158.882Z" stroke="#E6AFAA"/>
<path d="M184.206 154.682V120.596L192.825 124.798V159.001L184.206 154.682Z" stroke="#E6AFAA"/>
<path d="M184.206 120.478L192.69 115.926L201.174 120.362L192.825 124.681" stroke="#E6AFAA"/>
<path d="M201.309 120.479V154.681L192.825 158.884" stroke="#E6AFAA"/>
<path d="M167.104 154.68L175.588 150.361" stroke="#E6AFAA"/>
<path d="M184.206 163.088L192.69 158.769" stroke="#E6AFAA"/>
<path d="M175.587 150.361L184.206 146.042" stroke="#E6AFAA"/>
<path d="M167.237 103.318V129" stroke="#E6AFAA"/>
<path d="M156.678 242.414V199.807L182.265 212.647V221.052L165.297 212.647V221.169L182.265 229.574V238.095L165.297 229.574V246.734L156.678 242.414Z" stroke="#9671FF"/>
<path d="M156.678 199.69L165.162 195.371L190.749 208.212L182.265 212.531" stroke="#9671FF"/>
<path d="M190.749 208.212V216.733L182.265 221.053" stroke="#9671FF"/>
<path d="M190.749 216.734L199.233 221.054L190.749 225.373L182.265 221.054" stroke="#9671FF"/>
<path d="M190.749 225.489V233.893L182.265 229.574V221.053" stroke="#9671FF"/>
<path d="M182.399 238.096L199.233 229.574V221.053" stroke="#9671FF"/>
<path d="M173.645 233.777V242.416L165.296 246.735" stroke="#9671FF"/>
<path d="M165.432 221.169L173.916 216.85" stroke="#9671FF"/>
<path d="M227.783 270.08L210.68 261.441V270.08L227.783 278.485V270.08Z" stroke="#9671FF"/>
<path d="M219.298 257.125L227.782 261.327" stroke="#9671FF"/>
<path d="M227.917 278.485L236.266 274.282" stroke="#9671FF"/>
<path d="M227.782 235.876L236.266 231.557L244.751 235.876L236.266 240.078" stroke="#9671FF"/>
<path d="M236.266 240.078L227.917 235.876L227.782 270.079L236.266 274.281V240.078Z" stroke="#9671FF"/>
<path d="M244.885 235.876V269.962L236.267 274.281" stroke="#9671FF"/>
<path d="M202.195 223.036L210.679 218.717L219.164 223.036L210.679 227.238" stroke="#9671FF"/>
<path d="M210.679 227.238L202.33 223.035L202.195 257.238L210.679 261.441V227.238Z" stroke="#9671FF"/>
<path d="M219.299 223.035V257.121L210.68 261.441" stroke="#9671FF"/>
</svg>
