<svg width="611" height="361" viewBox="0 0 611 361" fill="none" xmlns="http://www.w3.org/2000/svg">
<path d="M406.534 344.864V356.5H404.773V346.625H404.705L401.92 348.443V346.761L404.824 344.864H406.534ZM415.013 359.773C414.759 359.773 414.528 359.752 414.32 359.71C414.111 359.672 413.956 359.631 413.854 359.585L414.263 358.193C414.573 358.277 414.85 358.313 415.092 358.301C415.335 358.29 415.549 358.199 415.734 358.028C415.924 357.858 416.09 357.58 416.234 357.193L416.445 356.614L413.251 347.773H415.07L417.28 354.545H417.371L419.581 347.773H421.405L417.808 357.665C417.642 358.119 417.429 358.504 417.172 358.818C416.914 359.136 416.607 359.375 416.251 359.534C415.895 359.693 415.482 359.773 415.013 359.773ZM426.466 356.676C425.606 356.676 424.866 356.492 424.244 356.125C423.627 355.754 423.15 355.233 422.812 354.562C422.479 353.888 422.312 353.098 422.312 352.193C422.312 351.299 422.479 350.511 422.812 349.83C423.15 349.148 423.619 348.616 424.222 348.233C424.828 347.85 425.536 347.659 426.347 347.659C426.839 347.659 427.316 347.741 427.778 347.903C428.241 348.066 428.655 348.322 429.023 348.67C429.39 349.019 429.68 349.472 429.892 350.028C430.104 350.581 430.21 351.254 430.21 352.045V352.648H423.273V351.375H428.545C428.545 350.928 428.455 350.532 428.273 350.188C428.091 349.839 427.835 349.564 427.506 349.364C427.18 349.163 426.797 349.062 426.358 349.062C425.881 349.062 425.464 349.18 425.108 349.415C424.756 349.646 424.483 349.949 424.29 350.324C424.1 350.695 424.006 351.098 424.006 351.534V352.528C424.006 353.112 424.108 353.608 424.312 354.017C424.521 354.426 424.811 354.739 425.182 354.955C425.553 355.167 425.987 355.273 426.483 355.273C426.805 355.273 427.098 355.227 427.364 355.136C427.629 355.042 427.858 354.902 428.051 354.716C428.244 354.53 428.392 354.301 428.494 354.028L430.102 354.318C429.973 354.792 429.742 355.206 429.409 355.562C429.08 355.915 428.665 356.189 428.165 356.386C427.669 356.58 427.102 356.676 426.466 356.676ZM434.635 356.693C434.082 356.693 433.582 356.591 433.135 356.386C432.688 356.178 432.334 355.877 432.072 355.483C431.815 355.089 431.686 354.606 431.686 354.034C431.686 353.542 431.781 353.136 431.97 352.818C432.16 352.5 432.415 352.248 432.737 352.062C433.059 351.877 433.419 351.737 433.817 351.642C434.214 351.547 434.62 351.475 435.033 351.426C435.555 351.366 435.98 351.316 436.305 351.278C436.631 351.237 436.868 351.17 437.016 351.08C437.163 350.989 437.237 350.841 437.237 350.636V350.597C437.237 350.1 437.097 349.716 436.817 349.443C436.54 349.17 436.127 349.034 435.578 349.034C435.006 349.034 434.555 349.161 434.226 349.415C433.9 349.665 433.675 349.943 433.55 350.25L431.953 349.886C432.143 349.356 432.419 348.928 432.783 348.602C433.15 348.273 433.572 348.034 434.05 347.886C434.527 347.735 435.029 347.659 435.555 347.659C435.904 347.659 436.273 347.701 436.663 347.784C437.057 347.864 437.425 348.011 437.766 348.227C438.11 348.443 438.393 348.752 438.612 349.153C438.832 349.551 438.942 350.068 438.942 350.705V356.5H437.283V355.307H437.214C437.105 355.527 436.94 355.742 436.72 355.955C436.5 356.167 436.218 356.343 435.874 356.483C435.529 356.623 435.116 356.693 434.635 356.693ZM435.004 355.33C435.474 355.33 435.875 355.237 436.209 355.051C436.546 354.866 436.802 354.623 436.976 354.324C437.154 354.021 437.243 353.697 437.243 353.352V352.227C437.182 352.288 437.065 352.345 436.891 352.398C436.72 352.447 436.525 352.491 436.305 352.528C436.086 352.562 435.872 352.595 435.663 352.625C435.455 352.652 435.281 352.674 435.141 352.693C434.811 352.735 434.51 352.805 434.237 352.903C433.968 353.002 433.752 353.144 433.589 353.33C433.43 353.511 433.351 353.754 433.351 354.057C433.351 354.477 433.506 354.795 433.817 355.011C434.127 355.223 434.523 355.33 435.004 355.33ZM441.205 356.5V347.773H442.847V349.159H442.938C443.097 348.689 443.377 348.32 443.778 348.051C444.184 347.778 444.642 347.642 445.153 347.642C445.259 347.642 445.384 347.646 445.528 347.653C445.676 347.661 445.792 347.67 445.875 347.682V349.307C445.807 349.288 445.686 349.267 445.511 349.244C445.337 349.218 445.163 349.205 444.989 349.205C444.587 349.205 444.229 349.29 443.915 349.46C443.604 349.627 443.358 349.86 443.176 350.159C442.994 350.455 442.903 350.792 442.903 351.17V356.5H441.205Z" fill="black"/>
<path d="M55 177H431" stroke="#AFAFAF" stroke-dasharray="2 2"/>
<path d="M55 103H431" stroke="#AFAFAF" stroke-dasharray="2 2"/>
<path d="M10 29H431" stroke="#E4CC0C" stroke-dasharray="2 2"/>
<path d="M55 251H431" stroke="#93EAE2" stroke-dasharray="2 2"/>
<path fill-rule="evenodd" clip-rule="evenodd" d="M2 46H14V44H2V46ZM14 104H2V102H14V104ZM1 178H13V176H1V178ZM0 252H12V250H0V252Z" fill="black"/>
<path d="M26.3253 40.2727V49H24.7443V41.8111H24.6932L22.652 43.1151V41.6662L24.821 40.2727H26.3253ZM31.767 49.1662C31.0653 49.1662 30.4631 48.9886 29.9602 48.6335C29.4602 48.2756 29.0753 47.7599 28.8054 47.0866C28.5384 46.4105 28.4048 45.5966 28.4048 44.6449C28.4077 43.6932 28.5426 42.8835 28.8097 42.2159C29.0795 41.5455 29.4645 41.0341 29.9645 40.6818C30.4673 40.3295 31.0682 40.1534 31.767 40.1534C32.4659 40.1534 33.0668 40.3295 33.5696 40.6818C34.0724 41.0341 34.4574 41.5455 34.7244 42.2159C34.9943 42.8864 35.1293 43.696 35.1293 44.6449C35.1293 45.5994 34.9943 46.4148 34.7244 47.0909C34.4574 47.7642 34.0724 48.2784 33.5696 48.6335C33.0696 48.9886 32.4688 49.1662 31.767 49.1662ZM31.767 47.8324C32.3125 47.8324 32.7429 47.5639 33.0582 47.027C33.3764 46.4872 33.5355 45.6932 33.5355 44.6449C33.5355 43.9517 33.4631 43.3693 33.3182 42.8977C33.1733 42.4261 32.9688 42.071 32.7045 41.8324C32.4403 41.5909 32.1278 41.4702 31.767 41.4702C31.2244 41.4702 30.7955 41.7401 30.4801 42.2798C30.1648 42.8168 30.0057 43.6051 30.0028 44.6449C30 45.3409 30.0696 45.9261 30.2116 46.4006C30.3565 46.875 30.5611 47.233 30.8253 47.4744C31.0895 47.7131 31.4034 47.8324 31.767 47.8324ZM39.771 49.1662C39.0692 49.1662 38.467 48.9886 37.9641 48.6335C37.4641 48.2756 37.0792 47.7599 36.8093 47.0866C36.5423 46.4105 36.4087 45.5966 36.4087 44.6449C36.4116 43.6932 36.5465 42.8835 36.8136 42.2159C37.0835 41.5455 37.4684 41.0341 37.9684 40.6818C38.4712 40.3295 39.0721 40.1534 39.771 40.1534C40.4698 40.1534 41.0707 40.3295 41.5735 40.6818C42.0763 41.0341 42.4613 41.5455 42.7283 42.2159C42.9982 42.8864 43.1332 43.696 43.1332 44.6449C43.1332 45.5994 42.9982 46.4148 42.7283 47.0909C42.4613 47.7642 42.0763 48.2784 41.5735 48.6335C41.0735 48.9886 40.4727 49.1662 39.771 49.1662ZM39.771 47.8324C40.3164 47.8324 40.7468 47.5639 41.0621 47.027C41.3803 46.4872 41.5394 45.6932 41.5394 44.6449C41.5394 43.9517 41.467 43.3693 41.3221 42.8977C41.1772 42.4261 40.9727 42.071 40.7085 41.8324C40.4442 41.5909 40.1317 41.4702 39.771 41.4702C39.2283 41.4702 38.7994 41.7401 38.484 42.2798C38.1687 42.8168 38.0096 43.6051 38.0067 44.6449C38.0039 45.3409 38.0735 45.9261 38.2156 46.4006C38.3604 46.875 38.565 47.233 38.8292 47.4744C39.0934 47.7131 39.4073 47.8324 39.771 47.8324ZM47.7749 49.1662C47.0732 49.1662 46.4709 48.9886 45.968 48.6335C45.468 48.2756 45.0831 47.7599 44.8132 47.0866C44.5462 46.4105 44.4126 45.5966 44.4126 44.6449C44.4155 43.6932 44.5504 42.8835 44.8175 42.2159C45.0874 41.5455 45.4723 41.0341 45.9723 40.6818C46.4751 40.3295 47.076 40.1534 47.7749 40.1534C48.4737 40.1534 49.0746 40.3295 49.5774 40.6818C50.0803 41.0341 50.4652 41.5455 50.7322 42.2159C51.0021 42.8864 51.1371 43.696 51.1371 44.6449C51.1371 45.5994 51.0021 46.4148 50.7322 47.0909C50.4652 47.7642 50.0803 48.2784 49.5774 48.6335C49.0774 48.9886 48.4766 49.1662 47.7749 49.1662ZM47.7749 47.8324C48.3203 47.8324 48.7507 47.5639 49.0661 47.027C49.3842 46.4872 49.5433 45.6932 49.5433 44.6449C49.5433 43.9517 49.4709 43.3693 49.326 42.8977C49.1811 42.4261 48.9766 42.071 48.7124 41.8324C48.4482 41.5909 48.1357 41.4702 47.7749 41.4702C47.2322 41.4702 46.8033 41.7401 46.4879 42.2798C46.1726 42.8168 46.0135 43.6051 46.0107 44.6449C46.0078 45.3409 46.0774 45.9261 46.2195 46.4006C46.3643 46.875 46.5689 47.233 46.8331 47.4744C47.0973 47.7131 47.4112 47.8324 47.7749 47.8324Z" fill="black"/>
<path d="M26.3253 172.273V181H24.7443V173.811H24.6932L22.652 175.115V173.666L24.821 172.273H26.3253ZM31.767 181.166C31.0653 181.166 30.4631 180.989 29.9602 180.634C29.4602 180.276 29.0753 179.76 28.8054 179.087C28.5384 178.411 28.4048 177.597 28.4048 176.645C28.4077 175.693 28.5426 174.884 28.8097 174.216C29.0795 173.545 29.4645 173.034 29.9645 172.682C30.4673 172.33 31.0682 172.153 31.767 172.153C32.4659 172.153 33.0668 172.33 33.5696 172.682C34.0724 173.034 34.4574 173.545 34.7244 174.216C34.9943 174.886 35.1293 175.696 35.1293 176.645C35.1293 177.599 34.9943 178.415 34.7244 179.091C34.4574 179.764 34.0724 180.278 33.5696 180.634C33.0696 180.989 32.4688 181.166 31.767 181.166ZM31.767 179.832C32.3125 179.832 32.7429 179.564 33.0582 179.027C33.3764 178.487 33.5355 177.693 33.5355 176.645C33.5355 175.952 33.4631 175.369 33.3182 174.898C33.1733 174.426 32.9688 174.071 32.7045 173.832C32.4403 173.591 32.1278 173.47 31.767 173.47C31.2244 173.47 30.7955 173.74 30.4801 174.28C30.1648 174.817 30.0057 175.605 30.0028 176.645C30 177.341 30.0696 177.926 30.2116 178.401C30.3565 178.875 30.5611 179.233 30.8253 179.474C31.0895 179.713 31.4034 179.832 31.767 179.832Z" fill="black"/>
<path d="M26.3253 98.2727V107H24.7443V99.8111H24.6932L22.652 101.115V99.6662L24.821 98.2727H26.3253ZM31.767 107.166C31.0653 107.166 30.4631 106.989 29.9602 106.634C29.4602 106.276 29.0753 105.76 28.8054 105.087C28.5384 104.411 28.4048 103.597 28.4048 102.645C28.4077 101.693 28.5426 100.884 28.8097 100.216C29.0795 99.5455 29.4645 99.0341 29.9645 98.6818C30.4673 98.3295 31.0682 98.1534 31.767 98.1534C32.4659 98.1534 33.0668 98.3295 33.5696 98.6818C34.0724 99.0341 34.4574 99.5455 34.7244 100.216C34.9943 100.886 35.1293 101.696 35.1293 102.645C35.1293 103.599 34.9943 104.415 34.7244 105.091C34.4574 105.764 34.0724 106.278 33.5696 106.634C33.0696 106.989 32.4688 107.166 31.767 107.166ZM31.767 105.832C32.3125 105.832 32.7429 105.564 33.0582 105.027C33.3764 104.487 33.5355 103.693 33.5355 102.645C33.5355 101.952 33.4631 101.369 33.3182 100.898C33.1733 100.426 32.9688 100.071 32.7045 99.8324C32.4403 99.5909 32.1278 99.4702 31.767 99.4702C31.2244 99.4702 30.7955 99.7401 30.4801 100.28C30.1648 100.817 30.0057 101.605 30.0028 102.645C30 103.341 30.0696 103.926 30.2116 104.401C30.3565 104.875 30.5611 105.233 30.8253 105.474C31.0895 105.713 31.4034 105.832 31.767 105.832ZM39.771 107.166C39.0692 107.166 38.467 106.989 37.9641 106.634C37.4641 106.276 37.0792 105.76 36.8093 105.087C36.5423 104.411 36.4087 103.597 36.4087 102.645C36.4116 101.693 36.5465 100.884 36.8136 100.216C37.0835 99.5455 37.4684 99.0341 37.9684 98.6818C38.4712 98.3295 39.0721 98.1534 39.771 98.1534C40.4698 98.1534 41.0707 98.3295 41.5735 98.6818C42.0763 99.0341 42.4613 99.5455 42.7283 100.216C42.9982 100.886 43.1332 101.696 43.1332 102.645C43.1332 103.599 42.9982 104.415 42.7283 105.091C42.4613 105.764 42.0763 106.278 41.5735 106.634C41.0735 106.989 40.4727 107.166 39.771 107.166ZM39.771 105.832C40.3164 105.832 40.7468 105.564 41.0621 105.027C41.3803 104.487 41.5394 103.693 41.5394 102.645C41.5394 101.952 41.467 101.369 41.3221 100.898C41.1772 100.426 40.9727 100.071 40.7085 99.8324C40.4442 99.5909 40.1317 99.4702 39.771 99.4702C39.2283 99.4702 38.7994 99.7401 38.484 100.28C38.1687 100.817 38.0096 101.605 38.0067 102.645C38.0039 103.341 38.0735 103.926 38.2156 104.401C38.3604 104.875 38.565 105.233 38.8292 105.474C39.0934 105.713 39.4073 105.832 39.771 105.832Z" fill="black"/>
<path d="M26.3253 246.273V255H24.7443V247.811H24.6932L22.652 249.115V247.666L24.821 246.273H26.3253Z" fill="black"/>
<path d="M27.3352 356.722C26.3996 356.722 25.5966 356.485 24.9261 356.011C24.2595 355.534 23.7462 354.847 23.3864 353.949C23.0303 353.047 22.8523 351.962 22.8523 350.693C22.8561 349.424 23.036 348.345 23.392 347.455C23.7519 346.561 24.2652 345.879 24.9318 345.409C25.6023 344.939 26.4034 344.705 27.3352 344.705C28.267 344.705 29.0682 344.939 29.7386 345.409C30.4091 345.879 30.9223 346.561 31.2784 347.455C31.6383 348.348 31.8182 349.428 31.8182 350.693C31.8182 351.966 31.6383 353.053 31.2784 353.955C30.9223 354.852 30.4091 355.538 29.7386 356.011C29.072 356.485 28.2708 356.722 27.3352 356.722ZM27.3352 354.943C28.0625 354.943 28.6364 354.585 29.0568 353.869C29.4811 353.15 29.6932 352.091 29.6932 350.693C29.6932 349.769 29.5966 348.992 29.4034 348.364C29.2102 347.735 28.9375 347.261 28.5852 346.943C28.233 346.621 27.8163 346.46 27.3352 346.46C26.6117 346.46 26.0398 346.82 25.6193 347.54C25.1989 348.256 24.9867 349.307 24.983 350.693C24.9792 351.621 25.072 352.402 25.2614 353.034C25.4545 353.667 25.7273 354.144 26.0795 354.466C26.4318 354.784 26.8504 354.943 27.3352 354.943Z" fill="black"/>
<path d="M0 29H430" stroke="#5E2DE8" stroke-width="4"/>
<path d="M54.3555 251L432.855 251" stroke="#AFAFAF" stroke-width="1.5" stroke-dasharray="3 3"/>
<circle cx="429.355" cy="251" r="6" fill="#AFAFAF"/>
<path d="M0.999573 27L0.999554 326L530.355 326" stroke="#758987" stroke-width="2"/>
<circle cx="435" cy="29" r="12" fill="#5E2DE8"/>
<circle cx="432" cy="111" r="6" fill="#C0AAFF"/>
<circle cx="429" cy="214" r="6" fill="#C0AAFF"/>
<path d="M466.3 34H461.008V25.324H466.3V26.404H462.184V29.116H465.892V30.16H462.184V32.908H466.3V34ZM469.468 34H468.34V29.08H467.188V28.132H468.34V26.296H469.468V28.132H470.62V29.08H469.468V34ZM472.76 33.988H471.632V25.168H472.76V29.032C473.132 28.396 473.84 27.964 474.752 27.964C476.252 27.964 476.972 28.912 476.972 30.412V34H475.844V30.664C475.844 29.476 475.28 28.996 474.44 28.996C473.348 28.996 472.76 29.788 472.76 30.796V33.988ZM478.223 27.664C478.223 26.176 479.423 25.168 481.211 25.168C482.867 25.168 483.935 26.092 484.031 27.592H482.843C482.783 26.728 482.171 26.224 481.199 26.224C480.107 26.224 479.399 26.776 479.399 27.628C479.399 28.324 479.795 28.744 480.611 28.936L482.039 29.272C483.455 29.596 484.175 30.364 484.175 31.588C484.175 33.148 482.963 34.144 481.115 34.144C479.351 34.144 478.175 33.22 478.103 31.732H479.303C479.327 32.56 480.023 33.088 481.115 33.088C482.267 33.088 482.999 32.548 482.999 31.684C482.999 31 482.627 30.568 481.799 30.376L480.371 30.052C478.955 29.728 478.223 28.912 478.223 27.664ZM487.117 34H485.989V29.08H484.837V28.132H485.989V26.296H487.117V28.132H488.269V29.08H487.117V34ZM488.838 31.06C488.838 29.248 490.134 27.976 491.898 27.976C493.65 27.976 494.946 29.248 494.946 31.06C494.946 32.872 493.65 34.144 491.898 34.144C490.134 34.144 488.838 32.872 488.838 31.06ZM489.978 31.06C489.978 32.284 490.758 33.136 491.898 33.136C493.026 33.136 493.818 32.284 493.818 31.06C493.818 29.836 493.026 28.984 491.898 28.984C490.758 28.984 489.978 29.836 489.978 31.06ZM499.555 28.084V29.116H499.051C497.983 29.116 497.323 29.764 497.323 30.892V34H496.195V28.144H497.251L497.323 29.032C497.563 28.42 498.151 28.012 498.955 28.012C499.159 28.012 499.327 28.036 499.555 28.084ZM502.095 34.144C500.835 34.144 500.091 33.436 500.091 32.368C500.091 31.288 500.895 30.616 502.275 30.508L504.123 30.364V30.196C504.123 29.212 503.535 28.864 502.743 28.864C501.795 28.864 501.255 29.284 501.255 29.992H500.271C500.271 28.768 501.279 27.964 502.791 27.964C504.243 27.964 505.227 28.732 505.227 30.316V34H504.267L504.147 33.052C503.847 33.724 503.043 34.144 502.095 34.144ZM502.419 33.268C503.487 33.268 504.135 32.572 504.135 31.468V31.156L502.635 31.276C501.639 31.372 501.231 31.756 501.231 32.332C501.231 32.956 501.687 33.268 502.419 33.268ZM506.417 30.916C506.417 29.26 507.485 27.964 509.189 27.964C510.137 27.964 510.869 28.396 511.241 29.128L511.325 28.132H512.333V33.76C512.333 35.608 511.193 36.784 509.393 36.784C507.797 36.784 506.705 35.884 506.489 34.396H507.617C507.761 35.26 508.409 35.764 509.393 35.764C510.497 35.764 511.217 35.044 511.217 33.928V32.752C510.833 33.436 510.065 33.844 509.141 33.844C507.473 33.844 506.417 32.56 506.417 30.916ZM507.545 30.892C507.545 31.996 508.229 32.86 509.333 32.86C510.473 32.86 511.169 32.044 511.169 30.892C511.169 29.764 510.497 28.948 509.345 28.948C508.217 28.948 507.545 29.812 507.545 30.892ZM516.493 34.144C514.765 34.144 513.577 32.896 513.577 31.072C513.577 29.236 514.741 27.964 516.445 27.964C518.113 27.964 519.205 29.116 519.205 30.856V31.276L514.669 31.288C514.753 32.524 515.401 33.208 516.517 33.208C517.393 33.208 517.969 32.848 518.161 32.176H519.217C518.929 33.436 517.945 34.144 516.493 34.144ZM516.445 28.912C515.461 28.912 514.837 29.5 514.693 30.532H518.077C518.077 29.56 517.441 28.912 516.445 28.912ZM527.538 34.132C525.066 34.132 523.422 32.356 523.422 29.668C523.422 26.992 525.114 25.18 527.598 25.18C529.554 25.18 531.054 26.344 531.378 28.12H530.118C529.794 26.992 528.822 26.308 527.562 26.308C525.81 26.308 524.658 27.628 524.658 29.656C524.658 31.684 525.81 33.004 527.562 33.004C528.834 33.004 529.842 32.32 530.166 31.252H531.414C531.042 32.98 529.494 34.132 527.538 34.132ZM534.262 34.144C533.002 34.144 532.258 33.436 532.258 32.368C532.258 31.288 533.062 30.616 534.442 30.508L536.29 30.364V30.196C536.29 29.212 535.702 28.864 534.91 28.864C533.962 28.864 533.422 29.284 533.422 29.992H532.438C532.438 28.768 533.446 27.964 534.958 27.964C536.41 27.964 537.394 28.732 537.394 30.316V34H536.434L536.314 33.052C536.014 33.724 535.21 34.144 534.262 34.144ZM534.586 33.268C535.654 33.268 536.302 32.572 536.302 31.468V31.156L534.802 31.276C533.806 31.372 533.398 31.756 533.398 32.332C533.398 32.956 533.854 33.268 534.586 33.268ZM538.957 36.628V28.132H539.977L540.061 29.188C540.457 28.384 541.249 27.964 542.185 27.964C543.865 27.964 544.909 29.224 544.909 31.024C544.909 32.812 543.925 34.156 542.185 34.156C541.249 34.156 540.469 33.76 540.085 33.04V36.628H538.957ZM540.097 31.072C540.097 32.272 540.793 33.136 541.945 33.136C543.097 33.136 543.781 32.272 543.781 31.072C543.781 29.86 543.097 28.996 541.945 28.996C540.793 28.996 540.097 29.848 540.097 31.072ZM547.868 34.144C546.608 34.144 545.864 33.436 545.864 32.368C545.864 31.288 546.668 30.616 548.048 30.508L549.896 30.364V30.196C549.896 29.212 549.308 28.864 548.516 28.864C547.568 28.864 547.028 29.284 547.028 29.992H546.044C546.044 28.768 547.052 27.964 548.564 27.964C550.016 27.964 551 28.732 551 30.316V34H550.04L549.92 33.052C549.62 33.724 548.816 34.144 547.868 34.144ZM548.192 33.268C549.26 33.268 549.908 32.572 549.908 31.468V31.156L548.408 31.276C547.412 31.372 547.004 31.756 547.004 32.332C547.004 32.956 547.46 33.268 548.192 33.268ZM552.178 31.072C552.178 29.236 553.342 27.964 555.058 27.964C556.534 27.964 557.566 28.804 557.77 30.112H556.642C556.45 29.368 555.85 28.972 555.094 28.972C554.026 28.972 553.294 29.788 553.294 31.06C553.294 32.32 553.978 33.136 555.046 33.136C555.85 33.136 556.45 32.716 556.654 32.02H557.782C557.554 33.292 556.462 34.144 555.046 34.144C553.318 34.144 552.178 32.92 552.178 31.072ZM559.524 26.74C559.116 26.74 558.78 26.404 558.78 25.996C558.78 25.576 559.116 25.252 559.524 25.252C559.932 25.252 560.268 25.576 560.268 25.996C560.268 26.404 559.932 26.74 559.524 26.74ZM558.972 34V28.132H560.1V34H558.972ZM563.394 34H562.266V29.08H561.114V28.132H562.266V26.296H563.394V28.132H564.546V29.08H563.394V34ZM564.994 36.628V35.704H565.75C566.29 35.704 566.722 35.62 566.998 34.876L567.202 34.312L564.838 28.132H566.026L567.73 32.86L569.47 28.132H570.634L567.862 35.32C567.466 36.328 566.878 36.748 565.978 36.748C565.606 36.748 565.294 36.7 564.994 36.628Z" fill="black"/>
<path d="M464.608 256.132C462.136 256.132 460.492 254.356 460.492 251.668C460.492 248.992 462.184 247.18 464.668 247.18C466.624 247.18 468.124 248.344 468.448 250.12H467.188C466.864 248.992 465.892 248.308 464.632 248.308C462.88 248.308 461.728 249.628 461.728 251.656C461.728 253.684 462.88 255.004 464.632 255.004C465.904 255.004 466.912 254.32 467.236 253.252H468.484C468.112 254.98 466.564 256.132 464.608 256.132ZM473.79 250.132H474.906V256H473.898L473.778 255.112C473.442 255.724 472.662 256.144 471.798 256.144C470.43 256.144 469.662 255.22 469.662 253.78V250.132H470.79V253.408C470.79 254.668 471.33 255.148 472.194 255.148C473.226 255.148 473.79 254.488 473.79 253.228V250.132ZM479.903 250.084V251.116H479.399C478.331 251.116 477.671 251.764 477.671 252.892V256H476.543V250.144H477.599L477.671 251.032C477.911 250.42 478.499 250.012 479.303 250.012C479.507 250.012 479.675 250.036 479.903 250.084ZM484.321 250.084V251.116H483.817C482.749 251.116 482.089 251.764 482.089 252.892V256H480.961V250.144H482.017L482.089 251.032C482.329 250.42 482.917 250.012 483.721 250.012C483.925 250.012 484.093 250.036 484.321 250.084ZM487.7 256.144C485.972 256.144 484.784 254.896 484.784 253.072C484.784 251.236 485.948 249.964 487.652 249.964C489.32 249.964 490.412 251.116 490.412 252.856V253.276L485.876 253.288C485.96 254.524 486.608 255.208 487.724 255.208C488.6 255.208 489.176 254.848 489.368 254.176H490.424C490.136 255.436 489.152 256.144 487.7 256.144ZM487.652 250.912C486.668 250.912 486.044 251.5 485.9 252.532H489.284C489.284 251.56 488.648 250.912 487.652 250.912ZM492.799 256H491.671V250.132H492.691L492.811 251.032C493.183 250.36 493.927 249.964 494.755 249.964C496.303 249.964 497.011 250.912 497.011 252.412V256H495.883V252.664C495.883 251.476 495.331 250.996 494.467 250.996C493.411 250.996 492.799 251.752 492.799 252.892V256ZM500.23 256H499.102V251.08H497.95V250.132H499.102V248.296H500.23V250.132H501.382V251.08H500.23V256ZM511.159 256H505.867V247.324H511.159V248.404H507.043V251.116H510.751V252.16H507.043V254.908H511.159V256ZM512.023 248.404V247.324H518.419V248.404H515.815V256H514.639V248.404H512.023ZM520.778 256H519.602V247.324H520.778V251.056H525.074V247.324H526.25V256H525.074V252.148H520.778V256ZM532.719 256H531.543V247.324H532.719L537.159 254.032V247.324H538.335V256H537.159L532.719 249.292V256ZM539.78 253.06C539.78 251.248 541.076 249.976 542.84 249.976C544.592 249.976 545.888 251.248 545.888 253.06C545.888 254.872 544.592 256.144 542.84 256.144C541.076 256.144 539.78 254.872 539.78 253.06ZM540.92 253.06C540.92 254.284 541.7 255.136 542.84 255.136C543.968 255.136 544.76 254.284 544.76 253.06C544.76 251.836 543.968 250.984 542.84 250.984C541.7 250.984 540.92 251.836 540.92 253.06ZM549.488 256.144C547.784 256.144 546.752 254.872 546.752 253.084C546.752 251.284 547.796 249.964 549.536 249.964C550.436 249.964 551.192 250.36 551.588 251.08V247.168H552.704V256H551.696L551.6 254.932C551.216 255.736 550.424 256.144 549.488 256.144ZM549.716 255.124C550.868 255.124 551.576 254.272 551.576 253.048C551.576 251.848 550.868 250.984 549.716 250.984C548.564 250.984 547.892 251.848 547.892 253.048C547.892 254.26 548.564 255.124 549.716 255.124ZM556.864 256.144C555.136 256.144 553.948 254.896 553.948 253.072C553.948 251.236 555.112 249.964 556.816 249.964C558.484 249.964 559.576 251.116 559.576 252.856V253.276L555.04 253.288C555.124 254.524 555.772 255.208 556.888 255.208C557.764 255.208 558.34 254.848 558.532 254.176H559.588C559.3 255.436 558.316 256.144 556.864 256.144ZM556.816 250.912C555.832 250.912 555.208 251.5 555.064 252.532H558.448C558.448 251.56 557.812 250.912 556.816 250.912ZM567.909 256.132C565.437 256.132 563.793 254.356 563.793 251.668C563.793 248.992 565.485 247.18 567.969 247.18C569.925 247.18 571.425 248.344 571.749 250.12H570.489C570.165 248.992 569.193 248.308 567.933 248.308C566.181 248.308 565.029 249.628 565.029 251.656C565.029 253.684 566.181 255.004 567.933 255.004C569.205 255.004 570.213 254.32 570.537 253.252H571.785C571.413 254.98 569.865 256.132 567.909 256.132ZM574.634 256.144C573.374 256.144 572.63 255.436 572.63 254.368C572.63 253.288 573.434 252.616 574.814 252.508L576.662 252.364V252.196C576.662 251.212 576.074 250.864 575.282 250.864C574.334 250.864 573.794 251.284 573.794 251.992H572.81C572.81 250.768 573.818 249.964 575.33 249.964C576.782 249.964 577.766 250.732 577.766 252.316V256H576.806L576.686 255.052C576.386 255.724 575.582 256.144 574.634 256.144ZM574.958 255.268C576.026 255.268 576.674 254.572 576.674 253.468V253.156L575.174 253.276C574.178 253.372 573.77 253.756 573.77 254.332C573.77 254.956 574.226 255.268 574.958 255.268ZM579.328 258.628V250.132H580.348L580.432 251.188C580.828 250.384 581.62 249.964 582.556 249.964C584.236 249.964 585.28 251.224 585.28 253.024C585.28 254.812 584.296 256.156 582.556 256.156C581.62 256.156 580.84 255.76 580.456 255.04V258.628H579.328ZM580.468 253.072C580.468 254.272 581.164 255.136 582.316 255.136C583.468 255.136 584.152 254.272 584.152 253.072C584.152 251.86 583.468 250.996 582.316 250.996C581.164 250.996 580.468 251.848 580.468 253.072ZM588.239 256.144C586.979 256.144 586.235 255.436 586.235 254.368C586.235 253.288 587.039 252.616 588.419 252.508L590.267 252.364V252.196C590.267 251.212 589.679 250.864 588.887 250.864C587.939 250.864 587.399 251.284 587.399 251.992H586.415C586.415 250.768 587.423 249.964 588.935 249.964C590.387 249.964 591.371 250.732 591.371 252.316V256H590.411L590.291 255.052C589.991 255.724 589.187 256.144 588.239 256.144ZM588.563 255.268C589.631 255.268 590.279 254.572 590.279 253.468V253.156L588.779 253.276C587.783 253.372 587.375 253.756 587.375 254.332C587.375 254.956 587.831 255.268 588.563 255.268ZM592.549 253.072C592.549 251.236 593.713 249.964 595.429 249.964C596.905 249.964 597.937 250.804 598.141 252.112H597.013C596.821 251.368 596.221 250.972 595.465 250.972C594.397 250.972 593.665 251.788 593.665 253.06C593.665 254.32 594.349 255.136 595.417 255.136C596.221 255.136 596.821 254.716 597.025 254.02H598.153C597.925 255.292 596.833 256.144 595.417 256.144C593.689 256.144 592.549 254.92 592.549 253.072ZM599.895 248.74C599.487 248.74 599.151 248.404 599.151 247.996C599.151 247.576 599.487 247.252 599.895 247.252C600.303 247.252 600.639 247.576 600.639 247.996C600.639 248.404 600.303 248.74 599.895 248.74ZM599.343 256V250.132H600.471V256H599.343ZM603.765 256H602.637V251.08H601.485V250.132H602.637V248.296H603.765V250.132H604.917V251.08H603.765V256ZM605.365 258.628V257.704H606.121C606.661 257.704 607.093 257.62 607.369 256.876L607.573 256.312L605.209 250.132H606.397L608.101 254.86L609.841 250.132H611.005L608.233 257.32C607.837 258.328 607.249 258.748 606.349 258.748C605.977 258.748 605.665 258.7 605.365 258.628Z" fill="#000106"/>
<path d="M464.38 215.904H462.184V219H461.008V210.324H464.38C466.084 210.324 467.176 211.44 467.176 213.108C467.176 214.728 466.072 215.904 464.38 215.904ZM464.176 211.38H462.184V214.848H464.128C465.292 214.848 465.94 214.164 465.94 213.096C465.94 212.004 465.28 211.38 464.176 211.38ZM471.676 213.084V214.116H471.172C470.104 214.116 469.444 214.764 469.444 215.892V219H468.316V213.144H469.372L469.444 214.032C469.684 213.42 470.272 213.012 471.076 213.012C471.28 213.012 471.448 213.036 471.676 213.084ZM472.139 216.06C472.139 214.248 473.435 212.976 475.199 212.976C476.951 212.976 478.247 214.248 478.247 216.06C478.247 217.872 476.951 219.144 475.199 219.144C473.435 219.144 472.139 217.872 472.139 216.06ZM473.279 216.06C473.279 217.284 474.059 218.136 475.199 218.136C476.327 218.136 477.119 217.284 477.119 216.06C477.119 214.836 476.327 213.984 475.199 213.984C474.059 213.984 473.279 214.836 473.279 216.06ZM481.093 219H479.965V214.08H478.813V213.132H479.965V211.296H481.093V213.132H482.245V214.08H481.093V219ZM482.815 216.06C482.815 214.248 484.111 212.976 485.875 212.976C487.627 212.976 488.923 214.248 488.923 216.06C488.923 217.872 487.627 219.144 485.875 219.144C484.111 219.144 482.815 217.872 482.815 216.06ZM483.955 216.06C483.955 217.284 484.735 218.136 485.875 218.136C487.003 218.136 487.795 217.284 487.795 216.06C487.795 214.836 487.003 213.984 485.875 213.984C484.735 213.984 483.955 214.836 483.955 216.06ZM490.111 216.324V215.316H493.771V216.324H490.111ZM498.399 219H495.531V210.324H498.351C500.943 210.324 502.695 212.076 502.695 214.668C502.695 217.248 500.967 219 498.399 219ZM498.267 211.404H496.707V217.908H498.315C500.247 217.908 501.471 216.66 501.471 214.668C501.471 212.652 500.247 211.404 498.267 211.404ZM505.716 219.144C504.456 219.144 503.712 218.436 503.712 217.368C503.712 216.288 504.516 215.616 505.896 215.508L507.744 215.364V215.196C507.744 214.212 507.156 213.864 506.364 213.864C505.416 213.864 504.876 214.284 504.876 214.992H503.892C503.892 213.768 504.9 212.964 506.412 212.964C507.864 212.964 508.848 213.732 508.848 215.316V219H507.888L507.768 218.052C507.468 218.724 506.664 219.144 505.716 219.144ZM506.04 218.268C507.108 218.268 507.756 217.572 507.756 216.468V216.156L506.256 216.276C505.26 216.372 504.852 216.756 504.852 217.332C504.852 217.956 505.308 218.268 506.04 218.268ZM511.538 219H510.41V213.132H511.43L511.55 214.032C511.922 213.36 512.666 212.964 513.494 212.964C515.042 212.964 515.75 213.912 515.75 215.412V219H514.622V215.664C514.622 214.476 514.07 213.996 513.206 213.996C512.15 213.996 511.538 214.752 511.538 215.892V219ZM518.464 219H517.336V210.168H518.464V215.892L521.068 213.132H522.484L520.24 215.472L522.472 219H521.176L519.46 216.288L518.464 217.332V219ZM522.961 217.296H524.041C524.041 217.896 524.497 218.256 525.241 218.256C526.033 218.256 526.489 217.932 526.489 217.392C526.489 216.996 526.297 216.756 525.685 216.6L524.653 216.36C523.609 216.108 523.117 215.592 523.117 214.728C523.117 213.648 524.029 212.964 525.325 212.964C526.609 212.964 527.449 213.684 527.473 214.8H526.393C526.369 214.212 525.973 213.84 525.289 213.84C524.581 213.84 524.185 214.152 524.185 214.692C524.185 215.088 524.473 215.352 525.049 215.496L526.081 215.748C527.077 215.988 527.569 216.444 527.569 217.32C527.569 218.436 526.609 219.144 525.217 219.144C523.837 219.144 522.961 218.412 522.961 217.296ZM529.948 218.988H528.82V210.168H529.948V214.032C530.32 213.396 531.028 212.964 531.94 212.964C533.44 212.964 534.16 213.912 534.16 215.412V219H533.032V215.664C533.032 214.476 532.468 213.996 531.628 213.996C530.536 213.996 529.948 214.788 529.948 215.796V218.988ZM537.438 219.144C536.178 219.144 535.434 218.436 535.434 217.368C535.434 216.288 536.238 215.616 537.618 215.508L539.466 215.364V215.196C539.466 214.212 538.878 213.864 538.086 213.864C537.138 213.864 536.598 214.284 536.598 214.992H535.614C535.614 213.768 536.622 212.964 538.134 212.964C539.586 212.964 540.57 213.732 540.57 215.316V219H539.61L539.49 218.052C539.19 218.724 538.386 219.144 537.438 219.144ZM537.762 218.268C538.83 218.268 539.478 217.572 539.478 216.468V216.156L537.978 216.276C536.982 216.372 536.574 216.756 536.574 217.332C536.574 217.956 537.03 218.268 537.762 218.268ZM545.492 213.084V214.116H544.988C543.92 214.116 543.26 214.764 543.26 215.892V219H542.132V213.144H543.188L543.26 214.032C543.5 213.42 544.088 213.012 544.892 213.012C545.096 213.012 545.264 213.036 545.492 213.084ZM548.691 219.144C546.987 219.144 545.955 217.872 545.955 216.084C545.955 214.284 546.999 212.964 548.739 212.964C549.639 212.964 550.395 213.36 550.791 214.08V210.168H551.907V219H550.899L550.803 217.932C550.419 218.736 549.627 219.144 548.691 219.144ZM548.919 218.124C550.071 218.124 550.779 217.272 550.779 216.048C550.779 214.848 550.071 213.984 548.919 213.984C547.767 213.984 547.095 214.848 547.095 216.048C547.095 217.26 547.767 218.124 548.919 218.124ZM554.087 211.74C553.679 211.74 553.343 211.404 553.343 210.996C553.343 210.576 553.679 210.252 554.087 210.252C554.495 210.252 554.831 210.576 554.831 210.996C554.831 211.404 554.495 211.74 554.087 211.74ZM553.535 219V213.132H554.663V219H553.535ZM557.428 219H556.3V213.132H557.32L557.44 214.032C557.812 213.36 558.556 212.964 559.384 212.964C560.932 212.964 561.64 213.912 561.64 215.412V219H560.512V215.664C560.512 214.476 559.96 213.996 559.096 213.996C558.04 213.996 557.428 214.752 557.428 215.892V219ZM562.831 215.916C562.831 214.26 563.899 212.964 565.603 212.964C566.551 212.964 567.283 213.396 567.655 214.128L567.739 213.132H568.747V218.76C568.747 220.608 567.607 221.784 565.807 221.784C564.211 221.784 563.119 220.884 562.903 219.396H564.031C564.175 220.26 564.823 220.764 565.807 220.764C566.911 220.764 567.631 220.044 567.631 218.928V217.752C567.247 218.436 566.479 218.844 565.555 218.844C563.887 218.844 562.831 217.56 562.831 215.916ZM563.959 215.892C563.959 216.996 564.643 217.86 565.747 217.86C566.887 217.86 567.583 217.044 567.583 215.892C567.583 214.764 566.911 213.948 565.759 213.948C564.631 213.948 563.959 214.812 563.959 215.892ZM579.248 218.988L573.392 219V218.1L576.188 215.688C577.592 214.476 577.988 213.888 577.988 212.964C577.988 211.872 577.364 211.224 576.32 211.224C575.252 211.224 574.556 212.004 574.532 213.24H573.356C573.392 211.38 574.568 210.168 576.332 210.168C578.072 210.168 579.188 211.224 579.188 212.892C579.188 214.128 578.576 215.004 577.04 216.336L575.24 217.896H579.248V218.988ZM581.504 219.144C581.036 219.144 580.64 218.76 580.64 218.304C580.64 217.836 581.036 217.452 581.504 217.452C581.96 217.452 582.356 217.836 582.356 218.304C582.356 218.76 581.96 219.144 581.504 219.144ZM584.493 213.072L586.521 210.324H587.889L585.717 213.204C586.017 213.084 586.329 213.024 586.629 213.024C588.429 213.024 589.641 214.32 589.641 216.036C589.641 217.848 588.273 219.144 586.485 219.144C584.685 219.144 583.293 217.788 583.293 216.036C583.293 215.004 583.605 214.284 584.493 213.072ZM584.493 216.048C584.493 217.236 585.309 218.088 586.485 218.088C587.637 218.088 588.453 217.236 588.453 216.048C588.453 214.86 587.637 214.02 586.485 214.02C585.309 214.02 584.493 214.86 584.493 216.048ZM590.305 211.404V210.324H596.701V211.404H594.097V219H592.921V211.404H590.305Z" fill="#000106"/>
<path d="M556.06 320.875V319.364H565.066V320.875H561.435V331H559.685V320.875H556.06ZM566.919 331V322.273H568.618V331H566.919ZM567.777 320.926C567.482 320.926 567.228 320.828 567.016 320.631C566.808 320.43 566.703 320.191 566.703 319.915C566.703 319.634 566.808 319.396 567.016 319.199C567.228 318.998 567.482 318.898 567.777 318.898C568.073 318.898 568.325 318.998 568.533 319.199C568.745 319.396 568.851 319.634 568.851 319.915C568.851 320.191 568.745 320.43 568.533 320.631C568.325 320.828 568.073 320.926 567.777 320.926ZM570.904 331V322.273H572.534V323.693H572.642C572.824 323.212 573.122 322.837 573.534 322.568C573.947 322.295 574.442 322.159 575.017 322.159C575.601 322.159 576.089 322.295 576.483 322.568C576.881 322.841 577.175 323.216 577.364 323.693H577.455C577.663 323.227 577.995 322.856 578.449 322.58C578.904 322.299 579.445 322.159 580.074 322.159C580.866 322.159 581.512 322.407 582.012 322.903C582.516 323.4 582.767 324.148 582.767 325.148V331H581.069V325.307C581.069 324.716 580.908 324.288 580.586 324.023C580.264 323.758 579.879 323.625 579.432 323.625C578.879 323.625 578.449 323.795 578.142 324.136C577.836 324.473 577.682 324.907 577.682 325.438V331H575.989V325.199C575.989 324.725 575.841 324.345 575.546 324.057C575.25 323.769 574.866 323.625 574.392 323.625C574.07 323.625 573.773 323.71 573.5 323.881C573.231 324.047 573.014 324.28 572.847 324.58C572.684 324.879 572.603 325.225 572.603 325.619V331H570.904ZM588.806 331.176C587.946 331.176 587.205 330.992 586.584 330.625C585.967 330.254 585.489 329.733 585.152 329.062C584.819 328.388 584.652 327.598 584.652 326.693C584.652 325.799 584.819 325.011 585.152 324.33C585.489 323.648 585.959 323.116 586.561 322.733C587.167 322.35 587.876 322.159 588.686 322.159C589.179 322.159 589.656 322.241 590.118 322.403C590.58 322.566 590.995 322.822 591.363 323.17C591.73 323.519 592.02 323.972 592.232 324.528C592.444 325.081 592.55 325.754 592.55 326.545V327.148H585.613V325.875H590.885C590.885 325.428 590.794 325.032 590.613 324.688C590.431 324.339 590.175 324.064 589.846 323.864C589.52 323.663 589.137 323.562 588.698 323.562C588.221 323.562 587.804 323.68 587.448 323.915C587.096 324.146 586.823 324.449 586.63 324.824C586.44 325.195 586.346 325.598 586.346 326.034V327.028C586.346 327.612 586.448 328.108 586.652 328.517C586.861 328.926 587.15 329.239 587.522 329.455C587.893 329.667 588.327 329.773 588.823 329.773C589.145 329.773 589.438 329.727 589.703 329.636C589.969 329.542 590.198 329.402 590.391 329.216C590.584 329.03 590.732 328.801 590.834 328.528L592.442 328.818C592.313 329.292 592.082 329.706 591.749 330.062C591.419 330.415 591.005 330.689 590.505 330.886C590.008 331.08 589.442 331.176 588.806 331.176Z" fill="black"/>
<path d="M463.876 113H461.008V104.324H463.828C466.42 104.324 468.172 106.076 468.172 108.668C468.172 111.248 466.444 113 463.876 113ZM463.744 105.404H462.184V111.908H463.792C465.724 111.908 466.948 110.66 466.948 108.668C466.948 106.652 465.724 105.404 463.744 105.404ZM471.192 113.144C469.932 113.144 469.188 112.436 469.188 111.368C469.188 110.288 469.992 109.616 471.372 109.508L473.22 109.364V109.196C473.22 108.212 472.632 107.864 471.84 107.864C470.892 107.864 470.352 108.284 470.352 108.992H469.368C469.368 107.768 470.376 106.964 471.888 106.964C473.34 106.964 474.324 107.732 474.324 109.316V113H473.364L473.244 112.052C472.944 112.724 472.14 113.144 471.192 113.144ZM471.516 112.268C472.584 112.268 473.232 111.572 473.232 110.468V110.156L471.732 110.276C470.736 110.372 470.328 110.756 470.328 111.332C470.328 111.956 470.784 112.268 471.516 112.268ZM477.014 113H475.886V107.132H476.906L477.026 108.032C477.398 107.36 478.142 106.964 478.97 106.964C480.518 106.964 481.226 107.912 481.226 109.412V113H480.098V109.664C480.098 108.476 479.546 107.996 478.682 107.996C477.626 107.996 477.014 108.752 477.014 109.892V113ZM483.941 113H482.813V104.168H483.941V109.892L486.545 107.132H487.961L485.717 109.472L487.949 113H486.653L484.937 110.288L483.941 111.332V113ZM488.438 111.296H489.518C489.518 111.896 489.974 112.256 490.718 112.256C491.51 112.256 491.966 111.932 491.966 111.392C491.966 110.996 491.774 110.756 491.162 110.6L490.13 110.36C489.086 110.108 488.594 109.592 488.594 108.728C488.594 107.648 489.506 106.964 490.802 106.964C492.086 106.964 492.926 107.684 492.95 108.8H491.87C491.846 108.212 491.45 107.84 490.766 107.84C490.058 107.84 489.662 108.152 489.662 108.692C489.662 109.088 489.95 109.352 490.526 109.496L491.558 109.748C492.554 109.988 493.046 110.444 493.046 111.32C493.046 112.436 492.086 113.144 490.694 113.144C489.314 113.144 488.438 112.412 488.438 111.296ZM495.424 112.988H494.296V104.168H495.424V108.032C495.796 107.396 496.504 106.964 497.416 106.964C498.916 106.964 499.636 107.912 499.636 109.412V113H498.508V109.664C498.508 108.476 497.944 107.996 497.104 107.996C496.012 107.996 495.424 108.788 495.424 109.796V112.988ZM502.915 113.144C501.655 113.144 500.911 112.436 500.911 111.368C500.911 110.288 501.715 109.616 503.095 109.508L504.943 109.364V109.196C504.943 108.212 504.355 107.864 503.563 107.864C502.615 107.864 502.075 108.284 502.075 108.992H501.091C501.091 107.768 502.099 106.964 503.611 106.964C505.063 106.964 506.047 107.732 506.047 109.316V113H505.087L504.967 112.052C504.667 112.724 503.863 113.144 502.915 113.144ZM503.239 112.268C504.307 112.268 504.955 111.572 504.955 110.468V110.156L503.455 110.276C502.459 110.372 502.051 110.756 502.051 111.332C502.051 111.956 502.507 112.268 503.239 112.268ZM510.969 107.084V108.116H510.465C509.397 108.116 508.737 108.764 508.737 109.892V113H507.609V107.144H508.665L508.737 108.032C508.977 107.42 509.565 107.012 510.369 107.012C510.573 107.012 510.741 107.036 510.969 107.084ZM514.168 113.144C512.464 113.144 511.432 111.872 511.432 110.084C511.432 108.284 512.476 106.964 514.216 106.964C515.116 106.964 515.872 107.36 516.268 108.08V104.168H517.384V113H516.376L516.28 111.932C515.896 112.736 515.104 113.144 514.168 113.144ZM514.396 112.124C515.548 112.124 516.256 111.272 516.256 110.048C516.256 108.848 515.548 107.984 514.396 107.984C513.244 107.984 512.572 108.848 512.572 110.048C512.572 111.26 513.244 112.124 514.396 112.124ZM519.563 105.74C519.155 105.74 518.819 105.404 518.819 104.996C518.819 104.576 519.155 104.252 519.563 104.252C519.971 104.252 520.307 104.576 520.307 104.996C520.307 105.404 519.971 105.74 519.563 105.74ZM519.011 113V107.132H520.139V113H519.011ZM522.905 113H521.777V107.132H522.797L522.917 108.032C523.289 107.36 524.033 106.964 524.861 106.964C526.409 106.964 527.117 107.912 527.117 109.412V113H525.989V109.664C525.989 108.476 525.437 107.996 524.573 107.996C523.517 107.996 522.905 108.752 522.905 109.892V113ZM528.307 109.916C528.307 108.26 529.375 106.964 531.079 106.964C532.027 106.964 532.759 107.396 533.131 108.128L533.215 107.132H534.223V112.76C534.223 114.608 533.083 115.784 531.283 115.784C529.687 115.784 528.595 114.884 528.379 113.396H529.507C529.651 114.26 530.299 114.764 531.283 114.764C532.387 114.764 533.107 114.044 533.107 112.928V111.752C532.723 112.436 531.955 112.844 531.031 112.844C529.363 112.844 528.307 111.56 528.307 109.916ZM529.435 109.892C529.435 110.996 530.119 111.86 531.223 111.86C532.363 111.86 533.059 111.044 533.059 109.892C533.059 108.764 532.387 107.948 531.235 107.948C530.107 107.948 529.435 108.812 529.435 109.892ZM538.88 110.588C538.88 109.544 539.492 108.704 540.452 108.356C539.636 108.008 539.192 107.324 539.192 106.448C539.192 105.092 540.356 104.168 542.084 104.168C543.788 104.168 544.94 105.092 544.94 106.46C544.94 107.348 544.484 108.032 543.668 108.356C544.64 108.668 545.264 109.532 545.264 110.6C545.264 112.124 543.992 113.144 542.072 113.144C540.14 113.144 538.88 112.124 538.88 110.588ZM540.272 106.52C540.272 107.372 540.98 107.924 542.06 107.924C543.152 107.924 543.836 107.384 543.836 106.544C543.836 105.716 543.152 105.188 542.06 105.188C540.98 105.188 540.272 105.716 540.272 106.52ZM540.032 110.504C540.032 111.476 540.836 112.1 542.072 112.1C543.296 112.1 544.1 111.476 544.1 110.504C544.1 109.544 543.308 108.932 542.06 108.932C540.824 108.932 540.032 109.544 540.032 110.504ZM548.935 108.512H548.071V107.732L550.531 105.368H546.631V104.324H552.019V105.272L549.643 107.54C551.119 107.72 552.235 108.716 552.235 110.276C552.235 112.028 550.915 113.144 549.151 113.144C547.447 113.144 546.223 112.1 546.223 110.3H547.387C547.387 111.428 548.083 112.088 549.175 112.088C550.303 112.088 551.035 111.368 551.035 110.252C551.035 109.208 550.315 108.512 548.935 108.512ZM554.14 113.144C553.672 113.144 553.276 112.76 553.276 112.304C553.276 111.836 553.672 111.452 554.14 111.452C554.596 111.452 554.992 111.836 554.992 112.304C554.992 112.76 554.596 113.144 554.14 113.144ZM562.209 112.988L556.353 113V112.1L559.149 109.688C560.553 108.476 560.949 107.888 560.949 106.964C560.949 105.872 560.325 105.224 559.281 105.224C558.213 105.224 557.517 106.004 557.493 107.24H556.317C556.353 105.38 557.529 104.168 559.293 104.168C561.033 104.168 562.149 105.224 562.149 106.892C562.149 108.128 561.537 109.004 560.001 110.336L558.201 111.896H562.209V112.988ZM562.871 105.404V104.324H569.267V105.404H566.663V113H565.487V105.404H562.871Z" fill="#000106"/>
<path d="M429.5 112.5L1.5 327L429.5 214" stroke="#C0AAFF" stroke-width="1.5"/>
<path d="M7.53764 6.61719C7.49124 6.183 7.29569 5.84493 6.95099 5.60298C6.60961 5.36103 6.16548 5.24006 5.61861 5.24006C5.23414 5.24006 4.90436 5.29806 4.62926 5.41406C4.35417 5.53007 4.1437 5.6875 3.99787 5.88636C3.85204 6.08523 3.77746 6.31226 3.77415 6.56747C3.77415 6.77959 3.82221 6.96354 3.91832 7.11932C4.01776 7.27509 4.15199 7.40767 4.32102 7.51705C4.49006 7.62311 4.67732 7.71259 4.88281 7.78551C5.08831 7.85843 5.29545 7.91974 5.50426 7.96946L6.45881 8.2081C6.84328 8.29758 7.21283 8.41856 7.56747 8.57102C7.92543 8.72348 8.24527 8.91572 8.52699 9.14773C8.81203 9.37973 9.03741 9.6598 9.20312 9.98793C9.36884 10.3161 9.4517 10.7005 9.4517 11.1413C9.4517 11.7379 9.29924 12.2633 8.99432 12.7173C8.68939 13.1681 8.24858 13.5211 7.67188 13.7763C7.09848 14.0282 6.40412 14.1541 5.58878 14.1541C4.79664 14.1541 4.1089 14.0315 3.52557 13.7862C2.94555 13.541 2.49148 13.183 2.16335 12.7124C1.83854 12.2417 1.66288 11.6683 1.63636 10.9922H3.45099C3.47751 11.3468 3.58688 11.6418 3.77912 11.8771C3.97135 12.1125 4.22159 12.2881 4.52983 12.4041C4.84138 12.5201 5.18939 12.5781 5.57386 12.5781C5.97491 12.5781 6.32623 12.5185 6.62784 12.3991C6.93277 12.2765 7.1714 12.1075 7.34375 11.892C7.5161 11.6733 7.60393 11.4181 7.60724 11.1264C7.60393 10.8613 7.52604 10.6425 7.37358 10.4702C7.22112 10.2945 7.00734 10.1487 6.73224 10.0327C6.46046 9.91335 6.14228 9.80729 5.7777 9.71449L4.61932 9.41619C3.78078 9.20076 3.1179 8.87429 2.63068 8.43679C2.14678 7.99598 1.90483 7.41098 1.90483 6.68182C1.90483 6.08191 2.06723 5.55658 2.39205 5.10582C2.72017 4.65507 3.16596 4.3054 3.7294 4.05682C4.29285 3.80492 4.93087 3.67898 5.64347 3.67898C6.366 3.67898 6.99905 3.80492 7.54261 4.05682C8.08949 4.3054 8.5187 4.65175 8.83026 5.09588C9.14181 5.53669 9.30256 6.0438 9.3125 6.61719H7.53764ZM14.8297 6.36364V7.75568H10.4398V6.36364H14.8297ZM11.5236 4.53409H13.3233V11.7031C13.3233 11.9451 13.3598 12.1307 13.4327 12.2599C13.5089 12.3859 13.6084 12.4721 13.731 12.5185C13.8536 12.5649 13.9895 12.5881 14.1387 12.5881C14.2514 12.5881 14.3541 12.5798 14.4469 12.5632C14.543 12.5466 14.6159 12.5317 14.6657 12.5185L14.9689 13.9254C14.8728 13.9586 14.7353 13.995 14.5563 14.0348C14.3806 14.0746 14.1652 14.0978 13.91 14.1044C13.4592 14.1177 13.0532 14.0497 12.6919 13.9006C12.3307 13.7481 12.044 13.5128 11.8319 13.1946C11.623 12.8764 11.5203 12.4787 11.5236 12.0014V4.53409ZM19.5838 14.1491C18.8381 14.1491 18.1918 13.9851 17.6449 13.657C17.098 13.3288 16.6738 12.8698 16.3722 12.2798C16.0739 11.6899 15.9247 11.0005 15.9247 10.2116C15.9247 9.42282 16.0739 8.73177 16.3722 8.13849C16.6738 7.54522 17.098 7.08452 17.6449 6.75639C18.1918 6.42827 18.8381 6.2642 19.5838 6.2642C20.3295 6.2642 20.9759 6.42827 21.5227 6.75639C22.0696 7.08452 22.4922 7.54522 22.7905 8.13849C23.0921 8.73177 23.2429 9.42282 23.2429 10.2116C23.2429 11.0005 23.0921 11.6899 22.7905 12.2798C22.4922 12.8698 22.0696 13.3288 21.5227 13.657C20.9759 13.9851 20.3295 14.1491 19.5838 14.1491ZM19.5938 12.7074C19.9981 12.7074 20.3362 12.5964 20.608 12.3743C20.8797 12.1489 21.0819 11.8473 21.2145 11.4695C21.3504 11.0916 21.4183 10.6707 21.4183 10.2067C21.4183 9.73935 21.3504 9.31676 21.2145 8.93892C21.0819 8.55777 20.8797 8.2545 20.608 8.02912C20.3362 7.80374 19.9981 7.69105 19.5938 7.69105C19.1795 7.69105 18.8348 7.80374 18.5597 8.02912C18.2879 8.2545 18.084 8.55777 17.9482 8.93892C17.8156 9.31676 17.7493 9.73935 17.7493 10.2067C17.7493 10.6707 17.8156 11.0916 17.9482 11.4695C18.084 11.8473 18.2879 12.1489 18.5597 12.3743C18.8348 12.5964 19.1795 12.7074 19.5938 12.7074ZM24.7704 14V6.36364H26.5154V7.63636H26.595C26.7342 7.19555 26.9728 6.85582 27.3109 6.61719C27.6523 6.37524 28.0417 6.25426 28.4792 6.25426C28.5787 6.25426 28.6897 6.25923 28.8123 6.26918C28.9383 6.2758 29.0427 6.2874 29.1255 6.30398V7.95952C29.0493 7.933 28.9283 7.9098 28.7626 7.88991C28.6002 7.86671 28.4428 7.85511 28.2903 7.85511C27.9622 7.85511 27.6672 7.92637 27.4054 8.06889C27.1468 8.2081 26.943 8.40199 26.7939 8.65057C26.6447 8.89915 26.5701 9.18584 26.5701 9.51065V14H24.7704ZM32.3819 14.1541C31.898 14.1541 31.4622 14.0679 31.0744 13.8956C30.6899 13.7199 30.385 13.4614 30.1596 13.12C29.9376 12.7786 29.8265 12.3577 29.8265 11.8572C29.8265 11.4264 29.9061 11.0701 30.0652 10.7884C30.2243 10.5066 30.4413 10.2812 30.7164 10.1122C30.9915 9.94318 31.3014 9.81558 31.6461 9.7294C31.9941 9.63991 32.3538 9.57528 32.725 9.53551C33.1724 9.48911 33.5353 9.44768 33.8137 9.41122C34.0922 9.37145 34.2943 9.31179 34.4203 9.23224C34.5495 9.14938 34.6142 9.02178 34.6142 8.84943V8.8196C34.6142 8.44508 34.5031 8.15507 34.2811 7.94957C34.059 7.74408 33.7392 7.64134 33.3216 7.64134C32.8807 7.64134 32.5311 7.73745 32.2725 7.92969C32.0173 8.12192 31.845 8.34896 31.7555 8.6108L30.0751 8.37216C30.2077 7.90814 30.4264 7.52036 30.7314 7.20881C31.0363 6.89394 31.4092 6.65862 31.85 6.50284C32.2908 6.34375 32.778 6.2642 33.3116 6.2642C33.6795 6.2642 34.0458 6.30729 34.4103 6.39347C34.7749 6.47964 35.108 6.62216 35.4096 6.82102C35.7112 7.01657 35.9532 7.28338 36.1355 7.62145C36.3211 7.95952 36.4139 8.3821 36.4139 8.8892V14H34.6838V12.951H34.6241C34.5147 13.1631 34.3606 13.362 34.1618 13.5476C33.9662 13.7299 33.7193 13.8774 33.421 13.9901C33.126 14.0994 32.7797 14.1541 32.3819 14.1541ZM32.8493 12.8317C33.2105 12.8317 33.5237 12.7604 33.7889 12.6179C34.054 12.4721 34.2579 12.2798 34.4004 12.0412C34.5462 11.8026 34.6191 11.5424 34.6191 11.2607V10.3608C34.5628 10.4072 34.4667 10.4503 34.3308 10.4901C34.1982 10.5298 34.0491 10.5646 33.8833 10.5945C33.7176 10.6243 33.5536 10.6508 33.3912 10.674C33.2288 10.6972 33.0879 10.7171 32.9686 10.7337C32.7001 10.7701 32.4598 10.8298 32.2477 10.9126C32.0356 10.9955 31.8682 11.1115 31.7456 11.2607C31.6229 11.4065 31.5616 11.5954 31.5616 11.8274C31.5616 12.1589 31.6826 12.4091 31.9245 12.5781C32.1665 12.7472 32.4747 12.8317 32.8493 12.8317ZM41.5446 17.0227C40.8983 17.0227 40.3431 16.9349 39.8791 16.7592C39.4151 16.5869 39.0422 16.3549 38.7605 16.0632C38.4788 15.7715 38.2832 15.4484 38.1738 15.0938L39.7946 14.701C39.8675 14.8501 39.9735 14.9976 40.1127 15.1435C40.252 15.2926 40.4392 15.4152 40.6745 15.5114C40.9132 15.6108 41.2131 15.6605 41.5744 15.6605C42.0848 15.6605 42.5074 15.5362 42.8422 15.2876C43.1769 15.0424 43.3443 14.638 43.3443 14.0746V12.6278H43.2548C43.162 12.8134 43.0261 13.004 42.8471 13.1996C42.6715 13.3951 42.4378 13.5592 42.1461 13.6918C41.8578 13.8243 41.4949 13.8906 41.0574 13.8906C40.4707 13.8906 39.9387 13.7531 39.4615 13.478C38.9875 13.1996 38.6097 12.7853 38.3279 12.2351C38.0495 11.6816 37.9103 10.9889 37.9103 10.157C37.9103 9.31842 38.0495 8.6108 38.3279 8.03409C38.6097 7.45407 38.9892 7.01491 39.4664 6.71662C39.9437 6.41501 40.4757 6.2642 41.0623 6.2642C41.5098 6.2642 41.8777 6.34044 42.166 6.4929C42.4577 6.64205 42.6897 6.82268 42.862 7.0348C43.0344 7.24361 43.1653 7.44081 43.2548 7.62642H43.3542V6.36364H45.1291V14.1243C45.1291 14.7772 44.9733 15.3175 44.6618 15.745C44.3502 16.1726 43.9243 16.4924 43.3841 16.7045C42.8438 16.9167 42.2306 17.0227 41.5446 17.0227ZM41.5595 12.4787C41.9406 12.4787 42.2654 12.3859 42.5339 12.2003C42.8024 12.0147 43.0062 11.7479 43.1454 11.3999C43.2846 11.0518 43.3542 10.6342 43.3542 10.147C43.3542 9.66643 43.2846 9.2455 43.1454 8.88423C43.0095 8.52296 42.8074 8.2429 42.5389 8.04403C42.2737 7.84186 41.9473 7.74077 41.5595 7.74077C41.1584 7.74077 40.8237 7.84517 40.5552 8.05398C40.2868 8.26278 40.0846 8.54948 39.9487 8.91406C39.8128 9.27533 39.7449 9.68632 39.7449 10.147C39.7449 10.6143 39.8128 11.0237 39.9487 11.375C40.0879 11.723 40.2917 11.9948 40.5602 12.1903C40.832 12.3826 41.1651 12.4787 41.5595 12.4787ZM50.3542 14.1491C49.5886 14.1491 48.9274 13.9901 48.3706 13.6719C47.8171 13.3504 47.3912 12.8963 47.0929 12.3097C46.7946 11.7197 46.6454 11.0253 46.6454 10.2266C46.6454 9.44105 46.7946 8.75166 47.0929 8.15838C47.3945 7.56179 47.8154 7.09777 48.3556 6.76633C48.8959 6.43158 49.5306 6.2642 50.2598 6.2642C50.7304 6.2642 51.1745 6.34044 51.5922 6.4929C52.0131 6.64205 52.3843 6.87405 52.7058 7.18892C53.0306 7.50379 53.2858 7.90483 53.4714 8.39205C53.657 8.87595 53.7498 9.45265 53.7498 10.1222V10.674H47.4906V9.46094H52.0247C52.0214 9.11624 51.9468 8.80966 51.801 8.54119C51.6551 8.26941 51.4513 8.05563 51.1895 7.89986C50.9309 7.74408 50.6293 7.66619 50.2846 7.66619C49.9167 7.66619 49.5936 7.75568 49.3152 7.93466C49.0368 8.11032 48.8197 8.34233 48.6639 8.63068C48.5114 8.91572 48.4335 9.22893 48.4302 9.57031V10.6293C48.4302 11.0734 48.5114 11.4545 48.6738 11.7727C48.8362 12.0876 49.0633 12.3295 49.3549 12.4986C49.6466 12.6643 49.988 12.7472 50.3791 12.7472C50.6409 12.7472 50.8779 12.7107 51.09 12.6378C51.3021 12.5616 51.4861 12.4505 51.6419 12.3047C51.7976 12.1589 51.9153 11.9782 51.9949 11.7628L53.6752 11.9517C53.5692 12.3958 53.367 12.7836 53.0687 13.1151C52.7737 13.4432 52.3959 13.6984 51.9352 13.8807C51.4745 14.0597 50.9475 14.1491 50.3542 14.1491ZM55.7198 9.84872C55.7198 8.60582 55.8839 7.46402 56.212 6.4233C56.5434 5.37926 57.0356 4.41477 57.6886 3.52983H59.3839C59.132 3.85795 58.8967 4.26065 58.6779 4.73793C58.4592 5.21188 58.2686 5.73224 58.1062 6.29901C57.9471 6.86245 57.8211 7.44744 57.7283 8.05398C57.6388 8.66051 57.5941 9.25876 57.5941 9.84872C57.5941 10.6342 57.672 11.4297 57.8278 12.2351C57.9869 13.0405 58.2006 13.7862 58.4691 14.4723C58.7409 15.1617 59.0458 15.7251 59.3839 16.1626H57.6886C57.0356 15.2777 56.5434 14.3149 56.212 13.2741C55.8839 12.2301 55.7198 11.0883 55.7198 9.84872ZM60.4142 5.36435V3.81818H68.5378V5.36435H65.3908V14H63.5613V5.36435H60.4142ZM70.1039 14V3.81818H74.0016C74.7374 3.81818 75.3489 3.93419 75.8361 4.16619C76.3266 4.39489 76.6929 4.7081 76.9348 5.10582C77.1801 5.50355 77.3027 5.95431 77.3027 6.4581C77.3027 6.8724 77.2232 7.22704 77.0641 7.52202C76.905 7.81368 76.6912 8.05066 76.4228 8.23295C76.1543 8.41525 75.8543 8.54616 75.5229 8.62571V8.72514C75.8842 8.74503 76.2305 8.85606 76.562 9.05824C76.8967 9.2571 77.1702 9.53883 77.3823 9.90341C77.5944 10.268 77.7005 10.7088 77.7005 11.2259C77.7005 11.7528 77.5729 12.2268 77.3176 12.6477C77.0624 13.0653 76.678 13.3951 76.1642 13.6371C75.6505 13.879 75.0042 14 74.2253 14H70.1039ZM71.9483 12.4588H73.932C74.6015 12.4588 75.0837 12.3312 75.3787 12.076C75.677 11.8175 75.8262 11.486 75.8262 11.0817C75.8262 10.7801 75.7516 10.5083 75.6025 10.2663C75.4533 10.0211 75.2412 9.82884 74.9661 9.68963C74.691 9.54711 74.3629 9.47585 73.9817 9.47585H71.9483V12.4588ZM71.9483 8.14844H73.7729C74.0911 8.14844 74.3778 8.09044 74.633 7.97443C74.8882 7.85511 75.0887 7.68774 75.2346 7.4723C75.3837 7.25355 75.4583 6.99503 75.4583 6.69673C75.4583 6.30232 75.3191 5.97751 75.0407 5.7223C74.7656 5.46709 74.3562 5.33949 73.8127 5.33949H71.9483V8.14844ZM82.4371 9.84872C82.4371 11.0883 82.2714 12.2301 81.94 13.2741C81.6119 14.3149 81.1213 15.2777 80.4684 16.1626H78.7731C79.0283 15.8345 79.2636 15.4335 79.479 14.9595C79.6978 14.4856 79.8867 13.9652 80.0458 13.3984C80.2082 12.8317 80.3342 12.245 80.4237 11.6385C80.5165 11.032 80.5629 10.4354 80.5629 9.84872C80.5629 9.06321 80.4833 8.26776 80.3242 7.46236C80.1684 6.65696 79.9547 5.90956 79.6829 5.22017C79.4144 4.53078 79.1112 3.96733 78.7731 3.52983H80.4684C81.1213 4.41477 81.6119 5.37926 81.94 6.4233C82.2714 7.46402 82.4371 8.60582 82.4371 9.84872Z" fill="black"/>
</svg>
