<svg width="413" height="281" viewBox="0 0 413 281" fill="none" xmlns="http://www.w3.org/2000/svg">
<path d="M59 209L87 193M59 209V249.5M59 209L52 205M87 193V201.5L80 205.5M87 193L80 189L52 205M87 209L66 221.5V213.5L80 205.5M87 209V217.5L80 221.5M87 209L80 205.5M87 225.5L66 237.5V229.5L80 221.5M87 225.5V233.5L59 249.5M87 225.5L80 221.5M59 249.5L52 245.5V205" stroke="#E6AFAA"/>
<path d="M297 71L325 55M297 71V111.5M297 71L290 67M325 55V63.5L318 67.5M325 55L318 51L290 67M325 71L304 83.5V75.5L318 67.5M325 71V79.5L318 83.5M325 71L318 67.5M325 87.5L304 99.5V91.5L318 83.5M325 87.5V95.5L297 111.5M325 87.5L318 83.5M297 111.5L290 107.5V67" stroke="#E6AFAA"/>
<path d="M384 21.5V29.5M384 21.5L412.5 5M384 21.5L377 17M384 29.5L388 27.2386M384 29.5L377 25V17M395 55.5V23.2813L388 27.2386M395 55.5L402 51.5V19.2404L412.5 13V5M395 55.5L388 51.5V27.2386M412.5 5L405.5 1L377 17" stroke="#E6AFAA"/>
<path d="M220 115.5V156.5M220 115.5L248 99.5M220 115.5L213 112M220 156.5L248 140.5V132M220 156.5L213 152.5V112M248 132L227 144.5V136.5M248 132L241 128.5L227 136.5M248 99.5V108L227 120V136.5M248 99.5L241.5 96L213 112" stroke="#E6AFAA"/>
<path d="M101 225V185M101 225L108 221V205L129 193.5V185M101 225L94 221V180.5M101 185L129 169M101 185L94 180.5M129 169V177L122.5 180.714M129 169L122.5 164.5L94 180.5M129 185L108 197.5V189L122.5 180.714M129 185L122.5 180.714" stroke="#E6AFAA"/>
<path d="M143 201V161M143 201L150 197V181L171 169.5V161M143 201L136 197V156.5M143 161L171 145M143 161L136 156.5M171 145V153L164.128 156.927M171 145L163.5 140.5L136 156.5M171 161L150 173.5V165L164.128 156.927M171 161L164.128 156.927" stroke="#E6AFAA"/>
<path d="M185 136V144.5M185 136L206 124M185 136L178 132M185 144.5L192 140V164.5M185 144.5L178 140.5V132M185 144.5V161M192 164.5L185 169M192 164.5L185 161M185 169V177M185 169L178 165M185 177L206 164.5V156.5M185 177L178 173V165M206 156.5L199 160.5V152.5M206 156.5L199 152.5M206 124V132L199 136V152.5M206 124L199 120L178 132M185 161L178 165" stroke="#E6AFAA"/>
<path d="M262 92V100.5M262 92L283 80M262 92L255 88M262 100.5L269 96V120.5M262 100.5L255 96.5V88M262 100.5V117M269 120.5L262 125M269 120.5L262 117M262 125V133M262 125L255 121M262 133L283 120.5V112.5M262 133L255 129V121M283 112.5L276 116.5V108.5M283 112.5L276 108.5M283 80V88L276 92V108.5M283 80L276 76L255 88M262 117L255 121" stroke="#E6AFAA"/>
<path d="M339 88L346 84V59.5M339 88V47.5M339 88L332 84V43.5M346 59.5L353 55.5M346 59.5L353 63.5M353 55.5V63.5M353 55.5V47.5M353 55.5L360.5 51.5M353 63.5L360.5 59.5M353 63.5L360.5 67.5M360.5 59.5V67.5M360.5 59.5L367 55.5M360.5 59.5V51.5M360.5 67.5L367 63.5V71.5M360.5 67.5L367 71.5M367 71.5L374 67.5V27.5M374 27.5L367 31.5M374 27.5L367 23.5L360 27.5M367 31.5V55.5M367 31.5L360 27.5M367 55.5L360.5 51.5M339 47.5L346 43.5M339 47.5L332 43.5M346 43.5V51.5L353 47.5M346 43.5L339 39.5L332 43.5M346 43.5L353 47.5M353 47.5L360.5 51.5M360.5 51.5L360 27.5" stroke="#E6AFAA"/>
</svg>
