<svg width="594" height="340" viewBox="0 0 594 340" fill="none" xmlns="http://www.w3.org/2000/svg">
    <path d="M55.6445 160H431.645" stroke="#AFAFAF" stroke-dasharray="2 2"/>
    <path d="M55.6445 86H431.645" stroke="#AFAFAF" stroke-dasharray="2 2"/>
    <path d="M10.6445 12H431.645" stroke="#E4CC0C" stroke-dasharray="2 2"/>
    <path d="M55.6445 234H431.645" stroke="#93EAE2" stroke-dasharray="2 2"/>
    <path fill-rule="evenodd" clip-rule="evenodd" d="M2.64453 29H14.6445V27H2.64453V29ZM14.6445 87H2.64453V85H14.6445V87ZM1.64453 161H13.6445V159H1.64453V161ZM0.644531 235H12.6445V233H0.644531V235Z" fill="black"/>
    <path d="M26.9698 23.2727V32H25.3888V24.8111H25.3377L23.2965 26.1151V24.6662L25.4656 23.2727H26.9698ZM32.4116 32.1662C31.7099 32.1662 31.1076 31.9886 30.6048 31.6335C30.1048 31.2756 29.7198 30.7599 29.4499 30.0866C29.1829 29.4105 29.0494 28.5966 29.0494 27.6449C29.0522 26.6932 29.1871 25.8835 29.4542 25.2159C29.7241 24.5455 30.109 24.0341 30.609 23.6818C31.1119 23.3295 31.7127 23.1534 32.4116 23.1534C33.1104 23.1534 33.7113 23.3295 34.2141 23.6818C34.717 24.0341 35.1019 24.5455 35.369 25.2159C35.6388 25.8864 35.7738 26.696 35.7738 27.6449C35.7738 28.5994 35.6388 29.4148 35.369 30.0909C35.1019 30.7642 34.717 31.2784 34.2141 31.6335C33.7141 31.9886 33.1133 32.1662 32.4116 32.1662ZM32.4116 30.8324C32.957 30.8324 33.3874 30.5639 33.7028 30.027C34.021 29.4872 34.18 28.6932 34.18 27.6449C34.18 26.9517 34.1076 26.3693 33.9627 25.8977C33.8178 25.4261 33.6133 25.071 33.3491 24.8324C33.0849 24.5909 32.7724 24.4702 32.4116 24.4702C31.869 24.4702 31.44 24.7401 31.1246 25.2798C30.8093 25.8168 30.6502 26.6051 30.6474 27.6449C30.6445 28.3409 30.7141 28.9261 30.8562 29.4006C31.0011 29.875 31.2056 30.233 31.4698 30.4744C31.734 30.7131 32.0479 30.8324 32.4116 30.8324ZM40.4155 32.1662C39.7138 32.1662 39.1115 31.9886 38.6087 31.6335C38.1087 31.2756 37.7237 30.7599 37.4538 30.0866C37.1868 29.4105 37.0533 28.5966 37.0533 27.6449C37.0561 26.6932 37.1911 25.8835 37.4581 25.2159C37.728 24.5455 38.1129 24.0341 38.6129 23.6818C39.1158 23.3295 39.7166 23.1534 40.4155 23.1534C41.1143 23.1534 41.7152 23.3295 42.218 23.6818C42.7209 24.0341 43.1058 24.5455 43.3729 25.2159C43.6428 25.8864 43.7777 26.696 43.7777 27.6449C43.7777 28.5994 43.6428 29.4148 43.3729 30.0909C43.1058 30.7642 42.7209 31.2784 42.218 31.6335C41.718 31.9886 41.1172 32.1662 40.4155 32.1662ZM40.4155 30.8324C40.9609 30.8324 41.3913 30.5639 41.7067 30.027C42.0249 29.4872 42.1839 28.6932 42.1839 27.6449C42.1839 26.9517 42.1115 26.3693 41.9666 25.8977C41.8217 25.4261 41.6172 25.071 41.353 24.8324C41.0888 24.5909 40.7763 24.4702 40.4155 24.4702C39.8729 24.4702 39.4439 24.7401 39.1286 25.2798C38.8132 25.8168 38.6541 26.6051 38.6513 27.6449C38.6484 28.3409 38.718 28.9261 38.8601 29.4006C39.005 29.875 39.2095 30.233 39.4737 30.4744C39.7379 30.7131 40.0518 30.8324 40.4155 30.8324ZM48.4194 32.1662C47.7177 32.1662 47.1154 31.9886 46.6126 31.6335C46.1126 31.2756 45.7276 30.7599 45.4577 30.0866C45.1907 29.4105 45.0572 28.5966 45.0572 27.6449C45.06 26.6932 45.195 25.8835 45.462 25.2159C45.7319 24.5455 46.1168 24.0341 46.6168 23.6818C47.1197 23.3295 47.7205 23.1534 48.4194 23.1534C49.1183 23.1534 49.7191 23.3295 50.2219 23.6818C50.7248 24.0341 51.1097 24.5455 51.3768 25.2159C51.6467 25.8864 51.7816 26.696 51.7816 27.6449C51.7816 28.5994 51.6467 29.4148 51.3768 30.0909C51.1097 30.7642 50.7248 31.2784 50.2219 31.6335C49.7219 31.9886 49.1211 32.1662 48.4194 32.1662ZM48.4194 30.8324C48.9648 30.8324 49.3952 30.5639 49.7106 30.027C50.0288 29.4872 50.1879 28.6932 50.1879 27.6449C50.1879 26.9517 50.1154 26.3693 49.9705 25.8977C49.8256 25.4261 49.6211 25.071 49.3569 24.8324C49.0927 24.5909 48.7802 24.4702 48.4194 24.4702C47.8768 24.4702 47.4478 24.7401 47.1325 25.2798C46.8171 25.8168 46.658 26.6051 46.6552 27.6449C46.6523 28.3409 46.7219 28.9261 46.864 29.4006C47.0089 29.875 47.2134 30.233 47.4776 30.4744C47.7418 30.7131 48.0558 30.8324 48.4194 30.8324Z" fill="black"/>
    <path d="M26.9698 155.273V164H25.3888V156.811H25.3377L23.2965 158.115V156.666L25.4656 155.273H26.9698ZM32.4116 164.166C31.7099 164.166 31.1076 163.989 30.6048 163.634C30.1048 163.276 29.7198 162.76 29.4499 162.087C29.1829 161.411 29.0494 160.597 29.0494 159.645C29.0522 158.693 29.1871 157.884 29.4542 157.216C29.7241 156.545 30.109 156.034 30.609 155.682C31.1119 155.33 31.7127 155.153 32.4116 155.153C33.1104 155.153 33.7113 155.33 34.2141 155.682C34.717 156.034 35.1019 156.545 35.369 157.216C35.6388 157.886 35.7738 158.696 35.7738 159.645C35.7738 160.599 35.6388 161.415 35.369 162.091C35.1019 162.764 34.717 163.278 34.2141 163.634C33.7141 163.989 33.1133 164.166 32.4116 164.166ZM32.4116 162.832C32.957 162.832 33.3874 162.564 33.7028 162.027C34.021 161.487 34.18 160.693 34.18 159.645C34.18 158.952 34.1076 158.369 33.9627 157.898C33.8178 157.426 33.6133 157.071 33.3491 156.832C33.0849 156.591 32.7724 156.47 32.4116 156.47C31.869 156.47 31.44 156.74 31.1246 157.28C30.8093 157.817 30.6502 158.605 30.6474 159.645C30.6445 160.341 30.7141 160.926 30.8562 161.401C31.0011 161.875 31.2056 162.233 31.4698 162.474C31.734 162.713 32.0479 162.832 32.4116 162.832Z" fill="black"/>
    <path d="M26.9698 81.2727V90H25.3888V82.8111H25.3377L23.2965 84.1151V82.6662L25.4656 81.2727H26.9698ZM32.4116 90.1662C31.7099 90.1662 31.1076 89.9886 30.6048 89.6335C30.1048 89.2756 29.7198 88.7599 29.4499 88.0866C29.1829 87.4105 29.0494 86.5966 29.0494 85.6449C29.0522 84.6932 29.1871 83.8835 29.4542 83.2159C29.7241 82.5455 30.109 82.0341 30.609 81.6818C31.1119 81.3295 31.7127 81.1534 32.4116 81.1534C33.1104 81.1534 33.7113 81.3295 34.2141 81.6818C34.717 82.0341 35.1019 82.5455 35.369 83.2159C35.6388 83.8864 35.7738 84.696 35.7738 85.6449C35.7738 86.5994 35.6388 87.4148 35.369 88.0909C35.1019 88.7642 34.717 89.2784 34.2141 89.6335C33.7141 89.9886 33.1133 90.1662 32.4116 90.1662ZM32.4116 88.8324C32.957 88.8324 33.3874 88.5639 33.7028 88.027C34.021 87.4872 34.18 86.6932 34.18 85.6449C34.18 84.9517 34.1076 84.3693 33.9627 83.8977C33.8178 83.4261 33.6133 83.071 33.3491 82.8324C33.0849 82.5909 32.7724 82.4702 32.4116 82.4702C31.869 82.4702 31.44 82.7401 31.1246 83.2798C30.8093 83.8168 30.6502 84.6051 30.6474 85.6449C30.6445 86.3409 30.7141 86.9261 30.8562 87.4006C31.0011 87.875 31.2056 88.233 31.4698 88.4744C31.734 88.7131 32.0479 88.8324 32.4116 88.8324ZM40.4155 90.1662C39.7138 90.1662 39.1115 89.9886 38.6087 89.6335C38.1087 89.2756 37.7237 88.7599 37.4538 88.0866C37.1868 87.4105 37.0533 86.5966 37.0533 85.6449C37.0561 84.6932 37.1911 83.8835 37.4581 83.2159C37.728 82.5455 38.1129 82.0341 38.6129 81.6818C39.1158 81.3295 39.7166 81.1534 40.4155 81.1534C41.1143 81.1534 41.7152 81.3295 42.218 81.6818C42.7209 82.0341 43.1058 82.5455 43.3729 83.2159C43.6428 83.8864 43.7777 84.696 43.7777 85.6449C43.7777 86.5994 43.6428 87.4148 43.3729 88.0909C43.1058 88.7642 42.7209 89.2784 42.218 89.6335C41.718 89.9886 41.1172 90.1662 40.4155 90.1662ZM40.4155 88.8324C40.9609 88.8324 41.3913 88.5639 41.7067 88.027C42.0249 87.4872 42.1839 86.6932 42.1839 85.6449C42.1839 84.9517 42.1115 84.3693 41.9666 83.8977C41.8217 83.4261 41.6172 83.071 41.353 82.8324C41.0888 82.5909 40.7763 82.4702 40.4155 82.4702C39.8729 82.4702 39.4439 82.7401 39.1286 83.2798C38.8132 83.8168 38.6541 84.6051 38.6513 85.6449C38.6484 86.3409 38.718 86.9261 38.8601 87.4006C39.005 87.875 39.2095 88.233 39.4737 88.4744C39.7379 88.7131 40.0518 88.8324 40.4155 88.8324Z" fill="black"/>
    <path d="M26.9698 229.273V238H25.3888V230.811H25.3377L23.2965 232.115V230.666L25.4656 229.273H26.9698Z" fill="black"/>
    <path d="M27.9798 339.722C27.0442 339.722 26.2411 339.485 25.5707 339.011C24.904 338.534 24.3907 337.847 24.0309 336.949C23.6748 336.047 23.4968 334.962 23.4968 333.693C23.5006 332.424 23.6805 331.345 24.0366 330.455C24.3964 329.561 24.9097 328.879 25.5763 328.409C26.2468 327.939 27.0479 327.705 27.9798 327.705C28.9116 327.705 29.7127 327.939 30.3832 328.409C31.0536 328.879 31.5669 329.561 31.9229 330.455C32.2828 331.348 32.4627 332.428 32.4627 333.693C32.4627 334.966 32.2828 336.053 31.9229 336.955C31.5669 337.852 31.0536 338.538 30.3832 339.011C29.7165 339.485 28.9154 339.722 27.9798 339.722ZM27.9798 337.943C28.707 337.943 29.2809 337.585 29.7013 336.869C30.1256 336.15 30.3377 335.091 30.3377 333.693C30.3377 332.769 30.2411 331.992 30.0479 331.364C29.8548 330.735 29.582 330.261 29.2298 329.943C28.8775 329.621 28.4608 329.46 27.9798 329.46C27.2563 329.46 26.6843 329.82 26.2638 330.54C25.8434 331.256 25.6313 332.307 25.6275 333.693C25.6237 334.621 25.7165 335.402 25.9059 336.034C26.0991 336.667 26.3718 337.144 26.7241 337.466C27.0763 337.784 27.4949 337.943 27.9798 337.943Z" fill="black"/>
    <path d="M0.644531 12H430.645" stroke="#5E2DE8" stroke-width="4"/>
    <path d="M55 234L433.5 234" stroke="#AFAFAF" stroke-width="1.5" stroke-dasharray="3 3"/>
    <circle cx="430" cy="234" r="6" fill="#AFAFAF"/>
    <path d="M1.6441 9.99998L1.64409 309L531 309" stroke="#758987" stroke-width="2"/>
    <circle cx="435.645" cy="12" r="12" fill="#5E2DE8"/>
    <circle cx="432.645" cy="94" r="6" fill="#C0AAFF"/>
    <circle cx="429.645" cy="197" r="6" fill="#C0AAFF"/>
    <path d="M461.444 16V8.72727H466.003V9.67188H462.541V11.8878H465.765V12.8288H462.541V15.0554H466.046V16H461.444ZM469.93 10.5455V11.3977H466.95V10.5455H469.93ZM467.749 9.23864H468.811V14.3984C468.811 14.6044 468.842 14.7595 468.904 14.8636C468.965 14.9654 469.044 15.0353 469.142 15.0732C469.241 15.1087 469.349 15.1264 469.465 15.1264C469.55 15.1264 469.624 15.1205 469.688 15.1087C469.752 15.0968 469.802 15.0874 469.838 15.0803L470.029 15.9574C469.968 15.9811 469.88 16.0047 469.767 16.0284C469.653 16.0545 469.511 16.0687 469.34 16.071C469.061 16.0758 468.801 16.026 468.559 15.9219C468.318 15.8177 468.122 15.6567 467.973 15.4389C467.824 15.2211 467.749 14.9477 467.749 14.6186V9.23864ZM472.283 12.7614V16H471.222V8.72727H472.269V11.4332H472.337C472.464 11.1397 472.66 10.9065 472.923 10.7337C473.185 10.5608 473.529 10.4744 473.952 10.4744C474.326 10.4744 474.653 10.5514 474.933 10.7053C475.214 10.8591 475.432 11.0888 475.586 11.3942C475.742 11.6972 475.82 12.076 475.82 12.5305V16H474.759V12.6584C474.759 12.2583 474.656 11.9482 474.45 11.728C474.244 11.5054 473.957 11.3942 473.59 11.3942C473.339 11.3942 473.114 11.4474 472.915 11.554C472.719 11.6605 472.564 11.8168 472.45 12.0227C472.339 12.2263 472.283 12.4725 472.283 12.7614ZM481.289 10.6378C481.251 10.3016 481.095 10.0412 480.82 9.85653C480.546 9.66951 480.2 9.57599 479.783 9.57599C479.485 9.57599 479.227 9.62334 479.009 9.71804C478.791 9.81037 478.622 9.93821 478.501 10.1016C478.383 10.2625 478.324 10.446 478.324 10.652C478.324 10.8248 478.364 10.974 478.445 11.0994C478.527 11.2249 478.635 11.3303 478.768 11.4155C478.903 11.4983 479.047 11.5682 479.201 11.625C479.355 11.6795 479.503 11.7244 479.645 11.7599L480.355 11.9446C480.587 12.0014 480.825 12.0784 481.069 12.1754C481.313 12.2725 481.539 12.4003 481.747 12.5589C481.955 12.7176 482.124 12.9141 482.251 13.1484C482.382 13.3828 482.447 13.6634 482.447 13.9901C482.447 14.402 482.34 14.7678 482.127 15.0874C481.916 15.407 481.61 15.6591 481.207 15.8438C480.807 16.0284 480.323 16.1207 479.755 16.1207C479.21 16.1207 478.739 16.0343 478.342 15.8615C477.944 15.6887 477.633 15.4437 477.408 15.1264C477.183 14.8068 477.058 14.428 477.035 13.9901H478.136C478.157 14.2528 478.242 14.4718 478.391 14.647C478.543 14.8198 478.736 14.9489 478.97 15.0341C479.207 15.117 479.466 15.1584 479.748 15.1584C480.058 15.1584 480.334 15.1098 480.575 15.0128C480.819 14.9134 481.011 14.776 481.151 14.6009C481.29 14.4233 481.36 14.2161 481.36 13.9794C481.36 13.764 481.299 13.5876 481.175 13.4503C481.055 13.313 480.89 13.1993 480.682 13.1094C480.476 13.0194 480.243 12.9401 479.982 12.8714L479.123 12.6371C478.54 12.4785 478.079 12.2453 477.738 11.9375C477.399 11.6297 477.23 11.2225 477.23 10.7159C477.23 10.2969 477.344 9.93111 477.571 9.61861C477.798 9.30611 478.106 9.06345 478.494 8.89062C478.883 8.71544 479.321 8.62784 479.808 8.62784C480.301 8.62784 480.735 8.71425 481.112 8.88707C481.49 9.0599 481.789 9.29782 482.006 9.60085C482.224 9.90151 482.338 10.2472 482.347 10.6378H481.289ZM486.219 10.5455V11.3977H483.24V10.5455H486.219ZM484.039 9.23864H485.1V14.3984C485.1 14.6044 485.131 14.7595 485.193 14.8636C485.254 14.9654 485.334 15.0353 485.431 15.0732C485.53 15.1087 485.638 15.1264 485.754 15.1264C485.839 15.1264 485.914 15.1205 485.977 15.1087C486.041 15.0968 486.091 15.0874 486.127 15.0803L486.318 15.9574C486.257 15.9811 486.169 16.0047 486.056 16.0284C485.942 16.0545 485.8 16.0687 485.629 16.071C485.35 16.0758 485.09 16.026 484.848 15.9219C484.607 15.8177 484.411 15.6567 484.262 15.4389C484.113 15.2211 484.039 14.9477 484.039 14.6186V9.23864ZM489.632 16.1101C489.121 16.1101 488.675 15.9929 488.294 15.7585C487.913 15.5241 487.617 15.1963 487.406 14.7749C487.195 14.3535 487.09 13.861 487.09 13.2976C487.09 12.7318 487.195 12.237 487.406 11.8132C487.617 11.3894 487.913 11.0604 488.294 10.826C488.675 10.5916 489.121 10.4744 489.632 10.4744C490.144 10.4744 490.59 10.5916 490.971 10.826C491.352 11.0604 491.648 11.3894 491.859 11.8132C492.07 12.237 492.175 12.7318 492.175 13.2976C492.175 13.861 492.07 14.3535 491.859 14.7749C491.648 15.1963 491.352 15.5241 490.971 15.7585C490.59 15.9929 490.144 16.1101 489.632 16.1101ZM489.636 15.2188C489.967 15.2188 490.242 15.1312 490.46 14.956C490.678 14.7808 490.839 14.5476 490.943 14.2564C491.049 13.9652 491.103 13.6444 491.103 13.294C491.103 12.946 491.049 12.6264 490.943 12.3352C490.839 12.0417 490.678 11.8061 490.46 11.6286C490.242 11.451 489.967 11.3622 489.636 11.3622C489.302 11.3622 489.025 11.451 488.805 11.6286C488.587 11.8061 488.425 12.0417 488.319 12.3352C488.214 12.6264 488.162 12.946 488.162 13.294C488.162 13.6444 488.214 13.9652 488.319 14.2564C488.425 14.5476 488.587 14.7808 488.805 14.956C489.025 15.1312 489.302 15.2188 489.636 15.2188ZM493.36 16V10.5455H494.387V11.4119H494.443C494.543 11.1184 494.718 10.8875 494.969 10.7195C495.222 10.549 495.509 10.4638 495.828 10.4638C495.895 10.4638 495.973 10.4661 496.063 10.4709C496.155 10.4756 496.227 10.4815 496.279 10.4886V11.5043C496.237 11.4924 496.161 11.4794 496.052 11.4652C495.943 11.4486 495.834 11.4403 495.725 11.4403C495.474 11.4403 495.251 11.4936 495.054 11.6001C494.86 11.7043 494.706 11.8499 494.593 12.0369C494.479 12.2216 494.422 12.4323 494.422 12.669V16H493.36ZM498.737 16.1207C498.391 16.1207 498.079 16.0568 497.799 15.929C497.52 15.7988 497.298 15.6106 497.135 15.3643C496.974 15.1181 496.894 14.8163 496.894 14.4588C496.894 14.151 496.953 13.8977 497.071 13.6989C497.19 13.5 497.349 13.3426 497.551 13.2266C497.752 13.1106 497.977 13.023 498.225 12.9638C498.474 12.9046 498.727 12.8596 498.985 12.8288C499.312 12.791 499.577 12.7602 499.781 12.7365C499.984 12.7105 500.132 12.669 500.225 12.6122C500.317 12.5554 500.363 12.4631 500.363 12.3352V12.3104C500.363 12.0002 500.276 11.7599 500.1 11.5895C499.927 11.419 499.669 11.3338 499.326 11.3338C498.969 11.3338 498.687 11.4131 498.481 11.5717C498.277 11.728 498.137 11.902 498.058 12.0938L497.061 11.8665C497.179 11.535 497.352 11.2675 497.579 11.0639C497.809 10.858 498.073 10.7088 498.371 10.6165C498.669 10.5218 498.983 10.4744 499.312 10.4744C499.53 10.4744 499.761 10.5005 500.004 10.5526C500.251 10.6023 500.48 10.6946 500.693 10.8295C500.909 10.9645 501.085 11.1574 501.222 11.4084C501.36 11.657 501.428 11.9801 501.428 12.3778V16H500.392V15.2543H500.349C500.28 15.3916 500.177 15.5265 500.04 15.6591C499.903 15.7917 499.726 15.9018 499.511 15.9893C499.295 16.0769 499.037 16.1207 498.737 16.1207ZM498.968 15.2685C499.261 15.2685 499.512 15.2105 499.72 15.0945C499.931 14.9785 500.091 14.8269 500.2 14.6399C500.311 14.4505 500.367 14.2481 500.367 14.0327V13.3295C500.329 13.3674 500.255 13.4029 500.146 13.4361C500.04 13.4669 499.918 13.4941 499.781 13.5178C499.643 13.5391 499.51 13.5592 499.379 13.5781C499.249 13.5947 499.14 13.6089 499.053 13.6207C498.847 13.6468 498.659 13.6906 498.488 13.7521C498.32 13.8137 498.185 13.9025 498.083 14.0185C497.984 14.1321 497.934 14.2836 497.934 14.473C497.934 14.7358 498.031 14.9347 498.225 15.0696C498.419 15.2022 498.667 15.2685 498.968 15.2685ZM505.13 18.1591C504.696 18.1591 504.324 18.1023 504.011 17.9886C503.701 17.875 503.448 17.7247 503.251 17.5376C503.055 17.3506 502.908 17.1458 502.811 16.9233L503.723 16.5469C503.787 16.651 503.873 16.7611 503.979 16.8771C504.088 16.9955 504.235 17.0961 504.419 17.179C504.606 17.2618 504.847 17.3033 505.14 17.3033C505.543 17.3033 505.875 17.205 506.138 17.0085C506.401 16.8144 506.532 16.5043 506.532 16.0781V15.0057H506.465C506.401 15.1217 506.309 15.2507 506.188 15.3928C506.069 15.5348 505.906 15.6579 505.698 15.7621C505.489 15.8662 505.218 15.9183 504.885 15.9183C504.454 15.9183 504.065 15.8177 503.72 15.6165C503.377 15.4129 503.104 15.1134 502.903 14.718C502.704 14.3203 502.605 13.8314 502.605 13.2514C502.605 12.6714 502.703 12.1742 502.9 11.7599C503.098 11.3456 503.371 11.0284 503.716 10.8082C504.062 10.5857 504.454 10.4744 504.892 10.4744C505.23 10.4744 505.504 10.5312 505.712 10.6449C505.92 10.7562 506.083 10.8864 506.199 11.0355C506.317 11.1847 506.408 11.3161 506.472 11.4297H506.55V10.5455H507.591V16.1207C507.591 16.5895 507.482 16.9742 507.264 17.2749C507.046 17.5755 506.751 17.7981 506.38 17.9425C506.01 18.0869 505.594 18.1591 505.13 18.1591ZM505.119 15.0376C505.424 15.0376 505.682 14.9666 505.893 14.8246C506.106 14.6802 506.267 14.4742 506.376 14.2067C506.487 13.9368 506.543 13.6136 506.543 13.2372C506.543 12.8703 506.489 12.5471 506.38 12.2678C506.271 11.9884 506.111 11.7706 505.9 11.6143C505.69 11.4557 505.429 11.3764 505.119 11.3764C504.799 11.3764 504.533 11.4593 504.32 11.625C504.107 11.7884 503.946 12.0109 503.837 12.2926C503.73 12.5743 503.677 12.8892 503.677 13.2372C503.677 13.5947 503.732 13.9084 503.841 14.1783C503.949 14.4482 504.11 14.6589 504.324 14.8104C504.539 14.9619 504.804 15.0376 505.119 15.0376ZM511.365 16.1101C510.828 16.1101 510.365 15.9953 509.977 15.7656C509.591 15.5336 509.293 15.2081 509.082 14.7891C508.874 14.3677 508.77 13.8741 508.77 13.3082C508.77 12.7495 508.874 12.2571 509.082 11.831C509.293 11.4048 509.586 11.0722 509.963 10.8331C510.342 10.594 510.784 10.4744 511.291 10.4744C511.599 10.4744 511.897 10.5253 512.186 10.6271C512.475 10.7289 512.734 10.8887 512.963 11.1065C513.193 11.3243 513.374 11.6072 513.507 11.9553C513.639 12.3009 513.706 12.7211 513.706 13.2159V13.5923H509.37V12.7969H512.665C512.665 12.5175 512.608 12.2701 512.495 12.0547C512.381 11.8369 512.221 11.6652 512.015 11.5398C511.812 11.4143 511.573 11.3516 511.298 11.3516C511 11.3516 510.739 11.425 510.517 11.5717C510.297 11.7161 510.126 11.9055 510.005 12.1399C509.887 12.3719 509.828 12.6241 509.828 12.8963V13.5178C509.828 13.8823 509.892 14.1925 510.02 14.4482C510.15 14.7038 510.331 14.8991 510.563 15.0341C510.795 15.1667 511.066 15.233 511.376 15.233C511.577 15.233 511.761 15.2045 511.926 15.1477C512.092 15.0885 512.235 15.0009 512.356 14.8849C512.477 14.7689 512.569 14.6257 512.633 14.4553L513.638 14.6364C513.558 14.9323 513.413 15.1915 513.205 15.4141C512.999 15.6342 512.74 15.8059 512.427 15.929C512.117 16.0497 511.763 16.1101 511.365 16.1101ZM523.656 11.0923H522.548C522.505 10.8556 522.426 10.6473 522.31 10.4673C522.194 10.2874 522.052 10.1347 521.884 10.0092C521.716 9.88376 521.528 9.78906 521.319 9.72514C521.113 9.66122 520.894 9.62926 520.662 9.62926C520.243 9.62926 519.868 9.73461 519.537 9.94531C519.208 10.156 518.947 10.465 518.755 10.8722C518.566 11.2794 518.471 11.7765 518.471 12.3636C518.471 12.9555 518.566 13.455 518.755 13.8622C518.947 14.2694 519.209 14.5772 519.54 14.7855C519.872 14.9938 520.244 15.098 520.659 15.098C520.888 15.098 521.106 15.0672 521.312 15.0057C521.52 14.9418 521.709 14.8482 521.877 14.7251C522.045 14.602 522.187 14.4517 522.303 14.2741C522.421 14.0942 522.503 13.8883 522.548 13.6562L523.656 13.6598C523.597 14.0173 523.482 14.3464 523.311 14.647C523.143 14.9453 522.927 15.2034 522.662 15.4212C522.399 15.6366 522.098 15.8035 521.76 15.9219C521.421 16.0402 521.052 16.0994 520.652 16.0994C520.022 16.0994 519.461 15.9503 518.968 15.652C518.476 15.3513 518.088 14.9216 517.804 14.3629C517.522 13.8042 517.381 13.1378 517.381 12.3636C517.381 11.5871 517.523 10.9207 517.807 10.3643C518.091 9.80563 518.48 9.37713 518.972 9.07884C519.464 8.77817 520.024 8.62784 520.652 8.62784C521.038 8.62784 521.397 8.68348 521.731 8.79474C522.067 8.90365 522.369 9.06463 522.637 9.2777C522.904 9.4884 523.126 9.74645 523.301 10.0518C523.476 10.3549 523.594 10.7017 523.656 11.0923ZM526.471 16.1207C526.125 16.1207 525.813 16.0568 525.534 15.929C525.254 15.7988 525.033 15.6106 524.869 15.3643C524.709 15.1181 524.628 14.8163 524.628 14.4588C524.628 14.151 524.687 13.8977 524.806 13.6989C524.924 13.5 525.084 13.3426 525.285 13.2266C525.486 13.1106 525.711 13.023 525.96 12.9638C526.208 12.9046 526.462 12.8596 526.72 12.8288C527.046 12.791 527.311 12.7602 527.515 12.7365C527.719 12.7105 527.867 12.669 527.959 12.6122C528.051 12.5554 528.097 12.4631 528.097 12.3352V12.3104C528.097 12.0002 528.01 11.7599 527.835 11.5895C527.662 11.419 527.404 11.3338 527.061 11.3338C526.703 11.3338 526.421 11.4131 526.215 11.5717C526.012 11.728 525.871 11.902 525.793 12.0938L524.795 11.8665C524.913 11.535 525.086 11.2675 525.313 11.0639C525.543 10.858 525.807 10.7088 526.105 10.6165C526.404 10.5218 526.717 10.4744 527.046 10.4744C527.264 10.4744 527.495 10.5005 527.739 10.5526C527.985 10.6023 528.215 10.6946 528.428 10.8295C528.643 10.9645 528.82 11.1574 528.957 11.4084C529.094 11.657 529.163 11.9801 529.163 12.3778V16H528.126V15.2543H528.083C528.015 15.3916 527.912 15.5265 527.774 15.6591C527.637 15.7917 527.461 15.9018 527.245 15.9893C527.03 16.0769 526.772 16.1207 526.471 16.1207ZM526.702 15.2685C526.995 15.2685 527.246 15.2105 527.455 15.0945C527.665 14.9785 527.825 14.8269 527.934 14.6399C528.045 14.4505 528.101 14.2481 528.101 14.0327V13.3295C528.063 13.3674 527.99 13.4029 527.881 13.4361C527.774 13.4669 527.652 13.4941 527.515 13.5178C527.378 13.5391 527.244 13.5592 527.114 13.5781C526.984 13.5947 526.875 13.6089 526.787 13.6207C526.581 13.6468 526.393 13.6906 526.222 13.7521C526.054 13.8137 525.919 13.9025 525.818 14.0185C525.718 14.1321 525.669 14.2836 525.669 14.473C525.669 14.7358 525.766 14.9347 525.96 15.0696C526.154 15.2022 526.401 15.2685 526.702 15.2685ZM530.577 18.0455V10.5455H531.614V11.4297H531.703C531.764 11.3161 531.853 11.1847 531.969 11.0355C532.085 10.8864 532.246 10.7562 532.452 10.6449C532.658 10.5312 532.93 10.4744 533.269 10.4744C533.709 10.4744 534.102 10.5857 534.448 10.8082C534.793 11.0308 535.065 11.3516 535.261 11.7706C535.46 12.1896 535.559 12.6939 535.559 13.2834C535.559 13.8729 535.461 14.3783 535.265 14.7997C535.068 15.2187 534.798 15.5419 534.455 15.7692C534.112 15.9941 533.72 16.1065 533.279 16.1065C532.948 16.1065 532.677 16.0509 532.466 15.9396C532.258 15.8284 532.095 15.6982 531.976 15.549C531.858 15.3999 531.767 15.2673 531.703 15.1513H531.639V18.0455H530.577ZM531.618 13.2727C531.618 13.6562 531.673 13.9924 531.784 14.2812C531.896 14.5701 532.057 14.7962 532.267 14.9595C532.478 15.1205 532.736 15.201 533.042 15.201C533.359 15.201 533.624 15.117 533.837 14.9489C534.05 14.7784 534.211 14.5476 534.32 14.2564C534.431 13.9652 534.487 13.6373 534.487 13.2727C534.487 12.9129 534.432 12.5897 534.324 12.3033C534.217 12.0168 534.056 11.7907 533.841 11.625C533.627 11.4593 533.361 11.3764 533.042 11.3764C532.734 11.3764 532.473 11.4557 532.26 11.6143C532.05 11.773 531.89 11.9943 531.781 12.2784C531.672 12.5625 531.618 12.8939 531.618 13.2727ZM538.336 16.1207C537.991 16.1207 537.678 16.0568 537.399 15.929C537.119 15.7988 536.898 15.6106 536.735 15.3643C536.574 15.1181 536.493 14.8163 536.493 14.4588C536.493 14.151 536.552 13.8977 536.671 13.6989C536.789 13.5 536.949 13.3426 537.15 13.2266C537.351 13.1106 537.576 13.023 537.825 12.9638C538.074 12.9046 538.327 12.8596 538.585 12.8288C538.912 12.791 539.177 12.7602 539.38 12.7365C539.584 12.7105 539.732 12.669 539.824 12.6122C539.917 12.5554 539.963 12.4631 539.963 12.3352V12.3104C539.963 12.0002 539.875 11.7599 539.7 11.5895C539.527 11.419 539.269 11.3338 538.926 11.3338C538.568 11.3338 538.287 11.4131 538.081 11.5717C537.877 11.728 537.736 11.902 537.658 12.0938L536.66 11.8665C536.779 11.535 536.951 11.2675 537.179 11.0639C537.408 10.858 537.672 10.7088 537.971 10.6165C538.269 10.5218 538.583 10.4744 538.912 10.4744C539.129 10.4744 539.36 10.5005 539.604 10.5526C539.85 10.6023 540.08 10.6946 540.293 10.8295C540.508 10.9645 540.685 11.1574 540.822 11.4084C540.959 11.657 541.028 11.9801 541.028 12.3778V16H539.991V15.2543H539.949C539.88 15.3916 539.777 15.5265 539.64 15.6591C539.502 15.7917 539.326 15.9018 539.11 15.9893C538.895 16.0769 538.637 16.1207 538.336 16.1207ZM538.567 15.2685C538.861 15.2685 539.112 15.2105 539.32 15.0945C539.531 14.9785 539.69 14.8269 539.799 14.6399C539.911 14.4505 539.966 14.2481 539.966 14.0327V13.3295C539.928 13.3674 539.855 13.4029 539.746 13.4361C539.64 13.4669 539.518 13.4941 539.38 13.5178C539.243 13.5391 539.109 13.5592 538.979 13.5781C538.849 13.5947 538.74 13.6089 538.652 13.6207C538.446 13.6468 538.258 13.6906 538.088 13.7521C537.92 13.8137 537.785 13.9025 537.683 14.0185C537.583 14.1321 537.534 14.2836 537.534 14.473C537.534 14.7358 537.631 14.9347 537.825 15.0696C538.019 15.2022 538.266 15.2685 538.567 15.2685ZM544.74 16.1101C544.212 16.1101 543.757 15.9905 543.376 15.7514C542.997 15.5099 542.706 15.1773 542.503 14.7536C542.299 14.3298 542.197 13.8445 542.197 13.2976C542.197 12.7436 542.301 12.2547 542.51 11.831C542.718 11.4048 543.012 11.0722 543.39 10.8331C543.769 10.594 544.215 10.4744 544.729 10.4744C545.144 10.4744 545.513 10.5514 545.837 10.7053C546.162 10.8568 546.423 11.0698 546.622 11.3445C546.823 11.6191 546.943 11.9399 546.981 12.3068H545.947C545.89 12.0511 545.76 11.831 545.557 11.6463C545.355 11.4616 545.086 11.3693 544.747 11.3693C544.451 11.3693 544.192 11.4474 543.969 11.6037C543.749 11.7576 543.577 11.9777 543.454 12.2642C543.331 12.5483 543.27 12.8845 543.27 13.2727C543.27 13.6705 543.33 14.0137 543.451 14.3026C543.572 14.5914 543.742 14.8151 543.962 14.9737C544.185 15.1323 544.446 15.2116 544.747 15.2116C544.948 15.2116 545.131 15.175 545.294 15.1016C545.46 15.0258 545.598 14.9181 545.709 14.7784C545.823 14.6387 545.902 14.4706 545.947 14.2741H546.981C546.943 14.6269 546.828 14.9418 546.636 15.2188C546.444 15.4957 546.188 15.7135 545.866 15.8722C545.546 16.0308 545.171 16.1101 544.74 16.1101ZM548.116 16V10.5455H549.178V16H548.116ZM548.652 9.70384C548.468 9.70384 548.309 9.64228 548.176 9.51918C548.046 9.3937 547.981 9.24455 547.981 9.07173C547.981 8.89654 548.046 8.7474 548.176 8.62429C548.309 8.49882 548.468 8.43608 548.652 8.43608C548.837 8.43608 548.994 8.49882 549.125 8.62429C549.257 8.7474 549.324 8.89654 549.324 9.07173C549.324 9.24455 549.257 9.3937 549.125 9.51918C548.994 9.64228 548.837 9.70384 548.652 9.70384ZM553.153 10.5455V11.3977H550.173V10.5455H553.153ZM550.972 9.23864H552.034V14.3984C552.034 14.6044 552.065 14.7595 552.126 14.8636C552.188 14.9654 552.267 15.0353 552.364 15.0732C552.464 15.1087 552.571 15.1264 552.687 15.1264C552.773 15.1264 552.847 15.1205 552.911 15.1087C552.975 15.0968 553.025 15.0874 553.06 15.0803L553.252 15.9574C553.19 15.9811 553.103 16.0047 552.989 16.0284C552.876 16.0545 552.733 16.0687 552.563 16.071C552.284 16.0758 552.023 16.026 551.782 15.9219C551.54 15.8177 551.345 15.6567 551.196 15.4389C551.047 15.2211 550.972 14.9477 550.972 14.6186V9.23864ZM554.998 18.0455C554.84 18.0455 554.695 18.0324 554.565 18.0064C554.435 17.9827 554.338 17.9567 554.274 17.9283L554.529 17.0582C554.724 17.1103 554.896 17.1328 555.048 17.1257C555.199 17.1186 555.333 17.0618 555.449 16.9553C555.568 16.8487 555.672 16.6747 555.762 16.4332L555.893 16.071L553.897 10.5455H555.034L556.415 14.7784H556.472L557.853 10.5455H558.993L556.745 16.728C556.641 17.0121 556.509 17.2524 556.348 17.4489C556.187 17.6477 555.995 17.7969 555.772 17.8963C555.55 17.9957 555.292 18.0455 554.998 18.0455Z" fill="black"/>
    <path d="M467.484 232.092H466.376C466.333 231.856 466.254 231.647 466.138 231.467C466.022 231.287 465.88 231.135 465.712 231.009C465.544 230.884 465.356 230.789 465.147 230.725C464.941 230.661 464.722 230.629 464.49 230.629C464.071 230.629 463.696 230.735 463.365 230.945C463.036 231.156 462.775 231.465 462.583 231.872C462.394 232.279 462.299 232.777 462.299 233.364C462.299 233.955 462.394 234.455 462.583 234.862C462.775 235.269 463.037 235.577 463.368 235.786C463.7 235.994 464.073 236.098 464.487 236.098C464.717 236.098 464.934 236.067 465.14 236.006C465.349 235.942 465.537 235.848 465.705 235.725C465.873 235.602 466.015 235.452 466.131 235.274C466.249 235.094 466.331 234.888 466.376 234.656L467.484 234.66C467.425 235.017 467.31 235.346 467.14 235.647C466.971 235.945 466.755 236.203 466.49 236.421C466.227 236.637 465.926 236.804 465.588 236.922C465.249 237.04 464.88 237.099 464.48 237.099C463.85 237.099 463.289 236.95 462.797 236.652C462.304 236.351 461.916 235.922 461.632 235.363C461.35 234.804 461.209 234.138 461.209 233.364C461.209 232.587 461.351 231.921 461.635 231.364C461.919 230.806 462.308 230.377 462.8 230.079C463.292 229.778 463.852 229.628 464.48 229.628C464.866 229.628 465.225 229.683 465.559 229.795C465.895 229.904 466.197 230.065 466.465 230.278C466.732 230.488 466.954 230.746 467.129 231.052C467.304 231.355 467.422 231.702 467.484 232.092ZM472.167 234.738V231.545H473.232V237H472.188V236.055H472.132C472.006 236.347 471.805 236.589 471.528 236.783C471.253 236.975 470.911 237.071 470.502 237.071C470.151 237.071 469.841 236.994 469.571 236.84C469.304 236.684 469.093 236.453 468.939 236.148C468.788 235.842 468.712 235.465 468.712 235.015V231.545H469.774V234.887C469.774 235.259 469.877 235.555 470.083 235.775C470.289 235.995 470.556 236.105 470.885 236.105C471.084 236.105 471.282 236.055 471.478 235.956C471.677 235.857 471.842 235.706 471.972 235.505C472.104 235.304 472.169 235.048 472.167 234.738ZM474.659 237V231.545H475.685V232.412H475.742C475.842 232.118 476.017 231.888 476.268 231.719C476.521 231.549 476.808 231.464 477.127 231.464C477.193 231.464 477.272 231.466 477.362 231.471C477.454 231.476 477.526 231.482 477.578 231.489V232.504C477.536 232.492 477.46 232.479 477.351 232.465C477.242 232.449 477.133 232.44 477.024 232.44C476.773 232.44 476.549 232.494 476.353 232.6C476.159 232.704 476.005 232.85 475.891 233.037C475.778 233.222 475.721 233.432 475.721 233.669V237H474.659ZM478.497 237V231.545H479.523V232.412H479.58C479.68 232.118 479.855 231.888 480.106 231.719C480.359 231.549 480.645 231.464 480.965 231.464C481.031 231.464 481.109 231.466 481.199 231.471C481.292 231.476 481.364 231.482 481.416 231.489V232.504C481.373 232.492 481.298 232.479 481.189 232.465C481.08 232.449 480.971 232.44 480.862 232.44C480.611 232.44 480.387 232.494 480.191 232.6C479.997 232.704 479.843 232.85 479.729 233.037C479.616 233.222 479.559 233.432 479.559 233.669V237H478.497ZM484.49 237.11C483.953 237.11 483.49 236.995 483.102 236.766C482.716 236.534 482.418 236.208 482.207 235.789C481.999 235.368 481.895 234.874 481.895 234.308C481.895 233.75 481.999 233.257 482.207 232.831C482.418 232.405 482.711 232.072 483.088 231.833C483.467 231.594 483.909 231.474 484.416 231.474C484.724 231.474 485.022 231.525 485.311 231.627C485.6 231.729 485.859 231.889 486.088 232.107C486.318 232.324 486.499 232.607 486.632 232.955C486.764 233.301 486.831 233.721 486.831 234.216V234.592H482.495V233.797H485.79C485.79 233.518 485.733 233.27 485.62 233.055C485.506 232.837 485.346 232.665 485.14 232.54C484.937 232.414 484.698 232.352 484.423 232.352C484.125 232.352 483.864 232.425 483.642 232.572C483.422 232.716 483.251 232.906 483.13 233.14C483.012 233.372 482.953 233.624 482.953 233.896V234.518C482.953 234.882 483.017 235.192 483.145 235.448C483.275 235.704 483.456 235.899 483.688 236.034C483.92 236.167 484.191 236.233 484.501 236.233C484.702 236.233 484.886 236.205 485.051 236.148C485.217 236.089 485.36 236.001 485.481 235.885C485.602 235.769 485.694 235.626 485.758 235.455L486.763 235.636C486.683 235.932 486.538 236.192 486.33 236.414C486.124 236.634 485.865 236.806 485.552 236.929C485.242 237.05 484.888 237.11 484.49 237.11ZM489.07 233.761V237H488.009V231.545H489.028V232.433H489.095C489.221 232.144 489.417 231.912 489.685 231.737C489.955 231.562 490.294 231.474 490.704 231.474C491.076 231.474 491.401 231.553 491.681 231.709C491.96 231.863 492.177 232.092 492.33 232.398C492.484 232.703 492.561 233.081 492.561 233.531V237H491.499V233.658C491.499 233.263 491.396 232.954 491.191 232.732C490.985 232.507 490.702 232.394 490.342 232.394C490.096 232.394 489.877 232.447 489.685 232.554C489.495 232.661 489.345 232.817 489.234 233.023C489.125 233.226 489.07 233.473 489.07 233.761ZM496.531 231.545V232.398H493.552V231.545H496.531ZM494.351 230.239H495.413V235.398C495.413 235.604 495.444 235.759 495.505 235.864C495.567 235.965 495.646 236.035 495.743 236.073C495.843 236.109 495.95 236.126 496.066 236.126C496.151 236.126 496.226 236.121 496.29 236.109C496.354 236.097 496.404 236.087 496.439 236.08L496.631 236.957C496.569 236.981 496.482 237.005 496.368 237.028C496.254 237.054 496.112 237.069 495.942 237.071C495.663 237.076 495.402 237.026 495.161 236.922C494.919 236.818 494.724 236.657 494.575 236.439C494.426 236.221 494.351 235.948 494.351 235.619V230.239ZM500.438 237V229.727H504.997V230.672H501.535V232.888H504.759V233.829H501.535V236.055H505.04V237H500.438ZM506.104 230.672V229.727H511.733V230.672H509.464V237H508.37V230.672H506.104ZM512.977 237V229.727H514.074V232.888H517.7V229.727H518.801V237H517.7V233.829H514.074V237H512.977ZM528.915 229.727V237H527.907L524.21 231.666H524.142V237H523.045V229.727H524.061L527.761 235.068H527.828V229.727H528.915ZM532.728 237.11C532.217 237.11 531.771 236.993 531.389 236.759C531.008 236.524 530.712 236.196 530.502 235.775C530.291 235.353 530.186 234.861 530.186 234.298C530.186 233.732 530.291 233.237 530.502 232.813C530.712 232.389 531.008 232.06 531.389 231.826C531.771 231.592 532.217 231.474 532.728 231.474C533.24 231.474 533.686 231.592 534.067 231.826C534.448 232.06 534.744 232.389 534.955 232.813C535.165 233.237 535.271 233.732 535.271 234.298C535.271 234.861 535.165 235.353 534.955 235.775C534.744 236.196 534.448 236.524 534.067 236.759C533.686 236.993 533.24 237.11 532.728 237.11ZM532.732 236.219C533.063 236.219 533.338 236.131 533.556 235.956C533.773 235.781 533.934 235.548 534.039 235.256C534.145 234.965 534.198 234.644 534.198 234.294C534.198 233.946 534.145 233.626 534.039 233.335C533.934 233.042 533.773 232.806 533.556 232.629C533.338 232.451 533.063 232.362 532.732 232.362C532.398 232.362 532.121 232.451 531.901 232.629C531.683 232.806 531.521 233.042 531.414 233.335C531.31 233.626 531.258 233.946 531.258 234.294C531.258 234.644 531.31 234.965 531.414 235.256C531.521 235.548 531.683 235.781 531.901 235.956C532.121 236.131 532.398 236.219 532.732 236.219ZM538.498 237.107C538.058 237.107 537.665 236.994 537.319 236.769C536.976 236.542 536.706 236.219 536.509 235.8C536.315 235.378 536.218 234.873 536.218 234.283C536.218 233.694 536.316 233.19 536.513 232.771C536.712 232.352 536.984 232.031 537.33 231.808C537.675 231.586 538.067 231.474 538.505 231.474C538.844 231.474 539.116 231.531 539.322 231.645C539.53 231.756 539.691 231.886 539.805 232.036C539.921 232.185 540.011 232.316 540.075 232.43H540.138V229.727H541.2V237H540.163V236.151H540.075C540.011 236.267 539.918 236.4 539.798 236.549C539.679 236.698 539.516 236.828 539.308 236.94C539.099 237.051 538.829 237.107 538.498 237.107ZM538.732 236.201C539.038 236.201 539.296 236.121 539.506 235.96C539.719 235.796 539.88 235.57 539.989 235.281C540.101 234.992 540.156 234.656 540.156 234.273C540.156 233.894 540.102 233.562 539.993 233.278C539.884 232.994 539.724 232.773 539.513 232.614C539.303 232.456 539.042 232.376 538.732 232.376C538.413 232.376 538.146 232.459 537.933 232.625C537.72 232.791 537.559 233.017 537.45 233.303C537.344 233.59 537.29 233.913 537.29 234.273C537.29 234.637 537.345 234.965 537.454 235.256C537.563 235.548 537.724 235.778 537.937 235.949C538.152 236.117 538.417 236.201 538.732 236.201ZM545.067 237.11C544.529 237.11 544.066 236.995 543.678 236.766C543.292 236.534 542.994 236.208 542.783 235.789C542.575 235.368 542.471 234.874 542.471 234.308C542.471 233.75 542.575 233.257 542.783 232.831C542.994 232.405 543.287 232.072 543.664 231.833C544.043 231.594 544.485 231.474 544.992 231.474C545.3 231.474 545.598 231.525 545.887 231.627C546.176 231.729 546.435 231.889 546.665 232.107C546.894 232.324 547.075 232.607 547.208 232.955C547.34 233.301 547.407 233.721 547.407 234.216V234.592H543.071V233.797H546.366C546.366 233.518 546.309 233.27 546.196 233.055C546.082 232.837 545.922 232.665 545.716 232.54C545.513 232.414 545.274 232.352 544.999 232.352C544.701 232.352 544.44 232.425 544.218 232.572C543.998 232.716 543.827 232.906 543.706 233.14C543.588 233.372 543.529 233.624 543.529 233.896V234.518C543.529 234.882 543.593 235.192 543.721 235.448C543.851 235.704 544.032 235.899 544.264 236.034C544.496 236.167 544.767 236.233 545.077 236.233C545.278 236.233 545.462 236.205 545.628 236.148C545.793 236.089 545.937 236.001 546.057 235.885C546.178 235.769 546.27 235.626 546.334 235.455L547.339 235.636C547.259 235.932 547.114 236.192 546.906 236.414C546.7 236.634 546.441 236.806 546.128 236.929C545.818 237.05 545.464 237.11 545.067 237.11ZM557.357 232.092H556.249C556.206 231.856 556.127 231.647 556.011 231.467C555.895 231.287 555.753 231.135 555.585 231.009C555.417 230.884 555.229 230.789 555.02 230.725C554.814 230.661 554.595 230.629 554.363 230.629C553.944 230.629 553.569 230.735 553.238 230.945C552.909 231.156 552.648 231.465 552.456 231.872C552.267 232.279 552.172 232.777 552.172 233.364C552.172 233.955 552.267 234.455 552.456 234.862C552.648 235.269 552.91 235.577 553.241 235.786C553.573 235.994 553.946 236.098 554.36 236.098C554.59 236.098 554.807 236.067 555.013 236.006C555.222 235.942 555.41 235.848 555.578 235.725C555.746 235.602 555.888 235.452 556.004 235.274C556.122 235.094 556.204 234.888 556.249 234.656L557.357 234.66C557.298 235.017 557.183 235.346 557.013 235.647C556.845 235.945 556.628 236.203 556.363 236.421C556.1 236.637 555.799 236.804 555.461 236.922C555.122 237.04 554.753 237.099 554.353 237.099C553.723 237.099 553.162 236.95 552.67 236.652C552.177 236.351 551.789 235.922 551.505 235.363C551.223 234.804 551.082 234.138 551.082 233.364C551.082 232.587 551.224 231.921 551.508 231.364C551.792 230.806 552.181 230.377 552.673 230.079C553.166 229.778 553.725 229.628 554.353 229.628C554.739 229.628 555.099 229.683 555.432 229.795C555.769 229.904 556.07 230.065 556.338 230.278C556.605 230.488 556.827 230.746 557.002 231.052C557.177 231.355 557.296 231.702 557.357 232.092ZM560.172 237.121C559.827 237.121 559.514 237.057 559.235 236.929C558.955 236.799 558.734 236.611 558.571 236.364C558.41 236.118 558.329 235.816 558.329 235.459C558.329 235.151 558.388 234.898 558.507 234.699C558.625 234.5 558.785 234.343 558.986 234.227C559.187 234.111 559.412 234.023 559.661 233.964C559.909 233.905 560.163 233.86 560.421 233.829C560.748 233.791 561.013 233.76 561.216 233.737C561.42 233.71 561.568 233.669 561.66 233.612C561.752 233.555 561.799 233.463 561.799 233.335V233.31C561.799 233 561.711 232.76 561.536 232.589C561.363 232.419 561.105 232.334 560.762 232.334C560.404 232.334 560.123 232.413 559.917 232.572C559.713 232.728 559.572 232.902 559.494 233.094L558.496 232.866C558.614 232.535 558.787 232.268 559.015 232.064C559.244 231.858 559.508 231.709 559.806 231.616C560.105 231.522 560.418 231.474 560.748 231.474C560.965 231.474 561.196 231.5 561.44 231.553C561.686 231.602 561.916 231.695 562.129 231.83C562.344 231.964 562.521 232.157 562.658 232.408C562.795 232.657 562.864 232.98 562.864 233.378V237H561.827V236.254H561.784C561.716 236.392 561.613 236.527 561.475 236.659C561.338 236.792 561.162 236.902 560.946 236.989C560.731 237.077 560.473 237.121 560.172 237.121ZM560.403 236.268C560.697 236.268 560.948 236.21 561.156 236.094C561.367 235.978 561.526 235.827 561.635 235.64C561.747 235.451 561.802 235.248 561.802 235.033V234.33C561.764 234.367 561.691 234.403 561.582 234.436C561.475 234.467 561.354 234.494 561.216 234.518C561.079 234.539 560.945 234.559 560.815 234.578C560.685 234.595 560.576 234.609 560.488 234.621C560.282 234.647 560.094 234.691 559.924 234.752C559.756 234.814 559.621 234.902 559.519 235.018C559.419 235.132 559.37 235.284 559.37 235.473C559.37 235.736 559.467 235.935 559.661 236.07C559.855 236.202 560.102 236.268 560.403 236.268ZM564.278 239.045V231.545H565.315V232.43H565.404C565.465 232.316 565.554 232.185 565.67 232.036C565.786 231.886 565.947 231.756 566.153 231.645C566.359 231.531 566.631 231.474 566.97 231.474C567.41 231.474 567.803 231.586 568.149 231.808C568.495 232.031 568.766 232.352 568.962 232.771C569.161 233.19 569.26 233.694 569.26 234.283C569.26 234.873 569.162 235.378 568.966 235.8C568.769 236.219 568.499 236.542 568.156 236.769C567.813 236.994 567.421 237.107 566.981 237.107C566.649 237.107 566.378 237.051 566.167 236.94C565.959 236.828 565.796 236.698 565.677 236.549C565.559 236.4 565.468 236.267 565.404 236.151H565.34V239.045H564.278ZM565.319 234.273C565.319 234.656 565.374 234.992 565.486 235.281C565.597 235.57 565.758 235.796 565.969 235.96C566.179 236.121 566.437 236.201 566.743 236.201C567.06 236.201 567.325 236.117 567.538 235.949C567.751 235.778 567.912 235.548 568.021 235.256C568.132 234.965 568.188 234.637 568.188 234.273C568.188 233.913 568.134 233.59 568.025 233.303C567.918 233.017 567.757 232.791 567.542 232.625C567.329 232.459 567.062 232.376 566.743 232.376C566.435 232.376 566.175 232.456 565.961 232.614C565.751 232.773 565.591 232.994 565.482 233.278C565.373 233.562 565.319 233.894 565.319 234.273ZM572.037 237.121C571.692 237.121 571.379 237.057 571.1 236.929C570.821 236.799 570.599 236.611 570.436 236.364C570.275 236.118 570.194 235.816 570.194 235.459C570.194 235.151 570.254 234.898 570.372 234.699C570.49 234.5 570.65 234.343 570.851 234.227C571.053 234.111 571.278 234.023 571.526 233.964C571.775 233.905 572.028 233.86 572.286 233.829C572.613 233.791 572.878 233.76 573.081 233.737C573.285 233.71 573.433 233.669 573.525 233.612C573.618 233.555 573.664 233.463 573.664 233.335V233.31C573.664 233 573.576 232.76 573.401 232.589C573.228 232.419 572.97 232.334 572.627 232.334C572.269 232.334 571.988 232.413 571.782 232.572C571.578 232.728 571.437 232.902 571.359 233.094L570.361 232.866C570.48 232.535 570.653 232.268 570.88 232.064C571.109 231.858 571.373 231.709 571.672 231.616C571.97 231.522 572.284 231.474 572.613 231.474C572.831 231.474 573.061 231.5 573.305 231.553C573.551 231.602 573.781 231.695 573.994 231.83C574.21 231.964 574.386 232.157 574.523 232.408C574.661 232.657 574.729 232.98 574.729 233.378V237H573.692V236.254H573.65C573.581 236.392 573.478 236.527 573.341 236.659C573.203 236.792 573.027 236.902 572.812 236.989C572.596 237.077 572.338 237.121 572.037 237.121ZM572.268 236.268C572.562 236.268 572.813 236.21 573.021 236.094C573.232 235.978 573.392 235.827 573.501 235.64C573.612 235.451 573.667 235.248 573.667 235.033V234.33C573.63 234.367 573.556 234.403 573.447 234.436C573.341 234.467 573.219 234.494 573.081 234.518C572.944 234.539 572.81 234.559 572.68 234.578C572.55 234.595 572.441 234.609 572.354 234.621C572.148 234.647 571.959 234.691 571.789 234.752C571.621 234.814 571.486 234.902 571.384 235.018C571.285 235.132 571.235 235.284 571.235 235.473C571.235 235.736 571.332 235.935 571.526 236.07C571.72 236.202 571.968 236.268 572.268 236.268ZM578.441 237.11C577.913 237.11 577.459 236.991 577.077 236.751C576.699 236.51 576.407 236.177 576.204 235.754C576 235.33 575.898 234.844 575.898 234.298C575.898 233.744 576.003 233.255 576.211 232.831C576.419 232.405 576.713 232.072 577.092 231.833C577.47 231.594 577.917 231.474 578.43 231.474C578.845 231.474 579.214 231.551 579.538 231.705C579.863 231.857 580.124 232.07 580.323 232.344C580.524 232.619 580.644 232.94 580.682 233.307H579.648C579.592 233.051 579.461 232.831 579.258 232.646C579.057 232.462 578.787 232.369 578.448 232.369C578.152 232.369 577.893 232.447 577.67 232.604C577.45 232.758 577.279 232.978 577.156 233.264C577.032 233.548 576.971 233.884 576.971 234.273C576.971 234.67 577.031 235.014 577.152 235.303C577.273 235.591 577.443 235.815 577.663 235.974C577.886 236.132 578.147 236.212 578.448 236.212C578.649 236.212 578.832 236.175 578.995 236.102C579.161 236.026 579.299 235.918 579.411 235.778C579.524 235.639 579.603 235.471 579.648 235.274H580.682C580.644 235.627 580.529 235.942 580.337 236.219C580.146 236.496 579.889 236.714 579.567 236.872C579.247 237.031 578.872 237.11 578.441 237.11ZM581.817 237V231.545H582.879V237H581.817ZM582.354 230.704C582.169 230.704 582.01 230.642 581.878 230.519C581.747 230.394 581.682 230.245 581.682 230.072C581.682 229.897 581.747 229.747 581.878 229.624C582.01 229.499 582.169 229.436 582.354 229.436C582.538 229.436 582.696 229.499 582.826 229.624C582.958 229.747 583.025 229.897 583.025 230.072C583.025 230.245 582.958 230.394 582.826 230.519C582.696 230.642 582.538 230.704 582.354 230.704ZM586.854 231.545V232.398H583.874V231.545H586.854ZM584.673 230.239H585.735V235.398C585.735 235.604 585.766 235.759 585.827 235.864C585.889 235.965 585.968 236.035 586.065 236.073C586.165 236.109 586.272 236.126 586.388 236.126C586.474 236.126 586.548 236.121 586.612 236.109C586.676 236.097 586.726 236.087 586.761 236.08L586.953 236.957C586.892 236.981 586.804 237.005 586.69 237.028C586.577 237.054 586.435 237.069 586.264 237.071C585.985 237.076 585.724 237.026 585.483 236.922C585.241 236.818 585.046 236.657 584.897 236.439C584.748 236.221 584.673 235.948 584.673 235.619V230.239ZM588.699 239.045C588.541 239.045 588.396 239.032 588.266 239.006C588.136 238.983 588.039 238.957 587.975 238.928L588.231 238.058C588.425 238.11 588.598 238.133 588.749 238.126C588.901 238.119 589.034 238.062 589.15 237.955C589.269 237.849 589.373 237.675 589.463 237.433L589.594 237.071L587.599 231.545H588.735L590.116 235.778H590.173L591.555 231.545H592.694L590.447 237.728C590.342 238.012 590.21 238.252 590.049 238.449C589.888 238.648 589.696 238.797 589.474 238.896C589.251 238.996 588.993 239.045 588.699 239.045Z" fill="#000106"/>
    <path d="M464.65 198.42H462.82V201H461.84V193.77H464.65C466.07 193.77 466.98 194.7 466.98 196.09C466.98 197.44 466.06 198.42 464.65 198.42ZM464.48 194.65H462.82V197.54H464.44C465.41 197.54 465.95 196.97 465.95 196.08C465.95 195.17 465.4 194.65 464.48 194.65ZM470.73 196.07V196.93H470.31C469.42 196.93 468.87 197.47 468.87 198.41V201H467.93V196.12H468.81L468.87 196.86C469.07 196.35 469.56 196.01 470.23 196.01C470.4 196.01 470.54 196.03 470.73 196.07ZM471.116 198.55C471.116 197.04 472.196 195.98 473.666 195.98C475.126 195.98 476.206 197.04 476.206 198.55C476.206 200.06 475.126 201.12 473.666 201.12C472.196 201.12 471.116 200.06 471.116 198.55ZM472.066 198.55C472.066 199.57 472.716 200.28 473.666 200.28C474.606 200.28 475.266 199.57 475.266 198.55C475.266 197.53 474.606 196.82 473.666 196.82C472.716 196.82 472.066 197.53 472.066 198.55ZM478.578 201H477.638V196.9H476.678V196.11H477.638V194.58H478.578V196.11H479.538V196.9H478.578V201ZM480.012 198.55C480.012 197.04 481.092 195.98 482.562 195.98C484.022 195.98 485.102 197.04 485.102 198.55C485.102 200.06 484.022 201.12 482.562 201.12C481.092 201.12 480.012 200.06 480.012 198.55ZM480.962 198.55C480.962 199.57 481.612 200.28 482.562 200.28C483.502 200.28 484.162 199.57 484.162 198.55C484.162 197.53 483.502 196.82 482.562 196.82C481.612 196.82 480.962 197.53 480.962 198.55ZM486.093 198.77V197.93H489.143V198.77H486.093ZM493 201H490.61V193.77H492.96C495.12 193.77 496.58 195.23 496.58 197.39C496.58 199.54 495.14 201 493 201ZM492.89 194.67H491.59V200.09H492.93C494.54 200.09 495.56 199.05 495.56 197.39C495.56 195.71 494.54 194.67 492.89 194.67ZM499.096 201.12C498.046 201.12 497.426 200.53 497.426 199.64C497.426 198.74 498.096 198.18 499.246 198.09L500.786 197.97V197.83C500.786 197.01 500.296 196.72 499.636 196.72C498.846 196.72 498.396 197.07 498.396 197.66H497.576C497.576 196.64 498.416 195.97 499.676 195.97C500.886 195.97 501.706 196.61 501.706 197.93V201H500.906L500.806 200.21C500.556 200.77 499.886 201.12 499.096 201.12ZM499.366 200.39C500.256 200.39 500.796 199.81 500.796 198.89V198.63L499.546 198.73C498.716 198.81 498.376 199.13 498.376 199.61C498.376 200.13 498.756 200.39 499.366 200.39ZM503.948 201H503.008V196.11H503.858L503.958 196.86C504.268 196.3 504.888 195.97 505.578 195.97C506.868 195.97 507.458 196.76 507.458 198.01V201H506.518V198.22C506.518 197.23 506.058 196.83 505.338 196.83C504.458 196.83 503.948 197.46 503.948 198.41V201ZM509.72 201H508.78V193.64H509.72V198.41L511.89 196.11H513.07L511.2 198.06L513.06 201H511.98L510.55 198.74L509.72 199.61V201ZM513.468 199.58H514.368C514.368 200.08 514.748 200.38 515.368 200.38C516.028 200.38 516.408 200.11 516.408 199.66C516.408 199.33 516.248 199.13 515.738 199L514.878 198.8C514.008 198.59 513.598 198.16 513.598 197.44C513.598 196.54 514.358 195.97 515.438 195.97C516.508 195.97 517.208 196.57 517.228 197.5H516.328C516.308 197.01 515.978 196.7 515.408 196.7C514.818 196.7 514.488 196.96 514.488 197.41C514.488 197.74 514.728 197.96 515.208 198.08L516.068 198.29C516.898 198.49 517.308 198.87 517.308 199.6C517.308 200.53 516.508 201.12 515.348 201.12C514.198 201.12 513.468 200.51 513.468 199.58ZM519.29 200.99H518.35V193.64H519.29V196.86C519.6 196.33 520.19 195.97 520.95 195.97C522.2 195.97 522.8 196.76 522.8 198.01V201H521.86V198.22C521.86 197.23 521.39 196.83 520.69 196.83C519.78 196.83 519.29 197.49 519.29 198.33V200.99ZM525.532 201.12C524.482 201.12 523.862 200.53 523.862 199.64C523.862 198.74 524.532 198.18 525.682 198.09L527.222 197.97V197.83C527.222 197.01 526.732 196.72 526.072 196.72C525.282 196.72 524.832 197.07 524.832 197.66H524.012C524.012 196.64 524.852 195.97 526.112 195.97C527.322 195.97 528.142 196.61 528.142 197.93V201H527.342L527.242 200.21C526.992 200.77 526.322 201.12 525.532 201.12ZM525.802 200.39C526.692 200.39 527.232 199.81 527.232 198.89V198.63L525.982 198.73C525.152 198.81 524.812 199.13 524.812 199.61C524.812 200.13 525.192 200.39 525.802 200.39ZM532.244 196.07V196.93H531.824C530.934 196.93 530.384 197.47 530.384 198.41V201H529.444V196.12H530.324L530.384 196.86C530.584 196.35 531.074 196.01 531.744 196.01C531.914 196.01 532.054 196.03 532.244 196.07ZM533.585 194.95C533.245 194.95 532.965 194.67 532.965 194.33C532.965 193.98 533.245 193.71 533.585 193.71C533.925 193.71 534.205 193.98 534.205 194.33C534.205 194.67 533.925 194.95 533.585 194.95ZM533.125 201V196.11H534.065V201H533.125ZM536.37 201H535.43V196.11H536.28L536.38 196.86C536.69 196.3 537.31 195.97 538 195.97C539.29 195.97 539.88 196.76 539.88 198.01V201H538.94V198.22C538.94 197.23 538.48 196.83 537.76 196.83C536.88 196.83 536.37 197.46 536.37 198.41V201ZM540.872 198.43C540.872 197.05 541.762 195.97 543.182 195.97C543.972 195.97 544.582 196.33 544.892 196.94L544.962 196.11H545.802V200.8C545.802 202.34 544.852 203.32 543.352 203.32C542.022 203.32 541.112 202.57 540.932 201.33H541.872C541.992 202.05 542.532 202.47 543.352 202.47C544.272 202.47 544.872 201.87 544.872 200.94V199.96C544.552 200.53 543.912 200.87 543.142 200.87C541.752 200.87 540.872 199.8 540.872 198.43ZM541.812 198.41C541.812 199.33 542.382 200.05 543.302 200.05C544.252 200.05 544.832 199.37 544.832 198.41C544.832 197.47 544.272 196.79 543.312 196.79C542.372 196.79 541.812 197.51 541.812 198.41ZM554.553 200.99L549.673 201V200.25L552.003 198.24C553.173 197.23 553.503 196.74 553.503 195.97C553.503 195.06 552.983 194.52 552.113 194.52C551.223 194.52 550.643 195.17 550.623 196.2H549.643C549.673 194.65 550.653 193.64 552.123 193.64C553.573 193.64 554.503 194.52 554.503 195.91C554.503 196.94 553.993 197.67 552.713 198.78L551.213 200.08H554.553V200.99ZM556.433 201.12C556.043 201.12 555.713 200.8 555.713 200.42C555.713 200.03 556.043 199.71 556.433 199.71C556.813 199.71 557.143 200.03 557.143 200.42C557.143 200.8 556.813 201.12 556.433 201.12ZM558.924 196.06L560.614 193.77H561.754L559.944 196.17C560.194 196.07 560.454 196.02 560.704 196.02C562.204 196.02 563.214 197.1 563.214 198.53C563.214 200.04 562.074 201.12 560.584 201.12C559.084 201.12 557.924 199.99 557.924 198.53C557.924 197.67 558.184 197.07 558.924 196.06ZM558.924 198.54C558.924 199.53 559.604 200.24 560.584 200.24C561.544 200.24 562.224 199.53 562.224 198.54C562.224 197.55 561.544 196.85 560.584 196.85C559.604 196.85 558.924 197.55 558.924 198.54ZM563.767 194.67V193.77H569.097V194.67H566.927V201H565.947V194.67H563.767Z" fill="#000106"/>
    <path d="M556.705 303.875V302.364H565.71V303.875H562.08V314H560.33V303.875H556.705ZM567.564 314V305.273H569.263V314H567.564ZM568.422 303.926C568.126 303.926 567.873 303.828 567.661 303.631C567.452 303.43 567.348 303.191 567.348 302.915C567.348 302.634 567.452 302.396 567.661 302.199C567.873 301.998 568.126 301.898 568.422 301.898C568.717 301.898 568.969 301.998 569.178 302.199C569.39 302.396 569.496 302.634 569.496 302.915C569.496 303.191 569.39 303.43 569.178 303.631C568.969 303.828 568.717 303.926 568.422 303.926ZM571.548 314V305.273H573.179V306.693H573.287C573.469 306.212 573.766 305.837 574.179 305.568C574.592 305.295 575.086 305.159 575.662 305.159C576.245 305.159 576.734 305.295 577.128 305.568C577.526 305.841 577.819 306.216 578.009 306.693H578.099C578.308 306.227 578.639 305.856 579.094 305.58C579.548 305.299 580.09 305.159 580.719 305.159C581.51 305.159 582.156 305.407 582.656 305.903C583.16 306.4 583.412 307.148 583.412 308.148V314H581.713V308.307C581.713 307.716 581.552 307.288 581.23 307.023C580.908 306.758 580.524 306.625 580.077 306.625C579.524 306.625 579.094 306.795 578.787 307.136C578.48 307.473 578.327 307.907 578.327 308.438V314H576.634V308.199C576.634 307.725 576.486 307.345 576.19 307.057C575.895 306.769 575.51 306.625 575.037 306.625C574.715 306.625 574.418 306.71 574.145 306.881C573.876 307.047 573.658 307.28 573.491 307.58C573.329 307.879 573.247 308.225 573.247 308.619V314H571.548ZM589.45 314.176C588.59 314.176 587.85 313.992 587.229 313.625C586.611 313.254 586.134 312.733 585.797 312.062C585.464 311.388 585.297 310.598 585.297 309.693C585.297 308.799 585.464 308.011 585.797 307.33C586.134 306.648 586.604 306.116 587.206 305.733C587.812 305.35 588.52 305.159 589.331 305.159C589.823 305.159 590.301 305.241 590.763 305.403C591.225 305.566 591.64 305.822 592.007 306.17C592.375 306.519 592.664 306.972 592.876 307.528C593.089 308.081 593.195 308.754 593.195 309.545V310.148H586.257V308.875H591.53C591.53 308.428 591.439 308.032 591.257 307.688C591.075 307.339 590.82 307.064 590.49 306.864C590.164 306.663 589.782 306.562 589.342 306.562C588.865 306.562 588.448 306.68 588.092 306.915C587.74 307.146 587.467 307.449 587.274 307.824C587.085 308.195 586.99 308.598 586.99 309.034V310.028C586.99 310.612 587.092 311.108 587.297 311.517C587.505 311.926 587.795 312.239 588.166 312.455C588.537 312.667 588.971 312.773 589.467 312.773C589.789 312.773 590.083 312.727 590.348 312.636C590.613 312.542 590.842 312.402 591.036 312.216C591.229 312.03 591.376 311.801 591.479 311.528L593.087 311.818C592.958 312.292 592.727 312.706 592.393 313.062C592.064 313.415 591.649 313.689 591.149 313.886C590.653 314.08 590.087 314.176 589.45 314.176Z" fill="black"/>
    <path d="M464.23 97H461.84V89.77H464.19C466.35 89.77 467.81 91.23 467.81 93.39C467.81 95.54 466.37 97 464.23 97ZM464.12 90.67H462.82V96.09H464.16C465.77 96.09 466.79 95.05 466.79 93.39C466.79 91.71 465.77 90.67 464.12 90.67ZM470.327 97.12C469.277 97.12 468.657 96.53 468.657 95.64C468.657 94.74 469.327 94.18 470.477 94.09L472.017 93.97V93.83C472.017 93.01 471.527 92.72 470.867 92.72C470.077 92.72 469.627 93.07 469.627 93.66H468.807C468.807 92.64 469.647 91.97 470.907 91.97C472.117 91.97 472.937 92.61 472.937 93.93V97H472.137L472.037 96.21C471.787 96.77 471.117 97.12 470.327 97.12ZM470.597 96.39C471.487 96.39 472.027 95.81 472.027 94.89V94.63L470.777 94.73C469.947 94.81 469.607 95.13 469.607 95.61C469.607 96.13 469.987 96.39 470.597 96.39ZM475.179 97H474.239V92.11H475.089L475.189 92.86C475.499 92.3 476.119 91.97 476.809 91.97C478.099 91.97 478.689 92.76 478.689 94.01V97H477.749V94.22C477.749 93.23 477.289 92.83 476.569 92.83C475.689 92.83 475.179 93.46 475.179 94.41V97ZM480.951 97H480.011V89.64H480.951V94.41L483.121 92.11H484.301L482.431 94.06L484.291 97H483.211L481.781 94.74L480.951 95.61V97ZM484.698 95.58H485.598C485.598 96.08 485.978 96.38 486.598 96.38C487.258 96.38 487.638 96.11 487.638 95.66C487.638 95.33 487.478 95.13 486.968 95L486.108 94.8C485.238 94.59 484.828 94.16 484.828 93.44C484.828 92.54 485.588 91.97 486.668 91.97C487.738 91.97 488.438 92.57 488.458 93.5H487.558C487.538 93.01 487.208 92.7 486.638 92.7C486.048 92.7 485.718 92.96 485.718 93.41C485.718 93.74 485.958 93.96 486.438 94.08L487.298 94.29C488.128 94.49 488.538 94.87 488.538 95.6C488.538 96.53 487.738 97.12 486.578 97.12C485.428 97.12 484.698 96.51 484.698 95.58ZM490.52 96.99H489.58V89.64H490.52V92.86C490.83 92.33 491.42 91.97 492.18 91.97C493.43 91.97 494.03 92.76 494.03 94.01V97H493.09V94.22C493.09 93.23 492.62 92.83 491.92 92.83C491.01 92.83 490.52 93.49 490.52 94.33V96.99ZM496.762 97.12C495.712 97.12 495.092 96.53 495.092 95.64C495.092 94.74 495.762 94.18 496.912 94.09L498.452 93.97V93.83C498.452 93.01 497.962 92.72 497.302 92.72C496.512 92.72 496.062 93.07 496.062 93.66H495.242C495.242 92.64 496.082 91.97 497.342 91.97C498.552 91.97 499.372 92.61 499.372 93.93V97H498.572L498.472 96.21C498.222 96.77 497.552 97.12 496.762 97.12ZM497.032 96.39C497.922 96.39 498.462 95.81 498.462 94.89V94.63L497.212 94.73C496.382 94.81 496.042 95.13 496.042 95.61C496.042 96.13 496.422 96.39 497.032 96.39ZM503.474 92.07V92.93H503.054C502.164 92.93 501.614 93.47 501.614 94.41V97H500.674V92.12H501.554L501.614 92.86C501.814 92.35 502.304 92.01 502.974 92.01C503.144 92.01 503.284 92.03 503.474 92.07ZM506.14 97.12C504.72 97.12 503.86 96.06 503.86 94.57C503.86 93.07 504.73 91.97 506.18 91.97C506.93 91.97 507.56 92.3 507.89 92.9V89.64H508.82V97H507.98L507.9 96.11C507.58 96.78 506.92 97.12 506.14 97.12ZM506.33 96.27C507.29 96.27 507.88 95.56 507.88 94.54C507.88 93.54 507.29 92.82 506.33 92.82C505.37 92.82 504.81 93.54 504.81 94.54C504.81 95.55 505.37 96.27 506.33 96.27ZM510.636 90.95C510.296 90.95 510.016 90.67 510.016 90.33C510.016 89.98 510.296 89.71 510.636 89.71C510.976 89.71 511.256 89.98 511.256 90.33C511.256 90.67 510.976 90.95 510.636 90.95ZM510.176 97V92.11H511.116V97H510.176ZM513.421 97H512.481V92.11H513.331L513.431 92.86C513.741 92.3 514.361 91.97 515.051 91.97C516.341 91.97 516.931 92.76 516.931 94.01V97H515.991V94.22C515.991 93.23 515.531 92.83 514.811 92.83C513.931 92.83 513.421 93.46 513.421 94.41V97ZM517.923 94.43C517.923 93.05 518.813 91.97 520.233 91.97C521.023 91.97 521.633 92.33 521.943 92.94L522.013 92.11H522.853V96.8C522.853 98.34 521.903 99.32 520.403 99.32C519.073 99.32 518.163 98.57 517.983 97.33H518.923C519.043 98.05 519.583 98.47 520.403 98.47C521.323 98.47 521.923 97.87 521.923 96.94V95.96C521.603 96.53 520.963 96.87 520.193 96.87C518.803 96.87 517.923 95.8 517.923 94.43ZM518.863 94.41C518.863 95.33 519.433 96.05 520.353 96.05C521.303 96.05 521.883 95.37 521.883 94.41C521.883 93.47 521.323 92.79 520.363 92.79C519.423 92.79 518.863 93.51 518.863 94.41ZM526.734 94.99C526.734 94.12 527.244 93.42 528.044 93.13C527.364 92.84 526.994 92.27 526.994 91.54C526.994 90.41 527.964 89.64 529.404 89.64C530.824 89.64 531.784 90.41 531.784 91.55C531.784 92.29 531.404 92.86 530.724 93.13C531.534 93.39 532.054 94.11 532.054 95C532.054 96.27 530.994 97.12 529.394 97.12C527.784 97.12 526.734 96.27 526.734 94.99ZM527.894 91.6C527.894 92.31 528.484 92.77 529.384 92.77C530.294 92.77 530.864 92.32 530.864 91.62C530.864 90.93 530.294 90.49 529.384 90.49C528.484 90.49 527.894 90.93 527.894 91.6ZM527.694 94.92C527.694 95.73 528.364 96.25 529.394 96.25C530.414 96.25 531.084 95.73 531.084 94.92C531.084 94.12 530.424 93.61 529.384 93.61C528.354 93.61 527.694 94.12 527.694 94.92ZM535.113 93.26H534.393V92.61L536.443 90.64H533.193V89.77H537.683V90.56L535.703 92.45C536.933 92.6 537.863 93.43 537.863 94.73C537.863 96.19 536.763 97.12 535.293 97.12C533.873 97.12 532.853 96.25 532.853 94.75H533.823C533.823 95.69 534.403 96.24 535.313 96.24C536.253 96.24 536.863 95.64 536.863 94.71C536.863 93.84 536.263 93.26 535.113 93.26ZM539.45 97.12C539.06 97.12 538.73 96.8 538.73 96.42C538.73 96.03 539.06 95.71 539.45 95.71C539.83 95.71 540.16 96.03 540.16 96.42C540.16 96.8 539.83 97.12 539.45 97.12ZM546.174 96.99L541.294 97V96.25L543.624 94.24C544.794 93.23 545.124 92.74 545.124 91.97C545.124 91.06 544.604 90.52 543.734 90.52C542.844 90.52 542.264 91.17 542.244 92.2H541.264C541.294 90.65 542.274 89.64 543.744 89.64C545.194 89.64 546.124 90.52 546.124 91.91C546.124 92.94 545.614 93.67 544.334 94.78L542.834 96.08H546.174V96.99ZM546.726 90.67V89.77H552.056V90.67H549.886V97H548.906V90.67H546.726Z" fill="#000106"/>
    <path d="M430.145 95.5L2.14453 310L430.145 197" stroke="#C0AAFF" stroke-width="1.5"/>
</svg>
