<svg width="593" height="361" viewBox="0 0 593 361" fill="none" xmlns="http://www.w3.org/2000/svg">
<path d="M406.534 344.864V356.5H404.773V346.625H404.705L401.92 348.443V346.761L404.824 344.864H406.534ZM415.013 359.773C414.759 359.773 414.528 359.752 414.32 359.71C414.111 359.672 413.956 359.631 413.854 359.585L414.263 358.193C414.573 358.277 414.85 358.313 415.092 358.301C415.335 358.29 415.549 358.199 415.734 358.028C415.924 357.858 416.09 357.58 416.234 357.193L416.445 356.614L413.251 347.773H415.07L417.28 354.545H417.371L419.581 347.773H421.405L417.808 357.665C417.642 358.119 417.429 358.504 417.172 358.818C416.914 359.136 416.607 359.375 416.251 359.534C415.895 359.693 415.482 359.773 415.013 359.773ZM426.466 356.676C425.606 356.676 424.866 356.492 424.244 356.125C423.627 355.754 423.15 355.233 422.812 354.562C422.479 353.888 422.312 353.098 422.312 352.193C422.312 351.299 422.479 350.511 422.812 349.83C423.15 349.148 423.619 348.616 424.222 348.233C424.828 347.85 425.536 347.659 426.347 347.659C426.839 347.659 427.316 347.741 427.778 347.903C428.241 348.066 428.655 348.322 429.023 348.67C429.39 349.019 429.68 349.472 429.892 350.028C430.104 350.581 430.21 351.254 430.21 352.045V352.648H423.273V351.375H428.545C428.545 350.928 428.455 350.532 428.273 350.188C428.091 349.839 427.835 349.564 427.506 349.364C427.18 349.163 426.797 349.062 426.358 349.062C425.881 349.062 425.464 349.18 425.108 349.415C424.756 349.646 424.483 349.949 424.29 350.324C424.1 350.695 424.006 351.098 424.006 351.534V352.528C424.006 353.112 424.108 353.608 424.312 354.017C424.521 354.426 424.811 354.739 425.182 354.955C425.553 355.167 425.987 355.273 426.483 355.273C426.805 355.273 427.098 355.227 427.364 355.136C427.629 355.042 427.858 354.902 428.051 354.716C428.244 354.53 428.392 354.301 428.494 354.028L430.102 354.318C429.973 354.792 429.742 355.206 429.409 355.562C429.08 355.915 428.665 356.189 428.165 356.386C427.669 356.58 427.102 356.676 426.466 356.676ZM434.635 356.693C434.082 356.693 433.582 356.591 433.135 356.386C432.688 356.178 432.334 355.877 432.072 355.483C431.815 355.089 431.686 354.606 431.686 354.034C431.686 353.542 431.781 353.136 431.97 352.818C432.16 352.5 432.415 352.248 432.737 352.062C433.059 351.877 433.419 351.737 433.817 351.642C434.214 351.547 434.62 351.475 435.033 351.426C435.555 351.366 435.98 351.316 436.305 351.278C436.631 351.237 436.868 351.17 437.016 351.08C437.163 350.989 437.237 350.841 437.237 350.636V350.597C437.237 350.1 437.097 349.716 436.817 349.443C436.54 349.17 436.127 349.034 435.578 349.034C435.006 349.034 434.555 349.161 434.226 349.415C433.9 349.665 433.675 349.943 433.55 350.25L431.953 349.886C432.143 349.356 432.419 348.928 432.783 348.602C433.15 348.273 433.572 348.034 434.05 347.886C434.527 347.735 435.029 347.659 435.555 347.659C435.904 347.659 436.273 347.701 436.663 347.784C437.057 347.864 437.425 348.011 437.766 348.227C438.11 348.443 438.393 348.752 438.612 349.153C438.832 349.551 438.942 350.068 438.942 350.705V356.5H437.283V355.307H437.214C437.105 355.527 436.94 355.742 436.72 355.955C436.5 356.167 436.218 356.343 435.874 356.483C435.529 356.623 435.116 356.693 434.635 356.693ZM435.004 355.33C435.474 355.33 435.875 355.237 436.209 355.051C436.546 354.866 436.802 354.623 436.976 354.324C437.154 354.021 437.243 353.697 437.243 353.352V352.227C437.182 352.288 437.065 352.345 436.891 352.398C436.72 352.447 436.525 352.491 436.305 352.528C436.086 352.562 435.872 352.595 435.663 352.625C435.455 352.652 435.281 352.674 435.141 352.693C434.811 352.735 434.51 352.805 434.237 352.903C433.968 353.002 433.752 353.144 433.589 353.33C433.43 353.511 433.351 353.754 433.351 354.057C433.351 354.477 433.506 354.795 433.817 355.011C434.127 355.223 434.523 355.33 435.004 355.33ZM441.205 356.5V347.773H442.847V349.159H442.938C443.097 348.689 443.377 348.32 443.778 348.051C444.184 347.778 444.642 347.642 445.153 347.642C445.259 347.642 445.384 347.646 445.528 347.653C445.676 347.661 445.792 347.67 445.875 347.682V349.307C445.807 349.288 445.686 349.267 445.511 349.244C445.337 349.218 445.163 349.205 444.989 349.205C444.587 349.205 444.229 349.29 443.915 349.46C443.604 349.627 443.358 349.86 443.176 350.159C442.994 350.455 442.903 350.792 442.903 351.17V356.5H441.205Z" fill="black"/>
<path d="M55 177H431" stroke="#AFAFAF" stroke-dasharray="2 2"/>
<path d="M55 103H431" stroke="#AFAFAF" stroke-dasharray="2 2"/>
<path d="M10 29H431" stroke="#E4CC0C" stroke-dasharray="2 2"/>
<path d="M55 251H431" stroke="#93EAE2" stroke-dasharray="2 2"/>
<path fill-rule="evenodd" clip-rule="evenodd" d="M2 46H14V44H2V46ZM14 104H2V102H14V104ZM1 178H13V176H1V178ZM0 252H12V250H0V252Z" fill="black"/>
<path d="M26.3253 40.2727V49H24.7443V41.8111H24.6932L22.652 43.1151V41.6662L24.821 40.2727H26.3253ZM31.767 49.1662C31.0653 49.1662 30.4631 48.9886 29.9602 48.6335C29.4602 48.2756 29.0753 47.7599 28.8054 47.0866C28.5384 46.4105 28.4048 45.5966 28.4048 44.6449C28.4077 43.6932 28.5426 42.8835 28.8097 42.2159C29.0795 41.5455 29.4645 41.0341 29.9645 40.6818C30.4673 40.3295 31.0682 40.1534 31.767 40.1534C32.4659 40.1534 33.0668 40.3295 33.5696 40.6818C34.0724 41.0341 34.4574 41.5455 34.7244 42.2159C34.9943 42.8864 35.1293 43.696 35.1293 44.6449C35.1293 45.5994 34.9943 46.4148 34.7244 47.0909C34.4574 47.7642 34.0724 48.2784 33.5696 48.6335C33.0696 48.9886 32.4688 49.1662 31.767 49.1662ZM31.767 47.8324C32.3125 47.8324 32.7429 47.5639 33.0582 47.027C33.3764 46.4872 33.5355 45.6932 33.5355 44.6449C33.5355 43.9517 33.4631 43.3693 33.3182 42.8977C33.1733 42.4261 32.9688 42.071 32.7045 41.8324C32.4403 41.5909 32.1278 41.4702 31.767 41.4702C31.2244 41.4702 30.7955 41.7401 30.4801 42.2798C30.1648 42.8168 30.0057 43.6051 30.0028 44.6449C30 45.3409 30.0696 45.9261 30.2116 46.4006C30.3565 46.875 30.5611 47.233 30.8253 47.4744C31.0895 47.7131 31.4034 47.8324 31.767 47.8324ZM39.771 49.1662C39.0692 49.1662 38.467 48.9886 37.9641 48.6335C37.4641 48.2756 37.0792 47.7599 36.8093 47.0866C36.5423 46.4105 36.4087 45.5966 36.4087 44.6449C36.4116 43.6932 36.5465 42.8835 36.8136 42.2159C37.0835 41.5455 37.4684 41.0341 37.9684 40.6818C38.4712 40.3295 39.0721 40.1534 39.771 40.1534C40.4698 40.1534 41.0707 40.3295 41.5735 40.6818C42.0763 41.0341 42.4613 41.5455 42.7283 42.2159C42.9982 42.8864 43.1332 43.696 43.1332 44.6449C43.1332 45.5994 42.9982 46.4148 42.7283 47.0909C42.4613 47.7642 42.0763 48.2784 41.5735 48.6335C41.0735 48.9886 40.4727 49.1662 39.771 49.1662ZM39.771 47.8324C40.3164 47.8324 40.7468 47.5639 41.0621 47.027C41.3803 46.4872 41.5394 45.6932 41.5394 44.6449C41.5394 43.9517 41.467 43.3693 41.3221 42.8977C41.1772 42.4261 40.9727 42.071 40.7085 41.8324C40.4442 41.5909 40.1317 41.4702 39.771 41.4702C39.2283 41.4702 38.7994 41.7401 38.484 42.2798C38.1687 42.8168 38.0096 43.6051 38.0067 44.6449C38.0039 45.3409 38.0735 45.9261 38.2156 46.4006C38.3604 46.875 38.565 47.233 38.8292 47.4744C39.0934 47.7131 39.4073 47.8324 39.771 47.8324ZM47.7749 49.1662C47.0732 49.1662 46.4709 48.9886 45.968 48.6335C45.468 48.2756 45.0831 47.7599 44.8132 47.0866C44.5462 46.4105 44.4126 45.5966 44.4126 44.6449C44.4155 43.6932 44.5504 42.8835 44.8175 42.2159C45.0874 41.5455 45.4723 41.0341 45.9723 40.6818C46.4751 40.3295 47.076 40.1534 47.7749 40.1534C48.4737 40.1534 49.0746 40.3295 49.5774 40.6818C50.0803 41.0341 50.4652 41.5455 50.7322 42.2159C51.0021 42.8864 51.1371 43.696 51.1371 44.6449C51.1371 45.5994 51.0021 46.4148 50.7322 47.0909C50.4652 47.7642 50.0803 48.2784 49.5774 48.6335C49.0774 48.9886 48.4766 49.1662 47.7749 49.1662ZM47.7749 47.8324C48.3203 47.8324 48.7507 47.5639 49.0661 47.027C49.3842 46.4872 49.5433 45.6932 49.5433 44.6449C49.5433 43.9517 49.4709 43.3693 49.326 42.8977C49.1811 42.4261 48.9766 42.071 48.7124 41.8324C48.4482 41.5909 48.1357 41.4702 47.7749 41.4702C47.2322 41.4702 46.8033 41.7401 46.4879 42.2798C46.1726 42.8168 46.0135 43.6051 46.0107 44.6449C46.0078 45.3409 46.0774 45.9261 46.2195 46.4006C46.3643 46.875 46.5689 47.233 46.8331 47.4744C47.0973 47.7131 47.4112 47.8324 47.7749 47.8324Z" fill="black"/>
<path d="M26.3253 172.273V181H24.7443V173.811H24.6932L22.652 175.115V173.666L24.821 172.273H26.3253ZM31.767 181.166C31.0653 181.166 30.4631 180.989 29.9602 180.634C29.4602 180.276 29.0753 179.76 28.8054 179.087C28.5384 178.411 28.4048 177.597 28.4048 176.645C28.4077 175.693 28.5426 174.884 28.8097 174.216C29.0795 173.545 29.4645 173.034 29.9645 172.682C30.4673 172.33 31.0682 172.153 31.767 172.153C32.4659 172.153 33.0668 172.33 33.5696 172.682C34.0724 173.034 34.4574 173.545 34.7244 174.216C34.9943 174.886 35.1293 175.696 35.1293 176.645C35.1293 177.599 34.9943 178.415 34.7244 179.091C34.4574 179.764 34.0724 180.278 33.5696 180.634C33.0696 180.989 32.4688 181.166 31.767 181.166ZM31.767 179.832C32.3125 179.832 32.7429 179.564 33.0582 179.027C33.3764 178.487 33.5355 177.693 33.5355 176.645C33.5355 175.952 33.4631 175.369 33.3182 174.898C33.1733 174.426 32.9688 174.071 32.7045 173.832C32.4403 173.591 32.1278 173.47 31.767 173.47C31.2244 173.47 30.7955 173.74 30.4801 174.28C30.1648 174.817 30.0057 175.605 30.0028 176.645C30 177.341 30.0696 177.926 30.2116 178.401C30.3565 178.875 30.5611 179.233 30.8253 179.474C31.0895 179.713 31.4034 179.832 31.767 179.832Z" fill="black"/>
<path d="M26.3253 98.2727V107H24.7443V99.8111H24.6932L22.652 101.115V99.6662L24.821 98.2727H26.3253ZM31.767 107.166C31.0653 107.166 30.4631 106.989 29.9602 106.634C29.4602 106.276 29.0753 105.76 28.8054 105.087C28.5384 104.411 28.4048 103.597 28.4048 102.645C28.4077 101.693 28.5426 100.884 28.8097 100.216C29.0795 99.5455 29.4645 99.0341 29.9645 98.6818C30.4673 98.3295 31.0682 98.1534 31.767 98.1534C32.4659 98.1534 33.0668 98.3295 33.5696 98.6818C34.0724 99.0341 34.4574 99.5455 34.7244 100.216C34.9943 100.886 35.1293 101.696 35.1293 102.645C35.1293 103.599 34.9943 104.415 34.7244 105.091C34.4574 105.764 34.0724 106.278 33.5696 106.634C33.0696 106.989 32.4688 107.166 31.767 107.166ZM31.767 105.832C32.3125 105.832 32.7429 105.564 33.0582 105.027C33.3764 104.487 33.5355 103.693 33.5355 102.645C33.5355 101.952 33.4631 101.369 33.3182 100.898C33.1733 100.426 32.9688 100.071 32.7045 99.8324C32.4403 99.5909 32.1278 99.4702 31.767 99.4702C31.2244 99.4702 30.7955 99.7401 30.4801 100.28C30.1648 100.817 30.0057 101.605 30.0028 102.645C30 103.341 30.0696 103.926 30.2116 104.401C30.3565 104.875 30.5611 105.233 30.8253 105.474C31.0895 105.713 31.4034 105.832 31.767 105.832ZM39.771 107.166C39.0692 107.166 38.467 106.989 37.9641 106.634C37.4641 106.276 37.0792 105.76 36.8093 105.087C36.5423 104.411 36.4087 103.597 36.4087 102.645C36.4116 101.693 36.5465 100.884 36.8136 100.216C37.0835 99.5455 37.4684 99.0341 37.9684 98.6818C38.4712 98.3295 39.0721 98.1534 39.771 98.1534C40.4698 98.1534 41.0707 98.3295 41.5735 98.6818C42.0763 99.0341 42.4613 99.5455 42.7283 100.216C42.9982 100.886 43.1332 101.696 43.1332 102.645C43.1332 103.599 42.9982 104.415 42.7283 105.091C42.4613 105.764 42.0763 106.278 41.5735 106.634C41.0735 106.989 40.4727 107.166 39.771 107.166ZM39.771 105.832C40.3164 105.832 40.7468 105.564 41.0621 105.027C41.3803 104.487 41.5394 103.693 41.5394 102.645C41.5394 101.952 41.467 101.369 41.3221 100.898C41.1772 100.426 40.9727 100.071 40.7085 99.8324C40.4442 99.5909 40.1317 99.4702 39.771 99.4702C39.2283 99.4702 38.7994 99.7401 38.484 100.28C38.1687 100.817 38.0096 101.605 38.0067 102.645C38.0039 103.341 38.0735 103.926 38.2156 104.401C38.3604 104.875 38.565 105.233 38.8292 105.474C39.0934 105.713 39.4073 105.832 39.771 105.832Z" fill="black"/>
<path d="M26.3253 246.273V255H24.7443V247.811H24.6932L22.652 249.115V247.666L24.821 246.273H26.3253Z" fill="black"/>
<path d="M27.3352 356.722C26.3996 356.722 25.5966 356.485 24.9261 356.011C24.2595 355.534 23.7462 354.847 23.3864 353.949C23.0303 353.047 22.8523 351.962 22.8523 350.693C22.8561 349.424 23.036 348.345 23.392 347.455C23.7519 346.561 24.2652 345.879 24.9318 345.409C25.6023 344.939 26.4034 344.705 27.3352 344.705C28.267 344.705 29.0682 344.939 29.7386 345.409C30.4091 345.879 30.9223 346.561 31.2784 347.455C31.6383 348.348 31.8182 349.428 31.8182 350.693C31.8182 351.966 31.6383 353.053 31.2784 353.955C30.9223 354.852 30.4091 355.538 29.7386 356.011C29.072 356.485 28.2708 356.722 27.3352 356.722ZM27.3352 354.943C28.0625 354.943 28.6364 354.585 29.0568 353.869C29.4811 353.15 29.6932 352.091 29.6932 350.693C29.6932 349.769 29.5966 348.992 29.4034 348.364C29.2102 347.735 28.9375 347.261 28.5852 346.943C28.233 346.621 27.8163 346.46 27.3352 346.46C26.6117 346.46 26.0398 346.82 25.6193 347.54C25.1989 348.256 24.9867 349.307 24.983 350.693C24.9792 351.621 25.072 352.402 25.2614 353.034C25.4545 353.667 25.7273 354.144 26.0795 354.466C26.4318 354.784 26.8504 354.943 27.3352 354.943Z" fill="black"/>
<path d="M0 29H430" stroke="#5E2DE8" stroke-width="4"/>
<path d="M54.3555 251L432.855 251" stroke="#AFAFAF" stroke-width="1.5" stroke-dasharray="3 3"/>
<circle cx="429.355" cy="251" r="6" fill="#AFAFAF"/>
<path d="M0.999573 27L0.999554 326L530.355 326" stroke="#758987" stroke-width="2"/>
<circle cx="432" cy="29" r="7" fill="#5E2DE8"/>
<circle cx="432" cy="111" r="6" fill="#C0AAFF"/>
<circle cx="429" cy="214" r="6" fill="#C0AAFF"/>
<path d="M460.799 33V25.7273H465.359V26.6719H461.896V28.8878H465.121V29.8288H461.896V32.0554H465.401V33H460.799ZM469.285 27.5455V28.3977H466.306V27.5455H469.285ZM467.105 26.2386H468.167V31.3984C468.167 31.6044 468.198 31.7595 468.259 31.8636C468.321 31.9654 468.4 32.0353 468.497 32.0732C468.596 32.1087 468.704 32.1264 468.82 32.1264C468.905 32.1264 468.98 32.1205 469.044 32.1087C469.108 32.0968 469.157 32.0874 469.193 32.0803L469.385 32.9574C469.323 32.9811 469.236 33.0047 469.122 33.0284C469.008 33.0545 468.866 33.0687 468.696 33.071C468.416 33.0758 468.156 33.026 467.915 32.9219C467.673 32.8177 467.478 32.6567 467.329 32.4389C467.18 32.2211 467.105 31.9477 467.105 31.6186V26.2386ZM471.639 29.7614V33H470.577V25.7273H471.625V28.4332H471.692C471.82 28.1397 472.015 27.9065 472.278 27.7337C472.541 27.5608 472.884 27.4744 473.308 27.4744C473.682 27.4744 474.009 27.5514 474.288 27.7053C474.57 27.8591 474.788 28.0888 474.941 28.3942C475.098 28.6972 475.176 29.076 475.176 29.5305V33H474.114V29.6584C474.114 29.2583 474.011 28.9482 473.805 28.728C473.599 28.5054 473.313 28.3942 472.946 28.3942C472.695 28.3942 472.47 28.4474 472.271 28.554C472.074 28.6605 471.919 28.8168 471.806 29.0227C471.694 29.2263 471.639 29.4725 471.639 29.7614ZM480.645 27.6378C480.607 27.3016 480.45 27.0412 480.176 26.8565C479.901 26.6695 479.556 26.576 479.139 26.576C478.841 26.576 478.583 26.6233 478.365 26.718C478.147 26.8104 477.978 26.9382 477.857 27.1016C477.739 27.2625 477.679 27.446 477.679 27.652C477.679 27.8248 477.72 27.974 477.8 28.0994C477.883 28.2249 477.991 28.3303 478.123 28.4155C478.258 28.4983 478.403 28.5682 478.556 28.625C478.71 28.6795 478.858 28.7244 479 28.7599L479.711 28.9446C479.943 29.0014 480.181 29.0784 480.424 29.1754C480.668 29.2725 480.894 29.4003 481.103 29.5589C481.311 29.7176 481.479 29.9141 481.607 30.1484C481.737 30.3828 481.802 30.6634 481.802 30.9901C481.802 31.402 481.696 31.7678 481.483 32.0874C481.272 32.407 480.965 32.6591 480.563 32.8438C480.163 33.0284 479.679 33.1207 479.11 33.1207C478.566 33.1207 478.095 33.0343 477.697 32.8615C477.299 32.6887 476.988 32.4437 476.763 32.1264C476.538 31.8068 476.414 31.428 476.39 30.9901H477.491C477.512 31.2528 477.598 31.4718 477.747 31.647C477.898 31.8198 478.091 31.9489 478.326 32.0341C478.562 32.117 478.822 32.1584 479.103 32.1584C479.413 32.1584 479.689 32.1098 479.931 32.0128C480.175 31.9134 480.366 31.776 480.506 31.6009C480.646 31.4233 480.716 31.2161 480.716 30.9794C480.716 30.764 480.654 30.5876 480.531 30.4503C480.41 30.313 480.246 30.1993 480.037 30.1094C479.831 30.0194 479.598 29.9401 479.338 29.8714L478.478 29.6371C477.896 29.4785 477.434 29.2453 477.093 28.9375C476.755 28.6297 476.586 28.2225 476.586 27.7159C476.586 27.2969 476.699 26.9311 476.926 26.6186C477.154 26.3061 477.462 26.0634 477.85 25.8906C478.238 25.7154 478.676 25.6278 479.164 25.6278C479.656 25.6278 480.091 25.7143 480.467 25.8871C480.846 26.0599 481.144 26.2978 481.362 26.6009C481.58 26.9015 481.693 27.2472 481.703 27.6378H480.645ZM485.574 27.5455V28.3977H482.595V27.5455H485.574ZM483.394 26.2386H484.456V31.3984C484.456 31.6044 484.487 31.7595 484.548 31.8636C484.61 31.9654 484.689 32.0353 484.786 32.0732C484.885 32.1087 484.993 32.1264 485.109 32.1264C485.194 32.1264 485.269 32.1205 485.333 32.1087C485.397 32.0968 485.447 32.0874 485.482 32.0803L485.674 32.9574C485.612 32.9811 485.525 33.0047 485.411 33.0284C485.297 33.0545 485.155 33.0687 484.985 33.071C484.706 33.0758 484.445 33.026 484.204 32.9219C483.962 32.8177 483.767 32.6567 483.618 32.4389C483.469 32.2211 483.394 31.9477 483.394 31.6186V26.2386ZM488.988 33.1101C488.477 33.1101 488.03 32.9929 487.649 32.7585C487.268 32.5241 486.972 32.1963 486.761 31.7749C486.551 31.3535 486.445 30.861 486.445 30.2976C486.445 29.7318 486.551 29.237 486.761 28.8132C486.972 28.3894 487.268 28.0604 487.649 27.826C488.03 27.5916 488.477 27.4744 488.988 27.4744C489.499 27.4744 489.946 27.5916 490.327 27.826C490.708 28.0604 491.004 28.3894 491.214 28.8132C491.425 29.237 491.531 29.7318 491.531 30.2976C491.531 30.861 491.425 31.3535 491.214 31.7749C491.004 32.1963 490.708 32.5241 490.327 32.7585C489.946 32.9929 489.499 33.1101 488.988 33.1101ZM488.991 32.2188C489.323 32.2188 489.598 32.1312 489.815 31.956C490.033 31.7808 490.194 31.5476 490.298 31.2564C490.405 30.9652 490.458 30.6444 490.458 30.294C490.458 29.946 490.405 29.6264 490.298 29.3352C490.194 29.0417 490.033 28.8061 489.815 28.6286C489.598 28.451 489.323 28.3622 488.991 28.3622C488.658 28.3622 488.381 28.451 488.161 28.6286C487.943 28.8061 487.781 29.0417 487.674 29.3352C487.57 29.6264 487.518 29.946 487.518 30.294C487.518 30.6444 487.57 30.9652 487.674 31.2564C487.781 31.5476 487.943 31.7808 488.161 31.956C488.381 32.1312 488.658 32.2188 488.991 32.2188ZM492.716 33V27.5455H493.742V28.4119H493.799C493.898 28.1184 494.073 27.8875 494.324 27.7195C494.578 27.549 494.864 27.4638 495.184 27.4638C495.25 27.4638 495.328 27.4661 495.418 27.4709C495.51 27.4756 495.583 27.4815 495.635 27.4886V28.5043C495.592 28.4924 495.516 28.4794 495.407 28.4652C495.299 28.4486 495.19 28.4403 495.081 28.4403C494.83 28.4403 494.606 28.4936 494.41 28.6001C494.215 28.7043 494.062 28.8499 493.948 29.0369C493.834 29.2216 493.778 29.4323 493.778 29.669V33H492.716ZM498.092 33.1207C497.747 33.1207 497.434 33.0568 497.155 32.929C496.875 32.7988 496.654 32.6106 496.491 32.3643C496.33 32.1181 496.249 31.8163 496.249 31.4588C496.249 31.151 496.308 30.8977 496.427 30.6989C496.545 30.5 496.705 30.3426 496.906 30.2266C497.107 30.1106 497.332 30.023 497.581 29.9638C497.829 29.9046 498.083 29.8596 498.341 29.8288C498.667 29.791 498.933 29.7602 499.136 29.7365C499.34 29.7105 499.488 29.669 499.58 29.6122C499.672 29.5554 499.719 29.4631 499.719 29.3352V29.3104C499.719 29.0002 499.631 28.7599 499.456 28.5895C499.283 28.419 499.025 28.3338 498.682 28.3338C498.324 28.3338 498.042 28.4131 497.836 28.5717C497.633 28.728 497.492 28.902 497.414 29.0938L496.416 28.8665C496.534 28.535 496.707 28.2675 496.934 28.0639C497.164 27.858 497.428 27.7088 497.726 27.6165C498.025 27.5218 498.338 27.4744 498.667 27.4744C498.885 27.4744 499.116 27.5005 499.36 27.5526C499.606 27.6023 499.836 27.6946 500.049 27.8295C500.264 27.9645 500.441 28.1574 500.578 28.4084C500.715 28.657 500.784 28.9801 500.784 29.3778V33H499.747V32.2543H499.704C499.636 32.3916 499.533 32.5265 499.395 32.6591C499.258 32.7917 499.082 32.9018 498.866 32.9893C498.651 33.0769 498.393 33.1207 498.092 33.1207ZM498.323 32.2685C498.617 32.2685 498.867 32.2105 499.076 32.0945C499.287 31.9785 499.446 31.8269 499.555 31.6399C499.666 31.4505 499.722 31.2481 499.722 31.0327V30.3295C499.684 30.3674 499.611 30.4029 499.502 30.4361C499.395 30.4669 499.273 30.4941 499.136 30.5178C498.999 30.5391 498.865 30.5592 498.735 30.5781C498.605 30.5947 498.496 30.6089 498.408 30.6207C498.202 30.6468 498.014 30.6906 497.844 30.7521C497.675 30.8137 497.541 30.9025 497.439 31.0185C497.339 31.1321 497.29 31.2836 497.29 31.473C497.29 31.7358 497.387 31.9347 497.581 32.0696C497.775 32.2022 498.022 32.2685 498.323 32.2685ZM504.485 35.1591C504.052 35.1591 503.679 35.1023 503.366 34.9886C503.056 34.875 502.803 34.7247 502.607 34.5376C502.41 34.3506 502.263 34.1458 502.166 33.9233L503.079 33.5469C503.143 33.651 503.228 33.7611 503.335 33.8771C503.443 33.9955 503.59 34.0961 503.775 34.179C503.962 34.2618 504.202 34.3033 504.496 34.3033C504.898 34.3033 505.231 34.205 505.494 34.0085C505.756 33.8144 505.888 33.5043 505.888 33.0781V32.0057H505.82C505.756 32.1217 505.664 32.2507 505.543 32.3928C505.425 32.5348 505.262 32.6579 505.053 32.7621C504.845 32.8662 504.574 32.9183 504.24 32.9183C503.809 32.9183 503.421 32.8177 503.075 32.6165C502.732 32.4129 502.46 32.1134 502.259 31.718C502.06 31.3203 501.96 30.8314 501.96 30.2514C501.96 29.6714 502.058 29.1742 502.255 28.7599C502.454 28.3456 502.726 28.0284 503.072 27.8082C503.417 27.5857 503.809 27.4744 504.247 27.4744C504.586 27.4744 504.859 27.5312 505.067 27.6449C505.276 27.7562 505.438 27.8864 505.554 28.0355C505.672 28.1847 505.763 28.3161 505.827 28.4297H505.906V27.5455H506.946V33.1207C506.946 33.5895 506.837 33.9742 506.619 34.2749C506.402 34.5755 506.107 34.7981 505.735 34.9425C505.366 35.0869 504.949 35.1591 504.485 35.1591ZM504.474 32.0376C504.78 32.0376 505.038 31.9666 505.249 31.8246C505.462 31.6802 505.623 31.4742 505.732 31.2067C505.843 30.9368 505.898 30.6136 505.898 30.2372C505.898 29.8703 505.844 29.5471 505.735 29.2678C505.626 28.9884 505.466 28.7706 505.256 28.6143C505.045 28.4557 504.785 28.3764 504.474 28.3764C504.155 28.3764 503.888 28.4593 503.675 28.625C503.462 28.7884 503.301 29.0109 503.192 29.2926C503.086 29.5743 503.033 29.8892 503.033 30.2372C503.033 30.5947 503.087 30.9084 503.196 31.1783C503.305 31.4482 503.466 31.6589 503.679 31.8104C503.894 31.9619 504.16 32.0376 504.474 32.0376ZM510.721 33.1101C510.183 33.1101 509.721 32.9953 509.332 32.7656C508.946 32.5336 508.648 32.2081 508.438 31.7891C508.229 31.3677 508.125 30.8741 508.125 30.3082C508.125 29.7495 508.229 29.2571 508.438 28.831C508.648 28.4048 508.942 28.0722 509.318 27.8331C509.697 27.594 510.14 27.4744 510.646 27.4744C510.954 27.4744 511.252 27.5253 511.541 27.6271C511.83 27.7289 512.089 27.8887 512.319 28.1065C512.549 28.3243 512.73 28.6072 512.862 28.9553C512.995 29.3009 513.061 29.7211 513.061 30.2159V30.5923H508.725V29.7969H512.021C512.021 29.5175 511.964 29.2701 511.85 29.0547C511.737 28.8369 511.577 28.6652 511.371 28.5398C511.167 28.4143 510.928 28.3516 510.653 28.3516C510.355 28.3516 510.095 28.425 509.872 28.5717C509.652 28.7161 509.482 28.9055 509.361 29.1399C509.242 29.3719 509.183 29.6241 509.183 29.8963V30.5178C509.183 30.8823 509.247 31.1925 509.375 31.4482C509.505 31.7038 509.686 31.8991 509.918 32.0341C510.15 32.1667 510.421 32.233 510.732 32.233C510.933 32.233 511.116 32.2045 511.282 32.1477C511.448 32.0885 511.591 32.0009 511.712 31.8849C511.832 31.7689 511.925 31.6257 511.989 31.4553L512.994 31.6364C512.913 31.9323 512.769 32.1915 512.56 32.4141C512.354 32.6342 512.095 32.8059 511.783 32.929C511.473 33.0497 511.119 33.1101 510.721 33.1101ZM523.011 28.0923H521.903C521.861 27.8556 521.781 27.6473 521.665 27.4673C521.549 27.2874 521.407 27.1347 521.239 27.0092C521.071 26.8838 520.883 26.7891 520.675 26.7251C520.469 26.6612 520.25 26.6293 520.018 26.6293C519.599 26.6293 519.223 26.7346 518.892 26.9453C518.563 27.156 518.303 27.465 518.111 27.8722C517.921 28.2794 517.827 28.7765 517.827 29.3636C517.827 29.9555 517.921 30.455 518.111 30.8622C518.303 31.2694 518.564 31.5772 518.896 31.7855C519.227 31.9938 519.6 32.098 520.014 32.098C520.244 32.098 520.462 32.0672 520.668 32.0057C520.876 31.9418 521.064 31.8482 521.232 31.7251C521.4 31.602 521.542 31.4517 521.658 31.2741C521.777 31.0942 521.858 30.8883 521.903 30.6562L523.011 30.6598C522.952 31.0173 522.837 31.3464 522.667 31.647C522.499 31.9453 522.282 32.2034 522.017 32.4212C521.754 32.6366 521.454 32.8035 521.115 32.9219C520.777 33.0402 520.407 33.0994 520.007 33.0994C519.377 33.0994 518.816 32.9503 518.324 32.652C517.831 32.3513 517.443 31.9216 517.159 31.3629C516.877 30.8042 516.737 30.1378 516.737 29.3636C516.737 28.5871 516.879 27.9207 517.163 27.3643C517.447 26.8056 517.835 26.3771 518.327 26.0788C518.82 25.7782 519.38 25.6278 520.007 25.6278C520.393 25.6278 520.753 25.6835 521.087 25.7947C521.423 25.9036 521.725 26.0646 521.992 26.2777C522.26 26.4884 522.481 26.7464 522.656 27.0518C522.831 27.3549 522.95 27.7017 523.011 28.0923ZM525.827 33.1207C525.481 33.1207 525.168 33.0568 524.889 32.929C524.61 32.7988 524.388 32.6106 524.225 32.3643C524.064 32.1181 523.983 31.8163 523.983 31.4588C523.983 31.151 524.043 30.8977 524.161 30.6989C524.279 30.5 524.439 30.3426 524.64 30.2266C524.842 30.1106 525.067 30.023 525.315 29.9638C525.564 29.9046 525.817 29.8596 526.075 29.8288C526.402 29.791 526.667 29.7602 526.871 29.7365C527.074 29.7105 527.222 29.669 527.314 29.6122C527.407 29.5554 527.453 29.4631 527.453 29.3352V29.3104C527.453 29.0002 527.365 28.7599 527.19 28.5895C527.017 28.419 526.759 28.3338 526.416 28.3338C526.059 28.3338 525.777 28.4131 525.571 28.5717C525.367 28.728 525.226 28.902 525.148 29.0938L524.15 28.8665C524.269 28.535 524.442 28.2675 524.669 28.0639C524.898 27.858 525.162 27.7088 525.461 27.6165C525.759 27.5218 526.073 27.4744 526.402 27.4744C526.62 27.4744 526.85 27.5005 527.094 27.5526C527.34 27.6023 527.57 27.6946 527.783 27.8295C527.999 27.9645 528.175 28.1574 528.312 28.4084C528.45 28.657 528.518 28.9801 528.518 29.3778V33H527.481V32.2543H527.439C527.37 32.3916 527.267 32.5265 527.13 32.6591C526.992 32.7917 526.816 32.9018 526.601 32.9893C526.385 33.0769 526.127 33.1207 525.827 33.1207ZM526.057 32.2685C526.351 32.2685 526.602 32.2105 526.81 32.0945C527.021 31.9785 527.181 31.8269 527.29 31.6399C527.401 31.4505 527.456 31.2481 527.456 31.0327V30.3295C527.419 30.3674 527.345 30.4029 527.236 30.4361C527.13 30.4669 527.008 30.4941 526.871 30.5178C526.733 30.5391 526.599 30.5592 526.469 30.5781C526.339 30.5947 526.23 30.6089 526.143 30.6207C525.937 30.6468 525.748 30.6906 525.578 30.7521C525.41 30.8137 525.275 30.9025 525.173 31.0185C525.074 31.1321 525.024 31.2836 525.024 31.473C525.024 31.7358 525.121 31.9347 525.315 32.0696C525.509 32.2022 525.757 32.2685 526.057 32.2685ZM529.933 35.0455V27.5455H530.969V28.4297H531.058C531.12 28.3161 531.209 28.1847 531.325 28.0355C531.441 27.8864 531.602 27.7562 531.808 27.6449C532.013 27.5312 532.286 27.4744 532.624 27.4744C533.065 27.4744 533.458 27.5857 533.803 27.8082C534.149 28.0308 534.42 28.3516 534.616 28.7706C534.815 29.1896 534.915 29.6939 534.915 30.2834C534.915 30.8729 534.817 31.3783 534.62 31.7997C534.424 32.2187 534.154 32.5419 533.81 32.7692C533.467 32.9941 533.075 33.1065 532.635 33.1065C532.304 33.1065 532.032 33.0509 531.822 32.9396C531.613 32.8284 531.45 32.6982 531.332 32.549C531.213 32.3999 531.122 32.2673 531.058 32.1513H530.994V35.0455H529.933ZM530.973 30.2727C530.973 30.6562 531.029 30.9924 531.14 31.2812C531.251 31.5701 531.412 31.7962 531.623 31.9595C531.834 32.1205 532.092 32.201 532.397 32.201C532.714 32.201 532.979 32.117 533.192 31.9489C533.406 31.7784 533.567 31.5476 533.675 31.2564C533.787 30.9652 533.842 30.6373 533.842 30.2727C533.842 29.9129 533.788 29.5897 533.679 29.3033C533.572 29.0168 533.411 28.7907 533.196 28.625C532.983 28.4593 532.717 28.3764 532.397 28.3764C532.089 28.3764 531.829 28.4557 531.616 28.6143C531.405 28.773 531.245 28.9943 531.136 29.2784C531.027 29.5625 530.973 29.8939 530.973 30.2727ZM537.692 33.1207C537.346 33.1207 537.034 33.0568 536.754 32.929C536.475 32.7988 536.254 32.6106 536.09 32.3643C535.929 32.1181 535.849 31.8163 535.849 31.4588C535.849 31.151 535.908 30.8977 536.026 30.6989C536.145 30.5 536.304 30.3426 536.506 30.2266C536.707 30.1106 536.932 30.023 537.18 29.9638C537.429 29.9046 537.682 29.8596 537.94 29.8288C538.267 29.791 538.532 29.7602 538.736 29.7365C538.939 29.7105 539.087 29.669 539.18 29.6122C539.272 29.5554 539.318 29.4631 539.318 29.3352V29.3104C539.318 29.0002 539.231 28.7599 539.055 28.5895C538.883 28.419 538.625 28.3338 538.281 28.3338C537.924 28.3338 537.642 28.4131 537.436 28.5717C537.232 28.728 537.092 28.902 537.013 29.0938L536.016 28.8665C536.134 28.535 536.307 28.2675 536.534 28.0639C536.764 27.858 537.028 27.7088 537.326 27.6165C537.624 27.5218 537.938 27.4744 538.267 27.4744C538.485 27.4744 538.716 27.5005 538.96 27.5526C539.206 27.6023 539.435 27.6946 539.648 27.8295C539.864 27.9645 540.04 28.1574 540.178 28.4084C540.315 28.657 540.384 28.9801 540.384 29.3778V33H539.347V32.2543H539.304C539.235 32.3916 539.132 32.5265 538.995 32.6591C538.858 32.7917 538.681 32.9018 538.466 32.9893C538.25 33.0769 537.992 33.1207 537.692 33.1207ZM537.923 32.2685C538.216 32.2685 538.467 32.2105 538.675 32.0945C538.886 31.9785 539.046 31.8269 539.155 31.6399C539.266 31.4505 539.322 31.2481 539.322 31.0327V30.3295C539.284 30.3674 539.21 30.4029 539.102 30.4361C538.995 30.4669 538.873 30.4941 538.736 30.5178C538.598 30.5391 538.465 30.5592 538.335 30.5781C538.204 30.5947 538.095 30.6089 538.008 30.6207C537.802 30.6468 537.614 30.6906 537.443 30.7521C537.275 30.8137 537.14 30.9025 537.038 31.0185C536.939 31.1321 536.889 31.2836 536.889 31.473C536.889 31.7358 536.986 31.9347 537.18 32.0696C537.375 32.2022 537.622 32.2685 537.923 32.2685ZM544.095 33.1101C543.567 33.1101 543.113 32.9905 542.732 32.7514C542.353 32.5099 542.062 32.1773 541.858 31.7536C541.655 31.3298 541.553 30.8445 541.553 30.2976C541.553 29.7436 541.657 29.2547 541.865 28.831C542.074 28.4048 542.367 28.0722 542.746 27.8331C543.125 27.594 543.571 27.4744 544.085 27.4744C544.499 27.4744 544.868 27.5514 545.193 27.7053C545.517 27.8568 545.779 28.0698 545.977 28.3445C546.179 28.6191 546.298 28.9399 546.336 29.3068H545.303C545.246 29.0511 545.116 28.831 544.912 28.6463C544.711 28.4616 544.441 28.3693 544.102 28.3693C543.807 28.3693 543.547 28.4474 543.325 28.6037C543.105 28.7576 542.933 28.9777 542.81 29.2642C542.687 29.5483 542.625 29.8845 542.625 30.2727C542.625 30.6705 542.686 31.0137 542.806 31.3026C542.927 31.5914 543.097 31.8151 543.318 31.9737C543.54 32.1323 543.802 32.2116 544.102 32.2116C544.304 32.2116 544.486 32.175 544.649 32.1016C544.815 32.0258 544.954 31.9181 545.065 31.7784C545.178 31.6387 545.258 31.4706 545.303 31.2741H546.336C546.298 31.6269 546.183 31.9418 545.992 32.2188C545.8 32.4957 545.543 32.7135 545.221 32.8722C544.901 33.0308 544.526 33.1101 544.095 33.1101ZM547.472 33V27.5455H548.533V33H547.472ZM548.008 26.7038C547.823 26.7038 547.665 26.6423 547.532 26.5192C547.402 26.3937 547.337 26.2446 547.337 26.0717C547.337 25.8965 547.402 25.7474 547.532 25.6243C547.665 25.4988 547.823 25.4361 548.008 25.4361C548.192 25.4361 548.35 25.4988 548.48 25.6243C548.613 25.7474 548.679 25.8965 548.679 26.0717C548.679 26.2446 548.613 26.3937 548.48 26.5192C548.35 26.6423 548.192 26.7038 548.008 26.7038ZM552.508 27.5455V28.3977H549.529V27.5455H552.508ZM550.328 26.2386H551.389V31.3984C551.389 31.6044 551.42 31.7595 551.482 31.8636C551.543 31.9654 551.623 32.0353 551.72 32.0732C551.819 32.1087 551.927 32.1264 552.043 32.1264C552.128 32.1264 552.203 32.1205 552.267 32.1087C552.33 32.0968 552.38 32.0874 552.416 32.0803L552.607 32.9574C552.546 32.9811 552.458 33.0047 552.345 33.0284C552.231 33.0545 552.089 33.0687 551.919 33.071C551.639 33.0758 551.379 33.026 551.137 32.9219C550.896 32.8177 550.7 32.6567 550.551 32.4389C550.402 32.2211 550.328 31.9477 550.328 31.6186V26.2386ZM554.354 35.0455C554.195 35.0455 554.051 35.0324 553.92 35.0064C553.79 34.9827 553.693 34.9567 553.629 34.9283L553.885 34.0582C554.079 34.1103 554.252 34.1328 554.403 34.1257C554.555 34.1186 554.689 34.0618 554.805 33.9553C554.923 33.8487 555.027 33.6747 555.117 33.4332L555.249 33.071L553.253 27.5455H554.389L555.771 31.7784H555.827L557.209 27.5455H558.349L556.101 33.728C555.997 34.0121 555.864 34.2524 555.703 34.4489C555.542 34.6477 555.35 34.7969 555.128 34.8963C554.905 34.9957 554.647 35.0455 554.354 35.0455Z" fill="black"/>
<path d="M466.839 249.092H465.732C465.689 248.856 465.61 248.647 465.494 248.467C465.378 248.287 465.236 248.135 465.067 248.009C464.899 247.884 464.711 247.789 464.503 247.725C464.297 247.661 464.078 247.629 463.846 247.629C463.427 247.629 463.052 247.735 462.72 247.945C462.391 248.156 462.131 248.465 461.939 248.872C461.75 249.279 461.655 249.777 461.655 250.364C461.655 250.955 461.75 251.455 461.939 251.862C462.131 252.269 462.392 252.577 462.724 252.786C463.055 252.994 463.428 253.098 463.842 253.098C464.072 253.098 464.29 253.067 464.496 253.006C464.704 252.942 464.892 252.848 465.06 252.725C465.228 252.602 465.371 252.452 465.487 252.274C465.605 252.094 465.687 251.888 465.732 251.656L466.839 251.66C466.78 252.017 466.665 252.346 466.495 252.647C466.327 252.945 466.11 253.203 465.845 253.421C465.582 253.637 465.282 253.804 464.943 253.922C464.605 254.04 464.235 254.099 463.835 254.099C463.205 254.099 462.644 253.95 462.152 253.652C461.66 253.351 461.271 252.922 460.987 252.363C460.705 251.804 460.565 251.138 460.565 250.364C460.565 249.587 460.707 248.921 460.991 248.364C461.275 247.806 461.663 247.377 462.156 247.079C462.648 246.778 463.208 246.628 463.835 246.628C464.221 246.628 464.581 246.683 464.915 246.795C465.251 246.904 465.553 247.065 465.82 247.278C466.088 247.488 466.309 247.746 466.484 248.052C466.66 248.355 466.778 248.702 466.839 249.092ZM471.523 251.738V248.545H472.588V254H471.544V253.055H471.487C471.362 253.347 471.16 253.589 470.883 253.783C470.609 253.975 470.267 254.071 469.857 254.071C469.507 254.071 469.197 253.994 468.927 253.84C468.659 253.684 468.448 253.453 468.295 253.148C468.143 252.842 468.067 252.465 468.067 252.015V248.545H469.129V251.887C469.129 252.259 469.232 252.555 469.438 252.775C469.644 252.995 469.912 253.105 470.241 253.105C470.439 253.105 470.637 253.055 470.834 252.956C471.032 252.857 471.197 252.706 471.327 252.505C471.46 252.304 471.525 252.048 471.523 251.738ZM474.015 254V248.545H475.041V249.412H475.098C475.197 249.118 475.372 248.888 475.623 248.719C475.877 248.549 476.163 248.464 476.483 248.464C476.549 248.464 476.627 248.466 476.717 248.471C476.809 248.476 476.882 248.482 476.934 248.489V249.504C476.891 249.492 476.815 249.479 476.706 249.465C476.597 249.449 476.489 249.44 476.38 249.44C476.129 249.44 475.905 249.494 475.708 249.6C475.514 249.704 475.36 249.85 475.247 250.037C475.133 250.222 475.076 250.432 475.076 250.669V254H474.015ZM477.852 254V248.545H478.879V249.412H478.936C479.035 249.118 479.21 248.888 479.461 248.719C479.714 248.549 480.001 248.464 480.32 248.464C480.387 248.464 480.465 248.466 480.555 248.471C480.647 248.476 480.719 248.482 480.771 248.489V249.504C480.729 249.492 480.653 249.479 480.544 249.465C480.435 249.449 480.326 249.44 480.218 249.44C479.967 249.44 479.743 249.494 479.546 249.6C479.352 249.704 479.198 249.85 479.085 250.037C478.971 250.222 478.914 250.432 478.914 250.669V254H477.852ZM483.846 254.11C483.308 254.11 482.846 253.995 482.457 253.766C482.071 253.534 481.773 253.208 481.562 252.789C481.354 252.368 481.25 251.874 481.25 251.308C481.25 250.75 481.354 250.257 481.562 249.831C481.773 249.405 482.067 249.072 482.443 248.833C482.822 248.594 483.265 248.474 483.771 248.474C484.079 248.474 484.377 248.525 484.666 248.627C484.955 248.729 485.214 248.889 485.444 249.107C485.674 249.324 485.855 249.607 485.987 249.955C486.12 250.301 486.186 250.721 486.186 251.216V251.592H481.85V250.797H485.146C485.146 250.518 485.089 250.27 484.975 250.055C484.862 249.837 484.702 249.665 484.496 249.54C484.292 249.414 484.053 249.352 483.778 249.352C483.48 249.352 483.22 249.425 482.997 249.572C482.777 249.716 482.607 249.906 482.486 250.14C482.367 250.372 482.308 250.624 482.308 250.896V251.518C482.308 251.882 482.372 252.192 482.5 252.448C482.63 252.704 482.811 252.899 483.043 253.034C483.275 253.167 483.546 253.233 483.857 253.233C484.058 253.233 484.241 253.205 484.407 253.148C484.573 253.089 484.716 253.001 484.837 252.885C484.957 252.769 485.05 252.626 485.114 252.455L486.119 252.636C486.038 252.932 485.894 253.192 485.685 253.414C485.479 253.634 485.22 253.806 484.908 253.929C484.598 254.05 484.244 254.11 483.846 254.11ZM488.426 250.761V254H487.364V248.545H488.383V249.433H488.451C488.576 249.144 488.773 248.912 489.04 248.737C489.31 248.562 489.65 248.474 490.059 248.474C490.431 248.474 490.757 248.553 491.036 248.709C491.315 248.863 491.532 249.092 491.686 249.398C491.84 249.703 491.917 250.081 491.917 250.531V254H490.855V250.658C490.855 250.263 490.752 249.954 490.546 249.732C490.34 249.507 490.057 249.394 489.697 249.394C489.451 249.394 489.232 249.447 489.04 249.554C488.851 249.661 488.701 249.817 488.589 250.023C488.48 250.226 488.426 250.473 488.426 250.761ZM495.887 248.545V249.398H492.907V248.545H495.887ZM493.706 247.239H494.768V252.398C494.768 252.604 494.799 252.759 494.861 252.864C494.922 252.965 495.001 253.035 495.099 253.073C495.198 253.109 495.306 253.126 495.422 253.126C495.507 253.126 495.581 253.121 495.645 253.109C495.709 253.097 495.759 253.087 495.795 253.08L495.986 253.957C495.925 253.981 495.837 254.005 495.724 254.028C495.61 254.054 495.468 254.069 495.297 254.071C495.018 254.076 494.758 254.026 494.516 253.922C494.275 253.818 494.079 253.657 493.93 253.439C493.781 253.221 493.706 252.948 493.706 252.619V247.239ZM499.793 254V246.727H504.353V247.672H500.89V249.888H504.115V250.829H500.89V253.055H504.395V254H499.793ZM505.46 247.672V246.727H511.088V247.672H508.819V254H507.725V247.672H505.46ZM512.332 254V246.727H513.43V249.888H517.055V246.727H518.156V254H517.055V250.829H513.43V254H512.332ZM528.271 246.727V254H527.262L523.565 248.666H523.498V254H522.401V246.727H523.416L527.116 252.068H527.184V246.727H528.271ZM532.084 254.11C531.572 254.11 531.126 253.993 530.745 253.759C530.364 253.524 530.068 253.196 529.857 252.775C529.646 252.353 529.541 251.861 529.541 251.298C529.541 250.732 529.646 250.237 529.857 249.813C530.068 249.389 530.364 249.06 530.745 248.826C531.126 248.592 531.572 248.474 532.084 248.474C532.595 248.474 533.041 248.592 533.422 248.826C533.804 249.06 534.099 249.389 534.31 249.813C534.521 250.237 534.626 250.732 534.626 251.298C534.626 251.861 534.521 252.353 534.31 252.775C534.099 253.196 533.804 253.524 533.422 253.759C533.041 253.993 532.595 254.11 532.084 254.11ZM532.087 253.219C532.419 253.219 532.693 253.131 532.911 252.956C533.129 252.781 533.29 252.548 533.394 252.256C533.501 251.965 533.554 251.644 533.554 251.294C533.554 250.946 533.501 250.626 533.394 250.335C533.29 250.042 533.129 249.806 532.911 249.629C532.693 249.451 532.419 249.362 532.087 249.362C531.753 249.362 531.476 249.451 531.256 249.629C531.038 249.806 530.876 250.042 530.77 250.335C530.666 250.626 530.613 250.946 530.613 251.294C530.613 251.644 530.666 251.965 530.77 252.256C530.876 252.548 531.038 252.781 531.256 252.956C531.476 253.131 531.753 253.219 532.087 253.219ZM537.853 254.107C537.413 254.107 537.02 253.994 536.674 253.769C536.331 253.542 536.061 253.219 535.865 252.8C535.671 252.378 535.574 251.873 535.574 251.283C535.574 250.694 535.672 250.19 535.868 249.771C536.067 249.352 536.339 249.031 536.685 248.808C537.031 248.586 537.422 248.474 537.86 248.474C538.199 248.474 538.471 248.531 538.677 248.645C538.886 248.756 539.047 248.886 539.16 249.036C539.276 249.185 539.366 249.316 539.43 249.43H539.494V246.727H540.556V254H539.519V253.151H539.43C539.366 253.267 539.274 253.4 539.153 253.549C539.035 253.698 538.871 253.828 538.663 253.94C538.455 254.051 538.185 254.107 537.853 254.107ZM538.088 253.201C538.393 253.201 538.651 253.121 538.862 252.96C539.075 252.796 539.236 252.57 539.345 252.281C539.456 251.992 539.512 251.656 539.512 251.273C539.512 250.894 539.457 250.562 539.348 250.278C539.239 249.994 539.08 249.773 538.869 249.614C538.658 249.456 538.398 249.376 538.088 249.376C537.768 249.376 537.502 249.459 537.289 249.625C537.076 249.791 536.915 250.017 536.806 250.303C536.699 250.59 536.646 250.913 536.646 251.273C536.646 251.637 536.7 251.965 536.809 252.256C536.918 252.548 537.079 252.778 537.292 252.949C537.508 253.117 537.773 253.201 538.088 253.201ZM544.422 254.11C543.885 254.11 543.422 253.995 543.034 253.766C542.648 253.534 542.349 253.208 542.139 252.789C541.93 252.368 541.826 251.874 541.826 251.308C541.826 250.75 541.93 250.257 542.139 249.831C542.349 249.405 542.643 249.072 543.019 248.833C543.398 248.594 543.841 248.474 544.347 248.474C544.655 248.474 544.954 248.525 545.242 248.627C545.531 248.729 545.79 248.889 546.02 249.107C546.25 249.324 546.431 249.607 546.563 249.955C546.696 250.301 546.762 250.721 546.762 251.216V251.592H542.426V250.797H545.722C545.722 250.518 545.665 250.27 545.551 250.055C545.438 249.837 545.278 249.665 545.072 249.54C544.868 249.414 544.629 249.352 544.355 249.352C544.056 249.352 543.796 249.425 543.573 249.572C543.353 249.716 543.183 249.906 543.062 250.14C542.944 250.372 542.884 250.624 542.884 250.896V251.518C542.884 251.882 542.948 252.192 543.076 252.448C543.206 252.704 543.387 252.899 543.619 253.034C543.852 253.167 544.123 253.233 544.433 253.233C544.634 253.233 544.817 253.205 544.983 253.148C545.149 253.089 545.292 253.001 545.413 252.885C545.534 252.769 545.626 252.626 545.69 252.455L546.695 252.636C546.614 252.932 546.47 253.192 546.262 253.414C546.056 253.634 545.796 253.806 545.484 253.929C545.174 254.05 544.82 254.11 544.422 254.11ZM556.713 249.092H555.605C555.562 248.856 555.483 248.647 555.367 248.467C555.251 248.287 555.109 248.135 554.941 248.009C554.772 247.884 554.584 247.789 554.376 247.725C554.17 247.661 553.951 247.629 553.719 247.629C553.3 247.629 552.925 247.735 552.593 247.945C552.264 248.156 552.004 248.465 551.812 248.872C551.623 249.279 551.528 249.777 551.528 250.364C551.528 250.955 551.623 251.455 551.812 251.862C552.004 252.269 552.265 252.577 552.597 252.786C552.928 252.994 553.301 253.098 553.715 253.098C553.945 253.098 554.163 253.067 554.369 253.006C554.577 252.942 554.765 252.848 554.933 252.725C555.102 252.602 555.244 252.452 555.36 252.274C555.478 252.094 555.56 251.888 555.605 251.656L556.713 251.66C556.653 252.017 556.539 252.346 556.368 252.647C556.2 252.945 555.983 253.203 555.718 253.421C555.455 253.637 555.155 253.804 554.816 253.922C554.478 254.04 554.108 254.099 553.708 254.099C553.079 254.099 552.517 253.95 552.025 253.652C551.533 253.351 551.144 252.922 550.86 252.363C550.579 251.804 550.438 251.138 550.438 250.364C550.438 249.587 550.58 248.921 550.864 248.364C551.148 247.806 551.536 247.377 552.029 247.079C552.521 246.778 553.081 246.628 553.708 246.628C554.094 246.628 554.454 246.683 554.788 246.795C555.124 246.904 555.426 247.065 555.693 247.278C555.961 247.488 556.182 247.746 556.357 248.052C556.533 248.355 556.651 248.702 556.713 249.092ZM559.528 254.121C559.182 254.121 558.87 254.057 558.59 253.929C558.311 253.799 558.089 253.611 557.926 253.364C557.765 253.118 557.685 252.816 557.685 252.459C557.685 252.151 557.744 251.898 557.862 251.699C557.981 251.5 558.14 251.343 558.342 251.227C558.543 251.111 558.768 251.023 559.016 250.964C559.265 250.905 559.518 250.86 559.776 250.829C560.103 250.791 560.368 250.76 560.572 250.737C560.775 250.71 560.923 250.669 561.016 250.612C561.108 250.555 561.154 250.463 561.154 250.335V250.31C561.154 250 561.067 249.76 560.891 249.589C560.719 249.419 560.46 249.334 560.117 249.334C559.76 249.334 559.478 249.413 559.272 249.572C559.068 249.728 558.928 249.902 558.849 250.094L557.852 249.866C557.97 249.535 558.143 249.268 558.37 249.064C558.6 248.858 558.864 248.709 559.162 248.616C559.46 248.522 559.774 248.474 560.103 248.474C560.321 248.474 560.552 248.5 560.795 248.553C561.042 248.602 561.271 248.695 561.484 248.83C561.7 248.964 561.876 249.157 562.013 249.408C562.151 249.657 562.219 249.98 562.219 250.378V254H561.183V253.254H561.14C561.071 253.392 560.968 253.527 560.831 253.659C560.694 253.792 560.517 253.902 560.302 253.989C560.086 254.077 559.828 254.121 559.528 254.121ZM559.759 253.268C560.052 253.268 560.303 253.21 560.511 253.094C560.722 252.978 560.882 252.827 560.991 252.64C561.102 252.451 561.158 252.248 561.158 252.033V251.33C561.12 251.367 561.046 251.403 560.938 251.436C560.831 251.467 560.709 251.494 560.572 251.518C560.434 251.539 560.301 251.559 560.17 251.578C560.04 251.595 559.931 251.609 559.844 251.621C559.638 251.647 559.45 251.691 559.279 251.752C559.111 251.814 558.976 251.902 558.874 252.018C558.775 252.132 558.725 252.284 558.725 252.473C558.725 252.736 558.822 252.935 559.016 253.07C559.21 253.202 559.458 253.268 559.759 253.268ZM563.634 256.045V248.545H564.671V249.43H564.759C564.821 249.316 564.91 249.185 565.026 249.036C565.142 248.886 565.303 248.756 565.509 248.645C565.715 248.531 565.987 248.474 566.325 248.474C566.766 248.474 567.159 248.586 567.504 248.808C567.85 249.031 568.121 249.352 568.318 249.771C568.517 250.19 568.616 250.694 568.616 251.283C568.616 251.873 568.518 252.378 568.321 252.8C568.125 253.219 567.855 253.542 567.512 253.769C567.168 253.994 566.776 254.107 566.336 254.107C566.005 254.107 565.734 254.051 565.523 253.94C565.315 253.828 565.151 253.698 565.033 253.549C564.914 253.4 564.823 253.267 564.759 253.151H564.695V256.045H563.634ZM564.674 251.273C564.674 251.656 564.73 251.992 564.841 252.281C564.952 252.57 565.113 252.796 565.324 252.96C565.535 253.121 565.793 253.201 566.098 253.201C566.415 253.201 566.681 253.117 566.894 252.949C567.107 252.778 567.268 252.548 567.377 252.256C567.488 251.965 567.544 251.637 567.544 251.273C567.544 250.913 567.489 250.59 567.38 250.303C567.274 250.017 567.113 249.791 566.897 249.625C566.684 249.459 566.418 249.376 566.098 249.376C565.79 249.376 565.53 249.456 565.317 249.614C565.106 249.773 564.946 249.994 564.838 250.278C564.729 250.562 564.674 250.894 564.674 251.273ZM571.393 254.121C571.047 254.121 570.735 254.057 570.455 253.929C570.176 253.799 569.955 253.611 569.791 253.364C569.63 253.118 569.55 252.816 569.55 252.459C569.55 252.151 569.609 251.898 569.727 251.699C569.846 251.5 570.006 251.343 570.207 251.227C570.408 251.111 570.633 251.023 570.882 250.964C571.13 250.905 571.383 250.86 571.642 250.829C571.968 250.791 572.233 250.76 572.437 250.737C572.641 250.71 572.789 250.669 572.881 250.612C572.973 250.555 573.019 250.463 573.019 250.335V250.31C573.019 250 572.932 249.76 572.757 249.589C572.584 249.419 572.326 249.334 571.982 249.334C571.625 249.334 571.343 249.413 571.137 249.572C570.934 249.728 570.793 249.902 570.715 250.094L569.717 249.866C569.835 249.535 570.008 249.268 570.235 249.064C570.465 248.858 570.729 248.709 571.027 248.616C571.325 248.522 571.639 248.474 571.968 248.474C572.186 248.474 572.417 248.5 572.661 248.553C572.907 248.602 573.137 248.695 573.35 248.83C573.565 248.964 573.741 249.157 573.879 249.408C574.016 249.657 574.085 249.98 574.085 250.378V254H573.048V253.254H573.005C572.936 253.392 572.834 253.527 572.696 253.659C572.559 253.792 572.383 253.902 572.167 253.989C571.952 254.077 571.694 254.121 571.393 254.121ZM571.624 253.268C571.917 253.268 572.168 253.21 572.377 253.094C572.587 252.978 572.747 252.827 572.856 252.64C572.967 252.451 573.023 252.248 573.023 252.033V251.33C572.985 251.367 572.912 251.403 572.803 251.436C572.696 251.467 572.574 251.494 572.437 251.518C572.3 251.539 572.166 251.559 572.036 251.578C571.905 251.595 571.797 251.609 571.709 251.621C571.503 251.647 571.315 251.691 571.144 251.752C570.976 251.814 570.841 251.902 570.74 252.018C570.64 252.132 570.59 252.284 570.59 252.473C570.59 252.736 570.687 252.935 570.882 253.07C571.076 253.202 571.323 253.268 571.624 253.268ZM577.797 254.11C577.269 254.11 576.814 253.991 576.433 253.751C576.054 253.51 575.763 253.177 575.559 252.754C575.356 252.33 575.254 251.844 575.254 251.298C575.254 250.744 575.358 250.255 575.566 249.831C575.775 249.405 576.068 249.072 576.447 248.833C576.826 248.594 577.272 248.474 577.786 248.474C578.2 248.474 578.569 248.551 578.894 248.705C579.218 248.857 579.48 249.07 579.679 249.344C579.88 249.619 579.999 249.94 580.037 250.307H579.004C578.947 250.051 578.817 249.831 578.613 249.646C578.412 249.462 578.142 249.369 577.804 249.369C577.508 249.369 577.248 249.447 577.026 249.604C576.806 249.758 576.634 249.978 576.511 250.264C576.388 250.548 576.326 250.884 576.326 251.273C576.326 251.67 576.387 252.014 576.507 252.303C576.628 252.591 576.799 252.815 577.019 252.974C577.241 253.132 577.503 253.212 577.804 253.212C578.005 253.212 578.187 253.175 578.35 253.102C578.516 253.026 578.655 252.918 578.766 252.778C578.88 252.639 578.959 252.471 579.004 252.274H580.037C579.999 252.627 579.885 252.942 579.693 253.219C579.501 253.496 579.244 253.714 578.922 253.872C578.603 254.031 578.227 254.11 577.797 254.11ZM581.173 254V248.545H582.235V254H581.173ZM581.709 247.704C581.524 247.704 581.366 247.642 581.233 247.519C581.103 247.394 581.038 247.245 581.038 247.072C581.038 246.897 581.103 246.747 581.233 246.624C581.366 246.499 581.524 246.436 581.709 246.436C581.894 246.436 582.051 246.499 582.181 246.624C582.314 246.747 582.38 246.897 582.38 247.072C582.38 247.245 582.314 247.394 582.181 247.519C582.051 247.642 581.894 247.704 581.709 247.704ZM586.209 248.545V249.398H583.23V248.545H586.209ZM584.029 247.239H585.091V252.398C585.091 252.604 585.121 252.759 585.183 252.864C585.244 252.965 585.324 253.035 585.421 253.073C585.52 253.109 585.628 253.126 585.744 253.126C585.829 253.126 585.904 253.121 585.968 253.109C586.032 253.097 586.081 253.087 586.117 253.08L586.309 253.957C586.247 253.981 586.159 254.005 586.046 254.028C585.932 254.054 585.79 254.069 585.62 254.071C585.34 254.076 585.08 254.026 584.838 253.922C584.597 253.818 584.402 253.657 584.252 253.439C584.103 253.221 584.029 252.948 584.029 252.619V247.239ZM588.055 256.045C587.896 256.045 587.752 256.032 587.622 256.006C587.491 255.983 587.394 255.957 587.33 255.928L587.586 255.058C587.78 255.11 587.953 255.133 588.105 255.126C588.256 255.119 588.39 255.062 588.506 254.955C588.624 254.849 588.728 254.675 588.818 254.433L588.95 254.071L586.954 248.545H588.09L589.472 252.778H589.529L590.91 248.545H592.05L589.802 254.728C589.698 255.012 589.565 255.252 589.404 255.449C589.243 255.648 589.052 255.797 588.829 255.896C588.606 255.996 588.348 256.045 588.055 256.045Z" fill="#000106"/>
<path d="M464.005 215.42H462.175V218H461.195V210.77H464.005C465.425 210.77 466.335 211.7 466.335 213.09C466.335 214.44 465.415 215.42 464.005 215.42ZM463.835 211.65H462.175V214.54H463.795C464.765 214.54 465.305 213.97 465.305 213.08C465.305 212.17 464.755 211.65 463.835 211.65ZM470.085 213.07V213.93H469.665C468.775 213.93 468.225 214.47 468.225 215.41V218H467.285V213.12H468.165L468.225 213.86C468.425 213.35 468.915 213.01 469.585 213.01C469.755 213.01 469.895 213.03 470.085 213.07ZM470.471 215.55C470.471 214.04 471.551 212.98 473.021 212.98C474.481 212.98 475.561 214.04 475.561 215.55C475.561 217.06 474.481 218.12 473.021 218.12C471.551 218.12 470.471 217.06 470.471 215.55ZM471.421 215.55C471.421 216.57 472.071 217.28 473.021 217.28C473.961 217.28 474.621 216.57 474.621 215.55C474.621 214.53 473.961 213.82 473.021 213.82C472.071 213.82 471.421 214.53 471.421 215.55ZM477.933 218H476.993V213.9H476.033V213.11H476.993V211.58H477.933V213.11H478.893V213.9H477.933V218ZM479.368 215.55C479.368 214.04 480.448 212.98 481.918 212.98C483.378 212.98 484.458 214.04 484.458 215.55C484.458 217.06 483.378 218.12 481.918 218.12C480.448 218.12 479.368 217.06 479.368 215.55ZM480.318 215.55C480.318 216.57 480.968 217.28 481.918 217.28C482.858 217.28 483.518 216.57 483.518 215.55C483.518 214.53 482.858 213.82 481.918 213.82C480.968 213.82 480.318 214.53 480.318 215.55ZM485.448 215.77V214.93H488.498V215.77H485.448ZM492.355 218H489.965V210.77H492.315C494.475 210.77 495.935 212.23 495.935 214.39C495.935 216.54 494.495 218 492.355 218ZM492.245 211.67H490.945V217.09H492.285C493.895 217.09 494.915 216.05 494.915 214.39C494.915 212.71 493.895 211.67 492.245 211.67ZM498.452 218.12C497.402 218.12 496.782 217.53 496.782 216.64C496.782 215.74 497.452 215.18 498.602 215.09L500.142 214.97V214.83C500.142 214.01 499.652 213.72 498.992 213.72C498.202 213.72 497.752 214.07 497.752 214.66H496.932C496.932 213.64 497.772 212.97 499.032 212.97C500.242 212.97 501.062 213.61 501.062 214.93V218H500.262L500.162 217.21C499.912 217.77 499.242 218.12 498.452 218.12ZM498.722 217.39C499.612 217.39 500.152 216.81 500.152 215.89V215.63L498.902 215.73C498.072 215.81 497.732 216.13 497.732 216.61C497.732 217.13 498.112 217.39 498.722 217.39ZM503.304 218H502.364V213.11H503.214L503.314 213.86C503.624 213.3 504.244 212.97 504.934 212.97C506.224 212.97 506.814 213.76 506.814 215.01V218H505.874V215.22C505.874 214.23 505.414 213.83 504.694 213.83C503.814 213.83 503.304 214.46 503.304 215.41V218ZM509.076 218H508.136V210.64H509.076V215.41L511.246 213.11H512.426L510.556 215.06L512.416 218H511.336L509.906 215.74L509.076 216.61V218ZM512.823 216.58H513.723C513.723 217.08 514.103 217.38 514.723 217.38C515.383 217.38 515.763 217.11 515.763 216.66C515.763 216.33 515.603 216.13 515.093 216L514.233 215.8C513.363 215.59 512.953 215.16 512.953 214.44C512.953 213.54 513.713 212.97 514.793 212.97C515.863 212.97 516.563 213.57 516.583 214.5H515.683C515.663 214.01 515.333 213.7 514.763 213.7C514.173 213.7 513.843 213.96 513.843 214.41C513.843 214.74 514.083 214.96 514.563 215.08L515.423 215.29C516.253 215.49 516.663 215.87 516.663 216.6C516.663 217.53 515.863 218.12 514.703 218.12C513.553 218.12 512.823 217.51 512.823 216.58ZM518.645 217.99H517.705V210.64H518.645V213.86C518.955 213.33 519.545 212.97 520.305 212.97C521.555 212.97 522.155 213.76 522.155 215.01V218H521.215V215.22C521.215 214.23 520.745 213.83 520.045 213.83C519.135 213.83 518.645 214.49 518.645 215.33V217.99ZM524.887 218.12C523.837 218.12 523.217 217.53 523.217 216.64C523.217 215.74 523.887 215.18 525.037 215.09L526.577 214.97V214.83C526.577 214.01 526.087 213.72 525.427 213.72C524.637 213.72 524.187 214.07 524.187 214.66H523.367C523.367 213.64 524.207 212.97 525.467 212.97C526.677 212.97 527.497 213.61 527.497 214.93V218H526.697L526.597 217.21C526.347 217.77 525.677 218.12 524.887 218.12ZM525.157 217.39C526.047 217.39 526.587 216.81 526.587 215.89V215.63L525.337 215.73C524.507 215.81 524.167 216.13 524.167 216.61C524.167 217.13 524.547 217.39 525.157 217.39ZM531.599 213.07V213.93H531.179C530.289 213.93 529.739 214.47 529.739 215.41V218H528.799V213.12H529.679L529.739 213.86C529.939 213.35 530.429 213.01 531.099 213.01C531.269 213.01 531.409 213.03 531.599 213.07ZM532.941 211.95C532.601 211.95 532.321 211.67 532.321 211.33C532.321 210.98 532.601 210.71 532.941 210.71C533.281 210.71 533.561 210.98 533.561 211.33C533.561 211.67 533.281 211.95 532.941 211.95ZM532.481 218V213.11H533.421V218H532.481ZM535.725 218H534.785V213.11H535.635L535.735 213.86C536.045 213.3 536.665 212.97 537.355 212.97C538.645 212.97 539.235 213.76 539.235 215.01V218H538.295V215.22C538.295 214.23 537.835 213.83 537.115 213.83C536.235 213.83 535.725 214.46 535.725 215.41V218ZM540.227 215.43C540.227 214.05 541.117 212.97 542.537 212.97C543.327 212.97 543.937 213.33 544.247 213.94L544.317 213.11H545.157V217.8C545.157 219.34 544.207 220.32 542.707 220.32C541.377 220.32 540.467 219.57 540.287 218.33H541.227C541.347 219.05 541.887 219.47 542.707 219.47C543.627 219.47 544.227 218.87 544.227 217.94V216.96C543.907 217.53 543.267 217.87 542.497 217.87C541.107 217.87 540.227 216.8 540.227 215.43ZM541.167 215.41C541.167 216.33 541.737 217.05 542.657 217.05C543.607 217.05 544.187 216.37 544.187 215.41C544.187 214.47 543.627 213.79 542.667 213.79C541.727 213.79 541.167 214.51 541.167 215.41ZM553.908 217.99L549.028 218V217.25L551.358 215.24C552.528 214.23 552.858 213.74 552.858 212.97C552.858 212.06 552.338 211.52 551.468 211.52C550.578 211.52 549.998 212.17 549.978 213.2H548.998C549.028 211.65 550.008 210.64 551.478 210.64C552.928 210.64 553.858 211.52 553.858 212.91C553.858 213.94 553.348 214.67 552.068 215.78L550.568 217.08H553.908V217.99ZM555.788 218.12C555.398 218.12 555.068 217.8 555.068 217.42C555.068 217.03 555.398 216.71 555.788 216.71C556.168 216.71 556.498 217.03 556.498 217.42C556.498 217.8 556.168 218.12 555.788 218.12ZM558.279 213.06L559.969 210.77H561.109L559.299 213.17C559.549 213.07 559.809 213.02 560.059 213.02C561.559 213.02 562.569 214.1 562.569 215.53C562.569 217.04 561.429 218.12 559.939 218.12C558.439 218.12 557.279 216.99 557.279 215.53C557.279 214.67 557.539 214.07 558.279 213.06ZM558.279 215.54C558.279 216.53 558.959 217.24 559.939 217.24C560.899 217.24 561.579 216.53 561.579 215.54C561.579 214.55 560.899 213.85 559.939 213.85C558.959 213.85 558.279 214.55 558.279 215.54ZM563.122 211.67V210.77H568.452V211.67H566.282V218H565.302V211.67H563.122Z" fill="#000106"/>
<path d="M556.06 320.875V319.364H565.066V320.875H561.435V331H559.685V320.875H556.06ZM566.919 331V322.273H568.618V331H566.919ZM567.777 320.926C567.482 320.926 567.228 320.828 567.016 320.631C566.808 320.43 566.703 320.191 566.703 319.915C566.703 319.634 566.808 319.396 567.016 319.199C567.228 318.998 567.482 318.898 567.777 318.898C568.073 318.898 568.325 318.998 568.533 319.199C568.745 319.396 568.851 319.634 568.851 319.915C568.851 320.191 568.745 320.43 568.533 320.631C568.325 320.828 568.073 320.926 567.777 320.926ZM570.904 331V322.273H572.534V323.693H572.642C572.824 323.212 573.122 322.837 573.534 322.568C573.947 322.295 574.442 322.159 575.017 322.159C575.601 322.159 576.089 322.295 576.483 322.568C576.881 322.841 577.175 323.216 577.364 323.693H577.455C577.663 323.227 577.995 322.856 578.449 322.58C578.904 322.299 579.445 322.159 580.074 322.159C580.866 322.159 581.512 322.407 582.012 322.903C582.516 323.4 582.767 324.148 582.767 325.148V331H581.069V325.307C581.069 324.716 580.908 324.288 580.586 324.023C580.264 323.758 579.879 323.625 579.432 323.625C578.879 323.625 578.449 323.795 578.142 324.136C577.836 324.473 577.682 324.907 577.682 325.438V331H575.989V325.199C575.989 324.725 575.841 324.345 575.546 324.057C575.25 323.769 574.866 323.625 574.392 323.625C574.07 323.625 573.773 323.71 573.5 323.881C573.231 324.047 573.014 324.28 572.847 324.58C572.684 324.879 572.603 325.225 572.603 325.619V331H570.904ZM588.806 331.176C587.946 331.176 587.205 330.992 586.584 330.625C585.967 330.254 585.489 329.733 585.152 329.062C584.819 328.388 584.652 327.598 584.652 326.693C584.652 325.799 584.819 325.011 585.152 324.33C585.489 323.648 585.959 323.116 586.561 322.733C587.167 322.35 587.876 322.159 588.686 322.159C589.179 322.159 589.656 322.241 590.118 322.403C590.58 322.566 590.995 322.822 591.363 323.17C591.73 323.519 592.02 323.972 592.232 324.528C592.444 325.081 592.55 325.754 592.55 326.545V327.148H585.613V325.875H590.885C590.885 325.428 590.794 325.032 590.613 324.688C590.431 324.339 590.175 324.064 589.846 323.864C589.52 323.663 589.137 323.562 588.698 323.562C588.221 323.562 587.804 323.68 587.448 323.915C587.096 324.146 586.823 324.449 586.63 324.824C586.44 325.195 586.346 325.598 586.346 326.034V327.028C586.346 327.612 586.448 328.108 586.652 328.517C586.861 328.926 587.15 329.239 587.522 329.455C587.893 329.667 588.327 329.773 588.823 329.773C589.145 329.773 589.438 329.727 589.703 329.636C589.969 329.542 590.198 329.402 590.391 329.216C590.584 329.03 590.732 328.801 590.834 328.528L592.442 328.818C592.313 329.292 592.082 329.706 591.749 330.062C591.419 330.415 591.005 330.689 590.505 330.886C590.008 331.08 589.442 331.176 588.806 331.176Z" fill="black"/>
<path d="M463.585 114H461.195V106.77H463.545C465.705 106.77 467.165 108.23 467.165 110.39C467.165 112.54 465.725 114 463.585 114ZM463.475 107.67H462.175V113.09H463.515C465.125 113.09 466.145 112.05 466.145 110.39C466.145 108.71 465.125 107.67 463.475 107.67ZM469.682 114.12C468.632 114.12 468.012 113.53 468.012 112.64C468.012 111.74 468.682 111.18 469.832 111.09L471.372 110.97V110.83C471.372 110.01 470.882 109.72 470.222 109.72C469.432 109.72 468.982 110.07 468.982 110.66H468.162C468.162 109.64 469.002 108.97 470.262 108.97C471.472 108.97 472.292 109.61 472.292 110.93V114H471.492L471.392 113.21C471.142 113.77 470.472 114.12 469.682 114.12ZM469.952 113.39C470.842 113.39 471.382 112.81 471.382 111.89V111.63L470.132 111.73C469.302 111.81 468.962 112.13 468.962 112.61C468.962 113.13 469.342 113.39 469.952 113.39ZM474.534 114H473.594V109.11H474.444L474.544 109.86C474.854 109.3 475.474 108.97 476.164 108.97C477.454 108.97 478.044 109.76 478.044 111.01V114H477.104V111.22C477.104 110.23 476.644 109.83 475.924 109.83C475.044 109.83 474.534 110.46 474.534 111.41V114ZM480.306 114H479.366V106.64H480.306V111.41L482.476 109.11H483.656L481.786 111.06L483.646 114H482.566L481.136 111.74L480.306 112.61V114ZM484.053 112.58H484.953C484.953 113.08 485.333 113.38 485.953 113.38C486.613 113.38 486.993 113.11 486.993 112.66C486.993 112.33 486.833 112.13 486.323 112L485.463 111.8C484.593 111.59 484.183 111.16 484.183 110.44C484.183 109.54 484.943 108.97 486.023 108.97C487.093 108.97 487.793 109.57 487.813 110.5H486.913C486.893 110.01 486.563 109.7 485.993 109.7C485.403 109.7 485.073 109.96 485.073 110.41C485.073 110.74 485.313 110.96 485.793 111.08L486.653 111.29C487.483 111.49 487.893 111.87 487.893 112.6C487.893 113.53 487.093 114.12 485.933 114.12C484.783 114.12 484.053 113.51 484.053 112.58ZM489.876 113.99H488.936V106.64H489.876V109.86C490.186 109.33 490.776 108.97 491.536 108.97C492.786 108.97 493.386 109.76 493.386 111.01V114H492.446V111.22C492.446 110.23 491.976 109.83 491.276 109.83C490.366 109.83 489.876 110.49 489.876 111.33V113.99ZM496.118 114.12C495.068 114.12 494.448 113.53 494.448 112.64C494.448 111.74 495.118 111.18 496.268 111.09L497.808 110.97V110.83C497.808 110.01 497.318 109.72 496.658 109.72C495.868 109.72 495.418 110.07 495.418 110.66H494.598C494.598 109.64 495.438 108.97 496.698 108.97C497.908 108.97 498.728 109.61 498.728 110.93V114H497.928L497.828 113.21C497.578 113.77 496.908 114.12 496.118 114.12ZM496.388 113.39C497.278 113.39 497.818 112.81 497.818 111.89V111.63L496.568 111.73C495.738 111.81 495.398 112.13 495.398 112.61C495.398 113.13 495.778 113.39 496.388 113.39ZM502.83 109.07V109.93H502.41C501.52 109.93 500.97 110.47 500.97 111.41V114H500.03V109.12H500.91L500.97 109.86C501.17 109.35 501.66 109.01 502.33 109.01C502.5 109.01 502.64 109.03 502.83 109.07ZM505.495 114.12C504.075 114.12 503.215 113.06 503.215 111.57C503.215 110.07 504.085 108.97 505.535 108.97C506.285 108.97 506.915 109.3 507.245 109.9V106.64H508.175V114H507.335L507.255 113.11C506.935 113.78 506.275 114.12 505.495 114.12ZM505.685 113.27C506.645 113.27 507.235 112.56 507.235 111.54C507.235 110.54 506.645 109.82 505.685 109.82C504.725 109.82 504.165 110.54 504.165 111.54C504.165 112.55 504.725 113.27 505.685 113.27ZM509.992 107.95C509.652 107.95 509.372 107.67 509.372 107.33C509.372 106.98 509.652 106.71 509.992 106.71C510.332 106.71 510.612 106.98 510.612 107.33C510.612 107.67 510.332 107.95 509.992 107.95ZM509.532 114V109.11H510.472V114H509.532ZM512.776 114H511.836V109.11H512.686L512.786 109.86C513.096 109.3 513.716 108.97 514.406 108.97C515.696 108.97 516.286 109.76 516.286 111.01V114H515.346V111.22C515.346 110.23 514.886 109.83 514.166 109.83C513.286 109.83 512.776 110.46 512.776 111.41V114ZM517.278 111.43C517.278 110.05 518.168 108.97 519.588 108.97C520.378 108.97 520.988 109.33 521.298 109.94L521.368 109.11H522.208V113.8C522.208 115.34 521.258 116.32 519.758 116.32C518.428 116.32 517.518 115.57 517.338 114.33H518.278C518.398 115.05 518.938 115.47 519.758 115.47C520.678 115.47 521.278 114.87 521.278 113.94V112.96C520.958 113.53 520.318 113.87 519.548 113.87C518.158 113.87 517.278 112.8 517.278 111.43ZM518.218 111.41C518.218 112.33 518.788 113.05 519.708 113.05C520.658 113.05 521.238 112.37 521.238 111.41C521.238 110.47 520.678 109.79 519.718 109.79C518.778 109.79 518.218 110.51 518.218 111.41ZM526.089 111.99C526.089 111.12 526.599 110.42 527.399 110.13C526.719 109.84 526.349 109.27 526.349 108.54C526.349 107.41 527.319 106.64 528.759 106.64C530.179 106.64 531.139 107.41 531.139 108.55C531.139 109.29 530.759 109.86 530.079 110.13C530.889 110.39 531.409 111.11 531.409 112C531.409 113.27 530.349 114.12 528.749 114.12C527.139 114.12 526.089 113.27 526.089 111.99ZM527.249 108.6C527.249 109.31 527.839 109.77 528.739 109.77C529.649 109.77 530.219 109.32 530.219 108.62C530.219 107.93 529.649 107.49 528.739 107.49C527.839 107.49 527.249 107.93 527.249 108.6ZM527.049 111.92C527.049 112.73 527.719 113.25 528.749 113.25C529.769 113.25 530.439 112.73 530.439 111.92C530.439 111.12 529.779 110.61 528.739 110.61C527.709 110.61 527.049 111.12 527.049 111.92ZM534.468 110.26H533.748V109.61L535.798 107.64H532.548V106.77H537.038V107.56L535.058 109.45C536.288 109.6 537.218 110.43 537.218 111.73C537.218 113.19 536.118 114.12 534.648 114.12C533.228 114.12 532.208 113.25 532.208 111.75H533.178C533.178 112.69 533.758 113.24 534.668 113.24C535.608 113.24 536.218 112.64 536.218 111.71C536.218 110.84 535.618 110.26 534.468 110.26ZM538.806 114.12C538.416 114.12 538.086 113.8 538.086 113.42C538.086 113.03 538.416 112.71 538.806 112.71C539.186 112.71 539.516 113.03 539.516 113.42C539.516 113.8 539.186 114.12 538.806 114.12ZM545.529 113.99L540.649 114V113.25L542.979 111.24C544.149 110.23 544.479 109.74 544.479 108.97C544.479 108.06 543.959 107.52 543.089 107.52C542.199 107.52 541.619 108.17 541.599 109.2H540.619C540.649 107.65 541.629 106.64 543.099 106.64C544.549 106.64 545.479 107.52 545.479 108.91C545.479 109.94 544.969 110.67 543.689 111.78L542.189 113.08H545.529V113.99ZM546.081 107.67V106.77H551.411V107.67H549.241V114H548.261V107.67H546.081Z" fill="#000106"/>
<path d="M429.5 110.5L1.5 325L429.5 212" stroke="#C0AAFF" stroke-width="1.5"/>
<path d="M7.53764 6.61719C7.49124 6.183 7.29569 5.84493 6.95099 5.60298C6.60961 5.36103 6.16548 5.24006 5.61861 5.24006C5.23414 5.24006 4.90436 5.29806 4.62926 5.41406C4.35417 5.53007 4.1437 5.6875 3.99787 5.88636C3.85204 6.08523 3.77746 6.31226 3.77415 6.56747C3.77415 6.77959 3.82221 6.96354 3.91832 7.11932C4.01776 7.27509 4.15199 7.40767 4.32102 7.51705C4.49006 7.62311 4.67732 7.71259 4.88281 7.78551C5.08831 7.85843 5.29545 7.91974 5.50426 7.96946L6.45881 8.2081C6.84328 8.29758 7.21283 8.41856 7.56747 8.57102C7.92543 8.72348 8.24527 8.91572 8.52699 9.14773C8.81203 9.37973 9.03741 9.6598 9.20312 9.98793C9.36884 10.3161 9.4517 10.7005 9.4517 11.1413C9.4517 11.7379 9.29924 12.2633 8.99432 12.7173C8.68939 13.1681 8.24858 13.5211 7.67188 13.7763C7.09848 14.0282 6.40412 14.1541 5.58878 14.1541C4.79664 14.1541 4.1089 14.0315 3.52557 13.7862C2.94555 13.541 2.49148 13.183 2.16335 12.7124C1.83854 12.2417 1.66288 11.6683 1.63636 10.9922H3.45099C3.47751 11.3468 3.58688 11.6418 3.77912 11.8771C3.97135 12.1125 4.22159 12.2881 4.52983 12.4041C4.84138 12.5201 5.18939 12.5781 5.57386 12.5781C5.97491 12.5781 6.32623 12.5185 6.62784 12.3991C6.93277 12.2765 7.1714 12.1075 7.34375 11.892C7.5161 11.6733 7.60393 11.4181 7.60724 11.1264C7.60393 10.8613 7.52604 10.6425 7.37358 10.4702C7.22112 10.2945 7.00734 10.1487 6.73224 10.0327C6.46046 9.91335 6.14228 9.80729 5.7777 9.71449L4.61932 9.41619C3.78078 9.20076 3.1179 8.87429 2.63068 8.43679C2.14678 7.99598 1.90483 7.41098 1.90483 6.68182C1.90483 6.08191 2.06723 5.55658 2.39205 5.10582C2.72017 4.65507 3.16596 4.3054 3.7294 4.05682C4.29285 3.80492 4.93087 3.67898 5.64347 3.67898C6.366 3.67898 6.99905 3.80492 7.54261 4.05682C8.08949 4.3054 8.5187 4.65175 8.83026 5.09588C9.14181 5.53669 9.30256 6.0438 9.3125 6.61719H7.53764ZM14.8297 6.36364V7.75568H10.4398V6.36364H14.8297ZM11.5236 4.53409H13.3233V11.7031C13.3233 11.9451 13.3598 12.1307 13.4327 12.2599C13.5089 12.3859 13.6084 12.4721 13.731 12.5185C13.8536 12.5649 13.9895 12.5881 14.1387 12.5881C14.2514 12.5881 14.3541 12.5798 14.4469 12.5632C14.543 12.5466 14.6159 12.5317 14.6657 12.5185L14.9689 13.9254C14.8728 13.9586 14.7353 13.995 14.5563 14.0348C14.3806 14.0746 14.1652 14.0978 13.91 14.1044C13.4592 14.1177 13.0532 14.0497 12.6919 13.9006C12.3307 13.7481 12.044 13.5128 11.8319 13.1946C11.623 12.8764 11.5203 12.4787 11.5236 12.0014V4.53409ZM19.5838 14.1491C18.8381 14.1491 18.1918 13.9851 17.6449 13.657C17.098 13.3288 16.6738 12.8698 16.3722 12.2798C16.0739 11.6899 15.9247 11.0005 15.9247 10.2116C15.9247 9.42282 16.0739 8.73177 16.3722 8.13849C16.6738 7.54522 17.098 7.08452 17.6449 6.75639C18.1918 6.42827 18.8381 6.2642 19.5838 6.2642C20.3295 6.2642 20.9759 6.42827 21.5227 6.75639C22.0696 7.08452 22.4922 7.54522 22.7905 8.13849C23.0921 8.73177 23.2429 9.42282 23.2429 10.2116C23.2429 11.0005 23.0921 11.6899 22.7905 12.2798C22.4922 12.8698 22.0696 13.3288 21.5227 13.657C20.9759 13.9851 20.3295 14.1491 19.5838 14.1491ZM19.5938 12.7074C19.9981 12.7074 20.3362 12.5964 20.608 12.3743C20.8797 12.1489 21.0819 11.8473 21.2145 11.4695C21.3504 11.0916 21.4183 10.6707 21.4183 10.2067C21.4183 9.73935 21.3504 9.31676 21.2145 8.93892C21.0819 8.55777 20.8797 8.2545 20.608 8.02912C20.3362 7.80374 19.9981 7.69105 19.5938 7.69105C19.1795 7.69105 18.8348 7.80374 18.5597 8.02912C18.2879 8.2545 18.084 8.55777 17.9482 8.93892C17.8156 9.31676 17.7493 9.73935 17.7493 10.2067C17.7493 10.6707 17.8156 11.0916 17.9482 11.4695C18.084 11.8473 18.2879 12.1489 18.5597 12.3743C18.8348 12.5964 19.1795 12.7074 19.5938 12.7074ZM24.7704 14V6.36364H26.5154V7.63636H26.595C26.7342 7.19555 26.9728 6.85582 27.3109 6.61719C27.6523 6.37524 28.0417 6.25426 28.4792 6.25426C28.5787 6.25426 28.6897 6.25923 28.8123 6.26918C28.9383 6.2758 29.0427 6.2874 29.1255 6.30398V7.95952C29.0493 7.933 28.9283 7.9098 28.7626 7.88991C28.6002 7.86671 28.4428 7.85511 28.2903 7.85511C27.9622 7.85511 27.6672 7.92637 27.4054 8.06889C27.1468 8.2081 26.943 8.40199 26.7939 8.65057C26.6447 8.89915 26.5701 9.18584 26.5701 9.51065V14H24.7704ZM32.3819 14.1541C31.898 14.1541 31.4622 14.0679 31.0744 13.8956C30.6899 13.7199 30.385 13.4614 30.1596 13.12C29.9376 12.7786 29.8265 12.3577 29.8265 11.8572C29.8265 11.4264 29.9061 11.0701 30.0652 10.7884C30.2243 10.5066 30.4413 10.2812 30.7164 10.1122C30.9915 9.94318 31.3014 9.81558 31.6461 9.7294C31.9941 9.63991 32.3538 9.57528 32.725 9.53551C33.1724 9.48911 33.5353 9.44768 33.8137 9.41122C34.0922 9.37145 34.2943 9.31179 34.4203 9.23224C34.5495 9.14938 34.6142 9.02178 34.6142 8.84943V8.8196C34.6142 8.44508 34.5031 8.15507 34.2811 7.94957C34.059 7.74408 33.7392 7.64134 33.3216 7.64134C32.8807 7.64134 32.5311 7.73745 32.2725 7.92969C32.0173 8.12192 31.845 8.34896 31.7555 8.6108L30.0751 8.37216C30.2077 7.90814 30.4264 7.52036 30.7314 7.20881C31.0363 6.89394 31.4092 6.65862 31.85 6.50284C32.2908 6.34375 32.778 6.2642 33.3116 6.2642C33.6795 6.2642 34.0458 6.30729 34.4103 6.39347C34.7749 6.47964 35.108 6.62216 35.4096 6.82102C35.7112 7.01657 35.9532 7.28338 36.1355 7.62145C36.3211 7.95952 36.4139 8.3821 36.4139 8.8892V14H34.6838V12.951H34.6241C34.5147 13.1631 34.3606 13.362 34.1618 13.5476C33.9662 13.7299 33.7193 13.8774 33.421 13.9901C33.126 14.0994 32.7797 14.1541 32.3819 14.1541ZM32.8493 12.8317C33.2105 12.8317 33.5237 12.7604 33.7889 12.6179C34.054 12.4721 34.2579 12.2798 34.4004 12.0412C34.5462 11.8026 34.6191 11.5424 34.6191 11.2607V10.3608C34.5628 10.4072 34.4667 10.4503 34.3308 10.4901C34.1982 10.5298 34.0491 10.5646 33.8833 10.5945C33.7176 10.6243 33.5536 10.6508 33.3912 10.674C33.2288 10.6972 33.0879 10.7171 32.9686 10.7337C32.7001 10.7701 32.4598 10.8298 32.2477 10.9126C32.0356 10.9955 31.8682 11.1115 31.7456 11.2607C31.6229 11.4065 31.5616 11.5954 31.5616 11.8274C31.5616 12.1589 31.6826 12.4091 31.9245 12.5781C32.1665 12.7472 32.4747 12.8317 32.8493 12.8317ZM41.5446 17.0227C40.8983 17.0227 40.3431 16.9349 39.8791 16.7592C39.4151 16.5869 39.0422 16.3549 38.7605 16.0632C38.4788 15.7715 38.2832 15.4484 38.1738 15.0938L39.7946 14.701C39.8675 14.8501 39.9735 14.9976 40.1127 15.1435C40.252 15.2926 40.4392 15.4152 40.6745 15.5114C40.9132 15.6108 41.2131 15.6605 41.5744 15.6605C42.0848 15.6605 42.5074 15.5362 42.8422 15.2876C43.1769 15.0424 43.3443 14.638 43.3443 14.0746V12.6278H43.2548C43.162 12.8134 43.0261 13.004 42.8471 13.1996C42.6715 13.3951 42.4378 13.5592 42.1461 13.6918C41.8578 13.8243 41.4949 13.8906 41.0574 13.8906C40.4707 13.8906 39.9387 13.7531 39.4615 13.478C38.9875 13.1996 38.6097 12.7853 38.3279 12.2351C38.0495 11.6816 37.9103 10.9889 37.9103 10.157C37.9103 9.31842 38.0495 8.6108 38.3279 8.03409C38.6097 7.45407 38.9892 7.01491 39.4664 6.71662C39.9437 6.41501 40.4757 6.2642 41.0623 6.2642C41.5098 6.2642 41.8777 6.34044 42.166 6.4929C42.4577 6.64205 42.6897 6.82268 42.862 7.0348C43.0344 7.24361 43.1653 7.44081 43.2548 7.62642H43.3542V6.36364H45.1291V14.1243C45.1291 14.7772 44.9733 15.3175 44.6618 15.745C44.3502 16.1726 43.9243 16.4924 43.3841 16.7045C42.8438 16.9167 42.2306 17.0227 41.5446 17.0227ZM41.5595 12.4787C41.9406 12.4787 42.2654 12.3859 42.5339 12.2003C42.8024 12.0147 43.0062 11.7479 43.1454 11.3999C43.2846 11.0518 43.3542 10.6342 43.3542 10.147C43.3542 9.66643 43.2846 9.2455 43.1454 8.88423C43.0095 8.52296 42.8074 8.2429 42.5389 8.04403C42.2737 7.84186 41.9473 7.74077 41.5595 7.74077C41.1584 7.74077 40.8237 7.84517 40.5552 8.05398C40.2868 8.26278 40.0846 8.54948 39.9487 8.91406C39.8128 9.27533 39.7449 9.68632 39.7449 10.147C39.7449 10.6143 39.8128 11.0237 39.9487 11.375C40.0879 11.723 40.2917 11.9948 40.5602 12.1903C40.832 12.3826 41.1651 12.4787 41.5595 12.4787ZM50.3542 14.1491C49.5886 14.1491 48.9274 13.9901 48.3706 13.6719C47.8171 13.3504 47.3912 12.8963 47.0929 12.3097C46.7946 11.7197 46.6454 11.0253 46.6454 10.2266C46.6454 9.44105 46.7946 8.75166 47.0929 8.15838C47.3945 7.56179 47.8154 7.09777 48.3556 6.76633C48.8959 6.43158 49.5306 6.2642 50.2598 6.2642C50.7304 6.2642 51.1745 6.34044 51.5922 6.4929C52.0131 6.64205 52.3843 6.87405 52.7058 7.18892C53.0306 7.50379 53.2858 7.90483 53.4714 8.39205C53.657 8.87595 53.7498 9.45265 53.7498 10.1222V10.674H47.4906V9.46094H52.0247C52.0214 9.11624 51.9468 8.80966 51.801 8.54119C51.6551 8.26941 51.4513 8.05563 51.1895 7.89986C50.9309 7.74408 50.6293 7.66619 50.2846 7.66619C49.9167 7.66619 49.5936 7.75568 49.3152 7.93466C49.0368 8.11032 48.8197 8.34233 48.6639 8.63068C48.5114 8.91572 48.4335 9.22893 48.4302 9.57031V10.6293C48.4302 11.0734 48.5114 11.4545 48.6738 11.7727C48.8362 12.0876 49.0633 12.3295 49.3549 12.4986C49.6466 12.6643 49.988 12.7472 50.3791 12.7472C50.6409 12.7472 50.8779 12.7107 51.09 12.6378C51.3021 12.5616 51.4861 12.4505 51.6419 12.3047C51.7976 12.1589 51.9153 11.9782 51.9949 11.7628L53.6752 11.9517C53.5692 12.3958 53.367 12.7836 53.0687 13.1151C52.7737 13.4432 52.3959 13.6984 51.9352 13.8807C51.4745 14.0597 50.9475 14.1491 50.3542 14.1491ZM55.7198 9.84872C55.7198 8.60582 55.8839 7.46402 56.212 6.4233C56.5434 5.37926 57.0356 4.41477 57.6886 3.52983H59.3839C59.132 3.85795 58.8967 4.26065 58.6779 4.73793C58.4592 5.21188 58.2686 5.73224 58.1062 6.29901C57.9471 6.86245 57.8211 7.44744 57.7283 8.05398C57.6388 8.66051 57.5941 9.25876 57.5941 9.84872C57.5941 10.6342 57.672 11.4297 57.8278 12.2351C57.9869 13.0405 58.2006 13.7862 58.4691 14.4723C58.7409 15.1617 59.0458 15.7251 59.3839 16.1626H57.6886C57.0356 15.2777 56.5434 14.3149 56.212 13.2741C55.8839 12.2301 55.7198 11.0883 55.7198 9.84872ZM60.4142 5.36435V3.81818H68.5378V5.36435H65.3908V14H63.5613V5.36435H60.4142ZM70.1039 14V3.81818H74.0016C74.7374 3.81818 75.3489 3.93419 75.8361 4.16619C76.3266 4.39489 76.6929 4.7081 76.9348 5.10582C77.1801 5.50355 77.3027 5.95431 77.3027 6.4581C77.3027 6.8724 77.2232 7.22704 77.0641 7.52202C76.905 7.81368 76.6912 8.05066 76.4228 8.23295C76.1543 8.41525 75.8543 8.54616 75.5229 8.62571V8.72514C75.8842 8.74503 76.2305 8.85606 76.562 9.05824C76.8967 9.2571 77.1702 9.53883 77.3823 9.90341C77.5944 10.268 77.7005 10.7088 77.7005 11.2259C77.7005 11.7528 77.5729 12.2268 77.3176 12.6477C77.0624 13.0653 76.678 13.3951 76.1642 13.6371C75.6505 13.879 75.0042 14 74.2253 14H70.1039ZM71.9483 12.4588H73.932C74.6015 12.4588 75.0837 12.3312 75.3787 12.076C75.677 11.8175 75.8262 11.486 75.8262 11.0817C75.8262 10.7801 75.7516 10.5083 75.6025 10.2663C75.4533 10.0211 75.2412 9.82884 74.9661 9.68963C74.691 9.54711 74.3629 9.47585 73.9817 9.47585H71.9483V12.4588ZM71.9483 8.14844H73.7729C74.0911 8.14844 74.3778 8.09044 74.633 7.97443C74.8882 7.85511 75.0887 7.68774 75.2346 7.4723C75.3837 7.25355 75.4583 6.99503 75.4583 6.69673C75.4583 6.30232 75.3191 5.97751 75.0407 5.7223C74.7656 5.46709 74.3562 5.33949 73.8127 5.33949H71.9483V8.14844ZM82.4371 9.84872C82.4371 11.0883 82.2714 12.2301 81.94 13.2741C81.6119 14.3149 81.1213 15.2777 80.4684 16.1626H78.7731C79.0283 15.8345 79.2636 15.4335 79.479 14.9595C79.6978 14.4856 79.8867 13.9652 80.0458 13.3984C80.2082 12.8317 80.3342 12.245 80.4237 11.6385C80.5165 11.032 80.5629 10.4354 80.5629 9.84872C80.5629 9.06321 80.4833 8.26776 80.3242 7.46236C80.1684 6.65696 79.9547 5.90956 79.6829 5.22017C79.4144 4.53078 79.1112 3.96733 78.7731 3.52983H80.4684C81.1213 4.41477 81.6119 5.37926 81.94 6.4233C82.2714 7.46402 82.4371 8.60582 82.4371 9.84872Z" fill="black"/>
</svg>
