<svg width="383" height="230" viewBox="0 0 383 230" fill="none" xmlns="http://www.w3.org/2000/svg">
<path d="M10 5L38 21M10 5V45.5L17 50.5M10 5L17 1L45 17M38 21V45.5M38 21L45 17M38 45.5L45 41.5V17M38 45.5L24 37.8333M17 50.5V34L24 37.8333M17 50.5L24 46.5V37.8333M17 26V17.5L24 21.75M17 26L31 34V26L24 21.75M17 26L24 21.75" stroke="#A381FD"/>
<path d="M52 27V67.5L80 83.5M52 27L80 43M52 27L59 23L87.5 39M80 83.5V43M80 83.5L87.5 79V39M80 43L87.5 39M59 63L73 71V63M59 63V39L66 43M59 63L66 59M66 59V43M66 59L73 63M66 43L73 47V63" stroke="#A381FD"/>
<path d="M94 51V83.5L101 87.5V95.5L108 99.5M94 51L101 55M94 51L101 47L108 51M108 99.5V91.5L115 95.5M108 99.5L115 95.5M115 95.5V103.5L122 107.5M122 107.5V99.5L129 103.5M122 107.5L129 103.5M129 103.5V71M129 103.5L136 99.5V67M129 71L122 67M129 71L136 67M122 67V91.5L115 87.5V63M122 67L129 63L136 67M122 67V59M115 63L108 59M115 63L122 59M108 59V75.5M108 59L115 55L122 59M108 59V51M101 79.5L108 83.5V75.5M101 79.5V55M101 79.5L108 75.5M101 55L108 51" stroke="#A381FD"/>
<path d="M143 80V120.5L171 137M143 80L171 96M143 80L150 76L178.5 92M171 96V104.5M171 96L178.5 92M171 104.5L150 92V100.5L171 112M171 104.5L178.5 100.5V92M171 104.5L178.5 108M171 112V120.5M171 112L178.5 108M171 120.5L150 108.5V116.5L171 128.5M171 120.5L178.5 116.5V108M171 120.5L178.5 124M171 128.5V137M171 128.5L178.5 124M171 137L178.5 132V124" stroke="#A381FD"/>
<path d="M185 102V143.5L192 147.5M185 102L206 114.5L213 118.5M185 102L192 98L220.5 114.5L213 118.5M192 147.5V130.5L199 135V143.5M192 147.5L199 143.5M199 143.5V151L206 155.5L213 159.5M213 159.5V151.5M213 159.5L220.5 155V147.5M213 151.5L206 147V139L213 143M213 151.5L220.5 147.5M192 123V114.5L199 118.75M192 123L206 131V123L199 118.75M192 123L199 118.75M213 118.5V143M213 143L220 139L220.5 115M213 143L220.5 147.5" stroke="#A381FD"/>
<path d="M227 128V168.5L234 172.5M227 128L248 140M227 128L234 124L255 136M234 172.5V156L241 160.25M234 172.5L241 169V160.25M248 164.5V156M248 164.5L255 160.5V152M248 164.5L241 160.25M248 156L234 148V139.5L248 148M248 156L255 152M248 148V140M248 148L255 144V136M248 148L255 152M248 140L255 136" stroke="#A381FD"/>
<path d="M262 149V181.5L269 185.5V193.5L283 201.5M262 149L269 153M262 149L269 145L276 149M283 201.5V193.5L290 197.5M283 201.5L290 197.5M290 197.5V165.5M290 197.5L297 193.5V161M290 165.5L283 161M290 165.5L297 161M283 161V177M283 161L290 157L297 161M269 177L283 185.5V177M269 177V153M269 177L276 173M269 153L276 149M276 149V173M276 173L283 177" stroke="#A381FD"/>
<path d="M304 172V213L332.5 229M304 172L311 176M304 172L311 168L318 172M332.5 229V221M332.5 229L339 225V217M332.5 221L311 208.5M332.5 221L339 217M311 208.5V176M311 208.5L318 204.5M311 176L318 172M339 217L318 204.5M318 204.5V172" stroke="#A381FD"/>
</svg>
