<svg xmlns="http://www.w3.org/2000/svg" width="28" height="28" viewBox="0 0 28 28" fill="none">
    <rect width="28" height="28" rx="14" fill="white"/>
    <path d="M10.0766 19.2227C7.27287 19.2227 5 16.9341 5 14.1113C5 11.2885 7.27303 8.99989 10.0766 8.99989C12.8801 8.99989 15.1531 11.2883 15.1531 14.1113C15.1531 16.9343 12.8804 19.2227 10.0766 19.2227ZM18.1836 18.9232C16.7817 18.9232 15.6455 16.7683 15.6455 14.1112C15.6455 11.4541 16.7819 9.299 18.1838 9.299C19.5857 9.299 20.7221 11.4539 20.7221 14.1112H20.7219C20.7219 16.7691 19.5856 18.9232 18.1837 18.9232H18.1836ZM22.1072 18.422C21.6143 18.422 21.2147 16.4919 21.2147 14.1112C21.2147 11.7305 21.614 9.80036 22.1072 9.80036C22.6004 9.80036 23 11.731 23 14.1113C23 16.492 22.6002 18.422 22.1073 18.422H22.1072Z"
          fill="#825BF2"/>
</svg>
