<svg width="773" height="447" viewBox="0 0 773 447" fill="none" xmlns="http://www.w3.org/2000/svg">
<path d="M10.7 21H1.62V6.38H10.7V8.74H4.18V12.5H10.02V14.76H4.18V18.64H10.7V21ZM16.4755 21H14.0355V13.16H12.1355V11.12H14.0355V8.04H16.4755V11.12H18.3955V13.16H16.4755V21ZM22.3523 21H19.9123V6.12H22.3723V12.4C22.9923 11.44 24.1523 10.82 25.5723 10.82C28.0123 10.82 29.2923 12.36 29.2923 14.92V21H26.8523V15.5C26.8523 13.84 26.0323 13.04 24.7923 13.04C23.2523 13.04 22.3523 14.12 22.3523 15.6V21ZM36.1097 21.26C33.1697 21.26 31.1097 19.12 31.1097 16.06C31.1097 12.96 33.1297 10.82 36.0297 10.82C38.9897 10.82 40.8697 12.8 40.8697 15.88V16.62L33.4297 16.64C33.6097 18.38 34.5297 19.26 36.1497 19.26C37.4897 19.26 38.3697 18.74 38.6497 17.8H40.9097C40.4897 19.96 38.6897 21.26 36.1097 21.26ZM36.0497 12.82C34.6097 12.82 33.7297 13.6 33.4897 15.08H38.4497C38.4497 13.72 37.5097 12.82 36.0497 12.82ZM49.0225 11.08V13.34H48.1225C46.3625 13.34 45.2625 14.28 45.2625 16.2V21H42.8225V11.14H45.1225L45.2625 12.58C45.6825 11.6 46.6225 10.94 47.9425 10.94C48.2825 10.94 48.6225 10.98 49.0225 11.08ZM54.762 21.26C51.822 21.26 49.762 19.12 49.762 16.06C49.762 12.96 51.782 10.82 54.682 10.82C57.642 10.82 59.522 12.8 59.522 15.88V16.62L52.082 16.64C52.262 18.38 53.182 19.26 54.802 19.26C56.142 19.26 57.022 18.74 57.302 17.8H59.562C59.142 19.96 57.342 21.26 54.762 21.26ZM54.702 12.82C53.262 12.82 52.382 13.6 52.142 15.08H57.102C57.102 13.72 56.162 12.82 54.702 12.82ZM68.1748 11.12H70.6148V21H68.3548L68.1748 19.68C67.5748 20.62 66.2948 21.26 64.9748 21.26C62.6948 21.26 61.3548 19.72 61.3548 17.3V11.12H63.7948V16.44C63.7948 18.32 64.5348 19.08 65.8948 19.08C67.4348 19.08 68.1748 18.18 68.1748 16.3V11.12ZM75.575 21H73.135V11.12H75.375L75.575 12.28C76.075 11.46 77.075 10.82 78.495 10.82C79.995 10.82 81.035 11.56 81.555 12.7C82.055 11.56 83.215 10.82 84.715 10.82C87.115 10.82 88.435 12.26 88.435 14.54V21H86.015V15.18C86.015 13.76 85.255 13.02 84.095 13.02C82.915 13.02 82.015 13.78 82.015 15.4V21H79.575V15.16C79.575 13.78 78.835 13.04 77.675 13.04C76.515 13.04 75.575 13.8 75.575 15.4V21ZM99.1409 6.38V18.64H105.261V21H96.5809V6.38H99.1409ZM109.603 8.68H106.403V6.38H112.063V21H109.603V8.68Z" fill="black"/>
<rect x="403.5" y="51.5" width="369" height="395" rx="7.5" fill="white" stroke="black" stroke-dasharray="4 4"/>
<path d="M649.115 129.046L649.109 129.63L649.687 129.546C651.237 129.319 652.823 129.202 654.437 129.202C672.416 129.202 686.99 143.777 686.99 161.755C686.99 179.734 672.416 194.309 654.437 194.309H578.689C560.71 194.309 546.136 179.734 546.136 161.755C546.136 143.777 560.71 129.202 578.689 129.202C580.303 129.202 581.889 129.319 583.439 129.546L584.017 129.63L584.011 129.046C584.01 128.931 584.01 128.817 584.01 128.702C584.01 110.723 598.584 96.1484 616.563 96.1484C634.542 96.1484 649.116 110.723 649.116 128.702C649.116 128.817 649.116 128.931 649.115 129.046Z" fill="white" stroke="#4AA6FF"/>
<path d="M578.733 189.3C563.372 189.3 550.762 176.8 550.762 161.319C550.762 145.838 563.257 133.339 578.733 133.339C580.108 133.339 581.484 133.453 582.86 133.683L588.821 134.6L588.706 128.293C588.706 112.927 601.201 100.312 616.677 100.312C632.153 100.312 644.648 112.812 644.648 128.293L644.533 134.6L650.494 133.683C651.87 133.453 653.245 133.339 654.621 133.339C669.982 133.339 682.592 145.838 682.592 161.319C682.592 176.8 670.097 189.3 654.621 189.3H578.733Z" fill="white" stroke="#4AA6FF"/>
<path d="M639.422 194.828C639.422 195.019 639.336 195.25 639.081 195.525C638.823 195.802 638.419 196.094 637.855 196.387C636.729 196.973 635.068 197.516 632.972 197.977C628.79 198.898 622.988 199.472 616.562 199.472C610.137 199.472 604.335 198.898 600.152 197.977C598.057 197.516 596.395 196.973 595.27 196.387C594.706 196.094 594.302 195.802 594.044 195.525C593.789 195.25 593.703 195.019 593.703 194.828V177.324H639.422V194.828Z" fill="white" stroke="#4AA6FF"/>
<path d="M622.882 190.41V204.521C622.882 206.731 624.673 208.521 626.882 208.521H668.372" stroke="#4AA6FF"/>
<circle cx="667.539" cy="208.52" r="2.25477" fill="white" stroke="#4AA6FF"/>
<path d="M609.293 190.41V204.521C609.293 206.731 607.502 208.521 605.293 208.521H563.803" stroke="#4AA6FF"/>
<circle cx="2.75477" cy="2.75477" r="2.25477" transform="matrix(-1 0 0 1 567.392 205.766)" fill="white" stroke="#4AA6FF"/>
<path d="M639.425 176.824C639.425 177.452 638.958 178.168 637.816 178.913C636.695 179.644 635.04 180.321 632.95 180.897C628.776 182.048 622.983 182.766 616.563 182.766C610.144 182.766 604.35 182.048 600.177 180.897C598.086 180.321 596.431 179.644 595.31 178.913C594.168 178.168 593.701 177.452 593.701 176.824C593.701 176.197 594.168 175.481 595.31 174.736C596.431 174.005 598.086 173.328 600.177 172.752C604.35 171.601 610.144 170.883 616.563 170.883C622.983 170.883 628.776 171.601 632.95 172.752C635.04 173.328 636.695 174.005 637.816 174.736C638.958 175.481 639.425 176.197 639.425 176.824Z" fill="white" stroke="#4AA6FF"/>
<path d="M639.423 172.09C639.423 172.281 639.337 172.512 639.082 172.786C638.824 173.064 638.42 173.356 637.856 173.649C636.73 174.235 635.069 174.778 632.973 175.239C628.791 176.16 622.989 176.734 616.563 176.734C610.138 176.734 604.336 176.16 600.153 175.239C598.058 174.778 596.396 174.235 595.271 173.649C594.707 173.356 594.303 173.064 594.045 172.786C593.79 172.512 593.704 172.281 593.704 172.09V154.586H639.423V172.09Z" fill="white" stroke="#4AA6FF"/>
<path d="M639.425 154.086C639.425 154.713 638.958 155.43 637.816 156.175C636.695 156.905 635.04 157.583 632.95 158.159C628.776 159.31 622.983 160.028 616.563 160.028C610.144 160.028 604.35 159.31 600.177 158.159C598.086 157.583 596.431 156.905 595.31 156.175C594.168 155.43 593.701 154.713 593.701 154.086C593.701 153.459 594.168 152.742 595.31 151.998C596.431 151.267 598.086 150.59 600.177 150.013C604.35 148.863 610.144 148.145 616.563 148.145C622.983 148.145 628.776 148.863 632.95 150.013C635.04 150.59 636.695 151.267 637.816 151.998C638.958 152.742 639.425 153.459 639.425 154.086Z" fill="white" stroke="#4AA6FF"/>
<path d="M622.382 154.695C622.382 154.857 622.301 155.064 622.043 155.306C621.785 155.548 621.384 155.789 620.846 156.002C619.775 156.428 618.261 156.702 616.562 156.702C614.864 156.702 613.35 156.428 612.278 156.002C611.741 155.789 611.34 155.548 611.082 155.306C610.824 155.064 610.743 154.857 610.743 154.695C610.743 154.532 610.824 154.325 611.082 154.083C611.34 153.841 611.741 153.6 612.278 153.387C613.35 152.961 614.864 152.688 616.562 152.688C618.261 152.688 619.775 152.961 620.846 153.387C621.384 153.6 621.785 153.841 622.043 154.083C622.301 154.325 622.382 154.532 622.382 154.695Z" fill="white" stroke="#4AA6FF"/>
<circle cx="609.5" cy="192.052" r="2.25477" fill="white" stroke="#4AA6FF"/>
<circle cx="622.881" cy="192.052" r="2.25477" fill="white" stroke="#4AA6FF"/>
<circle cx="593.203" cy="208.122" r="3.23124" fill="white" stroke="#4AA6FF"/>
<circle cx="577.925" cy="216.977" r="2.07481" fill="white" stroke="#4AA6FF"/>
<circle cx="638.505" cy="208.122" r="3.23124" fill="white" stroke="#4AA6FF"/>
<path d="M613.576 199.27V212.974C613.576 215.183 611.785 216.974 609.576 216.974H579.447" stroke="#4AA6FF"/>
<circle cx="2.57481" cy="2.57481" r="2.07481" transform="matrix(-1 0 0 1 657.138 214.402)" fill="white" stroke="#4AA6FF"/>
<path d="M618.912 199.27V212.974C618.912 215.183 620.703 216.974 622.912 216.974H653.041" stroke="#4AA6FF"/>
<path d="M649.116 260.495L649.11 261.08L649.688 260.995C651.238 260.768 652.824 260.651 654.438 260.651C672.417 260.651 686.991 275.226 686.991 293.205C686.991 311.183 672.417 325.758 654.438 325.758H578.69C560.711 325.758 546.137 311.183 546.137 293.205C546.137 275.226 560.711 260.651 578.69 260.651C580.304 260.651 581.89 260.768 583.44 260.995L584.018 261.08L584.012 260.495C584.011 260.381 584.011 260.266 584.011 260.151C584.011 242.172 598.585 227.598 616.564 227.598C634.543 227.598 649.117 242.172 649.117 260.151C649.117 260.266 649.117 260.381 649.116 260.495Z" fill="white" stroke="#4AA6FF"/>
<path d="M578.734 320.749C563.373 320.749 550.763 308.25 550.763 292.768C550.763 277.287 563.258 264.788 578.734 264.788C580.109 264.788 581.485 264.903 582.861 265.132L588.822 266.049L588.707 259.742C588.707 244.376 601.202 231.762 616.678 231.762C632.154 231.762 644.649 244.261 644.649 259.742L644.534 266.049L650.495 265.132C651.871 264.903 653.246 264.788 654.622 264.788C669.983 264.788 682.593 277.287 682.593 292.768C682.593 308.25 670.098 320.749 654.622 320.749H578.734Z" fill="white" stroke="#4AA6FF"/>
<path d="M639.423 326.278C639.423 326.468 639.337 326.699 639.082 326.974C638.824 327.251 638.42 327.543 637.856 327.836C636.73 328.422 635.069 328.965 632.973 329.427C628.791 330.348 622.989 330.922 616.563 330.922C610.138 330.922 604.336 330.348 600.153 329.427C598.058 328.965 596.396 328.422 595.271 327.836C594.707 327.543 594.303 327.251 594.045 326.974C593.79 326.699 593.704 326.468 593.704 326.278V308.773H639.423V326.278Z" fill="white" stroke="#4AA6FF"/>
<path d="M622.883 321.859V335.971C622.883 338.18 624.674 339.971 626.883 339.971H668.373" stroke="#4AA6FF"/>
<circle cx="667.54" cy="339.97" r="2.25477" fill="white" stroke="#4AA6FF"/>
<path d="M609.294 321.859V335.971C609.294 338.18 607.503 339.971 605.294 339.971H563.804" stroke="#4AA6FF"/>
<circle cx="2.75477" cy="2.75477" r="2.25477" transform="matrix(-1 0 0 1 567.393 337.215)" fill="white" stroke="#4AA6FF"/>
<path d="M639.426 308.274C639.426 308.901 638.959 309.618 637.817 310.362C636.696 311.093 635.041 311.77 632.951 312.347C628.777 313.497 622.984 314.215 616.564 314.215C610.145 314.215 604.351 313.497 600.178 312.347C598.087 311.77 596.432 311.093 595.311 310.362C594.169 309.618 593.702 308.901 593.702 308.274C593.702 307.646 594.169 306.93 595.311 306.185C596.432 305.454 598.087 304.777 600.178 304.201C604.351 303.05 610.145 302.332 616.564 302.332C622.984 302.332 628.777 303.05 632.951 304.201C635.041 304.777 636.696 305.454 637.817 306.185C638.959 306.93 639.426 307.646 639.426 308.274Z" fill="white" stroke="#4AA6FF"/>
<path d="M639.424 303.539C639.424 303.73 639.338 303.961 639.083 304.236C638.825 304.513 638.421 304.805 637.857 305.098C636.731 305.684 635.07 306.227 632.974 306.688C628.792 307.609 622.99 308.183 616.564 308.183C610.139 308.183 604.337 307.609 600.154 306.688C598.059 306.227 596.397 305.684 595.272 305.098C594.708 304.805 594.304 304.513 594.046 304.236C593.791 303.961 593.705 303.73 593.705 303.539V286.035H639.424V303.539Z" fill="white" stroke="#4AA6FF"/>
<path d="M639.426 285.535C639.426 286.163 638.959 286.879 637.817 287.624C636.696 288.355 635.041 289.032 632.951 289.608C628.777 290.759 622.984 291.477 616.564 291.477C610.145 291.477 604.351 290.759 600.178 289.608C598.087 289.032 596.432 288.355 595.311 287.624C594.169 286.879 593.702 286.163 593.702 285.535C593.702 284.908 594.169 284.191 595.311 283.447C596.432 282.716 598.087 282.039 600.178 281.462C604.351 280.312 610.145 279.594 616.564 279.594C622.984 279.594 628.777 280.312 632.951 281.462C635.041 282.039 636.696 282.716 637.817 283.447C638.959 284.191 639.426 284.908 639.426 285.535Z" fill="white" stroke="#4AA6FF"/>
<path d="M622.383 286.144C622.383 286.307 622.302 286.513 622.044 286.755C621.786 286.997 621.385 287.239 620.847 287.452C619.776 287.877 618.262 288.151 616.563 288.151C614.865 288.151 613.351 287.877 612.279 287.452C611.742 287.239 611.341 286.997 611.083 286.755C610.825 286.513 610.744 286.307 610.744 286.144C610.744 285.981 610.825 285.774 611.083 285.533C611.341 285.29 611.742 285.049 612.279 284.836C613.351 284.411 614.865 284.137 616.563 284.137C618.262 284.137 619.776 284.411 620.847 284.836C621.385 285.049 621.786 285.29 622.044 285.533C622.302 285.774 622.383 285.981 622.383 286.144Z" fill="white" stroke="#4AA6FF"/>
<circle cx="609.501" cy="323.501" r="2.25477" fill="white" stroke="#4AA6FF"/>
<circle cx="622.882" cy="323.501" r="2.25477" fill="white" stroke="#4AA6FF"/>
<circle cx="593.204" cy="339.571" r="3.23124" fill="white" stroke="#4AA6FF"/>
<circle cx="577.926" cy="348.426" r="2.07481" fill="white" stroke="#4AA6FF"/>
<circle cx="638.506" cy="339.571" r="3.23124" fill="white" stroke="#4AA6FF"/>
<path d="M613.577 330.719V344.423C613.577 346.632 611.786 348.423 609.577 348.423H579.448" stroke="#4AA6FF"/>
<circle cx="2.57481" cy="2.57481" r="2.07481" transform="matrix(-1 0 0 1 657.139 345.852)" fill="white" stroke="#4AA6FF"/>
<path d="M618.912 330.719V344.423C618.912 346.632 620.703 348.423 622.912 348.423H653.041" stroke="#4AA6FF"/>
<path d="M659.873 135.617H669.46" stroke="#4AA6FF"/>
<path d="M659.872 141.008H677.998" stroke="#4AA6FF"/>
<path d="M659.872 145.875H677.998" stroke="#4AA6FF"/>
<path d="M659.872 150.738H677.998" stroke="#4AA6FF"/>
<path d="M677.402 132.293C676.809 132.316 676.323 131.83 676.346 131.237L676.551 125.987C676.586 125.101 677.659 124.681 678.286 125.308L683.331 130.353C683.958 130.98 683.538 132.054 682.652 132.088L677.402 132.293Z" fill="white" stroke="#4AA6FF"/>
<path d="M660.169 156.052H685.145C686.821 156.052 688.179 154.694 688.179 153.019V128.195C688.179 127.854 688.077 127.52 687.886 127.237C687.826 127.148 687.758 127.065 687.682 126.989L681.646 120.902C681.519 120.774 681.371 120.669 681.207 120.591C680.999 120.493 680.771 120.441 680.541 120.441H660.169C658.494 120.441 657.136 121.8 657.136 123.475V153.019C657.136 154.694 658.494 156.052 660.169 156.052Z" fill="white"/>
<path d="M680.891 120.441H660.169C658.494 120.441 657.136 121.8 657.136 123.475V153.019C657.136 154.694 658.494 156.052 660.169 156.052H685.145C686.821 156.052 688.179 154.694 688.179 153.019V127.671" stroke="#4AA6FF"/>
<path d="M663.595 131.895H673.181" stroke="#4AA6FF"/>
<path d="M663.594 137.285H681.72" stroke="#4AA6FF"/>
<path d="M663.594 142.152H681.72" stroke="#4AA6FF"/>
<path d="M663.594 147.016H681.72" stroke="#4AA6FF"/>
<path d="M681.123 128.57C680.531 128.594 680.045 128.107 680.068 127.515L680.273 122.265C680.307 121.379 681.381 120.958 682.008 121.585L687.053 126.63C687.68 127.258 687.26 128.331 686.373 128.365L681.123 128.57Z" fill="white" stroke="#4AA6FF"/>
<path d="M663.893 152.861H688.869C690.544 152.861 691.902 151.503 691.902 149.827V125.004C691.902 124.662 691.8 124.329 691.609 124.046C691.549 123.957 691.481 123.874 691.406 123.798L685.37 117.711C685.243 117.582 685.094 117.477 684.931 117.4C684.723 117.301 684.495 117.25 684.264 117.25H663.893C662.218 117.25 660.859 118.608 660.859 120.284V149.827C660.859 151.503 662.218 152.861 663.893 152.861Z" fill="white"/>
<path d="M663.893 152.861H688.869C690.544 152.861 691.902 151.503 691.902 149.827V125.743C691.902 124.935 691.579 124.159 691.005 123.59L685.502 118.13C684.933 117.566 684.166 117.25 683.365 117.25H663.893C662.218 117.25 660.859 118.608 660.859 120.284V149.827C660.859 151.503 662.218 152.861 663.893 152.861Z" fill="white" stroke="#4AA6FF"/>
<path d="M667.318 128.703H676.905" stroke="#4AA6FF"/>
<path d="M667.318 134.102H685.444" stroke="#4AA6FF"/>
<path d="M667.317 138.961H685.443" stroke="#4AA6FF"/>
<path d="M667.317 143.824H685.443" stroke="#4AA6FF"/>
<path d="M684.568 125.623C683.976 125.647 683.489 125.16 683.512 124.568L683.759 118.257C683.793 117.371 684.867 116.951 685.494 117.578L691.558 123.642C692.185 124.269 691.765 125.342 690.878 125.377L684.568 125.623Z" fill="white" stroke="#4AA6FF"/>
<path d="M659.873 263.203H669.46" stroke="#4AA6FF"/>
<path d="M659.872 268.594H677.998" stroke="#4AA6FF"/>
<path d="M659.872 273.461H677.998" stroke="#4AA6FF"/>
<path d="M659.872 278.324H677.998" stroke="#4AA6FF"/>
<path d="M677.402 259.879C676.809 259.902 676.323 259.416 676.346 258.823L676.551 253.573C676.586 252.687 677.659 252.267 678.286 252.894L683.331 257.939C683.958 258.566 683.538 259.639 682.652 259.674L677.402 259.879Z" fill="white" stroke="#4AA6FF"/>
<path d="M660.169 283.638H685.145C686.821 283.638 688.179 282.28 688.179 280.604V255.781C688.179 255.44 688.077 255.106 687.886 254.823C687.826 254.734 687.758 254.651 687.682 254.575L681.646 248.488C681.519 248.36 681.371 248.255 681.207 248.177C680.999 248.079 680.771 248.027 680.541 248.027H660.169C658.494 248.027 657.136 249.386 657.136 251.061V280.604C657.136 282.28 658.494 283.638 660.169 283.638Z" fill="white"/>
<path d="M680.891 248.027H660.169C658.494 248.027 657.136 249.386 657.136 251.061V280.604C657.136 282.28 658.494 283.638 660.169 283.638H685.145C686.821 283.638 688.179 282.28 688.179 280.604V255.257" stroke="#4AA6FF"/>
<path d="M663.595 259.48H673.181" stroke="#4AA6FF"/>
<path d="M663.594 264.871H681.72" stroke="#4AA6FF"/>
<path d="M663.594 269.738H681.72" stroke="#4AA6FF"/>
<path d="M663.594 274.602H681.72" stroke="#4AA6FF"/>
<path d="M681.123 256.156C680.531 256.179 680.045 255.693 680.068 255.101L680.273 249.851C680.307 248.964 681.381 248.544 682.008 249.171L687.053 254.216C687.68 254.844 687.26 255.917 686.373 255.951L681.123 256.156Z" fill="white" stroke="#4AA6FF"/>
<path d="M663.893 280.447H688.869C690.544 280.447 691.902 279.088 691.902 277.413V252.59C691.902 252.248 691.8 251.915 691.609 251.632C691.549 251.543 691.481 251.46 691.406 251.384L685.37 245.297C685.243 245.168 685.094 245.063 684.931 244.986C684.723 244.887 684.495 244.836 684.264 244.836H663.893C662.218 244.836 660.859 246.194 660.859 247.869V277.413C660.859 279.088 662.218 280.447 663.893 280.447Z" fill="white"/>
<path d="M663.893 280.447H688.869C690.544 280.447 691.902 279.088 691.902 277.413V253.329C691.902 252.521 691.579 251.745 691.005 251.176L685.502 245.716C684.933 245.152 684.166 244.836 683.365 244.836H663.893C662.218 244.836 660.859 246.194 660.859 247.869V277.413C660.859 279.088 662.218 280.447 663.893 280.447Z" fill="white" stroke="#4AA6FF"/>
<path d="M667.318 256.289H676.905" stroke="#4AA6FF"/>
<path d="M667.318 261.688H685.444" stroke="#4AA6FF"/>
<path d="M667.317 266.547H685.443" stroke="#4AA6FF"/>
<path d="M667.317 271.41H685.443" stroke="#4AA6FF"/>
<path d="M684.568 253.209C683.976 253.232 683.489 252.746 683.512 252.154L683.759 245.843C683.793 244.957 684.867 244.537 685.494 245.164L691.558 251.228C692.185 251.855 691.765 252.928 690.878 252.963L684.568 253.209Z" fill="white" stroke="#4AA6FF"/>
<path d="M413.7 21H404.62V6.38H413.7V8.74H407.18V12.5H413.02V14.76H407.18V18.64H413.7V21ZM419.475 21H417.035V13.16H415.135V11.12H417.035V8.04H419.475V11.12H421.395V13.16H419.475V21ZM425.352 21H422.912V6.12H425.372V12.4C425.992 11.44 427.152 10.82 428.572 10.82C431.012 10.82 432.292 12.36 432.292 14.92V21H429.852V15.5C429.852 13.84 429.032 13.04 427.792 13.04C426.252 13.04 425.352 14.12 425.352 15.6V21ZM434.21 10.46C434.21 7.9 436.33 6.12 439.41 6.12C442.37 6.12 444.25 7.76 444.33 10.4H441.77C441.71 9.14 440.81 8.4 439.37 8.4C437.79 8.4 436.77 9.16 436.77 10.38C436.77 11.42 437.33 12 438.55 12.28L440.85 12.78C443.35 13.32 444.57 14.6 444.57 16.78C444.57 19.5 442.45 21.26 439.23 21.26C436.11 21.26 434.07 19.6 434.01 16.98H436.57C436.59 18.22 437.59 18.96 439.23 18.96C440.93 18.96 442.01 18.22 442.01 17C442.01 16.02 441.51 15.44 440.31 15.18L437.99 14.66C435.51 14.12 434.21 12.7 434.21 10.46ZM449.886 21H447.446V13.16H445.546V11.12H447.446V8.04H449.886V11.12H451.806V13.16H449.886V21ZM452.645 16.04C452.645 12.96 454.865 10.84 457.925 10.84C460.985 10.84 463.205 12.96 463.205 16.04C463.205 19.12 460.985 21.24 457.925 21.24C454.865 21.24 452.645 19.12 452.645 16.04ZM455.085 16.04C455.085 17.84 456.245 19.06 457.925 19.06C459.605 19.06 460.765 17.84 460.765 16.04C460.765 14.24 459.605 13.02 457.925 13.02C456.245 13.02 455.085 14.24 455.085 16.04ZM471.339 11.08V13.34H470.439C468.679 13.34 467.579 14.28 467.579 16.2V21H465.139V11.14H467.439L467.579 12.58C467.999 11.6 468.939 10.94 470.259 10.94C470.599 10.94 470.939 10.98 471.339 11.08ZM475.54 21.26C473.44 21.26 472.16 20.04 472.16 18.18C472.16 16.36 473.48 15.22 475.82 15.04L478.78 14.82V14.6C478.78 13.26 477.98 12.72 476.74 12.72C475.3 12.72 474.5 13.32 474.5 14.36H472.42C472.42 12.22 474.18 10.82 476.86 10.82C479.52 10.82 481.16 12.26 481.16 15V21H479.02L478.84 19.54C478.42 20.56 477.08 21.26 475.54 21.26ZM476.34 19.42C477.84 19.42 478.8 18.52 478.8 17V16.48L476.74 16.64C475.22 16.78 474.64 17.28 474.64 18.08C474.64 18.98 475.24 19.42 476.34 19.42ZM482.997 15.84C482.997 12.96 484.877 10.8 487.697 10.8C489.177 10.8 490.337 11.42 490.917 12.48L491.057 11.12H493.317V20.5C493.317 23.8 491.337 25.86 488.137 25.86C485.297 25.86 483.357 24.24 483.057 21.6H485.497C485.657 22.88 486.637 23.64 488.137 23.64C489.817 23.64 490.897 22.58 490.897 20.94V19.3C490.277 20.22 489.057 20.8 487.637 20.8C484.837 20.8 482.997 18.7 482.997 15.84ZM485.457 15.78C485.457 17.44 486.517 18.68 488.117 18.68C489.797 18.68 490.837 17.5 490.837 15.78C490.837 14.1 489.817 12.94 488.117 12.94C486.497 12.94 485.457 14.16 485.457 15.78ZM500.262 21.26C497.322 21.26 495.262 19.12 495.262 16.06C495.262 12.96 497.282 10.82 500.182 10.82C503.142 10.82 505.022 12.8 505.022 15.88V16.62L497.582 16.64C497.762 18.38 498.682 19.26 500.302 19.26C501.642 19.26 502.522 18.74 502.802 17.8H505.062C504.642 19.96 502.842 21.26 500.262 21.26ZM500.202 12.82C498.762 12.82 497.882 13.6 497.642 15.08H502.602C502.602 13.72 501.662 12.82 500.202 12.82ZM515.285 6.38V18.64H521.405V21H512.725V6.38H515.285ZM532.927 20.98L522.787 21V19.08L527.567 15.04C529.547 13.36 530.207 12.4 530.207 11C530.207 9.34 529.307 8.4 527.767 8.4C526.167 8.4 525.167 9.52 525.147 11.4H522.607C522.627 8.2 524.667 6.12 527.767 6.12C530.887 6.12 532.827 7.9 532.827 10.86C532.827 12.9 531.707 14.44 529.487 16.34L526.847 18.6H532.927V20.98ZM543.175 21H540.655V6.38H543.195L550.055 16.74V6.38H552.575V21H550.055L543.175 10.64V21ZM559.871 21.26C556.931 21.26 554.871 19.12 554.871 16.06C554.871 12.96 556.891 10.82 559.791 10.82C562.751 10.82 564.631 12.8 564.631 15.88V16.62L557.191 16.64C557.371 18.38 558.291 19.26 559.911 19.26C561.251 19.26 562.131 18.74 562.411 17.8H564.671C564.251 19.96 562.451 21.26 559.871 21.26ZM559.811 12.82C558.371 12.82 557.491 13.6 557.251 15.08H562.211C562.211 13.72 561.271 12.82 559.811 12.82ZM569.847 21H567.407V13.16H565.507V11.12H567.407V8.04H569.847V11.12H571.767V13.16H569.847V21ZM575.463 21L572.263 11.12H574.803L576.103 15.36C576.323 16.14 576.523 17 576.703 17.92C576.883 16.96 577.063 16.34 577.383 15.36L578.743 11.12H581.223L582.543 15.36C582.663 15.76 583.063 17.24 583.183 17.9C583.343 17.16 583.663 15.98 583.843 15.36L585.163 11.12H587.743L584.323 21H582.043L580.683 16.72C580.283 15.42 580.063 14.48 579.983 13.98C579.883 14.44 579.703 15.14 579.203 16.76L577.843 21H575.463ZM588.153 16.04C588.153 12.96 590.373 10.84 593.433 10.84C596.493 10.84 598.713 12.96 598.713 16.04C598.713 19.12 596.493 21.24 593.433 21.24C590.373 21.24 588.153 19.12 588.153 16.04ZM590.593 16.04C590.593 17.84 591.753 19.06 593.433 19.06C595.113 19.06 596.273 17.84 596.273 16.04C596.273 14.24 595.113 13.02 593.433 13.02C591.753 13.02 590.593 14.24 590.593 16.04ZM606.847 11.08V13.34H605.947C604.187 13.34 603.087 14.28 603.087 16.2V21H600.647V11.14H602.947L603.087 12.58C603.507 11.6 604.447 10.94 605.767 10.94C606.107 10.94 606.447 10.98 606.847 11.08ZM610.958 21H608.538V6.12H610.958V15.26L614.798 11.12H617.858L614.098 15.04L617.778 21H614.978L612.398 16.84L610.958 18.34V21Z" fill="black"/>
<path d="M568.616 393.58C568.616 391.9 569.96 390.794 571.976 390.794C573.782 390.794 574.972 391.802 575.126 393.482H574.104C573.992 392.348 573.222 391.704 571.962 391.704C570.548 391.704 569.624 392.432 569.624 393.566C569.624 394.448 570.142 395.008 571.192 395.274L572.914 395.694C574.482 396.072 575.294 396.968 575.294 398.326C575.294 400.062 573.95 401.168 571.878 401.168C569.932 401.168 568.616 400.146 568.49 398.508H569.526C569.582 399.558 570.506 400.244 571.878 400.244C573.348 400.244 574.286 399.53 574.286 398.382C574.286 397.486 573.782 396.898 572.704 396.646L571.01 396.226C569.442 395.848 568.616 394.952 568.616 393.58ZM578.451 401H577.499V395.036H576.141V394.224H577.499V392.082H578.451V394.224H579.809V395.036H578.451V401ZM580.522 397.612C580.522 395.54 581.978 394.042 583.966 394.042C585.954 394.042 587.41 395.54 587.41 397.612C587.41 399.67 585.954 401.168 583.966 401.168C581.978 401.168 580.522 399.67 580.522 397.612ZM581.502 397.598C581.502 399.194 582.51 400.3 583.966 400.3C585.408 400.3 586.43 399.194 586.43 397.598C586.43 396.03 585.408 394.91 583.966 394.91C582.51 394.91 581.502 396.03 581.502 397.598ZM592.497 394.14V395.008H591.965C590.719 395.008 589.921 395.848 589.921 397.136V401H588.955V394.224H589.865L589.935 395.274C590.201 394.546 590.915 394.07 591.867 394.07C592.077 394.07 592.259 394.084 592.497 394.14ZM595.454 401.168C594.012 401.168 593.158 400.356 593.158 399.166C593.158 397.92 594.11 397.136 595.692 397.01L597.932 396.828V396.604C597.932 395.274 597.134 394.854 596.14 394.854C594.964 394.854 594.264 395.386 594.264 396.296H593.382C593.382 394.924 594.502 394.042 596.168 394.042C597.736 394.042 598.884 394.826 598.884 396.618V401H598.072L597.946 399.81C597.526 400.664 596.602 401.168 595.454 401.168ZM595.678 400.384C597.106 400.384 597.932 399.39 597.932 397.92V397.556L595.93 397.71C594.656 397.822 594.138 398.382 594.138 399.138C594.138 399.964 594.754 400.384 595.678 400.384ZM600.36 397.416C600.36 395.568 601.55 394.042 603.538 394.042C604.714 394.042 605.61 394.588 606.044 395.582L606.142 394.224H606.982V400.79C606.982 402.806 605.694 404.122 603.706 404.122C601.97 404.122 600.752 403.142 600.486 401.504H601.452C601.662 402.596 602.502 403.24 603.72 403.24C605.106 403.24 606.03 402.302 606.03 400.888V399.278C605.568 400.23 604.63 400.79 603.468 400.79C601.536 400.79 600.36 399.264 600.36 397.416ZM601.326 397.402C601.326 398.788 602.18 399.922 603.608 399.922C605.078 399.922 605.946 398.858 605.946 397.402C605.946 395.96 605.106 394.896 603.622 394.896C602.166 394.896 601.326 396.03 601.326 397.402ZM611.84 401.168C609.852 401.168 608.522 399.74 608.522 397.612C608.522 395.498 609.838 394.042 611.77 394.042C613.604 394.042 614.85 395.344 614.85 397.262V397.738H609.46C609.53 399.39 610.398 400.342 611.854 400.342C612.96 400.342 613.674 399.866 613.926 398.97H614.85C614.486 400.398 613.436 401.168 611.84 401.168ZM611.77 394.868C610.496 394.868 609.656 395.708 609.488 397.038H613.884C613.884 395.736 613.044 394.868 611.77 394.868ZM624.31 397.318H621.496V401H620.488V390.976H624.31C626.242 390.976 627.46 392.236 627.46 394.126C627.46 395.946 626.228 397.318 624.31 397.318ZM624.17 391.886H621.496V396.408H624.114C625.57 396.408 626.41 395.484 626.41 394.112C626.41 392.726 625.556 391.886 624.17 391.886ZM632.419 394.14V395.008H631.887C630.641 395.008 629.843 395.848 629.843 397.136V401H628.877V394.224H629.787L629.857 395.274C630.123 394.546 630.837 394.07 631.789 394.07C631.999 394.07 632.181 394.084 632.419 394.14ZM632.968 397.612C632.968 395.54 634.424 394.042 636.412 394.042C638.4 394.042 639.856 395.54 639.856 397.612C639.856 399.67 638.4 401.168 636.412 401.168C634.424 401.168 632.968 399.67 632.968 397.612ZM633.948 397.598C633.948 399.194 634.956 400.3 636.412 400.3C637.854 400.3 638.876 399.194 638.876 397.598C638.876 396.03 637.854 394.91 636.412 394.91C634.956 394.91 633.948 396.03 633.948 397.598ZM642.99 401L640.218 394.224H641.254L643.004 398.592C643.186 399.082 643.368 399.544 643.494 399.992C643.62 399.53 643.802 399.082 643.998 398.592L645.776 394.224H646.77L643.956 401H642.99ZM648.384 392.362C647.992 392.362 647.67 392.04 647.67 391.648C647.67 391.256 647.992 390.92 648.384 390.92C648.776 390.92 649.112 391.256 649.112 391.648C649.112 392.04 648.776 392.362 648.384 392.362ZM647.908 401V394.224H648.874V401H647.908ZM653.549 401.168C651.575 401.168 650.413 399.656 650.413 397.626C650.413 395.582 651.575 394.042 653.591 394.042C654.711 394.042 655.607 394.532 656.083 395.512V390.794H657.049V401H656.209L656.111 399.614C655.635 400.664 654.683 401.168 653.549 401.168ZM653.717 400.286C655.201 400.286 656.069 399.166 656.069 397.598C656.069 396.044 655.201 394.91 653.717 394.91C652.247 394.91 651.393 396.044 651.393 397.598C651.393 399.166 652.247 400.286 653.717 400.286ZM661.907 401.168C659.919 401.168 658.589 399.74 658.589 397.612C658.589 395.498 659.905 394.042 661.837 394.042C663.671 394.042 664.917 395.344 664.917 397.262V397.738H659.527C659.597 399.39 660.465 400.342 661.921 400.342C663.027 400.342 663.741 399.866 663.993 398.97H664.917C664.553 400.398 663.503 401.168 661.907 401.168ZM661.837 394.868C660.563 394.868 659.723 395.708 659.555 397.038H663.951C663.951 395.736 663.111 394.868 661.837 394.868ZM670.003 394.14V395.008H669.471C668.225 395.008 667.427 395.848 667.427 397.136V401H666.461V394.224H667.371L667.441 395.274C667.707 394.546 668.421 394.07 669.373 394.07C669.583 394.07 669.765 394.084 670.003 394.14Z" fill="black"/>
<rect x="0.5" y="51.5" width="298" height="395" rx="7.5" fill="white" stroke="black" stroke-dasharray="4 4"/>
<circle cx="137.5" cy="144.227" r="44" fill="white" stroke="#4AA6FF"/>
<path d="M94.0195 144.227H181.344" stroke="#4AA6FF"/>
<path d="M137.68 187.883L137.68 100.558" stroke="#4AA6FF"/>
<ellipse cx="138.381" cy="144.225" rx="23.6517" ry="43.6622" stroke="#4AA6FF"/>
<path d="M170.977 115.613C162.078 122.324 150.352 126.401 137.502 126.401C124.588 126.401 112.809 122.283 103.894 115.512" stroke="#4AA6FF"/>
<path d="M170.977 172.836C162.078 166.125 150.352 162.048 137.502 162.048C124.588 162.048 112.809 166.166 103.894 172.938" stroke="#4AA6FF"/>
<circle cx="114.731" cy="144.226" r="5.06182" fill="white" stroke="#4AA6FF"/>
<circle cx="103.893" cy="115.394" r="5.06182" fill="white" stroke="#4AA6FF"/>
<circle cx="171.735" cy="115.394" r="5.06182" fill="white" stroke="#4AA6FF"/>
<circle cx="158.723" cy="165.339" r="5.06182" fill="white" stroke="#4AA6FF"/>
<circle cx="132.821" cy="100.562" r="5.06182" fill="white" stroke="#4AA6FF"/>
<circle cx="142.997" cy="186.195" r="5.06182" fill="white" stroke="#4AA6FF"/>
<path d="M171.736 147.539H181.323" stroke="#4AA6FF"/>
<path d="M171.735 152.93H189.861" stroke="#4AA6FF"/>
<path d="M171.735 157.797H189.861" stroke="#4AA6FF"/>
<path d="M171.735 162.66H189.861" stroke="#4AA6FF"/>
<path d="M189.265 144.215C188.673 144.238 188.186 143.752 188.209 143.159L188.414 137.909C188.449 137.023 189.522 136.603 190.149 137.23L195.194 142.275C195.821 142.902 195.401 143.975 194.515 144.01L189.265 144.215Z" fill="white" stroke="#4AA6FF"/>
<path d="M172.033 167.974H197.008C198.684 167.974 200.042 166.616 200.042 164.94V140.117C200.042 139.776 199.94 139.442 199.749 139.159C199.689 139.07 199.621 138.987 199.545 138.911L193.509 132.824C193.382 132.696 193.234 132.591 193.071 132.513C192.862 132.415 192.635 132.363 192.404 132.363H172.033C170.357 132.363 168.999 133.721 168.999 135.397V164.94C168.999 166.616 170.357 167.974 172.033 167.974Z" fill="white"/>
<path d="M172.033 168.474H197.008C198.96 168.474 200.542 166.892 200.542 164.94V140.857C200.542 139.915 200.166 139.012 199.497 138.348L193.993 132.888C193.332 132.232 192.437 131.863 191.505 131.863H172.033C170.081 131.863 168.499 133.445 168.499 135.397V164.94C168.499 166.892 170.081 168.474 172.033 168.474Z" fill="white" stroke="#4AA6FF"/>
<path d="M175.458 143.816H185.044" stroke="#4AA6FF"/>
<path d="M175.457 149.207H193.583" stroke="#4AA6FF"/>
<path d="M175.457 154.074H193.583" stroke="#4AA6FF"/>
<path d="M175.457 158.938H193.583" stroke="#4AA6FF"/>
<path d="M192.987 140.492C192.394 140.515 191.908 140.029 191.931 139.437L192.136 134.187C192.171 133.3 193.244 132.88 193.871 133.507L198.916 138.552C199.543 139.179 199.123 140.253 198.237 140.287L192.987 140.492Z" fill="white" stroke="#4AA6FF"/>
<path d="M175.756 164.783H200.732C202.407 164.783 203.766 163.424 203.766 161.749V136.926C203.766 136.584 203.664 136.251 203.473 135.968C203.413 135.879 203.344 135.796 203.269 135.72L197.233 129.633C197.106 129.504 196.958 129.399 196.794 129.322C196.586 129.223 196.358 129.172 196.128 129.172H175.756C174.081 129.172 172.723 130.53 172.723 132.205V161.749C172.723 163.424 174.081 164.783 175.756 164.783Z" fill="white"/>
<path d="M201.173 164.283H175.757C174.358 164.283 173.224 163.148 173.224 161.749V131.698C173.224 130.298 174.358 129.164 175.757 129.164H195.911C196.585 129.164 197.231 129.433 197.706 129.91L198.06 129.557L197.706 129.91L202.968 135.195C203.441 135.67 203.706 136.313 203.706 136.983V161.749C203.706 163.148 202.572 164.283 201.173 164.283Z" fill="white" stroke="#4AA6FF"/>
<path d="M179.182 140.625H188.768" stroke="#4AA6FF"/>
<path d="M179.182 146.023H197.307" stroke="#4AA6FF"/>
<path d="M179.181 150.883H197.307" stroke="#4AA6FF"/>
<path d="M179.181 155.746H197.307" stroke="#4AA6FF"/>
<path d="M196.431 137.545C195.839 137.568 195.352 137.082 195.376 136.49L195.622 130.179C195.657 129.293 196.73 128.873 197.357 129.5L203.421 135.564C204.048 136.191 203.628 137.264 202.742 137.299L196.431 137.545Z" fill="white" stroke="#4AA6FF"/>
<path d="M174.597 277.904C179.538 277.904 182.53 279.831 184.251 282.679C185.929 285.456 186.436 289.172 186.226 293H163.81L147.673 277.904L174.597 277.904Z" fill="white" stroke="#4AA6FF"/>
<path d="M159.112 277.977L159.114 277.977L172.958 277.916C169.54 279.891 165.502 284.779 165.168 294.347L165.168 294.347L165.168 294.359L164.761 345.849L164.761 345.853C164.752 352.718 159.378 358.161 152.398 358.161H150.374L105.8 342.119L105.872 290.388C105.881 283.534 111.555 277.977 118.546 277.977L159.112 277.977Z" fill="white" stroke="#4AA6FF"/>
<path d="M149.016 342.486C147.012 348.635 147.018 352.854 148.077 355.587C148.635 357.027 149.482 358.043 150.457 358.697L149.654 358.708H149.65H99.2833C92.8987 358.708 87.73 353.633 87.7387 347.372L87.7454 342.486H149.016Z" fill="white" stroke="#4AA6FF"/>
<path d="M119.413 294.465H153.885" stroke="#4AA6FF"/>
<path d="M119.396 306.309H153.868" stroke="#4AA6FF"/>
<path d="M119.38 318.156H153.851" stroke="#4AA6FF"/>
<path d="M119.363 330.004H140.386" stroke="#4AA6FF"/>
<circle cx="22.6706" cy="22.6706" r="22.1706" transform="matrix(1 0 -0.00135443 0.980631 152.813 309.609)" fill="white" stroke="#4AA6FF"/>
<path d="M164.937 331.522L175.437 317.113L185.971 331.522L175.396 346.575L164.937 331.522Z" fill="white"/>
<path d="M175.437 317.113L164.937 331.522M175.437 317.113L185.971 331.522M175.437 317.113L175.424 326.338M164.937 331.522L175.396 346.575M164.937 331.522L175.424 326.338M164.937 331.522L175.41 336.456M175.396 346.575L185.971 331.522M175.396 346.575L175.41 336.456M185.971 331.522L175.424 326.338M185.971 331.522L175.41 336.456M175.424 326.338L175.417 331.397L175.41 336.456" stroke="#4AA6FF"/>
<path d="M225.382 314.389C225.374 320.001 220.672 324.561 214.868 324.561C209.063 324.561 204.374 320.001 204.382 314.389C204.39 308.776 209.091 304.217 214.896 304.217C220.7 304.217 225.39 308.776 225.382 314.389Z" fill="white" stroke="#4AA6FF"/>
<path d="M209.78 314.235L214.874 307.324L219.986 314.235L214.854 321.454L209.78 314.235Z" fill="white"/>
<path d="M214.874 307.324L209.78 314.235M214.874 307.324L219.986 314.235M214.874 307.324L214.868 311.748M209.78 314.235L214.854 321.454M209.78 314.235L214.868 311.748M209.78 314.235L214.861 316.601M214.854 321.454L219.986 314.235M214.854 321.454L214.861 316.601M219.986 314.235L214.868 311.748M219.986 314.235L214.861 316.601M214.868 311.748L214.864 314.175L214.861 316.601" stroke="#4AA6FF" stroke-width="0.7"/>
<path d="M222.069 283.779C222.063 287.82 218.829 291.068 214.878 291.068C210.928 291.068 207.702 287.82 207.708 283.779C207.714 279.739 210.948 276.49 214.899 276.49C218.849 276.49 222.075 279.739 222.069 283.779Z" fill="white" stroke="#4AA6FF"/>
<path d="M219.824 283.781C219.82 286.671 217.578 288.962 214.88 288.962C212.181 288.962 209.945 286.671 209.949 283.781C209.953 280.89 212.196 278.6 214.894 278.6C217.592 278.6 219.828 280.89 219.824 283.781Z" fill="white" stroke="#4AA6FF"/>
<rect x="0.499323" y="0.490315" width="18.425" height="15.1994" rx="1.5" transform="matrix(1 0 -0.00135443 0.980631 205.175 284.486)" fill="white" stroke="#4AA6FF"/>
<path d="M216.482 292.419C216.481 293.429 216.253 294.32 215.911 294.94C215.558 295.58 215.154 295.824 214.833 295.824C214.513 295.824 214.11 295.58 213.758 294.94C213.418 294.32 213.192 293.429 213.194 292.419C213.195 291.408 213.423 290.518 213.765 289.897C214.119 289.257 214.522 289.014 214.843 289.014C215.163 289.014 215.566 289.257 215.918 289.897C216.258 290.518 216.484 291.408 216.482 292.419Z" fill="white" stroke="#4AA6FF"/>
<path d="M78.7534 228H75.7014V217.976H78.7254C81.7494 217.976 83.7654 219.992 83.7654 222.988C83.7654 225.984 81.7634 228 78.7534 228ZM78.6834 218.9H76.7094V227.076H78.7114C81.1614 227.076 82.7294 225.48 82.7294 222.988C82.7294 220.482 81.1614 218.9 78.6834 218.9ZM87.3222 228.168C85.8802 228.168 85.0262 227.356 85.0262 226.166C85.0262 224.92 85.9782 224.136 87.5602 224.01L89.8002 223.828V223.604C89.8002 222.274 89.0022 221.854 88.0082 221.854C86.8322 221.854 86.1322 222.386 86.1322 223.296H85.2502C85.2502 221.924 86.3702 221.042 88.0362 221.042C89.6042 221.042 90.7522 221.826 90.7522 223.618V228H89.9402L89.8142 226.81C89.3942 227.664 88.4702 228.168 87.3222 228.168ZM87.5462 227.384C88.9742 227.384 89.8002 226.39 89.8002 224.92V224.556L87.7982 224.71C86.5242 224.822 86.0062 225.382 86.0062 226.138C86.0062 226.964 86.6222 227.384 87.5462 227.384ZM94.1216 228H93.1696V222.036H91.8116V221.224H93.1696V219.082H94.1216V221.224H95.4796V222.036H94.1216V228ZM98.5741 228.168C97.1321 228.168 96.2781 227.356 96.2781 226.166C96.2781 224.92 97.2301 224.136 98.8121 224.01L101.052 223.828V223.604C101.052 222.274 100.254 221.854 99.2601 221.854C98.0841 221.854 97.3841 222.386 97.3841 223.296H96.5021C96.5021 221.924 97.6221 221.042 99.2881 221.042C100.856 221.042 102.004 221.826 102.004 223.618V228H101.192L101.066 226.81C100.646 227.664 99.7221 228.168 98.5741 228.168ZM98.7981 227.384C100.226 227.384 101.052 226.39 101.052 224.92V224.556L99.0501 224.71C97.7761 224.822 97.2581 225.382 97.2581 226.138C97.2581 226.964 97.8741 227.384 98.7981 227.384ZM108.035 228H107.013L110.695 217.976H111.941L115.665 228H114.615L113.635 225.34H109.015L108.035 228ZM111.185 219.39L109.323 224.458H113.313L111.437 219.39C111.395 219.25 111.325 219.082 111.311 218.984C111.297 219.068 111.241 219.25 111.185 219.39ZM118.288 228L115.516 221.224H116.552L118.302 225.592C118.484 226.082 118.666 226.544 118.792 226.992C118.918 226.53 119.1 226.082 119.296 225.592L121.074 221.224H122.068L119.254 228H118.288ZM124.851 228.168C123.409 228.168 122.555 227.356 122.555 226.166C122.555 224.92 123.507 224.136 125.089 224.01L127.329 223.828V223.604C127.329 222.274 126.531 221.854 125.537 221.854C124.361 221.854 123.661 222.386 123.661 223.296H122.779C122.779 221.924 123.899 221.042 125.565 221.042C127.133 221.042 128.281 221.826 128.281 223.618V228H127.469L127.343 226.81C126.923 227.664 125.999 228.168 124.851 228.168ZM125.075 227.384C126.503 227.384 127.329 226.39 127.329 224.92V224.556L125.327 224.71C124.053 224.822 123.535 225.382 123.535 226.138C123.535 226.964 124.151 227.384 125.075 227.384ZM130.696 219.362C130.304 219.362 129.982 219.04 129.982 218.648C129.982 218.256 130.304 217.92 130.696 217.92C131.088 217.92 131.424 218.256 131.424 218.648C131.424 219.04 131.088 219.362 130.696 219.362ZM130.22 228V221.224H131.186V228H130.22ZM134.208 228H133.242V217.794H134.208V228ZM138.209 228.168C136.767 228.168 135.913 227.356 135.913 226.166C135.913 224.92 136.865 224.136 138.447 224.01L140.687 223.828V223.604C140.687 222.274 139.889 221.854 138.895 221.854C137.719 221.854 137.019 222.386 137.019 223.296H136.137C136.137 221.924 137.257 221.042 138.923 221.042C140.491 221.042 141.639 221.826 141.639 223.618V228H140.827L140.701 226.81C140.281 227.664 139.357 228.168 138.209 228.168ZM138.433 227.384C139.861 227.384 140.687 226.39 140.687 224.92V224.556L138.685 224.71C137.411 224.822 136.893 225.382 136.893 226.138C136.893 226.964 137.509 227.384 138.433 227.384ZM144.417 228H143.577V217.794H144.543V222.54C145.019 221.546 145.943 221.042 147.091 221.042C149.065 221.042 150.213 222.582 150.213 224.626C150.213 226.656 149.037 228.168 147.063 228.168C145.929 228.168 144.991 227.664 144.515 226.614L144.417 228ZM144.557 224.598C144.557 226.166 145.425 227.286 146.909 227.286C148.379 227.286 149.233 226.166 149.233 224.598C149.233 223.044 148.379 221.91 146.909 221.91C145.425 221.91 144.557 223.044 144.557 224.598ZM152.229 219.362C151.837 219.362 151.515 219.04 151.515 218.648C151.515 218.256 151.837 217.92 152.229 217.92C152.621 217.92 152.957 218.256 152.957 218.648C152.957 219.04 152.621 219.362 152.229 219.362ZM151.753 228V221.224H152.719V228H151.753ZM155.742 228H154.776V217.794H155.742V228ZM158.272 219.362C157.88 219.362 157.558 219.04 157.558 218.648C157.558 218.256 157.88 217.92 158.272 217.92C158.664 217.92 159 218.256 159 218.648C159 219.04 158.664 219.362 158.272 219.362ZM157.796 228V221.224H158.762V228H157.796ZM162.331 228H161.379V222.036H160.021V221.224H161.379V219.082H162.331V221.224H163.689V222.036H162.331V228ZM164.26 230.954V230.156H165.002C165.59 230.156 166.178 230.114 166.514 229.204L166.808 228.406L164.064 221.224H165.086L167.27 227.132L169.412 221.224H170.406L167.298 229.554C166.906 230.618 166.248 231.052 165.282 231.052C164.876 231.052 164.568 231.024 164.26 230.954ZM176.637 228H175.629V217.976H176.651L182.167 226.32V217.976H183.161V228H182.167L176.637 219.656V228ZM188.242 228.168C186.254 228.168 184.924 226.74 184.924 224.612C184.924 222.498 186.24 221.042 188.172 221.042C190.006 221.042 191.252 222.344 191.252 224.262V224.738H185.862C185.932 226.39 186.8 227.342 188.256 227.342C189.362 227.342 190.076 226.866 190.328 225.97H191.252C190.888 227.398 189.838 228.168 188.242 228.168ZM188.172 221.868C186.898 221.868 186.058 222.708 185.89 224.038H190.286C190.286 222.736 189.446 221.868 188.172 221.868ZM194.282 228H193.33V222.036H191.972V221.224H193.33V219.082H194.282V221.224H195.64V222.036H194.282V228ZM198.326 228L196.086 221.224H197.08L198.41 225.312C198.564 225.76 198.69 226.222 198.83 226.768C198.942 226.222 199.166 225.536 199.236 225.312L200.58 221.224H201.574L202.904 225.312C203.03 225.676 203.198 226.264 203.324 226.768C203.464 226.208 203.492 226.04 203.73 225.312L205.074 221.224H206.082L203.786 228H202.848L201.448 223.744C201.28 223.24 201.168 222.82 201.084 222.414C200.986 222.778 200.874 223.184 200.692 223.744L199.292 228H198.326ZM206.511 224.612C206.511 222.54 207.967 221.042 209.955 221.042C211.943 221.042 213.399 222.54 213.399 224.612C213.399 226.67 211.943 228.168 209.955 228.168C207.967 228.168 206.511 226.67 206.511 224.612ZM207.491 224.598C207.491 226.194 208.499 227.3 209.955 227.3C211.397 227.3 212.419 226.194 212.419 224.598C212.419 223.03 211.397 221.91 209.955 221.91C208.499 221.91 207.491 223.03 207.491 224.598ZM218.487 221.14V222.008H217.955C216.709 222.008 215.911 222.848 215.911 224.136V228H214.945V221.224H215.855L215.925 222.274C216.191 221.546 216.905 221.07 217.857 221.07C218.067 221.07 218.249 221.084 218.487 221.14ZM220.779 228H219.813V217.794H220.779V224.724L224.139 221.224H225.357L222.753 223.926L225.371 228H224.251L222.095 224.612L220.779 225.97V228Z" fill="black"/>
<path d="M68.6635 397H62.6575V386.976H68.6495V387.9H63.6655V391.512H68.1875V392.422H63.6655V396.076H68.6635V397ZM72.0542 397H71.1022V391.036H69.7442V390.224H71.1022V388.082H72.0542V390.224H73.4122V391.036H72.0542V397ZM75.6361 396.986H74.6701V386.794H75.6361V391.4C76.0701 390.588 76.8961 390.042 78.0301 390.042C79.8081 390.042 80.6061 391.148 80.6061 392.856V397H79.6401V393.066C79.6401 391.484 78.8981 390.924 77.8481 390.924C76.3921 390.924 75.6361 392.002 75.6361 393.304V396.986ZM82.1394 389.58C82.1394 387.9 83.4834 386.794 85.4994 386.794C87.3054 386.794 88.4954 387.802 88.6494 389.482H87.6274C87.5154 388.348 86.7454 387.704 85.4854 387.704C84.0714 387.704 83.1474 388.432 83.1474 389.566C83.1474 390.448 83.6654 391.008 84.7154 391.274L86.4374 391.694C88.0054 392.072 88.8174 392.968 88.8174 394.326C88.8174 396.062 87.4734 397.168 85.4014 397.168C83.4554 397.168 82.1394 396.146 82.0134 394.508H83.0494C83.1054 395.558 84.0294 396.244 85.4014 396.244C86.8714 396.244 87.8094 395.53 87.8094 394.382C87.8094 393.486 87.3054 392.898 86.2274 392.646L84.5334 392.226C82.9654 391.848 82.1394 390.952 82.1394 389.58ZM91.9741 397H91.0221V391.036H89.6641V390.224H91.0221V388.082H91.9741V390.224H93.3321V391.036H91.9741V397ZM94.0457 393.612C94.0457 391.54 95.5017 390.042 97.4897 390.042C99.4777 390.042 100.934 391.54 100.934 393.612C100.934 395.67 99.4777 397.168 97.4897 397.168C95.5017 397.168 94.0457 395.67 94.0457 393.612ZM95.0257 393.598C95.0257 395.194 96.0337 396.3 97.4897 396.3C98.9317 396.3 99.9537 395.194 99.9537 393.598C99.9537 392.03 98.9317 390.91 97.4897 390.91C96.0337 390.91 95.0257 392.03 95.0257 393.598ZM106.021 390.14V391.008H105.489C104.243 391.008 103.445 391.848 103.445 393.136V397H102.479V390.224H103.389L103.459 391.274C103.725 390.546 104.439 390.07 105.391 390.07C105.601 390.07 105.783 390.084 106.021 390.14ZM108.977 397.168C107.535 397.168 106.681 396.356 106.681 395.166C106.681 393.92 107.633 393.136 109.215 393.01L111.455 392.828V392.604C111.455 391.274 110.657 390.854 109.663 390.854C108.487 390.854 107.787 391.386 107.787 392.296H106.905C106.905 390.924 108.025 390.042 109.691 390.042C111.259 390.042 112.407 390.826 112.407 392.618V397H111.595L111.469 395.81C111.049 396.664 110.125 397.168 108.977 397.168ZM109.201 396.384C110.629 396.384 111.455 395.39 111.455 393.92V393.556L109.453 393.71C108.179 393.822 107.661 394.382 107.661 395.138C107.661 395.964 108.277 396.384 109.201 396.384ZM113.884 393.416C113.884 391.568 115.074 390.042 117.062 390.042C118.238 390.042 119.134 390.588 119.568 391.582L119.666 390.224H120.506V396.79C120.506 398.806 119.218 400.122 117.23 400.122C115.494 400.122 114.276 399.142 114.01 397.504H114.976C115.186 398.596 116.026 399.24 117.244 399.24C118.63 399.24 119.554 398.302 119.554 396.888V395.278C119.092 396.23 118.154 396.79 116.992 396.79C115.06 396.79 113.884 395.264 113.884 393.416ZM114.85 393.402C114.85 394.788 115.704 395.922 117.132 395.922C118.602 395.922 119.47 394.858 119.47 393.402C119.47 391.96 118.63 390.896 117.146 390.896C115.69 390.896 114.85 392.03 114.85 393.402ZM125.364 397.168C123.376 397.168 122.046 395.74 122.046 393.612C122.046 391.498 123.362 390.042 125.294 390.042C127.128 390.042 128.374 391.344 128.374 393.262V393.738H122.984C123.054 395.39 123.922 396.342 125.378 396.342C126.484 396.342 127.198 395.866 127.45 394.97H128.374C128.01 396.398 126.96 397.168 125.364 397.168ZM125.294 390.868C124.02 390.868 123.18 391.708 123.012 393.038H127.408C127.408 391.736 126.568 390.868 125.294 390.868ZM133.409 389.58C133.409 387.9 134.753 386.794 136.769 386.794C138.575 386.794 139.765 387.802 139.919 389.482H138.897C138.785 388.348 138.015 387.704 136.755 387.704C135.341 387.704 134.417 388.432 134.417 389.566C134.417 390.448 134.935 391.008 135.985 391.274L137.707 391.694C139.275 392.072 140.087 392.968 140.087 394.326C140.087 396.062 138.743 397.168 136.671 397.168C134.725 397.168 133.409 396.146 133.283 394.508H134.319C134.375 395.558 135.299 396.244 136.671 396.244C138.141 396.244 139.079 395.53 139.079 394.382C139.079 393.486 138.575 392.898 137.497 392.646L135.803 392.226C134.235 391.848 133.409 390.952 133.409 389.58ZM143.244 397H142.292V391.036H140.934V390.224H142.292V388.082H143.244V390.224H144.602V391.036H143.244V397ZM145.315 393.612C145.315 391.54 146.771 390.042 148.759 390.042C150.747 390.042 152.203 391.54 152.203 393.612C152.203 395.67 150.747 397.168 148.759 397.168C146.771 397.168 145.315 395.67 145.315 393.612ZM146.295 393.598C146.295 395.194 147.303 396.3 148.759 396.3C150.201 396.3 151.223 395.194 151.223 393.598C151.223 392.03 150.201 390.91 148.759 390.91C147.303 390.91 146.295 392.03 146.295 393.598ZM157.29 390.14V391.008H156.758C155.512 391.008 154.714 391.848 154.714 393.136V397H153.748V390.224H154.658L154.728 391.274C154.994 390.546 155.708 390.07 156.66 390.07C156.87 390.07 157.052 390.084 157.29 390.14ZM160.247 397.168C158.805 397.168 157.951 396.356 157.951 395.166C157.951 393.92 158.903 393.136 160.485 393.01L162.725 392.828V392.604C162.725 391.274 161.927 390.854 160.933 390.854C159.757 390.854 159.057 391.386 159.057 392.296H158.175C158.175 390.924 159.295 390.042 160.961 390.042C162.529 390.042 163.677 390.826 163.677 392.618V397H162.865L162.739 395.81C162.319 396.664 161.395 397.168 160.247 397.168ZM160.471 396.384C161.899 396.384 162.725 395.39 162.725 393.92V393.556L160.723 393.71C159.449 393.822 158.931 394.382 158.931 395.138C158.931 395.964 159.547 396.384 160.471 396.384ZM165.153 393.416C165.153 391.568 166.343 390.042 168.331 390.042C169.507 390.042 170.403 390.588 170.837 391.582L170.935 390.224H171.775V396.79C171.775 398.806 170.487 400.122 168.499 400.122C166.763 400.122 165.545 399.142 165.279 397.504H166.245C166.455 398.596 167.295 399.24 168.513 399.24C169.899 399.24 170.823 398.302 170.823 396.888V395.278C170.361 396.23 169.423 396.79 168.261 396.79C166.329 396.79 165.153 395.264 165.153 393.416ZM166.119 393.402C166.119 394.788 166.973 395.922 168.401 395.922C169.871 395.922 170.739 394.858 170.739 393.402C170.739 391.96 169.899 390.896 168.415 390.896C166.959 390.896 166.119 392.03 166.119 393.402ZM176.633 397.168C174.645 397.168 173.315 395.74 173.315 393.612C173.315 391.498 174.631 390.042 176.563 390.042C178.397 390.042 179.643 391.344 179.643 393.262V393.738H174.253C174.323 395.39 175.191 396.342 176.647 396.342C177.753 396.342 178.467 395.866 178.719 394.97H179.643C179.279 396.398 178.229 397.168 176.633 397.168ZM176.563 390.868C175.289 390.868 174.449 391.708 174.281 393.038H178.677C178.677 391.736 177.837 390.868 176.563 390.868ZM189.369 397.154C186.569 397.154 184.665 395.068 184.665 391.988C184.665 388.908 186.597 386.808 189.425 386.808C191.581 386.808 193.275 388.11 193.681 390.098H192.603C192.183 388.656 190.951 387.774 189.383 387.774C187.185 387.774 185.715 389.454 185.715 391.988C185.715 394.508 187.185 396.188 189.383 396.188C190.965 396.188 192.225 395.334 192.659 393.99H193.737C193.275 395.88 191.525 397.154 189.369 397.154ZM194.794 393.612C194.794 391.54 196.25 390.042 198.238 390.042C200.226 390.042 201.682 391.54 201.682 393.612C201.682 395.67 200.226 397.168 198.238 397.168C196.25 397.168 194.794 395.67 194.794 393.612ZM195.774 393.598C195.774 395.194 196.782 396.3 198.238 396.3C199.68 396.3 200.702 395.194 200.702 393.598C200.702 392.03 199.68 390.91 198.238 390.91C196.782 390.91 195.774 392.03 195.774 393.598ZM204.193 397H203.227V390.224H204.067L204.207 391.4C204.655 390.532 205.551 390.042 206.531 390.042C208.393 390.042 209.163 391.148 209.163 392.856V397H208.197V393.066C208.197 391.484 207.483 390.924 206.363 390.924C204.977 390.924 204.193 391.932 204.193 393.458V397ZM212.642 397H211.69V391.036H210.332V390.224H211.69V388.082H212.642V390.224H214V391.036H212.642V397ZM218.8 390.14V391.008H218.268C217.022 391.008 216.224 391.848 216.224 393.136V397H215.258V390.224H216.168L216.238 391.274C216.504 390.546 217.218 390.07 218.17 390.07C218.38 390.07 218.562 390.084 218.8 390.14ZM221.757 397.168C220.315 397.168 219.461 396.356 219.461 395.166C219.461 393.92 220.413 393.136 221.995 393.01L224.235 392.828V392.604C224.235 391.274 223.437 390.854 222.443 390.854C221.267 390.854 220.567 391.386 220.567 392.296H219.685C219.685 390.924 220.805 390.042 222.471 390.042C224.039 390.042 225.187 390.826 225.187 392.618V397H224.375L224.249 395.81C223.829 396.664 222.905 397.168 221.757 397.168ZM221.981 396.384C223.409 396.384 224.235 395.39 224.235 393.92V393.556L222.233 393.71C220.959 393.822 220.441 394.382 220.441 395.138C220.441 395.964 221.057 396.384 221.981 396.384ZM226.649 393.626C226.649 391.498 227.951 390.042 229.925 390.042C231.493 390.042 232.641 390.952 232.907 392.352H231.941C231.689 391.414 230.877 390.896 229.939 390.896C228.567 390.896 227.601 391.946 227.601 393.612C227.601 395.222 228.497 396.3 229.869 396.3C230.877 396.3 231.689 395.74 231.955 394.872H232.935C232.613 396.258 231.409 397.168 229.869 397.168C227.951 397.168 226.649 395.754 226.649 393.626ZM235.953 397H235.001V391.036H233.643V390.224H235.001V388.082H235.953V390.224H237.311V391.036H235.953V397Z" fill="black"/>
<path d="M357.679 297.477L274.197 297.477" stroke="black"/>
<path d="M349.856 156.297L493.867 156.297" stroke="black"/>
<path d="M276.318 293.496L270.094 297.656L276.318 301.816L276.318 293.496Z" fill="black"/>
<path d="M349.856 156V297.565" stroke="black"/>
<path d="M493.412 297.5H354.247" stroke="black"/>
<path d="M460.661 148.557H474.564C475.497 148.557 476.253 147.801 476.253 146.868V133.05C476.253 132.86 476.196 132.675 476.09 132.517C476.056 132.468 476.018 132.422 475.976 132.379L472.616 128.991C472.546 128.919 472.463 128.861 472.372 128.818C472.256 128.763 472.129 128.734 472.001 128.734H460.661C459.729 128.734 458.973 129.49 458.973 130.423V146.868C458.973 147.801 459.729 148.557 460.661 148.557Z" fill="white"/>
<path d="M474.564 148.057H460.661C460.005 148.057 459.473 147.525 459.473 146.868V130.423C459.473 129.767 460.005 129.234 460.661 129.234H474.564C475.22 129.234 475.753 129.767 475.753 130.423V146.868C475.753 147.525 475.22 148.057 474.564 148.057Z" fill="white" stroke="#4AA6FF"/>
<path d="M462.567 135.109H472.778" stroke="#4AA6FF" stroke-linecap="round"/>
<path d="M462.568 139.312H468.285" stroke="#4AA6FF" stroke-linecap="round"/>
<path d="M462.567 143.527H468.284" stroke="#4AA6FF" stroke-linecap="round"/>
<path d="M478.855 132.859L479.588 133.328C480.141 133.682 480.302 134.417 479.949 134.97L474.157 144.018C474.148 144.033 474.134 144.045 474.119 144.053L471.278 145.513C471.276 145.514 471.271 145.516 471.258 145.514C471.241 145.513 471.217 145.505 471.192 145.489C471.167 145.473 471.151 145.455 471.142 145.44C471.137 145.432 471.136 145.427 471.135 145.424L471.399 142.324C471.4 142.308 471.406 142.292 471.414 142.278L477.213 133.219C477.567 132.666 478.302 132.505 478.855 132.859Z" fill="white" stroke="#4AA6FF"/>
<path d="M471.656 142.312L473.898 143.748" stroke="#4AA6FF" stroke-width="0.8"/>
<rect x="463.633" y="127.859" width="7.89551" height="2.96655" rx="1.18862" fill="white" stroke="#4AA6FF"/>
<path d="M460.661 289.385H474.564C475.497 289.385 476.253 288.629 476.253 287.696V273.879C476.253 273.689 476.196 273.503 476.09 273.345C476.056 273.296 476.018 273.25 475.976 273.207L472.616 269.819C472.546 269.748 472.463 269.689 472.372 269.646C472.256 269.591 472.129 269.562 472.001 269.562H460.661C459.729 269.562 458.973 270.319 458.973 271.251V287.696C458.973 288.629 459.729 289.385 460.661 289.385Z" fill="white"/>
<path d="M474.564 288.885H460.661C460.005 288.885 459.473 288.353 459.473 287.696V271.251C459.473 270.595 460.005 270.062 460.661 270.062H474.564C475.22 270.062 475.753 270.595 475.753 271.251V287.696C475.753 288.353 475.22 288.885 474.564 288.885Z" fill="white" stroke="#4AA6FF"/>
<path d="M462.567 275.938H472.778" stroke="#4AA6FF" stroke-linecap="round"/>
<path d="M462.568 280.141H468.285" stroke="#4AA6FF" stroke-linecap="round"/>
<path d="M462.567 284.355H468.284" stroke="#4AA6FF" stroke-linecap="round"/>
<path d="M478.855 273.687L479.588 274.156C480.141 274.51 480.302 275.245 479.949 275.798L474.157 284.846C474.148 284.861 474.134 284.873 474.119 284.881L471.278 286.341C471.276 286.342 471.271 286.344 471.258 286.342C471.241 286.341 471.217 286.333 471.192 286.317C471.167 286.302 471.151 286.283 471.142 286.268C471.137 286.26 471.136 286.255 471.135 286.252L471.399 283.152C471.4 283.136 471.406 283.12 471.414 283.106L477.213 274.047C477.567 273.494 478.302 273.333 478.855 273.687Z" fill="white" stroke="#4AA6FF"/>
<path d="M471.656 283.141L473.898 284.576" stroke="#4AA6FF" stroke-width="0.8"/>
<rect x="463.633" y="268.688" width="7.89551" height="2.96655" rx="1.18862" fill="white" stroke="#4AA6FF"/>
<path d="M450.949 140.193C450.949 145.348 446.719 149.538 441.489 149.538C436.258 149.538 432.028 145.348 432.028 140.193C432.028 135.037 436.258 130.848 441.489 130.848C446.719 130.848 450.949 135.037 450.949 140.193Z" fill="white" stroke="#4AA6FF"/>
<path d="M450.949 140.193C450.949 145.348 446.719 149.538 441.489 149.538C436.258 149.538 432.028 145.348 432.028 140.193C432.028 135.037 436.258 130.848 441.489 130.848C446.719 130.848 450.949 135.037 450.949 140.193Z" fill="white" stroke="#4AA6FF"/>
<path d="M441.511 133.133L441.511 140.192L445.041 144.424" stroke="#4AA6FF" stroke-linecap="round"/>
<circle cx="441.489" cy="140.192" r="1.80147" fill="white" stroke="#4AA6FF"/>
<path d="M441.519 128.316V130.393" stroke="#4AA6FF" stroke-linecap="round"/>
<rect x="436.48" y="126.672" width="10.0166" height="2.18279" rx="1.09139" fill="white" stroke="#4AA6FF"/>
<path d="M450.949 281.021C450.949 286.176 446.719 290.366 441.489 290.366C436.258 290.366 432.028 286.176 432.028 281.021C432.028 275.865 436.258 271.676 441.489 271.676C446.719 271.676 450.949 275.865 450.949 281.021Z" fill="white" stroke="#4AA6FF"/>
<path d="M450.949 281.021C450.949 286.176 446.719 290.366 441.489 290.366C436.258 290.366 432.028 286.176 432.028 281.021C432.028 275.865 436.258 271.676 441.489 271.676C446.719 271.676 450.949 275.865 450.949 281.021Z" fill="white" stroke="#4AA6FF"/>
<path d="M441.511 273.961L441.511 281.021L445.041 285.252" stroke="#4AA6FF" stroke-linecap="round"/>
<circle cx="441.489" cy="281.02" r="1.80147" fill="white" stroke="#4AA6FF"/>
<path d="M441.519 269.145V271.221" stroke="#4AA6FF" stroke-linecap="round"/>
<rect x="436.48" y="267.5" width="10.0166" height="2.18279" rx="1.09139" fill="white" stroke="#4AA6FF"/>
</svg>
