<svg width="877" height="447" viewBox="0 0 877 447" fill="none" xmlns="http://www.w3.org/2000/svg">
<path d="M12.0164 21H2.93641V6.38H12.0164V8.74H5.49641V12.5H11.3364V14.76H5.49641V18.64H12.0164V21ZM17.7919 21H15.3519V13.16H13.4519V11.12H15.3519V8.04H17.7919V11.12H19.7119V13.16H17.7919V21ZM23.6688 21H21.2288V6.12H23.6888V12.4C24.3088 11.44 25.4688 10.82 26.8888 10.82C29.3288 10.82 30.6088 12.36 30.6088 14.92V21H28.1688V15.5C28.1688 13.84 27.3488 13.04 26.1088 13.04C24.5688 13.04 23.6688 14.12 23.6688 15.6V21ZM37.4261 21.26C34.4861 21.26 32.4261 19.12 32.4261 16.06C32.4261 12.96 34.4461 10.82 37.3461 10.82C40.3061 10.82 42.1861 12.8 42.1861 15.88V16.62L34.7461 16.64C34.9261 18.38 35.8461 19.26 37.4661 19.26C38.8061 19.26 39.6861 18.74 39.9661 17.8H42.2261C41.8061 19.96 40.0061 21.26 37.4261 21.26ZM37.3661 12.82C35.9261 12.82 35.0461 13.6 34.8061 15.08H39.7661C39.7661 13.72 38.8261 12.82 37.3661 12.82ZM50.3389 11.08V13.34H49.4389C47.6789 13.34 46.5789 14.28 46.5789 16.2V21H44.1389V11.14H46.4389L46.5789 12.58C46.9989 11.6 47.9389 10.94 49.2589 10.94C49.5989 10.94 49.9389 10.98 50.3389 11.08ZM56.0784 21.26C53.1384 21.26 51.0784 19.12 51.0784 16.06C51.0784 12.96 53.0984 10.82 55.9984 10.82C58.9584 10.82 60.8384 12.8 60.8384 15.88V16.62L53.3984 16.64C53.5784 18.38 54.4984 19.26 56.1184 19.26C57.4584 19.26 58.3384 18.74 58.6184 17.8H60.8784C60.4584 19.96 58.6584 21.26 56.0784 21.26ZM56.0184 12.82C54.5784 12.82 53.6984 13.6 53.4584 15.08H58.4184C58.4184 13.72 57.4784 12.82 56.0184 12.82ZM69.4913 11.12H71.9313V21H69.6713L69.4913 19.68C68.8913 20.62 67.6113 21.26 66.2913 21.26C64.0113 21.26 62.6713 19.72 62.6713 17.3V11.12H65.1113V16.44C65.1113 18.32 65.8513 19.08 67.2113 19.08C68.7513 19.08 69.4913 18.18 69.4913 16.3V11.12ZM76.8914 21H74.4514V11.12H76.6914L76.8914 12.28C77.3914 11.46 78.3914 10.82 79.8114 10.82C81.3114 10.82 82.3514 11.56 82.8714 12.7C83.3714 11.56 84.5314 10.82 86.0314 10.82C88.4314 10.82 89.7514 12.26 89.7514 14.54V21H87.3314V15.18C87.3314 13.76 86.5714 13.02 85.4114 13.02C84.2314 13.02 83.3314 13.78 83.3314 15.4V21H80.8914V15.16C80.8914 13.78 80.1514 13.04 78.9914 13.04C77.8314 13.04 76.8914 13.8 76.8914 15.4V21ZM100.457 6.38V18.64H106.577V21H97.8973V6.38H100.457ZM110.919 8.68H107.719V6.38H113.379V21H110.919V8.68Z" fill="black"/>
<rect x="1.35547" y="51.5" width="467" height="395" rx="7.5" fill="white" stroke="black" stroke-dasharray="4 4"/>
<path d="M323.296 288.126H365.953C366.812 288.126 367.51 287.429 367.51 286.569V246.757C367.51 246.447 367.417 246.143 367.243 245.886L367.027 245.565C366.972 245.484 366.91 245.409 366.842 245.34L357.787 236.208C357.66 236.08 357.511 235.975 357.348 235.898L357.081 235.771C356.873 235.672 356.645 235.621 356.414 235.621H323.296C322.436 235.621 321.739 236.318 321.739 237.178V286.569C321.739 287.429 322.436 288.126 323.296 288.126Z" fill="white"/>
<path d="M363.104 288.025H324.139C322.514 288.025 321.197 286.708 321.197 285.083V239.383C321.197 237.758 322.514 236.441 324.139 236.441H363.104C364.729 236.441 366.046 237.758 366.046 239.383V285.083C366.046 286.708 364.729 288.025 363.104 288.025Z" fill="white" stroke="#4AA6FF" stroke-width="0.922053"/>
<path d="M361.009 283.913H326.592C325.828 283.913 325.209 283.294 325.209 282.53V240.575C325.209 239.811 325.828 239.191 326.592 239.191H361.009C361.773 239.191 362.392 239.811 362.392 240.575V282.53C362.392 283.294 361.773 283.913 361.009 283.913Z" fill="white" stroke="#4AA6FF" stroke-width="0.922053"/>
<path d="M331.028 249.516H358.074" stroke="#4AA6FF" stroke-width="0.922053" stroke-linecap="round"/>
<path d="M331.028 258.898H346.17" stroke="#4AA6FF" stroke-width="0.922053" stroke-linecap="round"/>
<path d="M330.53 268.184H345.672" stroke="#4AA6FF" stroke-width="0.922053" stroke-linecap="round"/>
<path d="M350.367 279.027L350.367 279.027L350.369 279.022L352.082 272.512C352.085 272.499 352.091 272.488 352.099 272.477L371.862 247.715C372.239 247.242 372.929 247.165 373.402 247.543L377.283 250.64C377.756 251.017 377.833 251.707 377.456 252.18L357.706 276.925C357.697 276.937 357.684 276.946 357.67 276.952L351.273 279.704L351.254 279.712L351.237 279.721C350.922 279.89 350.671 279.831 350.528 279.717C350.385 279.603 350.272 279.372 350.367 279.027Z" fill="white" stroke="#4AA6FF" stroke-width="0.922053"/>
<path d="M352.384 272.352L357.697 277.153" stroke="#4AA6FF" stroke-width="0.737642"/>
<rect x="333.231" y="233.438" width="22.1416" height="8.10284" rx="1.84411" fill="white" stroke="#4AA6FF" stroke-width="0.922053"/>
<path d="M335.274 411.9V410.976H342.456V411.9H339.362V421H338.354V411.9H335.274ZM346.322 416.002L342.822 410.976H344.012L345.874 413.608C346.35 414.28 346.672 414.812 346.91 415.26L349.822 410.976H350.984L347.54 415.974L351.04 421H349.836L347.932 418.312C347.596 417.836 347.19 417.22 346.938 416.772L344.012 421H342.836L346.322 416.002Z" fill="black"/>
<path d="M43.5698 164H40.5178V153.976H43.5418C46.5658 153.976 48.5818 155.992 48.5818 158.988C48.5818 161.984 46.5798 164 43.5698 164ZM43.4998 154.9H41.5258V163.076H43.5278C45.9778 163.076 47.5458 161.48 47.5458 158.988C47.5458 156.482 45.9778 154.9 43.4998 154.9ZM52.1386 164.168C50.6966 164.168 49.8426 163.356 49.8426 162.166C49.8426 160.92 50.7946 160.136 52.3766 160.01L54.6166 159.828V159.604C54.6166 158.274 53.8186 157.854 52.8246 157.854C51.6486 157.854 50.9486 158.386 50.9486 159.296H50.0666C50.0666 157.924 51.1866 157.042 52.8526 157.042C54.4206 157.042 55.5686 157.826 55.5686 159.618V164H54.7566L54.6306 162.81C54.2106 163.664 53.2866 164.168 52.1386 164.168ZM52.3626 163.384C53.7906 163.384 54.6166 162.39 54.6166 160.92V160.556L52.6146 160.71C51.3406 160.822 50.8226 161.382 50.8226 162.138C50.8226 162.964 51.4386 163.384 52.3626 163.384ZM58.938 164H57.986V158.036H56.628V157.224H57.986V155.082H58.938V157.224H60.296V158.036H58.938V164ZM63.3905 164.168C61.9485 164.168 61.0945 163.356 61.0945 162.166C61.0945 160.92 62.0465 160.136 63.6285 160.01L65.8685 159.828V159.604C65.8685 158.274 65.0705 157.854 64.0765 157.854C62.9005 157.854 62.2005 158.386 62.2005 159.296H61.3185C61.3185 157.924 62.4385 157.042 64.1045 157.042C65.6725 157.042 66.8205 157.826 66.8205 159.618V164H66.0085L65.8825 162.81C65.4625 163.664 64.5385 164.168 63.3905 164.168ZM63.6145 163.384C65.0425 163.384 65.8685 162.39 65.8685 160.92V160.556L63.8665 160.71C62.5925 160.822 62.0745 161.382 62.0745 162.138C62.0745 162.964 62.6905 163.384 63.6145 163.384ZM72.8518 164H71.8298L75.5118 153.976H76.7578L80.4818 164H79.4318L78.4518 161.34H73.8318L72.8518 164ZM76.0018 155.39L74.1398 160.458H78.1298L76.2538 155.39C76.2118 155.25 76.1418 155.082 76.1278 154.984C76.1138 155.068 76.0578 155.25 76.0018 155.39ZM83.1041 164L80.3321 157.224H81.3681L83.1181 161.592C83.3001 162.082 83.4821 162.544 83.6081 162.992C83.7341 162.53 83.9161 162.082 84.1121 161.592L85.8901 157.224H86.8841L84.0701 164H83.1041ZM89.6679 164.168C88.2259 164.168 87.3719 163.356 87.3719 162.166C87.3719 160.92 88.3239 160.136 89.9059 160.01L92.1459 159.828V159.604C92.1459 158.274 91.3479 157.854 90.3539 157.854C89.1779 157.854 88.4779 158.386 88.4779 159.296H87.5959C87.5959 157.924 88.7159 157.042 90.3819 157.042C91.9499 157.042 93.0979 157.826 93.0979 159.618V164H92.2859L92.1599 162.81C91.7399 163.664 90.8159 164.168 89.6679 164.168ZM89.8919 163.384C91.3199 163.384 92.1459 162.39 92.1459 160.92V160.556L90.1439 160.71C88.8699 160.822 88.3519 161.382 88.3519 162.138C88.3519 162.964 88.9679 163.384 89.8919 163.384ZM95.5123 155.362C95.1203 155.362 94.7983 155.04 94.7983 154.648C94.7983 154.256 95.1203 153.92 95.5123 153.92C95.9043 153.92 96.2403 154.256 96.2403 154.648C96.2403 155.04 95.9043 155.362 95.5123 155.362ZM95.0363 164V157.224H96.0023V164H95.0363ZM99.0248 164H98.0588V153.794H99.0248V164ZM103.025 164.168C101.583 164.168 100.729 163.356 100.729 162.166C100.729 160.92 101.681 160.136 103.263 160.01L105.503 159.828V159.604C105.503 158.274 104.705 157.854 103.711 157.854C102.535 157.854 101.835 158.386 101.835 159.296H100.953C100.953 157.924 102.073 157.042 103.739 157.042C105.307 157.042 106.455 157.826 106.455 159.618V164H105.643L105.517 162.81C105.097 163.664 104.173 164.168 103.025 164.168ZM103.249 163.384C104.677 163.384 105.503 162.39 105.503 160.92V160.556L103.501 160.71C102.227 160.822 101.709 161.382 101.709 162.138C101.709 162.964 102.325 163.384 103.249 163.384ZM109.234 164H108.394V153.794H109.36V158.54C109.836 157.546 110.76 157.042 111.908 157.042C113.882 157.042 115.03 158.582 115.03 160.626C115.03 162.656 113.854 164.168 111.88 164.168C110.746 164.168 109.808 163.664 109.332 162.614L109.234 164ZM109.374 160.598C109.374 162.166 110.242 163.286 111.726 163.286C113.196 163.286 114.05 162.166 114.05 160.598C114.05 159.044 113.196 157.91 111.726 157.91C110.242 157.91 109.374 159.044 109.374 160.598ZM117.046 155.362C116.654 155.362 116.332 155.04 116.332 154.648C116.332 154.256 116.654 153.92 117.046 153.92C117.438 153.92 117.774 154.256 117.774 154.648C117.774 155.04 117.438 155.362 117.046 155.362ZM116.57 164V157.224H117.536V164H116.57ZM120.558 164H119.592V153.794H120.558V164ZM123.088 155.362C122.696 155.362 122.374 155.04 122.374 154.648C122.374 154.256 122.696 153.92 123.088 153.92C123.48 153.92 123.816 154.256 123.816 154.648C123.816 155.04 123.48 155.362 123.088 155.362ZM122.612 164V157.224H123.578V164H122.612ZM127.147 164H126.195V158.036H124.837V157.224H126.195V155.082H127.147V157.224H128.505V158.036H127.147V164ZM129.077 166.954V166.156H129.819C130.407 166.156 130.995 166.114 131.331 165.204L131.625 164.406L128.881 157.224H129.903L132.087 163.132L134.229 157.224H135.223L132.115 165.554C131.723 166.618 131.065 167.052 130.099 167.052C129.693 167.052 129.385 167.024 129.077 166.954ZM141.454 164H140.446V153.976H141.468L146.984 162.32V153.976H147.978V164H146.984L141.454 155.656V164ZM153.058 164.168C151.07 164.168 149.74 162.74 149.74 160.612C149.74 158.498 151.056 157.042 152.988 157.042C154.822 157.042 156.068 158.344 156.068 160.262V160.738H150.678C150.748 162.39 151.616 163.342 153.072 163.342C154.178 163.342 154.892 162.866 155.144 161.97H156.068C155.704 163.398 154.654 164.168 153.058 164.168ZM152.988 157.868C151.714 157.868 150.874 158.708 150.706 160.038H155.102C155.102 158.736 154.262 157.868 152.988 157.868ZM159.098 164H158.146V158.036H156.788V157.224H158.146V155.082H159.098V157.224H160.456V158.036H159.098V164ZM163.142 164L160.902 157.224H161.896L163.226 161.312C163.38 161.76 163.506 162.222 163.646 162.768C163.758 162.222 163.982 161.536 164.052 161.312L165.396 157.224H166.39L167.72 161.312C167.846 161.676 168.014 162.264 168.14 162.768C168.28 162.208 168.308 162.04 168.546 161.312L169.89 157.224H170.898L168.602 164H167.664L166.264 159.744C166.096 159.24 165.984 158.82 165.9 158.414C165.802 158.778 165.69 159.184 165.508 159.744L164.108 164H163.142ZM171.328 160.612C171.328 158.54 172.784 157.042 174.772 157.042C176.76 157.042 178.216 158.54 178.216 160.612C178.216 162.67 176.76 164.168 174.772 164.168C172.784 164.168 171.328 162.67 171.328 160.612ZM172.308 160.598C172.308 162.194 173.316 163.3 174.772 163.3C176.214 163.3 177.236 162.194 177.236 160.598C177.236 159.03 176.214 157.91 174.772 157.91C173.316 157.91 172.308 159.03 172.308 160.598ZM183.303 157.14V158.008H182.771C181.525 158.008 180.727 158.848 180.727 160.136V164H179.761V157.224H180.671L180.741 158.274C181.007 157.546 181.721 157.07 182.673 157.07C182.883 157.07 183.065 157.084 183.303 157.14ZM185.595 164H184.629V153.794H185.595V160.724L188.955 157.224H190.173L187.569 159.926L190.187 164H189.067L186.911 160.612L185.595 161.97V164Z" fill="black"/>
<path d="M323.392 378.615L323.655 364.988H317.991L315.445 365.509L312.371 368.07L311.317 370.977L311.844 374.015L313.513 376.793L316.718 378.312L323.392 378.615Z" fill="white"/>
<path d="M323.545 377.571L323.655 371.818L323.544 365.788C323.535 365.285 323.125 364.883 322.622 364.883L316.844 364.883C316.695 364.883 316.549 364.919 316.417 364.987L314.233 366.126C314.122 366.184 314.024 366.264 313.945 366.361L312.029 368.71C311.91 368.856 311.839 369.034 311.824 369.221L311.533 372.972C311.519 373.15 311.557 373.328 311.643 373.484L313.146 376.247C313.227 376.396 313.347 376.52 313.494 376.604L315.899 377.997C316.014 378.064 316.142 378.105 316.275 378.118L320.091 378.475L322.623 378.475C323.125 378.475 323.535 378.073 323.545 377.571Z" fill="white"/>
<path d="M318.091 364.969C314.377 364.969 311.366 367.993 311.366 371.723C311.366 375.453 314.377 378.478 318.091 378.478H323.611" stroke="#4AA6FF" stroke-width="0.922053"/>
<path d="M327.261 394.893H365.162C367.199 394.893 368.85 393.242 368.85 391.205V355.923C368.85 354.932 368.452 353.984 367.745 353.29L358.902 344.611C358.213 343.934 357.285 343.555 356.319 343.555H327.261C325.225 343.555 323.573 345.206 323.573 347.243V391.205C323.573 393.242 325.225 394.893 327.261 394.893Z" fill="white" stroke="#4AA6FF" stroke-width="0.922053"/>
<path d="M334.149 358.016H346.908" stroke="#4AA6FF" stroke-width="0.922053"/>
<path d="M334.149 365.344H358.274" stroke="#4AA6FF" stroke-width="0.922053"/>
<path d="M334.149 385.578H358.274" stroke="#4AA6FF" stroke-width="0.922053"/>
<path d="M357.761 355.945C356.95 355.976 356.285 355.318 356.317 354.517L356.698 344.866C356.745 343.668 358.213 343.1 359.071 343.948L368.454 353.222C369.312 354.07 368.737 355.521 367.525 355.568L357.761 355.945Z" fill="white" stroke="#4AA6FF" stroke-width="0.922053"/>
<path d="M343.364 367.873L333.956 361.059L333.184 361.306V364.819L322.464 365.006L321.7 371.731L333.184 372.08L333.293 375.695L333.956 375.855L343.707 368.814V368.25L343.364 367.873Z" fill="white"/>
<path d="M332.419 365.358H321.269V372.022L332.419 372.414L332.898 375.855H333.813L343.221 368.973V368.276L333.813 361.656H332.898L332.419 365.358Z" fill="white"/>
<path d="M318.014 364.981L333.139 364.981V364.981C333.15 364.981 333.159 364.972 333.159 364.961L333.159 362.126C333.159 361.375 334.011 360.939 334.621 361.379L343.383 367.701C343.893 368.069 343.893 368.828 343.383 369.196L334.621 375.518C334.011 375.958 333.159 375.522 333.159 374.77L333.159 371.936C333.159 371.925 333.15 371.916 333.139 371.916V371.916L318.014 371.916" stroke="#4AA6FF" stroke-width="0.922053"/>
<path d="M369.189 385.717L368.925 372.09H374.589L377.136 372.611L380.209 375.171L381.263 378.079L380.736 381.117L379.067 383.894L375.862 385.413L369.189 385.717Z" fill="white"/>
<path d="M369.175 384.77L369.064 379.018L369.176 372.987C369.185 372.485 369.595 372.082 370.098 372.082L375.876 372.082C376.025 372.082 376.171 372.118 376.302 372.187L378.486 373.325C378.598 373.383 378.696 373.463 378.775 373.56L380.691 375.909C380.809 376.055 380.881 376.233 380.895 376.421L381.187 380.171C381.2 380.349 381.162 380.527 381.077 380.683L379.574 383.446C379.493 383.595 379.373 383.719 379.226 383.804L376.821 385.197C376.706 385.263 376.577 385.304 376.445 385.317L372.629 385.675L370.097 385.675C369.595 385.675 369.185 385.273 369.175 384.77Z" fill="white"/>
<path d="M374.487 372.07C378.201 372.07 381.212 375.094 381.212 378.825C381.212 382.555 378.201 385.579 374.487 385.579H368.967" stroke="#4AA6FF" stroke-width="0.922053"/>
<path d="M349.216 374.975L358.624 368.16L359.396 368.408V371.92L370.116 372.108L370.88 378.832L359.396 379.182L359.287 382.796L358.624 382.956L348.873 375.916V375.351L349.216 374.975Z" fill="white"/>
<path d="M359.675 372.151H370.825V378.815L359.675 379.207L359.196 382.648H358.282L348.874 375.766V375.069L358.282 368.449H359.196L359.675 372.151Z" fill="white"/>
<path d="M374.566 372.082L359.441 372.082V372.082C359.43 372.082 359.421 372.073 359.421 372.062L359.421 369.228C359.421 368.476 358.569 368.04 357.959 368.48L349.197 374.802C348.687 375.17 348.687 375.93 349.197 376.298L357.959 382.619C358.569 383.059 359.421 382.624 359.421 381.872L359.421 379.038C359.421 379.027 359.43 379.018 359.441 379.018V379.018L374.566 379.018" stroke="#4AA6FF" stroke-width="0.922053"/>
<path d="M397.715 370.415C397.715 373.934 394.828 376.795 391.255 376.795C387.682 376.795 384.795 373.934 384.795 370.415C384.795 366.897 387.682 364.035 391.255 364.035C394.828 364.035 397.715 366.897 397.715 370.415Z" fill="white" stroke="#4AA6FF" stroke-width="0.922053"/>
<path d="M388.044 370.317L391.243 365.883L394.465 370.317L391.243 374.949L388.044 370.317Z" fill="white"/>
<path d="M391.243 365.883L388.044 370.317M391.243 365.883L394.465 370.317M391.243 365.883V368.721M388.044 370.317L391.243 374.949M388.044 370.317L391.243 368.721M388.044 370.317L391.243 371.835M391.243 374.949L394.465 370.317M391.243 374.949V371.835M394.465 370.317L391.243 368.721M394.465 370.317L391.243 371.835M391.243 368.721V370.278V371.835" stroke="#4AA6FF" stroke-width="0.645437"/>
<path d="M395.649 384.253C395.649 386.769 393.678 388.783 391.278 388.783C388.877 388.783 386.906 386.769 386.906 384.253C386.906 381.737 388.877 379.723 391.278 379.723C393.678 379.723 395.649 381.737 395.649 384.253Z" fill="white" stroke="#4AA6FF" stroke-width="0.922053"/>
<path d="M394.237 384.252C394.237 386.034 392.885 387.43 391.277 387.43C389.668 387.43 388.316 386.034 388.316 384.252C388.316 382.47 389.668 381.074 391.277 381.074C392.885 381.074 394.237 382.47 394.237 384.252Z" fill="white" stroke="#4AA6FF" stroke-width="0.922053"/>
<rect x="385.628" y="385.16" width="11.2999" height="9.27036" rx="1.38308" fill="white" stroke="#4AA6FF" stroke-width="0.922053"/>
<path d="M392.142 389.8C392.142 390.429 392.004 390.976 391.803 391.348C391.591 391.739 391.377 391.838 391.254 391.838C391.132 391.838 390.917 391.739 390.706 391.348C390.505 390.976 390.366 390.429 390.366 389.8C390.366 389.171 390.505 388.625 390.706 388.252C390.917 387.861 391.132 387.762 391.254 387.762C391.377 387.762 391.591 387.861 391.803 388.252C392.004 388.625 392.142 389.171 392.142 389.8Z" fill="white" stroke="#4AA6FF" stroke-width="0.922053"/>
<path d="M100.002 395.514H130.367C132.404 395.514 134.056 393.863 134.056 391.826V361.646C134.056 361.231 133.932 360.825 133.699 360.481C133.627 360.373 133.544 360.272 133.452 360.18L126.113 352.779C125.959 352.623 125.778 352.495 125.58 352.401C125.327 352.281 125.05 352.219 124.769 352.219H100.002C97.9647 352.219 96.3135 353.87 96.3135 355.907V391.826C96.3135 393.863 97.9647 395.514 100.002 395.514Z" fill="white"/>
<path d="M125.195 352.219H100.002C97.9647 352.219 96.3135 353.87 96.3135 355.907V391.826C96.3135 393.863 97.9647 395.514 100.002 395.514H130.367C132.404 395.514 134.056 393.863 134.056 391.826V361.009" stroke="#4AA6FF" stroke-width="0.922053"/>
<path d="M104.165 366.148H115.82" stroke="#4AA6FF" stroke-width="0.922053"/>
<path d="M104.165 372.703H126.203" stroke="#4AA6FF" stroke-width="0.922053"/>
<path d="M104.165 378.617H126.203" stroke="#4AA6FF" stroke-width="0.922053"/>
<path d="M104.166 384.531H126.204" stroke="#4AA6FF" stroke-width="0.922053"/>
<path d="M125.484 362.256C124.678 362.288 124.016 361.626 124.048 360.82L124.297 354.437C124.344 353.232 125.804 352.66 126.657 353.513L132.791 359.647C133.644 360.5 133.072 361.96 131.867 362.007L125.484 362.256Z" fill="white" stroke="#4AA6FF" stroke-width="0.922053"/>
<path d="M104.526 390.987H134.892C136.929 390.987 138.58 389.336 138.58 387.299V357.118C138.58 356.703 138.456 356.298 138.224 355.954C138.151 355.846 138.068 355.745 137.976 355.652L130.638 348.251C130.483 348.096 130.303 347.968 130.104 347.874C129.851 347.754 129.574 347.691 129.294 347.691H104.526C102.489 347.691 100.838 349.343 100.838 351.38V387.299C100.838 389.336 102.489 390.987 104.526 390.987Z" fill="white"/>
<path d="M129.72 347.691H104.526C102.489 347.691 100.838 349.343 100.838 351.38V387.299C100.838 389.336 102.489 390.987 104.526 390.987H134.892C136.929 390.987 138.58 389.336 138.58 387.299V356.482" stroke="#4AA6FF" stroke-width="0.922053"/>
<path d="M108.689 361.621H120.345" stroke="#4AA6FF" stroke-width="0.922053"/>
<path d="M108.689 368.176H130.727" stroke="#4AA6FF" stroke-width="0.922053"/>
<path d="M108.689 374.09H130.727" stroke="#4AA6FF" stroke-width="0.922053"/>
<path d="M108.69 380.004H130.728" stroke="#4AA6FF" stroke-width="0.922053"/>
<path d="M130.008 357.729C129.203 357.76 128.541 357.099 128.572 356.293L128.822 349.91C128.869 348.704 130.329 348.133 131.182 348.986L137.315 355.12C138.168 355.973 137.597 357.433 136.391 357.48L130.008 357.729Z" fill="white" stroke="#4AA6FF" stroke-width="0.922053"/>
<path d="M109.045 387.112H139.41C141.447 387.112 143.099 385.461 143.099 383.424V353.243C143.099 352.828 142.975 352.423 142.742 352.079C142.67 351.971 142.587 351.87 142.495 351.777L135.156 344.376C135.002 344.221 134.821 344.093 134.623 343.999C134.37 343.879 134.093 343.816 133.812 343.816H109.045C107.008 343.816 105.356 345.468 105.356 347.505V383.424C105.356 385.461 107.008 387.112 109.045 387.112Z" fill="white"/>
<path d="M134.238 343.816H109.045C107.008 343.816 105.356 345.468 105.356 347.505V383.424C105.356 385.461 107.008 387.112 109.045 387.112H139.41C141.447 387.112 143.099 385.461 143.099 383.424V352.607" stroke="#4AA6FF" stroke-width="0.922053"/>
<path d="M113.209 357.742H124.864" stroke="#4AA6FF" stroke-width="0.922053"/>
<path d="M113.208 364.301H135.246" stroke="#4AA6FF" stroke-width="0.922053"/>
<path d="M113.209 370.211H135.247" stroke="#4AA6FF" stroke-width="0.922053"/>
<path d="M113.208 376.121H135.246" stroke="#4AA6FF" stroke-width="0.922053"/>
<path d="M134.187 354.145C133.381 354.176 132.719 353.514 132.751 352.709L133.05 345.036C133.097 343.831 134.557 343.259 135.41 344.112L142.783 351.485C143.636 352.338 143.064 353.798 141.859 353.845L134.187 354.145Z" fill="white" stroke="#4AA6FF" stroke-width="0.922053"/>
<circle cx="117.893" cy="115.227" r="28.2306" fill="white" stroke="#4AA6FF" stroke-width="0.922053"/>
<ellipse cx="118.462" cy="115.226" rx="15.2496" ry="28.1515" fill="white" stroke="#4AA6FF" stroke-width="0.922053"/>
<path d="M89.8594 115.227H146.162" stroke="#4AA6FF" stroke-width="0.922053"/>
<path d="M118.01 143.379L118.01 87.076" stroke="#4AA6FF" stroke-width="0.922053"/>
<path d="M139.477 96.7762C133.739 101.103 126.179 103.732 117.894 103.732C109.567 103.732 101.973 101.077 96.2246 96.7109" stroke="#4AA6FF" stroke-width="0.922053"/>
<path d="M139.478 133.673C133.74 129.346 126.18 126.717 117.895 126.717C109.568 126.717 101.974 129.372 96.2256 133.738" stroke="#4AA6FF" stroke-width="0.922053"/>
<circle cx="131.577" cy="101.277" r="3.12499" fill="white" stroke="#4AA6FF" stroke-width="0.922053"/>
<circle cx="103.212" cy="115.227" r="3.12499" fill="white" stroke="#4AA6FF" stroke-width="0.922053"/>
<circle cx="96.2257" cy="96.6368" r="3.12499" fill="white" stroke="#4AA6FF" stroke-width="0.922053"/>
<circle cx="131.577" cy="128.84" r="3.12499" fill="white" stroke="#4AA6FF" stroke-width="0.922053"/>
<circle cx="114.876" cy="87.0743" r="3.12499" fill="white" stroke="#4AA6FF" stroke-width="0.922053"/>
<circle cx="121.437" cy="142.285" r="3.12499" fill="white" stroke="#4AA6FF" stroke-width="0.922053"/>
<path d="M366.438 94.172C369.489 94.172 371.316 95.3806 372.369 97.1528C373.383 98.86 373.711 101.146 373.603 103.53H359.745L349.923 94.172L366.438 94.172Z" fill="white" stroke="#4AA6FF" stroke-width="0.922053"/>
<path d="M356.728 94.2183L356.73 94.2183L364.903 94.1815C362.822 95.6236 360.581 98.7768 360.392 104.534L360.392 104.534L360.392 104.546L360.182 137.472V137.475C360.182 141.787 356.88 145.199 352.587 145.199H351.344L323.5 134.984V102.008C323.5 97.7057 326.987 94.2183 331.289 94.2183L356.728 94.2183Z" fill="white" stroke="#4AA6FF" stroke-width="0.922053"/>
<path d="M350.25 135.469C349.055 139.312 349.063 141.988 349.735 143.751C350.031 144.527 350.454 145.119 350.945 145.546L350.865 145.547H350.862H319.279C315.356 145.547 312.177 142.368 312.177 138.445V135.469H350.25Z" fill="white" stroke="#4AA6FF" stroke-width="0.922053"/>
<path d="M331.846 104.613H353.462" stroke="#4AA6FF" stroke-width="0.922053"/>
<path d="M331.847 112.188H353.463" stroke="#4AA6FF" stroke-width="0.922053"/>
<path d="M331.847 119.766H353.463" stroke="#4AA6FF" stroke-width="0.922053"/>
<path d="M331.847 127.34H345.03" stroke="#4AA6FF" stroke-width="0.922053"/>
<circle cx="367.02" cy="128.513" r="13.7553" fill="white" stroke="#4AA6FF" stroke-width="0.922053"/>
<path d="M360.426 128.312L366.997 119.098L373.616 128.312L366.997 137.937L360.426 128.312Z" fill="white"/>
<path d="M366.997 119.098L360.426 128.312M366.997 119.098L373.616 128.312M366.997 119.098V124.997M360.426 128.312L366.997 137.937M360.426 128.312L366.997 124.997M360.426 128.312L366.997 131.467M366.997 137.937L373.616 128.312M366.997 137.937V131.467M373.616 128.312L366.997 124.997M373.616 128.312L366.997 131.467M366.997 124.997V128.232V131.467" stroke="#4AA6FF" stroke-width="0.922053"/>
<path d="M110.389 330.684L110.389 175.624" stroke="black"/>
<path d="M105.765 179.426L110.442 173.764L115.119 179.426L105.765 179.426Z" fill="black"/>
<path d="M341.909 224.371L341.909 175.624" stroke="black"/>
<path d="M337.285 179.426L341.961 173.764L346.639 179.426L337.285 179.426Z" fill="black"/>
<path d="M341.909 335.75L341.909 317.568" stroke="black"/>
<path d="M337.285 321.367L341.961 315.706L346.639 321.367L337.285 321.367Z" fill="black"/>
<path d="M179.057 370.695L265.195 370.695" stroke="black"/>
<path d="M261.395 366.072L267.057 370.749L261.395 375.426L261.395 366.072Z" fill="black"/>
<path d="M263.138 165H257.132V154.976H263.124V155.9H258.14V159.512H262.662V160.422H258.14V164.076H263.138V165ZM266.529 165H265.577V159.036H264.219V158.224H265.577V156.082H266.529V158.224H267.887V159.036H266.529V165ZM270.111 164.986H269.145V154.794H270.111V159.4C270.545 158.588 271.371 158.042 272.505 158.042C274.283 158.042 275.081 159.148 275.081 160.856V165H274.115V161.066C274.115 159.484 273.373 158.924 272.323 158.924C270.867 158.924 270.111 160.002 270.111 161.304V164.986ZM276.614 157.58C276.614 155.9 277.958 154.794 279.974 154.794C281.78 154.794 282.97 155.802 283.124 157.482H282.102C281.99 156.348 281.22 155.704 279.96 155.704C278.546 155.704 277.622 156.432 277.622 157.566C277.622 158.448 278.14 159.008 279.19 159.274L280.912 159.694C282.48 160.072 283.292 160.968 283.292 162.326C283.292 164.062 281.948 165.168 279.876 165.168C277.93 165.168 276.614 164.146 276.488 162.508H277.524C277.58 163.558 278.504 164.244 279.876 164.244C281.346 164.244 282.284 163.53 282.284 162.382C282.284 161.486 281.78 160.898 280.702 160.646L279.008 160.226C277.44 159.848 276.614 158.952 276.614 157.58ZM286.449 165H285.497V159.036H284.139V158.224H285.497V156.082H286.449V158.224H287.807V159.036H286.449V165ZM288.52 161.612C288.52 159.54 289.976 158.042 291.964 158.042C293.952 158.042 295.408 159.54 295.408 161.612C295.408 163.67 293.952 165.168 291.964 165.168C289.976 165.168 288.52 163.67 288.52 161.612ZM289.5 161.598C289.5 163.194 290.508 164.3 291.964 164.3C293.406 164.3 294.428 163.194 294.428 161.598C294.428 160.03 293.406 158.91 291.964 158.91C290.508 158.91 289.5 160.03 289.5 161.598ZM300.495 158.14V159.008H299.963C298.717 159.008 297.919 159.848 297.919 161.136V165H296.953V158.224H297.863L297.933 159.274C298.199 158.546 298.913 158.07 299.865 158.07C300.075 158.07 300.257 158.084 300.495 158.14ZM303.452 165.168C302.01 165.168 301.156 164.356 301.156 163.166C301.156 161.92 302.108 161.136 303.69 161.01L305.93 160.828V160.604C305.93 159.274 305.132 158.854 304.138 158.854C302.962 158.854 302.262 159.386 302.262 160.296H301.38C301.38 158.924 302.5 158.042 304.166 158.042C305.734 158.042 306.882 158.826 306.882 160.618V165H306.07L305.944 163.81C305.524 164.664 304.6 165.168 303.452 165.168ZM303.676 164.384C305.104 164.384 305.93 163.39 305.93 161.92V161.556L303.928 161.71C302.654 161.822 302.136 162.382 302.136 163.138C302.136 163.964 302.752 164.384 303.676 164.384ZM308.359 161.416C308.359 159.568 309.549 158.042 311.537 158.042C312.713 158.042 313.609 158.588 314.043 159.582L314.141 158.224H314.981V164.79C314.981 166.806 313.693 168.122 311.705 168.122C309.969 168.122 308.751 167.142 308.485 165.504H309.451C309.66 166.596 310.501 167.24 311.719 167.24C313.105 167.24 314.029 166.302 314.029 164.888V163.278C313.567 164.23 312.629 164.79 311.467 164.79C309.535 164.79 308.359 163.264 308.359 161.416ZM309.325 161.402C309.325 162.788 310.179 163.922 311.607 163.922C313.077 163.922 313.945 162.858 313.945 161.402C313.945 159.96 313.105 158.896 311.621 158.896C310.165 158.896 309.325 160.03 309.325 161.402ZM319.838 165.168C317.85 165.168 316.52 163.74 316.52 161.612C316.52 159.498 317.836 158.042 319.768 158.042C321.602 158.042 322.848 159.344 322.848 161.262V161.738H317.458C317.528 163.39 318.396 164.342 319.852 164.342C320.958 164.342 321.672 163.866 321.924 162.97H322.848C322.484 164.398 321.434 165.168 319.838 165.168ZM319.768 158.868C318.494 158.868 317.654 159.708 317.486 161.038H321.882C321.882 159.736 321.042 158.868 319.768 158.868ZM327.884 157.58C327.884 155.9 329.228 154.794 331.244 154.794C333.05 154.794 334.24 155.802 334.394 157.482H333.372C333.26 156.348 332.49 155.704 331.23 155.704C329.816 155.704 328.892 156.432 328.892 157.566C328.892 158.448 329.41 159.008 330.46 159.274L332.182 159.694C333.75 160.072 334.562 160.968 334.562 162.326C334.562 164.062 333.218 165.168 331.146 165.168C329.2 165.168 327.884 164.146 327.758 162.508H328.794C328.85 163.558 329.774 164.244 331.146 164.244C332.616 164.244 333.554 163.53 333.554 162.382C333.554 161.486 333.05 160.898 331.972 160.646L330.278 160.226C328.71 159.848 327.884 158.952 327.884 157.58ZM337.718 165H336.766V159.036H335.408V158.224H336.766V156.082H337.718V158.224H339.076V159.036H337.718V165ZM339.79 161.612C339.79 159.54 341.246 158.042 343.234 158.042C345.222 158.042 346.678 159.54 346.678 161.612C346.678 163.67 345.222 165.168 343.234 165.168C341.246 165.168 339.79 163.67 339.79 161.612ZM340.77 161.598C340.77 163.194 341.778 164.3 343.234 164.3C344.676 164.3 345.698 163.194 345.698 161.598C345.698 160.03 344.676 158.91 343.234 158.91C341.778 158.91 340.77 160.03 340.77 161.598ZM351.765 158.14V159.008H351.233C349.987 159.008 349.189 159.848 349.189 161.136V165H348.223V158.224H349.133L349.203 159.274C349.469 158.546 350.183 158.07 351.135 158.07C351.345 158.07 351.527 158.084 351.765 158.14ZM354.722 165.168C353.28 165.168 352.426 164.356 352.426 163.166C352.426 161.92 353.378 161.136 354.96 161.01L357.2 160.828V160.604C357.2 159.274 356.402 158.854 355.408 158.854C354.232 158.854 353.532 159.386 353.532 160.296H352.65C352.65 158.924 353.77 158.042 355.436 158.042C357.004 158.042 358.152 158.826 358.152 160.618V165H357.34L357.214 163.81C356.794 164.664 355.87 165.168 354.722 165.168ZM354.946 164.384C356.374 164.384 357.2 163.39 357.2 161.92V161.556L355.198 161.71C353.924 161.822 353.406 162.382 353.406 163.138C353.406 163.964 354.022 164.384 354.946 164.384ZM359.628 161.416C359.628 159.568 360.818 158.042 362.806 158.042C363.982 158.042 364.878 158.588 365.312 159.582L365.41 158.224H366.25V164.79C366.25 166.806 364.962 168.122 362.974 168.122C361.238 168.122 360.02 167.142 359.754 165.504H360.72C360.93 166.596 361.77 167.24 362.988 167.24C364.374 167.24 365.298 166.302 365.298 164.888V163.278C364.836 164.23 363.898 164.79 362.736 164.79C360.804 164.79 359.628 163.264 359.628 161.416ZM360.594 161.402C360.594 162.788 361.448 163.922 362.876 163.922C364.346 163.922 365.214 162.858 365.214 161.402C365.214 159.96 364.374 158.896 362.89 158.896C361.434 158.896 360.594 160.03 360.594 161.402ZM371.108 165.168C369.12 165.168 367.79 163.74 367.79 161.612C367.79 159.498 369.106 158.042 371.038 158.042C372.872 158.042 374.118 159.344 374.118 161.262V161.738H368.728C368.798 163.39 369.666 164.342 371.122 164.342C372.228 164.342 372.942 163.866 373.194 162.97H374.118C373.754 164.398 372.704 165.168 371.108 165.168ZM371.038 158.868C369.764 158.868 368.924 159.708 368.756 161.038H373.152C373.152 159.736 372.312 158.868 371.038 158.868ZM383.843 165.154C381.043 165.154 379.139 163.068 379.139 159.988C379.139 156.908 381.071 154.808 383.899 154.808C386.055 154.808 387.749 156.11 388.155 158.098H387.077C386.657 156.656 385.425 155.774 383.857 155.774C381.659 155.774 380.189 157.454 380.189 159.988C380.189 162.508 381.659 164.188 383.857 164.188C385.439 164.188 386.699 163.334 387.133 161.99H388.211C387.749 163.88 385.999 165.154 383.843 165.154ZM389.268 161.612C389.268 159.54 390.724 158.042 392.712 158.042C394.7 158.042 396.156 159.54 396.156 161.612C396.156 163.67 394.7 165.168 392.712 165.168C390.724 165.168 389.268 163.67 389.268 161.612ZM390.248 161.598C390.248 163.194 391.256 164.3 392.712 164.3C394.154 164.3 395.176 163.194 395.176 161.598C395.176 160.03 394.154 158.91 392.712 158.91C391.256 158.91 390.248 160.03 390.248 161.598ZM398.667 165H397.701V158.224H398.541L398.681 159.4C399.129 158.532 400.025 158.042 401.005 158.042C402.867 158.042 403.637 159.148 403.637 160.856V165H402.671V161.066C402.671 159.484 401.957 158.924 400.837 158.924C399.451 158.924 398.667 159.932 398.667 161.458V165ZM407.117 165H406.165V159.036H404.807V158.224H406.165V156.082H407.117V158.224H408.475V159.036H407.117V165ZM413.275 158.14V159.008H412.743C411.497 159.008 410.699 159.848 410.699 161.136V165H409.733V158.224H410.643L410.713 159.274C410.979 158.546 411.693 158.07 412.645 158.07C412.855 158.07 413.037 158.084 413.275 158.14ZM416.231 165.168C414.789 165.168 413.935 164.356 413.935 163.166C413.935 161.92 414.887 161.136 416.469 161.01L418.709 160.828V160.604C418.709 159.274 417.911 158.854 416.917 158.854C415.741 158.854 415.041 159.386 415.041 160.296H414.159C414.159 158.924 415.279 158.042 416.945 158.042C418.513 158.042 419.661 158.826 419.661 160.618V165H418.849L418.723 163.81C418.303 164.664 417.379 165.168 416.231 165.168ZM416.455 164.384C417.883 164.384 418.709 163.39 418.709 161.92V161.556L416.707 161.71C415.433 161.822 414.915 162.382 414.915 163.138C414.915 163.964 415.531 164.384 416.455 164.384ZM421.124 161.626C421.124 159.498 422.426 158.042 424.4 158.042C425.968 158.042 427.116 158.952 427.382 160.352H426.416C426.164 159.414 425.352 158.896 424.414 158.896C423.042 158.896 422.076 159.946 422.076 161.612C422.076 163.222 422.972 164.3 424.344 164.3C425.352 164.3 426.164 163.74 426.43 162.872H427.41C427.088 164.258 425.884 165.168 424.344 165.168C422.426 165.168 421.124 163.754 421.124 161.626ZM430.427 165H429.475V159.036H428.117V158.224H429.475V156.082H430.427V158.224H431.785V159.036H430.427V165Z" fill="black"/>
<path d="M280.457 307H279.435L283.117 296.976H284.363L288.087 307H287.037L286.057 304.34H281.437L280.457 307ZM283.607 298.39L281.745 303.458H285.735L283.859 298.39C283.817 298.25 283.747 298.082 283.733 297.984C283.719 298.068 283.663 298.25 283.607 298.39ZM289.271 309.954V300.224H290.111L290.209 301.596C290.685 300.546 291.637 300.042 292.771 300.042C294.731 300.042 295.907 301.54 295.907 303.584C295.907 305.628 294.773 307.168 292.771 307.168C291.623 307.168 290.713 306.678 290.237 305.698V309.954H289.271ZM290.251 303.612C290.251 305.166 291.119 306.3 292.603 306.3C294.073 306.3 294.927 305.166 294.927 303.612C294.927 302.044 294.073 300.924 292.603 300.924C291.119 300.924 290.251 302.044 290.251 303.612ZM297.446 309.954V300.224H298.286L298.384 301.596C298.86 300.546 299.812 300.042 300.946 300.042C302.906 300.042 304.082 301.54 304.082 303.584C304.082 305.628 302.948 307.168 300.946 307.168C299.798 307.168 298.888 306.678 298.412 305.698V309.954H297.446ZM298.426 303.612C298.426 305.166 299.294 306.3 300.778 306.3C302.248 306.3 303.102 305.166 303.102 303.612C303.102 302.044 302.248 300.924 300.778 300.924C299.294 300.924 298.426 302.044 298.426 303.612ZM306.63 307H305.664V296.794H306.63V307ZM309.161 298.362C308.769 298.362 308.447 298.04 308.447 297.648C308.447 297.256 308.769 296.92 309.161 296.92C309.553 296.92 309.889 297.256 309.889 297.648C309.889 298.04 309.553 298.362 309.161 298.362ZM308.685 307V300.224H309.651V307H308.685ZM311.189 303.626C311.189 301.498 312.491 300.042 314.465 300.042C316.033 300.042 317.181 300.952 317.447 302.352H316.481C316.229 301.414 315.417 300.896 314.479 300.896C313.107 300.896 312.141 301.946 312.141 303.612C312.141 305.222 313.037 306.3 314.409 306.3C315.417 306.3 316.229 305.74 316.495 304.872H317.475C317.153 306.258 315.949 307.168 314.409 307.168C312.491 307.168 311.189 305.754 311.189 303.626ZM320.885 307.168C319.443 307.168 318.589 306.356 318.589 305.166C318.589 303.92 319.541 303.136 321.123 303.01L323.363 302.828V302.604C323.363 301.274 322.565 300.854 321.571 300.854C320.395 300.854 319.695 301.386 319.695 302.296H318.813C318.813 300.924 319.933 300.042 321.599 300.042C323.167 300.042 324.315 300.826 324.315 302.618V307H323.503L323.377 305.81C322.957 306.664 322.033 307.168 320.885 307.168ZM321.109 306.384C322.537 306.384 323.363 305.39 323.363 303.92V303.556L321.361 303.71C320.087 303.822 319.569 304.382 319.569 305.138C319.569 305.964 320.185 306.384 321.109 306.384ZM327.684 307H326.732V301.036H325.374V300.224H326.732V298.082H327.684V300.224H329.042V301.036H327.684V307ZM330.776 298.362C330.384 298.362 330.062 298.04 330.062 297.648C330.062 297.256 330.384 296.92 330.776 296.92C331.168 296.92 331.504 297.256 331.504 297.648C331.504 298.04 331.168 298.362 330.776 298.362ZM330.3 307V300.224H331.266V307H330.3ZM332.804 303.612C332.804 301.54 334.26 300.042 336.248 300.042C338.236 300.042 339.692 301.54 339.692 303.612C339.692 305.67 338.236 307.168 336.248 307.168C334.26 307.168 332.804 305.67 332.804 303.612ZM333.784 303.598C333.784 305.194 334.792 306.3 336.248 306.3C337.69 306.3 338.712 305.194 338.712 303.598C338.712 302.03 337.69 300.91 336.248 300.91C334.792 300.91 333.784 302.03 333.784 303.598ZM342.203 307H341.237V300.224H342.077L342.217 301.4C342.665 300.532 343.561 300.042 344.541 300.042C346.403 300.042 347.173 301.148 347.173 302.856V307H346.207V303.066C346.207 301.484 345.493 300.924 344.373 300.924C342.987 300.924 342.203 301.932 342.203 303.458V307ZM357.28 307.154C354.48 307.154 352.576 305.068 352.576 301.988C352.576 298.908 354.508 296.808 357.336 296.808C359.492 296.808 361.186 298.11 361.592 300.098H360.514C360.094 298.656 358.862 297.774 357.294 297.774C355.096 297.774 353.626 299.454 353.626 301.988C353.626 304.508 355.096 306.188 357.294 306.188C358.876 306.188 360.136 305.334 360.57 303.99H361.648C361.186 305.88 359.436 307.154 357.28 307.154ZM362.705 303.612C362.705 301.54 364.161 300.042 366.149 300.042C368.137 300.042 369.593 301.54 369.593 303.612C369.593 305.67 368.137 307.168 366.149 307.168C364.161 307.168 362.705 305.67 362.705 303.612ZM363.685 303.598C363.685 305.194 364.693 306.3 366.149 306.3C367.591 306.3 368.613 305.194 368.613 303.598C368.613 302.03 367.591 300.91 366.149 300.91C364.693 300.91 363.685 302.03 363.685 303.598ZM372.104 307H371.138V300.224H371.978L372.118 301.4C372.566 300.532 373.462 300.042 374.442 300.042C376.304 300.042 377.074 301.148 377.074 302.856V307H376.108V303.066C376.108 301.484 375.394 300.924 374.274 300.924C372.888 300.924 372.104 301.932 372.104 303.458V307ZM380.553 307H379.601V301.036H378.243V300.224H379.601V298.082H380.553V300.224H381.911V301.036H380.553V307ZM386.711 300.14V301.008H386.179C384.933 301.008 384.135 301.848 384.135 303.136V307H383.169V300.224H384.079L384.149 301.274C384.415 300.546 385.129 300.07 386.081 300.07C386.291 300.07 386.473 300.084 386.711 300.14ZM389.668 307.168C388.226 307.168 387.372 306.356 387.372 305.166C387.372 303.92 388.324 303.136 389.906 303.01L392.146 302.828V302.604C392.146 301.274 391.348 300.854 390.354 300.854C389.178 300.854 388.478 301.386 388.478 302.296H387.596C387.596 300.924 388.716 300.042 390.382 300.042C391.95 300.042 393.098 300.826 393.098 302.618V307H392.286L392.16 305.81C391.74 306.664 390.816 307.168 389.668 307.168ZM389.892 306.384C391.32 306.384 392.146 305.39 392.146 303.92V303.556L390.144 303.71C388.87 303.822 388.352 304.382 388.352 305.138C388.352 305.964 388.968 306.384 389.892 306.384ZM394.56 303.626C394.56 301.498 395.862 300.042 397.836 300.042C399.404 300.042 400.552 300.952 400.818 302.352H399.852C399.6 301.414 398.788 300.896 397.85 300.896C396.478 300.896 395.512 301.946 395.512 303.612C395.512 305.222 396.408 306.3 397.78 306.3C398.788 306.3 399.6 305.74 399.866 304.872H400.846C400.524 306.258 399.32 307.168 397.78 307.168C395.862 307.168 394.56 305.754 394.56 303.626ZM403.864 307H402.912V301.036H401.554V300.224H402.912V298.082H403.864V300.224H405.222V301.036H403.864V307Z" fill="black"/>
<path d="M91.6252 421V410.976H95.2932C97.2252 410.976 98.4152 411.956 98.4152 413.566C98.4152 414.742 97.8972 415.54 96.8612 415.946C98.0232 416.324 98.6112 417.136 98.6112 418.368C98.6112 419.978 97.4072 421 95.5032 421H91.6252ZM95.2792 411.872H92.6332V415.54H95.4052C96.6652 415.54 97.3792 414.84 97.3792 413.65C97.3792 412.53 96.6232 411.872 95.2792 411.872ZM95.5032 416.422H92.6332V420.09H95.5032C96.8192 420.09 97.5892 419.404 97.5892 418.242C97.5892 417.108 96.8052 416.422 95.5032 416.422ZM101.438 410.976V420.076H106.044V421H100.43V410.976H101.438ZM115.993 415.988C115.993 419.026 114.019 421.168 111.219 421.168C108.405 421.168 106.445 419.026 106.445 415.988C106.445 412.95 108.419 410.794 111.219 410.794C114.033 410.794 115.993 412.936 115.993 415.988ZM114.957 415.988C114.957 413.482 113.431 411.774 111.219 411.774C109.007 411.774 107.495 413.482 107.495 415.988C107.495 418.494 109.007 420.202 111.219 420.202C113.431 420.202 114.957 418.48 114.957 415.988ZM117.821 421V410.976H121.489C123.421 410.976 124.611 411.956 124.611 413.566C124.611 414.742 124.093 415.54 123.057 415.946C124.219 416.324 124.807 417.136 124.807 418.368C124.807 419.978 123.603 421 121.699 421H117.821ZM121.475 411.872H118.829V415.54H121.601C122.861 415.54 123.575 414.84 123.575 413.65C123.575 412.53 122.819 411.872 121.475 411.872ZM121.699 416.422H118.829V420.09H121.699C123.015 420.09 123.785 419.404 123.785 418.242C123.785 417.108 123.001 416.422 121.699 416.422ZM125.841 419.096H126.765C126.765 419.88 127.353 420.37 128.305 420.37C129.355 420.37 129.971 419.922 129.971 419.194C129.971 418.634 129.691 418.312 128.893 418.116L127.731 417.822C126.555 417.528 125.981 416.912 125.981 415.988C125.981 414.798 126.975 414.042 128.431 414.042C129.859 414.042 130.783 414.826 130.825 416.086H129.887C129.859 415.302 129.313 414.84 128.403 414.84C127.451 414.84 126.919 415.246 126.919 415.974C126.919 416.492 127.283 416.856 128.025 417.038L129.187 417.332C130.363 417.626 130.895 418.172 130.895 419.152C130.895 420.37 129.859 421.168 128.319 421.168C126.793 421.168 125.841 420.356 125.841 419.096Z" fill="black"/>
<rect x="291.012" y="190.883" width="103.758" height="19.3567" fill="white"/>
<path d="M308.905 200.844H306.493V204H305.629V195.408H308.905C310.561 195.408 311.605 196.488 311.605 198.108C311.605 199.668 310.549 200.844 308.905 200.844ZM308.785 196.188H306.493V200.064H308.737C309.985 200.064 310.705 199.272 310.705 198.096C310.705 196.908 309.973 196.188 308.785 196.188ZM316.9 198.192H317.728V204H317.008L316.9 203.016C316.576 203.688 315.772 204.144 314.86 204.144C313.492 204.144 312.748 203.208 312.748 201.792V198.18H313.588V201.528C313.588 202.908 314.2 203.4 315.124 203.4C316.24 203.4 316.9 202.656 316.9 201.276V198.192ZM320.785 204H319.969V198.888H318.805V198.192H319.969V196.356H320.785V198.192H321.949V198.888H320.785V204ZM325.211 205.884H324.455C323.447 204.504 322.787 202.464 322.787 200.4C322.787 198.42 323.423 196.356 324.455 194.928H325.211C324.287 196.224 323.639 198.24 323.639 200.4C323.639 202.512 324.263 204.564 325.211 205.884ZM327.118 195.408V200.58L331.258 195.408H332.29L329.374 199.044L332.338 204H331.33L328.81 199.764L327.118 201.864V204H326.254V195.408H327.118ZM335.518 204.144C333.814 204.144 332.674 202.92 332.674 201.096C332.674 199.284 333.802 198.036 335.458 198.036C337.03 198.036 338.098 199.152 338.098 200.796V201.204H333.478C333.538 202.62 334.282 203.436 335.53 203.436C336.478 203.436 337.09 203.028 337.306 202.26H338.098C337.786 203.484 336.886 204.144 335.518 204.144ZM335.458 198.744C334.366 198.744 333.646 199.464 333.502 200.604H337.27C337.27 199.488 336.55 198.744 335.458 198.744ZM338.693 206.532V205.848H339.329C339.833 205.848 340.337 205.812 340.625 205.032L340.877 204.348L338.525 198.192H339.401L341.273 203.256L343.109 198.192H343.961L341.297 205.332C340.961 206.244 340.397 206.616 339.569 206.616C339.221 206.616 338.957 206.592 338.693 206.532ZM345.479 203.592C345.479 204.336 344.903 204.984 344.159 205.092V204.648C344.591 204.576 344.903 204.264 344.903 203.928C344.831 203.976 344.735 204.012 344.591 204.012C344.255 204.012 343.967 203.772 343.967 203.364C343.967 202.944 344.255 202.644 344.675 202.644C345.107 202.644 345.479 202.992 345.479 203.592ZM347.336 204V195.408H350.48C352.136 195.408 353.156 196.248 353.156 197.628C353.156 198.636 352.712 199.32 351.824 199.668C352.82 199.992 353.324 200.688 353.324 201.744C353.324 203.124 352.292 204 350.66 204H347.336ZM350.468 196.176H348.2V199.32H350.576C351.656 199.32 352.268 198.72 352.268 197.7C352.268 196.74 351.62 196.176 350.468 196.176ZM350.66 200.076H348.2V203.22H350.66C351.788 203.22 352.448 202.632 352.448 201.636C352.448 200.664 351.776 200.076 350.66 200.076ZM355.747 195.408V203.208H359.695V204H354.883V195.408H355.747ZM368.222 199.704C368.222 202.308 366.53 204.144 364.13 204.144C361.718 204.144 360.038 202.308 360.038 199.704C360.038 197.1 361.73 195.252 364.13 195.252C366.542 195.252 368.222 197.088 368.222 199.704ZM367.334 199.704C367.334 197.556 366.026 196.092 364.13 196.092C362.234 196.092 360.938 197.556 360.938 199.704C360.938 201.852 362.234 203.316 364.13 203.316C366.026 203.316 367.334 201.84 367.334 199.704ZM369.789 204V195.408H372.933C374.589 195.408 375.609 196.248 375.609 197.628C375.609 198.636 375.165 199.32 374.277 199.668C375.273 199.992 375.777 200.688 375.777 201.744C375.777 203.124 374.745 204 373.113 204H369.789ZM372.921 196.176H370.653V199.32H373.029C374.109 199.32 374.721 198.72 374.721 197.7C374.721 196.74 374.073 196.176 372.921 196.176ZM373.113 200.076H370.653V203.22H373.113C374.241 203.22 374.901 202.632 374.901 201.636C374.901 200.664 374.229 200.076 373.113 200.076ZM377.048 205.884H376.292C377.24 204.564 377.876 202.512 377.876 200.4C377.876 198.24 377.216 196.224 376.292 194.928H377.048C378.092 196.356 378.716 198.42 378.716 200.4C378.716 202.464 378.056 204.504 377.048 205.884Z" fill="black"/>
<path d="M725.218 130.448L725.212 131.033L725.79 130.948C727.341 130.722 728.927 130.604 730.54 130.604C748.519 130.604 763.094 145.179 763.094 163.158C763.094 181.136 748.519 195.711 730.54 195.711H654.793C636.814 195.711 622.239 181.136 622.239 163.158C622.239 145.179 636.814 130.604 654.793 130.604C656.406 130.604 657.992 130.722 659.543 130.948L660.121 131.033L660.115 130.448C660.114 130.334 660.113 130.219 660.113 130.104C660.113 112.125 674.688 97.5508 692.667 97.5508C710.645 97.5508 725.22 112.125 725.22 130.104C725.22 130.219 725.219 130.334 725.218 130.448Z" fill="white" stroke="black"/>
<path d="M654.836 190.702C639.475 190.702 626.865 178.203 626.865 162.722C626.865 147.241 639.36 134.741 654.836 134.741C656.212 134.741 657.587 134.856 658.963 135.085L664.924 136.002L664.809 129.695C664.809 114.329 677.305 101.715 692.78 101.715C708.256 101.715 720.751 114.214 720.751 129.695L720.637 136.002L726.598 135.085C727.973 134.856 729.349 134.741 730.725 134.741C746.086 134.741 758.696 147.241 758.696 162.722C758.696 178.203 746.2 190.702 730.725 190.702H654.836Z" stroke="black"/>
<path d="M715.525 196.223C715.525 196.413 715.44 196.644 715.184 196.919C714.927 197.197 714.522 197.488 713.959 197.782C712.833 198.368 711.171 198.911 709.076 199.372C704.894 200.293 699.091 200.867 692.666 200.867C686.24 200.867 680.438 200.293 676.256 199.372C674.161 198.911 672.499 198.368 671.373 197.782C670.81 197.488 670.405 197.197 670.147 196.919C669.892 196.644 669.807 196.413 669.807 196.223V178.719H715.525V196.223Z" fill="white" stroke="black"/>
<path d="M698.985 191.805V205.916C698.985 208.125 700.775 209.916 702.985 209.916H744.475" stroke="black"/>
<circle cx="743.641" cy="209.919" r="2.25477" fill="white" stroke="black"/>
<path d="M685.396 191.805V205.916C685.396 208.125 683.605 209.916 681.396 209.916H639.906" stroke="black"/>
<circle cx="2.75477" cy="2.75477" r="2.25477" transform="matrix(-1 0 0 1 643.494 207.164)" fill="white" stroke="black"/>
<path d="M715.528 178.219C715.528 178.846 715.061 179.563 713.919 180.307C712.798 181.038 711.142 181.716 709.052 182.292C704.879 183.443 699.085 184.161 692.666 184.161C686.246 184.161 680.452 183.443 676.279 182.292C674.189 181.716 672.534 181.038 671.413 180.307C670.27 179.563 669.804 178.846 669.804 178.219C669.804 177.592 670.27 176.875 671.413 176.13C672.534 175.4 674.189 174.722 676.279 174.146C680.452 172.995 686.246 172.277 692.666 172.277C699.085 172.277 704.879 172.995 709.052 174.146C711.142 174.722 712.798 175.4 713.919 176.13C715.061 176.875 715.528 177.592 715.528 178.219Z" fill="white" stroke="black"/>
<path d="M715.525 173.489C715.525 173.679 715.44 173.91 715.184 174.185C714.927 174.462 714.522 174.754 713.959 175.047C712.833 175.633 711.171 176.176 709.076 176.638C704.894 177.559 699.091 178.133 692.666 178.133C686.24 178.133 680.438 177.559 676.256 176.638C674.161 176.176 672.499 175.633 671.373 175.047C670.81 174.754 670.405 174.462 670.147 174.185C669.892 173.91 669.807 173.679 669.807 173.489V155.984H715.525V173.489Z" fill="white" stroke="black"/>
<path d="M715.528 155.485C715.528 156.112 715.061 156.828 713.919 157.573C712.798 158.304 711.142 158.981 709.052 159.557C704.879 160.708 699.085 161.426 692.666 161.426C686.246 161.426 680.452 160.708 676.279 159.557C674.189 158.981 672.534 158.304 671.413 157.573C670.27 156.828 669.804 156.112 669.804 155.485C669.804 154.857 670.27 154.141 671.413 153.396C672.534 152.665 674.189 151.988 676.279 151.412C680.452 150.261 686.246 149.543 692.666 149.543C699.085 149.543 704.879 150.261 709.052 151.412C711.142 151.988 712.798 152.665 713.919 153.396C715.061 154.141 715.528 154.857 715.528 155.485Z" fill="white" stroke="black"/>
<path d="M698.484 156.097C698.484 156.26 698.403 156.466 698.146 156.708C697.887 156.95 697.486 157.192 696.949 157.405C695.877 157.83 694.363 158.104 692.665 158.104C690.967 158.104 689.452 157.83 688.381 157.405C687.844 157.192 687.443 156.95 687.184 156.708C686.927 156.466 686.846 156.26 686.846 156.097C686.846 155.934 686.927 155.727 687.184 155.486C687.443 155.243 687.844 155.002 688.381 154.789C689.452 154.364 690.967 154.09 692.665 154.09C694.363 154.09 695.877 154.364 696.949 154.789C697.486 155.002 697.887 155.243 698.146 155.486C698.403 155.727 698.484 155.934 698.484 156.097Z" fill="white" stroke="black"/>
<circle cx="685.604" cy="193.458" r="2.25477" fill="white" stroke="black"/>
<circle cx="698.985" cy="193.458" r="2.25477" fill="white" stroke="black"/>
<circle cx="669.306" cy="209.524" r="3.23124" fill="white" stroke="black"/>
<circle cx="654.028" cy="218.376" r="2.07481" fill="white" stroke="black"/>
<circle cx="714.609" cy="209.524" r="3.23124" fill="white" stroke="black"/>
<path d="M689.68 200.672V214.376C689.68 216.586 687.889 218.376 685.68 218.376H655.551" stroke="black"/>
<circle cx="2.57481" cy="2.57481" r="2.07481" transform="matrix(-1 0 0 1 733.241 215.801)" fill="white" stroke="black"/>
<path d="M695.016 200.672V214.376C695.016 216.586 696.806 218.376 699.016 218.376H729.145" stroke="black"/>
<rect x="507.355" y="51.5" width="369" height="395" rx="7.5" fill="white" stroke="black" stroke-dasharray="4 4"/>
<path d="M720.32 137.671L720.314 138.255L720.892 138.171C722.442 137.944 724.028 137.827 725.642 137.827C743.621 137.827 758.195 152.402 758.195 170.38C758.195 188.359 743.621 202.934 725.642 202.934H649.894C631.915 202.934 617.341 188.359 617.341 170.38C617.341 152.402 631.915 137.827 649.894 137.827C651.508 137.827 653.094 137.944 654.644 138.171L655.222 138.255L655.216 137.671C655.215 137.556 655.215 137.442 655.215 137.327C655.215 119.348 669.789 104.773 687.768 104.773C705.747 104.773 720.322 119.348 720.322 137.327C720.322 137.442 720.321 137.556 720.32 137.671Z" fill="white" stroke="#4AA6FF"/>
<path d="M649.939 197.925C634.578 197.925 621.968 185.425 621.968 169.944C621.968 154.463 634.463 141.964 649.939 141.964C651.314 141.964 652.69 142.078 654.066 142.308L660.027 143.225L659.912 136.918C659.912 121.552 672.407 108.938 687.883 108.938C703.359 108.938 715.854 121.437 715.854 136.918L715.739 143.225L721.7 142.308C723.076 142.078 724.452 141.964 725.827 141.964C741.188 141.964 753.798 154.463 753.798 169.944C753.798 185.425 741.303 197.925 725.827 197.925H649.939Z" fill="white" stroke="#4AA6FF"/>
<path d="M710.627 203.449C710.627 203.64 710.541 203.871 710.286 204.146C710.028 204.423 709.624 204.715 709.06 205.008C707.935 205.594 706.273 206.137 704.178 206.599C699.995 207.52 694.193 208.093 687.768 208.093C681.342 208.093 675.54 207.52 671.358 206.599C669.262 206.137 667.601 205.594 666.475 205.008C665.911 204.715 665.507 204.423 665.249 204.146C664.994 203.871 664.908 203.64 664.908 203.449V185.945H710.627V203.449Z" fill="white" stroke="#4AA6FF"/>
<path d="M694.086 199.027V213.139C694.086 215.348 695.877 217.139 698.086 217.139H739.576" stroke="#4AA6FF"/>
<circle cx="738.743" cy="217.141" r="2.25477" fill="white" stroke="#4AA6FF"/>
<path d="M680.498 199.027V213.139C680.498 215.348 678.707 217.139 676.498 217.139H635.008" stroke="#4AA6FF"/>
<circle cx="2.75477" cy="2.75477" r="2.25477" transform="matrix(-1 0 0 1 638.596 214.387)" fill="white" stroke="#4AA6FF"/>
<path d="M710.629 185.442C710.629 186.069 710.163 186.786 709.02 187.53C707.899 188.261 706.244 188.938 704.154 189.515C699.98 190.665 694.187 191.383 687.767 191.383C681.348 191.383 675.554 190.665 671.381 189.515C669.291 188.938 667.635 188.261 666.514 187.53C665.372 186.786 664.905 186.069 664.905 185.442C664.905 184.814 665.372 184.098 666.514 183.353C667.635 182.622 669.291 181.945 671.381 181.369C675.554 180.218 681.348 179.5 687.767 179.5C694.187 179.5 699.98 180.218 704.154 181.369C706.244 181.945 707.899 182.622 709.02 183.353C710.163 184.098 710.629 184.814 710.629 185.442Z" fill="white" stroke="#4AA6FF"/>
<path d="M710.627 180.711C710.627 180.902 710.541 181.133 710.286 181.408C710.028 181.685 709.624 181.977 709.06 182.27C707.935 182.856 706.273 183.399 704.178 183.86C699.995 184.781 694.193 185.355 687.768 185.355C681.342 185.355 675.54 184.781 671.358 183.86C669.262 183.399 667.601 182.856 666.475 182.27C665.911 181.977 665.507 181.685 665.249 181.408C664.994 181.133 664.908 180.902 664.908 180.711V163.207H710.627V180.711Z" fill="white" stroke="#4AA6FF"/>
<path d="M710.629 162.707C710.629 163.334 710.163 164.051 709.02 164.796C707.899 165.527 706.244 166.204 704.154 166.78C699.98 167.931 694.187 168.649 687.767 168.649C681.348 168.649 675.554 167.931 671.381 166.78C669.291 166.204 667.635 165.527 666.514 164.796C665.372 164.051 664.905 163.334 664.905 162.707C664.905 162.08 665.372 161.363 666.514 160.619C667.635 159.888 669.291 159.211 671.381 158.634C675.554 157.484 681.348 156.766 687.767 156.766C694.187 156.766 699.98 157.484 704.154 158.634C706.244 159.211 707.899 159.888 709.02 160.619C710.163 161.363 710.629 162.08 710.629 162.707Z" fill="white" stroke="#4AA6FF"/>
<path d="M693.586 163.32C693.586 163.482 693.505 163.689 693.247 163.931C692.989 164.173 692.588 164.414 692.051 164.627C690.979 165.053 689.465 165.327 687.767 165.327C686.068 165.327 684.554 165.053 683.483 164.627C682.945 164.414 682.544 164.173 682.286 163.931C682.028 163.689 681.947 163.482 681.947 163.32C681.947 163.157 682.028 162.95 682.286 162.708C682.544 162.466 682.945 162.225 683.483 162.012C684.554 161.586 686.068 161.312 687.767 161.312C689.465 161.312 690.979 161.586 692.051 162.012C692.588 162.225 692.989 162.466 693.247 162.708C693.505 162.95 693.586 163.157 693.586 163.32Z" fill="white" stroke="#4AA6FF"/>
<circle cx="680.705" cy="200.677" r="2.25477" fill="white" stroke="#4AA6FF"/>
<circle cx="694.086" cy="200.677" r="2.25477" fill="white" stroke="#4AA6FF"/>
<circle cx="664.408" cy="216.747" r="3.23124" fill="white" stroke="#4AA6FF"/>
<circle cx="649.13" cy="225.598" r="2.07481" fill="white" stroke="#4AA6FF"/>
<circle cx="709.71" cy="216.747" r="3.23124" fill="white" stroke="#4AA6FF"/>
<path d="M684.781 207.895V221.599C684.781 223.808 682.99 225.599 680.781 225.599H650.652" stroke="#4AA6FF"/>
<circle cx="2.57481" cy="2.57481" r="2.07481" transform="matrix(-1 0 0 1 728.343 223.023)" fill="white" stroke="#4AA6FF"/>
<path d="M690.117 207.895V221.599C690.117 223.808 691.908 225.599 694.117 225.599H724.246" stroke="#4AA6FF"/>
<path d="M720.32 269.12L720.314 269.705L720.892 269.62C722.442 269.393 724.028 269.276 725.642 269.276C743.621 269.276 758.195 283.851 758.195 301.83C758.195 319.808 743.621 334.383 725.642 334.383H649.894C631.915 334.383 617.341 319.808 617.341 301.83C617.341 283.851 631.915 269.276 649.894 269.276C651.508 269.276 653.094 269.393 654.644 269.62L655.222 269.705L655.216 269.12C655.215 269.006 655.215 268.891 655.215 268.776C655.215 250.797 669.789 236.223 687.768 236.223C705.747 236.223 720.322 250.797 720.322 268.776C720.322 268.891 720.321 269.006 720.32 269.12Z" fill="white" stroke="#4AA6FF"/>
<path d="M649.939 329.374C634.578 329.374 621.968 316.875 621.968 301.393C621.968 285.912 634.463 273.413 649.939 273.413C651.314 273.413 652.69 273.528 654.066 273.757L660.027 274.674L659.912 268.367C659.912 253.001 672.407 240.387 687.883 240.387C703.359 240.387 715.854 252.886 715.854 268.367L715.739 274.674L721.7 273.757C723.076 273.528 724.452 273.413 725.827 273.413C741.188 273.413 753.798 285.912 753.798 301.393C753.798 316.875 741.303 329.374 725.827 329.374H649.939Z" fill="white" stroke="#4AA6FF"/>
<path d="M710.627 334.899C710.627 335.089 710.541 335.32 710.286 335.595C710.028 335.872 709.624 336.164 709.06 336.457C707.935 337.044 706.273 337.586 704.178 338.048C699.995 338.969 694.193 339.543 687.768 339.543C681.342 339.543 675.54 338.969 671.358 338.048C669.262 337.586 667.601 337.044 666.475 336.457C665.911 336.164 665.507 335.872 665.249 335.595C664.994 335.32 664.908 335.089 664.908 334.899V317.395H710.627V334.899Z" fill="white" stroke="#4AA6FF"/>
<path d="M694.086 330.477V344.588C694.086 346.797 695.877 348.588 698.086 348.588H739.576" stroke="#4AA6FF"/>
<circle cx="738.743" cy="348.591" r="2.25477" fill="white" stroke="#4AA6FF"/>
<path d="M680.498 330.477V344.588C680.498 346.797 678.707 348.588 676.498 348.588H635.008" stroke="#4AA6FF"/>
<circle cx="2.75477" cy="2.75477" r="2.25477" transform="matrix(-1 0 0 1 638.596 345.836)" fill="white" stroke="#4AA6FF"/>
<path d="M710.629 316.891C710.629 317.518 710.163 318.235 709.02 318.979C707.899 319.71 706.244 320.387 704.154 320.964C699.98 322.114 694.187 322.832 687.767 322.832C681.348 322.832 675.554 322.114 671.381 320.964C669.291 320.387 667.635 319.71 666.514 318.979C665.372 318.235 664.905 317.518 664.905 316.891C664.905 316.264 665.372 315.547 666.514 314.802C667.635 314.072 669.291 313.394 671.381 312.818C675.554 311.667 681.348 310.949 687.767 310.949C694.187 310.949 699.98 311.667 704.154 312.818C706.244 313.394 707.899 314.072 709.02 314.802C710.163 315.547 710.629 316.264 710.629 316.891Z" fill="white" stroke="#4AA6FF"/>
<path d="M710.627 312.16C710.627 312.351 710.541 312.582 710.286 312.857C710.028 313.134 709.624 313.426 709.06 313.719C707.935 314.305 706.273 314.848 704.178 315.309C699.995 316.231 694.193 316.804 687.768 316.804C681.342 316.804 675.54 316.231 671.358 315.309C669.262 314.848 667.601 314.305 666.475 313.719C665.911 313.426 665.507 313.134 665.249 312.857C664.994 312.582 664.908 312.351 664.908 312.16V294.656H710.627V312.16Z" fill="white" stroke="#4AA6FF"/>
<path d="M710.629 294.156C710.629 294.784 710.163 295.5 709.02 296.245C707.899 296.976 706.244 297.653 704.154 298.229C699.98 299.38 694.187 300.098 687.767 300.098C681.348 300.098 675.554 299.38 671.381 298.229C669.291 297.653 667.635 296.976 666.514 296.245C665.372 295.5 664.905 294.784 664.905 294.156C664.905 293.529 665.372 292.813 666.514 292.068C667.635 291.337 669.291 290.66 671.381 290.084C675.554 288.933 681.348 288.215 687.767 288.215C694.187 288.215 699.98 288.933 704.154 290.084C706.244 290.66 707.899 291.337 709.02 292.068C710.163 292.813 710.629 293.529 710.629 294.156Z" fill="white" stroke="#4AA6FF"/>
<path d="M693.586 294.769C693.586 294.932 693.505 295.138 693.247 295.38C692.989 295.622 692.588 295.864 692.051 296.077C690.979 296.502 689.465 296.776 687.767 296.776C686.068 296.776 684.554 296.502 683.483 296.077C682.945 295.864 682.544 295.622 682.286 295.38C682.028 295.138 681.947 294.932 681.947 294.769C681.947 294.606 682.028 294.399 682.286 294.158C682.544 293.915 682.945 293.674 683.483 293.461C684.554 293.036 686.068 292.762 687.767 292.762C689.465 292.762 690.979 293.036 692.051 293.461C692.588 293.674 692.989 293.915 693.247 294.158C693.505 294.399 693.586 294.606 693.586 294.769Z" fill="white" stroke="#4AA6FF"/>
<circle cx="680.705" cy="332.126" r="2.25477" fill="white" stroke="#4AA6FF"/>
<circle cx="694.086" cy="332.126" r="2.25477" fill="white" stroke="#4AA6FF"/>
<circle cx="664.408" cy="348.196" r="3.23124" fill="white" stroke="#4AA6FF"/>
<circle cx="649.13" cy="357.047" r="2.07481" fill="white" stroke="#4AA6FF"/>
<circle cx="709.71" cy="348.196" r="3.23124" fill="white" stroke="#4AA6FF"/>
<path d="M684.781 339.344V353.048C684.781 355.257 682.99 357.048 680.781 357.048H650.652" stroke="#4AA6FF"/>
<circle cx="2.57481" cy="2.57481" r="2.07481" transform="matrix(-1 0 0 1 728.343 354.473)" fill="white" stroke="#4AA6FF"/>
<path d="M690.117 339.344V353.048C690.117 355.257 691.908 357.048 694.117 357.048H724.246" stroke="#4AA6FF"/>
<path d="M517.555 21H508.475V6.38H517.555V8.74H511.035V12.5H516.875V14.76H511.035V18.64H517.555V21ZM523.331 21H520.891V13.16H518.991V11.12H520.891V8.04H523.331V11.12H525.251V13.16H523.331V21ZM529.208 21H526.768V6.12H529.228V12.4C529.848 11.44 531.008 10.82 532.428 10.82C534.868 10.82 536.148 12.36 536.148 14.92V21H533.708V15.5C533.708 13.84 532.888 13.04 531.648 13.04C530.108 13.04 529.208 14.12 529.208 15.6V21ZM538.065 10.46C538.065 7.9 540.185 6.12 543.265 6.12C546.225 6.12 548.105 7.76 548.185 10.4H545.625C545.565 9.14 544.665 8.4 543.225 8.4C541.645 8.4 540.625 9.16 540.625 10.38C540.625 11.42 541.185 12 542.405 12.28L544.705 12.78C547.205 13.32 548.425 14.6 548.425 16.78C548.425 19.5 546.305 21.26 543.085 21.26C539.965 21.26 537.925 19.6 537.865 16.98H540.425C540.445 18.22 541.445 18.96 543.085 18.96C544.785 18.96 545.865 18.22 545.865 17C545.865 16.02 545.365 15.44 544.165 15.18L541.845 14.66C539.365 14.12 538.065 12.7 538.065 10.46ZM553.741 21H551.301V13.16H549.401V11.12H551.301V8.04H553.741V11.12H555.661V13.16H553.741V21ZM556.5 16.04C556.5 12.96 558.72 10.84 561.78 10.84C564.84 10.84 567.06 12.96 567.06 16.04C567.06 19.12 564.84 21.24 561.78 21.24C558.72 21.24 556.5 19.12 556.5 16.04ZM558.94 16.04C558.94 17.84 560.1 19.06 561.78 19.06C563.46 19.06 564.62 17.84 564.62 16.04C564.62 14.24 563.46 13.02 561.78 13.02C560.1 13.02 558.94 14.24 558.94 16.04ZM575.194 11.08V13.34H574.294C572.534 13.34 571.434 14.28 571.434 16.2V21H568.994V11.14H571.294L571.434 12.58C571.854 11.6 572.794 10.94 574.114 10.94C574.454 10.94 574.794 10.98 575.194 11.08ZM579.395 21.26C577.295 21.26 576.015 20.04 576.015 18.18C576.015 16.36 577.335 15.22 579.675 15.04L582.635 14.82V14.6C582.635 13.26 581.835 12.72 580.595 12.72C579.155 12.72 578.355 13.32 578.355 14.36H576.275C576.275 12.22 578.035 10.82 580.715 10.82C583.375 10.82 585.015 12.26 585.015 15V21H582.875L582.695 19.54C582.275 20.56 580.935 21.26 579.395 21.26ZM580.195 19.42C581.695 19.42 582.655 18.52 582.655 17V16.48L580.595 16.64C579.075 16.78 578.495 17.28 578.495 18.08C578.495 18.98 579.095 19.42 580.195 19.42ZM586.852 15.84C586.852 12.96 588.732 10.8 591.552 10.8C593.032 10.8 594.192 11.42 594.772 12.48L594.912 11.12H597.172V20.5C597.172 23.8 595.192 25.86 591.992 25.86C589.152 25.86 587.212 24.24 586.912 21.6H589.352C589.512 22.88 590.492 23.64 591.992 23.64C593.672 23.64 594.752 22.58 594.752 20.94V19.3C594.132 20.22 592.912 20.8 591.492 20.8C588.692 20.8 586.852 18.7 586.852 15.84ZM589.312 15.78C589.312 17.44 590.372 18.68 591.972 18.68C593.652 18.68 594.692 17.5 594.692 15.78C594.692 14.1 593.672 12.94 591.972 12.94C590.352 12.94 589.312 14.16 589.312 15.78ZM604.118 21.26C601.178 21.26 599.118 19.12 599.118 16.06C599.118 12.96 601.138 10.82 604.038 10.82C606.998 10.82 608.878 12.8 608.878 15.88V16.62L601.438 16.64C601.618 18.38 602.538 19.26 604.158 19.26C605.498 19.26 606.378 18.74 606.658 17.8H608.918C608.498 19.96 606.698 21.26 604.118 21.26ZM604.058 12.82C602.618 12.82 601.738 13.6 601.498 15.08H606.458C606.458 13.72 605.518 12.82 604.058 12.82ZM619.141 6.38V18.64H625.261V21H616.581V6.38H619.141ZM636.783 20.98L626.643 21V19.08L631.423 15.04C633.403 13.36 634.063 12.4 634.063 11C634.063 9.34 633.163 8.4 631.623 8.4C630.023 8.4 629.023 9.52 629.003 11.4H626.463C626.483 8.2 628.523 6.12 631.623 6.12C634.743 6.12 636.683 7.9 636.683 10.86C636.683 12.9 635.563 14.44 633.343 16.34L630.703 18.6H636.783V20.98ZM647.031 21H644.511V6.38H647.051L653.911 16.74V6.38H656.431V21H653.911L647.031 10.64V21ZM663.727 21.26C660.787 21.26 658.727 19.12 658.727 16.06C658.727 12.96 660.747 10.82 663.647 10.82C666.607 10.82 668.487 12.8 668.487 15.88V16.62L661.047 16.64C661.227 18.38 662.147 19.26 663.767 19.26C665.107 19.26 665.987 18.74 666.267 17.8H668.527C668.107 19.96 666.307 21.26 663.727 21.26ZM663.667 12.82C662.227 12.82 661.347 13.6 661.107 15.08H666.067C666.067 13.72 665.127 12.82 663.667 12.82ZM673.702 21H671.262V13.16H669.362V11.12H671.262V8.04H673.702V11.12H675.622V13.16H673.702V21ZM679.319 21L676.119 11.12H678.659L679.959 15.36C680.179 16.14 680.379 17 680.559 17.92C680.739 16.96 680.919 16.34 681.239 15.36L682.599 11.12H685.079L686.399 15.36C686.519 15.76 686.919 17.24 687.039 17.9C687.199 17.16 687.519 15.98 687.699 15.36L689.019 11.12H691.599L688.179 21H685.899L684.539 16.72C684.139 15.42 683.919 14.48 683.839 13.98C683.739 14.44 683.559 15.14 683.059 16.76L681.699 21H679.319ZM692.008 16.04C692.008 12.96 694.228 10.84 697.288 10.84C700.348 10.84 702.568 12.96 702.568 16.04C702.568 19.12 700.348 21.24 697.288 21.24C694.228 21.24 692.008 19.12 692.008 16.04ZM694.448 16.04C694.448 17.84 695.608 19.06 697.288 19.06C698.968 19.06 700.128 17.84 700.128 16.04C700.128 14.24 698.968 13.02 697.288 13.02C695.608 13.02 694.448 14.24 694.448 16.04ZM710.702 11.08V13.34H709.802C708.042 13.34 706.942 14.28 706.942 16.2V21H704.502V11.14H706.802L706.942 12.58C707.362 11.6 708.302 10.94 709.622 10.94C709.962 10.94 710.302 10.98 710.702 11.08ZM714.814 21H712.394V6.12H714.814V15.26L718.654 11.12H721.714L717.954 15.04L721.634 21H718.834L716.254 16.84L714.814 18.34V21Z" fill="black"/>
<path d="M629.059 392.52C629.059 390.6 630.595 389.336 632.899 389.336C634.963 389.336 636.323 390.488 636.499 392.408H635.331C635.203 391.112 634.323 390.376 632.883 390.376C631.267 390.376 630.211 391.208 630.211 392.504C630.211 393.512 630.803 394.152 632.003 394.456L633.971 394.936C635.763 395.368 636.691 396.392 636.691 397.944C636.691 399.928 635.155 401.192 632.787 401.192C630.563 401.192 629.059 400.024 628.915 398.152H630.099C630.163 399.352 631.219 400.136 632.787 400.136C634.467 400.136 635.539 399.32 635.539 398.008C635.539 396.984 634.963 396.312 633.731 396.024L631.795 395.544C630.003 395.112 629.059 394.088 629.059 392.52ZM640.299 401H639.211V394.184H637.659V393.256H639.211V390.808H640.299V393.256H641.851V394.184H640.299V401ZM642.667 397.128C642.667 394.76 644.331 393.048 646.603 393.048C648.875 393.048 650.539 394.76 650.539 397.128C650.539 399.48 648.875 401.192 646.603 401.192C644.331 401.192 642.667 399.48 642.667 397.128ZM643.787 397.112C643.787 398.936 644.939 400.2 646.603 400.2C648.251 400.2 649.419 398.936 649.419 397.112C649.419 395.32 648.251 394.04 646.603 394.04C644.939 394.04 643.787 395.32 643.787 397.112ZM656.352 393.16V394.152H655.744C654.32 394.152 653.408 395.112 653.408 396.584V401H652.304V393.256H653.344L653.424 394.456C653.728 393.624 654.544 393.08 655.632 393.08C655.872 393.08 656.08 393.096 656.352 393.16ZM657.151 396.904C657.151 394.792 658.511 393.048 660.783 393.048C662.127 393.048 663.151 393.672 663.647 394.808L663.759 393.256H664.719V400.76C664.719 403.064 663.247 404.568 660.975 404.568C658.991 404.568 657.599 403.448 657.295 401.576H658.399C658.639 402.824 659.599 403.56 660.991 403.56C662.575 403.56 663.631 402.488 663.631 400.872V399.032C663.103 400.12 662.031 400.76 660.703 400.76C658.495 400.76 657.151 399.016 657.151 396.904ZM658.255 396.888C658.255 398.472 659.231 399.768 660.863 399.768C662.543 399.768 663.535 398.552 663.535 396.888C663.535 395.24 662.575 394.024 660.879 394.024C659.215 394.024 658.255 395.32 658.255 396.888ZM669.247 401.192C667.599 401.192 666.623 400.264 666.623 398.904C666.623 397.48 667.711 396.584 669.519 396.44L672.079 396.232V395.976C672.079 394.456 671.167 393.976 670.031 393.976C668.687 393.976 667.887 394.584 667.887 395.624H666.879C666.879 394.056 668.159 393.048 670.063 393.048C671.855 393.048 673.167 393.944 673.167 395.992V401H672.239L672.095 399.64C671.615 400.616 670.559 401.192 669.247 401.192ZM669.503 400.296C671.135 400.296 672.079 399.16 672.079 397.48V397.064L669.791 397.24C668.335 397.368 667.743 398.008 667.743 398.872C667.743 399.816 668.447 400.296 669.503 400.296ZM674.854 396.904C674.854 394.792 676.214 393.048 678.486 393.048C679.83 393.048 680.854 393.672 681.35 394.808L681.462 393.256H682.422V400.76C682.422 403.064 680.95 404.568 678.678 404.568C676.694 404.568 675.302 403.448 674.998 401.576H676.102C676.342 402.824 677.302 403.56 678.694 403.56C680.278 403.56 681.334 402.488 681.334 400.872V399.032C680.806 400.12 679.734 400.76 678.406 400.76C676.198 400.76 674.854 399.016 674.854 396.904ZM675.958 396.888C675.958 398.472 676.934 399.768 678.566 399.768C680.246 399.768 681.238 398.552 681.238 396.888C681.238 395.24 680.278 394.024 678.582 394.024C676.918 394.024 675.958 395.32 675.958 396.888ZM687.974 401.192C685.702 401.192 684.182 399.56 684.182 397.128C684.182 394.712 685.686 393.048 687.894 393.048C689.99 393.048 691.414 394.536 691.414 396.728V397.272H685.254C685.334 399.16 686.326 400.248 687.99 400.248C689.254 400.248 690.07 399.704 690.358 398.68H691.414C690.998 400.312 689.798 401.192 687.974 401.192ZM687.894 393.992C686.438 393.992 685.478 394.952 685.286 396.472H690.31C690.31 394.984 689.35 393.992 687.894 393.992ZM702.225 396.792H699.009V401H697.857V389.544H702.225C704.433 389.544 705.825 390.984 705.825 393.144C705.825 395.224 704.417 396.792 702.225 396.792ZM702.065 390.584H699.009V395.752H702.001C703.665 395.752 704.625 394.696 704.625 393.128C704.625 391.544 703.649 390.584 702.065 390.584ZM711.493 393.16V394.152H710.885C709.461 394.152 708.549 395.112 708.549 396.584V401H707.445V393.256H708.485L708.565 394.456C708.869 393.624 709.685 393.08 710.773 393.08C711.013 393.08 711.221 393.096 711.493 393.16ZM712.12 397.128C712.12 394.76 713.784 393.048 716.056 393.048C718.328 393.048 719.992 394.76 719.992 397.128C719.992 399.48 718.328 401.192 716.056 401.192C713.784 401.192 712.12 399.48 712.12 397.128ZM713.24 397.112C713.24 398.936 714.392 400.2 716.056 400.2C717.704 400.2 718.872 398.936 718.872 397.112C718.872 395.32 717.704 394.04 716.056 394.04C714.392 394.04 713.24 395.32 713.24 397.112ZM723.574 401L720.406 393.256H721.59L723.59 398.248C723.798 398.808 724.006 399.336 724.15 399.848C724.294 399.32 724.502 398.808 724.726 398.248L726.758 393.256H727.894L724.678 401H723.574ZM729.739 391.128C729.291 391.128 728.923 390.76 728.923 390.312C728.923 389.864 729.291 389.48 729.739 389.48C730.187 389.48 730.571 389.864 730.571 390.312C730.571 390.76 730.187 391.128 729.739 391.128ZM729.195 401V393.256H730.299V401H729.195ZM735.641 401.192C733.385 401.192 732.057 399.464 732.057 397.144C732.057 394.808 733.385 393.048 735.689 393.048C736.969 393.048 737.993 393.608 738.537 394.728V389.336H739.641V401H738.681L738.569 399.416C738.025 400.616 736.937 401.192 735.641 401.192ZM735.833 400.184C737.529 400.184 738.521 398.904 738.521 397.112C738.521 395.336 737.529 394.04 735.833 394.04C734.153 394.04 733.177 395.336 733.177 397.112C733.177 398.904 734.153 400.184 735.833 400.184ZM745.193 401.192C742.921 401.192 741.401 399.56 741.401 397.128C741.401 394.712 742.905 393.048 745.113 393.048C747.209 393.048 748.633 394.536 748.633 396.728V397.272H742.473C742.553 399.16 743.545 400.248 745.209 400.248C746.473 400.248 747.289 399.704 747.577 398.68H748.633C748.217 400.312 747.017 401.192 745.193 401.192ZM745.113 393.992C743.657 393.992 742.697 394.952 742.505 396.472H747.529C747.529 394.984 746.569 393.992 745.113 393.992ZM754.446 393.16V394.152H753.838C752.414 394.152 751.502 395.112 751.502 396.584V401H750.398V393.256H751.438L751.518 394.456C751.822 393.624 752.638 393.08 753.726 393.08C753.966 393.08 754.174 393.096 754.446 393.16Z" fill="black"/>
</svg>
