<svg width="773" height="447" viewBox="0 0 773 447" fill="none" xmlns="http://www.w3.org/2000/svg">
<path d="M11.115 21H2.03504V6.38H11.115V8.74H4.59504V12.5H10.435V14.76H4.59504V18.64H11.115V21ZM16.8905 21H14.4505V13.16H12.5505V11.12H14.4505V8.04H16.8905V11.12H18.8105V13.16H16.8905V21ZM22.7674 21H20.3274V6.12H22.7874V12.4C23.4074 11.44 24.5674 10.82 25.9874 10.82C28.4274 10.82 29.7074 12.36 29.7074 14.92V21H27.2674V15.5C27.2674 13.84 26.4474 13.04 25.2074 13.04C23.6674 13.04 22.7674 14.12 22.7674 15.6V21ZM36.5247 21.26C33.5847 21.26 31.5247 19.12 31.5247 16.06C31.5247 12.96 33.5447 10.82 36.4447 10.82C39.4047 10.82 41.2847 12.8 41.2847 15.88V16.62L33.8447 16.64C34.0247 18.38 34.9447 19.26 36.5647 19.26C37.9047 19.26 38.7847 18.74 39.0647 17.8H41.3247C40.9047 19.96 39.1047 21.26 36.5247 21.26ZM36.4647 12.82C35.0247 12.82 34.1447 13.6 33.9047 15.08H38.8647C38.8647 13.72 37.9247 12.82 36.4647 12.82ZM49.4375 11.08V13.34H48.5375C46.7775 13.34 45.6775 14.28 45.6775 16.2V21H43.2375V11.14H45.5375L45.6775 12.58C46.0975 11.6 47.0375 10.94 48.3575 10.94C48.6975 10.94 49.0375 10.98 49.4375 11.08ZM55.1771 21.26C52.2371 21.26 50.1771 19.12 50.1771 16.06C50.1771 12.96 52.1971 10.82 55.0971 10.82C58.0571 10.82 59.9371 12.8 59.9371 15.88V16.62L52.4971 16.64C52.6771 18.38 53.5971 19.26 55.2171 19.26C56.5571 19.26 57.4371 18.74 57.7171 17.8H59.9771C59.5571 19.96 57.7571 21.26 55.1771 21.26ZM55.1171 12.82C53.6771 12.82 52.7971 13.6 52.5571 15.08H57.5171C57.5171 13.72 56.5771 12.82 55.1171 12.82ZM68.5899 11.12H71.0299V21H68.7699L68.5899 19.68C67.9899 20.62 66.7099 21.26 65.3899 21.26C63.1099 21.26 61.7699 19.72 61.7699 17.3V11.12H64.2099V16.44C64.2099 18.32 64.9499 19.08 66.3099 19.08C67.8499 19.08 68.5899 18.18 68.5899 16.3V11.12ZM75.99 21H73.55V11.12H75.79L75.99 12.28C76.49 11.46 77.49 10.82 78.91 10.82C80.41 10.82 81.45 11.56 81.97 12.7C82.47 11.56 83.63 10.82 85.13 10.82C87.53 10.82 88.85 12.26 88.85 14.54V21H86.43V15.18C86.43 13.76 85.67 13.02 84.51 13.02C83.33 13.02 82.43 13.78 82.43 15.4V21H79.99V15.16C79.99 13.78 79.25 13.04 78.09 13.04C76.93 13.04 75.99 13.8 75.99 15.4V21ZM99.556 6.38V18.64H105.676V21H96.996V6.38H99.556ZM110.018 8.68H106.818V6.38H112.478V21H110.018V8.68Z" fill="black"/>
<rect x="403.5" y="51.5" width="369" height="395" rx="7.5" fill="white" stroke="black" stroke-dasharray="4 4"/>
<path d="M620.551 133.745L620.545 134.33L621.123 134.245C622.674 134.018 624.26 133.901 625.873 133.901C643.852 133.901 658.427 148.476 658.427 166.455C658.427 184.433 643.852 199.008 625.873 199.008H550.126C532.147 199.008 517.572 184.433 517.572 166.455C517.572 148.476 532.147 133.901 550.126 133.901C551.739 133.901 553.325 134.018 554.876 134.245L555.454 134.33L555.448 133.745C555.447 133.631 555.446 133.516 555.446 133.401C555.446 115.422 570.021 100.848 588 100.848C605.978 100.848 620.553 115.422 620.553 133.401C620.553 133.516 620.552 133.631 620.551 133.745Z" fill="white" stroke="#FF8972"/>
<path d="M550.17 193.999C534.809 193.999 522.199 181.5 522.199 166.018C522.199 150.537 534.694 138.038 550.17 138.038C551.546 138.038 552.921 138.153 554.297 138.382L560.258 139.299L560.143 132.992C560.143 117.626 572.639 105.012 588.114 105.012C603.59 105.012 616.085 117.511 616.085 132.992L615.971 139.299L621.932 138.382C623.307 138.153 624.683 138.038 626.059 138.038C641.42 138.038 654.03 150.537 654.03 166.018C654.03 181.5 641.534 193.999 626.059 193.999H550.17Z" fill="white" stroke="#FF8972"/>
<path d="M610.859 199.52C610.859 199.71 610.774 199.941 610.518 200.216C610.261 200.494 609.856 200.785 609.293 201.079C608.167 201.665 606.505 202.207 604.41 202.669C600.227 203.59 594.425 204.164 588 204.164C581.574 204.164 575.772 203.59 571.59 202.669C569.495 202.207 567.833 201.665 566.707 201.079C566.144 200.785 565.739 200.494 565.481 200.216C565.226 199.941 565.141 199.71 565.141 199.52V182.016H610.859V199.52Z" fill="white" stroke="#FF8972"/>
<path d="M594.319 195.102V209.213C594.319 211.422 596.109 213.213 598.319 213.213H639.809" stroke="#FF8972"/>
<circle cx="638.975" cy="213.216" r="2.25477" fill="white" stroke="#FF8972"/>
<path d="M580.73 195.102V209.213C580.73 211.422 578.939 213.213 576.73 213.213H535.24" stroke="#FF8972"/>
<circle cx="2.75477" cy="2.75477" r="2.25477" transform="matrix(-1 0 0 1 538.828 210.461)" fill="white" stroke="#FF8972"/>
<path d="M610.862 181.516C610.862 182.143 610.395 182.86 609.253 183.604C608.132 184.335 606.476 185.012 604.386 185.589C600.213 186.739 594.419 187.457 588 187.457C581.58 187.457 575.786 186.739 571.613 185.589C569.523 185.012 567.868 184.335 566.747 183.604C565.604 182.86 565.138 182.143 565.138 181.516C565.138 180.889 565.604 180.172 566.747 179.427C567.868 178.697 569.523 178.019 571.613 177.443C575.786 176.292 581.58 175.574 588 175.574C594.419 175.574 600.213 176.292 604.386 177.443C606.476 178.019 608.132 178.697 609.253 179.427C610.395 180.172 610.862 180.889 610.862 181.516Z" fill="white" stroke="#FF8972"/>
<path d="M610.859 176.785C610.859 176.976 610.774 177.207 610.518 177.482C610.261 177.759 609.856 178.051 609.293 178.344C608.167 178.93 606.505 179.473 604.41 179.934C600.227 180.856 594.425 181.429 588 181.429C581.574 181.429 575.772 180.856 571.59 179.934C569.495 179.473 567.833 178.93 566.707 178.344C566.144 178.051 565.739 177.759 565.481 177.482C565.226 177.207 565.141 176.976 565.141 176.785V159.281H610.859V176.785Z" fill="white" stroke="#FF8972"/>
<path d="M610.862 158.781C610.862 159.409 610.395 160.125 609.253 160.87C608.132 161.601 606.476 162.278 604.386 162.854C600.213 164.005 594.419 164.723 588 164.723C581.58 164.723 575.786 164.005 571.613 162.854C569.523 162.278 567.868 161.601 566.747 160.87C565.604 160.125 565.138 159.409 565.138 158.781C565.138 158.154 565.604 157.438 566.747 156.693C567.868 155.962 569.523 155.285 571.613 154.709C575.786 153.558 581.58 152.84 588 152.84C594.419 152.84 600.213 153.558 604.386 154.709C606.476 155.285 608.132 155.962 609.253 156.693C610.395 157.438 610.862 158.154 610.862 158.781Z" fill="white" stroke="#FF8972"/>
<path d="M593.818 159.394C593.818 159.557 593.737 159.763 593.48 160.005C593.221 160.247 592.82 160.489 592.283 160.702C591.211 161.127 589.697 161.401 587.999 161.401C586.301 161.401 584.786 161.127 583.715 160.702C583.178 160.489 582.777 160.247 582.518 160.005C582.261 159.763 582.18 159.557 582.18 159.394C582.18 159.231 582.261 159.024 582.518 158.783C582.777 158.54 583.178 158.299 583.715 158.086C584.786 157.661 586.301 157.387 587.999 157.387C589.697 157.387 591.211 157.661 592.283 158.086C592.82 158.299 593.221 158.54 593.48 158.783C593.737 159.024 593.818 159.231 593.818 159.394Z" fill="white" stroke="#FF8972"/>
<circle cx="580.936" cy="196.755" r="2.25477" fill="white" stroke="#FF8972"/>
<circle cx="594.317" cy="196.755" r="2.25477" fill="white" stroke="#FF8972"/>
<circle cx="564.639" cy="212.821" r="3.23124" fill="white" stroke="#FF8972"/>
<circle cx="549.362" cy="221.672" r="2.07481" fill="white" stroke="#FF8972"/>
<circle cx="609.942" cy="212.821" r="3.23124" fill="white" stroke="#FF8972"/>
<path d="M585.013 203.969V217.673C585.013 219.882 583.222 221.673 581.013 221.673H550.884" stroke="#FF8972"/>
<circle cx="2.57481" cy="2.57481" r="2.07481" transform="matrix(-1 0 0 1 628.574 219.098)" fill="white" stroke="#FF8972"/>
<path d="M590.348 203.969V217.673C590.348 219.882 592.139 221.673 594.348 221.673H624.477" stroke="#FF8972"/>
<path d="M620.551 265.194L620.545 265.779L621.123 265.694C622.674 265.468 624.26 265.35 625.873 265.35C643.852 265.35 658.427 279.925 658.427 297.904C658.427 315.883 643.852 330.457 625.873 330.457H550.126C532.147 330.457 517.572 315.883 517.572 297.904C517.572 279.925 532.147 265.35 550.126 265.35C551.739 265.35 553.325 265.468 554.876 265.694L555.454 265.779L555.448 265.194C555.447 265.08 555.446 264.965 555.446 264.85C555.446 246.872 570.021 232.297 588 232.297C605.978 232.297 620.553 246.872 620.553 264.85C620.553 264.965 620.552 265.08 620.551 265.194Z" fill="white" stroke="#FF8972"/>
<path d="M550.17 325.448C534.809 325.448 522.199 312.949 522.199 297.468C522.199 281.987 534.694 269.487 550.17 269.487C551.546 269.487 552.921 269.602 554.297 269.831L560.258 270.749L560.143 264.441C560.143 249.075 572.639 236.461 588.114 236.461C603.59 236.461 616.085 248.96 616.085 264.441L615.971 270.749L621.932 269.831C623.307 269.602 624.683 269.487 626.059 269.487C641.42 269.487 654.03 281.987 654.03 297.468C654.03 312.949 641.534 325.448 626.059 325.448H550.17Z" fill="white" stroke="#FF8972"/>
<path d="M610.859 330.969C610.859 331.16 610.774 331.39 610.518 331.665C610.261 331.943 609.856 332.234 609.293 332.528C608.167 333.114 606.505 333.657 604.41 334.118C600.227 335.039 594.425 335.613 588 335.613C581.574 335.613 575.772 335.039 571.59 334.118C569.495 333.657 567.833 333.114 566.707 332.528C566.144 332.234 565.739 331.943 565.481 331.665C565.226 331.39 565.141 331.16 565.141 330.969V313.465H610.859V330.969Z" fill="white" stroke="#FF8972"/>
<path d="M594.319 326.551V340.662C594.319 342.871 596.109 344.662 598.319 344.662H639.809" stroke="#FF8972"/>
<circle cx="638.975" cy="344.665" r="2.25477" fill="white" stroke="#FF8972"/>
<path d="M580.73 326.551V340.662C580.73 342.871 578.939 344.662 576.73 344.662H535.24" stroke="#FF8972"/>
<circle cx="2.75477" cy="2.75477" r="2.25477" transform="matrix(-1 0 0 1 538.828 341.91)" fill="white" stroke="#FF8972"/>
<path d="M610.862 312.965C610.862 313.592 610.395 314.309 609.253 315.054C608.132 315.784 606.476 316.462 604.386 317.038C600.213 318.189 594.419 318.907 588 318.907C581.58 318.907 575.786 318.189 571.613 317.038C569.523 316.462 567.868 315.784 566.747 315.054C565.604 314.309 565.138 313.592 565.138 312.965C565.138 312.338 565.604 311.621 566.747 310.877C567.868 310.146 569.523 309.468 571.613 308.892C575.786 307.741 581.58 307.023 588 307.023C594.419 307.023 600.213 307.741 604.386 308.892C606.476 309.468 608.132 310.146 609.253 310.877C610.395 311.621 610.862 312.338 610.862 312.965Z" fill="white" stroke="#FF8972"/>
<path d="M610.859 308.235C610.859 308.425 610.774 308.656 610.518 308.931C610.261 309.208 609.856 309.5 609.293 309.793C608.167 310.38 606.505 310.922 604.41 311.384C600.227 312.305 594.425 312.879 588 312.879C581.574 312.879 575.772 312.305 571.59 311.384C569.495 310.922 567.833 310.38 566.707 309.793C566.144 309.5 565.739 309.208 565.481 308.931C565.226 308.656 565.141 308.425 565.141 308.235V290.73H610.859V308.235Z" fill="white" stroke="#FF8972"/>
<path d="M610.862 290.231C610.862 290.858 610.395 291.575 609.253 292.319C608.132 293.05 606.476 293.727 604.386 294.304C600.213 295.454 594.419 296.172 588 296.172C581.58 296.172 575.786 295.454 571.613 294.304C569.523 293.727 567.868 293.05 566.747 292.319C565.604 291.575 565.138 290.858 565.138 290.231C565.138 289.603 565.604 288.887 566.747 288.142C567.868 287.411 569.523 286.734 571.613 286.158C575.786 285.007 581.58 284.289 588 284.289C594.419 284.289 600.213 285.007 604.386 286.158C606.476 286.734 608.132 287.411 609.253 288.142C610.395 288.887 610.862 289.603 610.862 290.231Z" fill="white" stroke="#FF8972"/>
<path d="M593.818 290.843C593.818 291.006 593.737 291.213 593.48 291.454C593.221 291.697 592.82 291.938 592.283 292.151C591.211 292.576 589.697 292.85 587.999 292.85C586.301 292.85 584.786 292.576 583.715 292.151C583.178 291.938 582.777 291.697 582.518 291.454C582.261 291.213 582.18 291.006 582.18 290.843C582.18 290.68 582.261 290.473 582.518 290.232C582.777 289.989 583.178 289.748 583.715 289.535C584.786 289.11 586.301 288.836 587.999 288.836C589.697 288.836 591.211 289.11 592.283 289.535C592.82 289.748 593.221 289.989 593.48 290.232C593.737 290.473 593.818 290.68 593.818 290.843Z" fill="white" stroke="#FF8972"/>
<circle cx="580.936" cy="328.204" r="2.25477" fill="white" stroke="#FF8972"/>
<circle cx="594.317" cy="328.204" r="2.25477" fill="white" stroke="#FF8972"/>
<circle cx="564.639" cy="344.27" r="3.23124" fill="white" stroke="#FF8972"/>
<circle cx="549.362" cy="353.122" r="2.07481" fill="white" stroke="#FF8972"/>
<circle cx="609.942" cy="344.27" r="3.23124" fill="white" stroke="#FF8972"/>
<path d="M585.013 335.418V349.122C585.013 351.332 583.222 353.122 581.013 353.122H550.884" stroke="#FF8972"/>
<circle cx="2.57481" cy="2.57481" r="2.07481" transform="matrix(-1 0 0 1 628.574 350.547)" fill="white" stroke="#FF8972"/>
<path d="M590.348 335.418V349.122C590.348 351.332 592.139 353.122 594.348 353.122H624.477" stroke="#FF8972"/>
<path d="M413.7 21H404.62V6.38H413.7V8.74H407.18V12.5H413.02V14.76H407.18V18.64H413.7V21ZM419.475 21H417.035V13.16H415.135V11.12H417.035V8.04H419.475V11.12H421.395V13.16H419.475V21ZM425.352 21H422.912V6.12H425.372V12.4C425.992 11.44 427.152 10.82 428.572 10.82C431.012 10.82 432.292 12.36 432.292 14.92V21H429.852V15.5C429.852 13.84 429.032 13.04 427.792 13.04C426.252 13.04 425.352 14.12 425.352 15.6V21ZM434.21 10.46C434.21 7.9 436.33 6.12 439.41 6.12C442.37 6.12 444.25 7.76 444.33 10.4H441.77C441.71 9.14 440.81 8.4 439.37 8.4C437.79 8.4 436.77 9.16 436.77 10.38C436.77 11.42 437.33 12 438.55 12.28L440.85 12.78C443.35 13.32 444.57 14.6 444.57 16.78C444.57 19.5 442.45 21.26 439.23 21.26C436.11 21.26 434.07 19.6 434.01 16.98H436.57C436.59 18.22 437.59 18.96 439.23 18.96C440.93 18.96 442.01 18.22 442.01 17C442.01 16.02 441.51 15.44 440.31 15.18L437.99 14.66C435.51 14.12 434.21 12.7 434.21 10.46ZM449.886 21H447.446V13.16H445.546V11.12H447.446V8.04H449.886V11.12H451.806V13.16H449.886V21ZM452.645 16.04C452.645 12.96 454.865 10.84 457.925 10.84C460.985 10.84 463.205 12.96 463.205 16.04C463.205 19.12 460.985 21.24 457.925 21.24C454.865 21.24 452.645 19.12 452.645 16.04ZM455.085 16.04C455.085 17.84 456.245 19.06 457.925 19.06C459.605 19.06 460.765 17.84 460.765 16.04C460.765 14.24 459.605 13.02 457.925 13.02C456.245 13.02 455.085 14.24 455.085 16.04ZM471.339 11.08V13.34H470.439C468.679 13.34 467.579 14.28 467.579 16.2V21H465.139V11.14H467.439L467.579 12.58C467.999 11.6 468.939 10.94 470.259 10.94C470.599 10.94 470.939 10.98 471.339 11.08ZM475.54 21.26C473.44 21.26 472.16 20.04 472.16 18.18C472.16 16.36 473.48 15.22 475.82 15.04L478.78 14.82V14.6C478.78 13.26 477.98 12.72 476.74 12.72C475.3 12.72 474.5 13.32 474.5 14.36H472.42C472.42 12.22 474.18 10.82 476.86 10.82C479.52 10.82 481.16 12.26 481.16 15V21H479.02L478.84 19.54C478.42 20.56 477.08 21.26 475.54 21.26ZM476.34 19.42C477.84 19.42 478.8 18.52 478.8 17V16.48L476.74 16.64C475.22 16.78 474.64 17.28 474.64 18.08C474.64 18.98 475.24 19.42 476.34 19.42ZM482.997 15.84C482.997 12.96 484.877 10.8 487.697 10.8C489.177 10.8 490.337 11.42 490.917 12.48L491.057 11.12H493.317V20.5C493.317 23.8 491.337 25.86 488.137 25.86C485.297 25.86 483.357 24.24 483.057 21.6H485.497C485.657 22.88 486.637 23.64 488.137 23.64C489.817 23.64 490.897 22.58 490.897 20.94V19.3C490.277 20.22 489.057 20.8 487.637 20.8C484.837 20.8 482.997 18.7 482.997 15.84ZM485.457 15.78C485.457 17.44 486.517 18.68 488.117 18.68C489.797 18.68 490.837 17.5 490.837 15.78C490.837 14.1 489.817 12.94 488.117 12.94C486.497 12.94 485.457 14.16 485.457 15.78ZM500.262 21.26C497.322 21.26 495.262 19.12 495.262 16.06C495.262 12.96 497.282 10.82 500.182 10.82C503.142 10.82 505.022 12.8 505.022 15.88V16.62L497.582 16.64C497.762 18.38 498.682 19.26 500.302 19.26C501.642 19.26 502.522 18.74 502.802 17.8H505.062C504.642 19.96 502.842 21.26 500.262 21.26ZM500.202 12.82C498.762 12.82 497.882 13.6 497.642 15.08H502.602C502.602 13.72 501.662 12.82 500.202 12.82ZM515.285 6.38V18.64H521.405V21H512.725V6.38H515.285ZM532.927 20.98L522.787 21V19.08L527.567 15.04C529.547 13.36 530.207 12.4 530.207 11C530.207 9.34 529.307 8.4 527.767 8.4C526.167 8.4 525.167 9.52 525.147 11.4H522.607C522.627 8.2 524.667 6.12 527.767 6.12C530.887 6.12 532.827 7.9 532.827 10.86C532.827 12.9 531.707 14.44 529.487 16.34L526.847 18.6H532.927V20.98ZM543.175 21H540.655V6.38H543.195L550.055 16.74V6.38H552.575V21H550.055L543.175 10.64V21ZM559.871 21.26C556.931 21.26 554.871 19.12 554.871 16.06C554.871 12.96 556.891 10.82 559.791 10.82C562.751 10.82 564.631 12.8 564.631 15.88V16.62L557.191 16.64C557.371 18.38 558.291 19.26 559.911 19.26C561.251 19.26 562.131 18.74 562.411 17.8H564.671C564.251 19.96 562.451 21.26 559.871 21.26ZM559.811 12.82C558.371 12.82 557.491 13.6 557.251 15.08H562.211C562.211 13.72 561.271 12.82 559.811 12.82ZM569.847 21H567.407V13.16H565.507V11.12H567.407V8.04H569.847V11.12H571.767V13.16H569.847V21ZM575.463 21L572.263 11.12H574.803L576.103 15.36C576.323 16.14 576.523 17 576.703 17.92C576.883 16.96 577.063 16.34 577.383 15.36L578.743 11.12H581.223L582.543 15.36C582.663 15.76 583.063 17.24 583.183 17.9C583.343 17.16 583.663 15.98 583.843 15.36L585.163 11.12H587.743L584.323 21H582.043L580.683 16.72C580.283 15.42 580.063 14.48 579.983 13.98C579.883 14.44 579.703 15.14 579.203 16.76L577.843 21H575.463ZM588.153 16.04C588.153 12.96 590.373 10.84 593.433 10.84C596.493 10.84 598.713 12.96 598.713 16.04C598.713 19.12 596.493 21.24 593.433 21.24C590.373 21.24 588.153 19.12 588.153 16.04ZM590.593 16.04C590.593 17.84 591.753 19.06 593.433 19.06C595.113 19.06 596.273 17.84 596.273 16.04C596.273 14.24 595.113 13.02 593.433 13.02C591.753 13.02 590.593 14.24 590.593 16.04ZM606.847 11.08V13.34H605.947C604.187 13.34 603.087 14.28 603.087 16.2V21H600.647V11.14H602.947L603.087 12.58C603.507 11.6 604.447 10.94 605.767 10.94C606.107 10.94 606.447 10.98 606.847 11.08ZM610.958 21H608.538V6.12H610.958V15.26L614.798 11.12H617.858L614.098 15.04L617.778 21H614.978L612.398 16.84L610.958 18.34V21Z" fill="black"/>
<path d="M530.616 393.58C530.616 391.9 531.96 390.794 533.976 390.794C535.782 390.794 536.972 391.802 537.126 393.482H536.104C535.992 392.348 535.222 391.704 533.962 391.704C532.548 391.704 531.624 392.432 531.624 393.566C531.624 394.448 532.142 395.008 533.192 395.274L534.914 395.694C536.482 396.072 537.294 396.968 537.294 398.326C537.294 400.062 535.95 401.168 533.878 401.168C531.932 401.168 530.616 400.146 530.49 398.508H531.526C531.582 399.558 532.506 400.244 533.878 400.244C535.348 400.244 536.286 399.53 536.286 398.382C536.286 397.486 535.782 396.898 534.704 396.646L533.01 396.226C531.442 395.848 530.616 394.952 530.616 393.58ZM540.451 401H539.499V395.036H538.141V394.224H539.499V392.082H540.451V394.224H541.809V395.036H540.451V401ZM542.522 397.612C542.522 395.54 543.978 394.042 545.966 394.042C547.954 394.042 549.41 395.54 549.41 397.612C549.41 399.67 547.954 401.168 545.966 401.168C543.978 401.168 542.522 399.67 542.522 397.612ZM543.502 397.598C543.502 399.194 544.51 400.3 545.966 400.3C547.408 400.3 548.43 399.194 548.43 397.598C548.43 396.03 547.408 394.91 545.966 394.91C544.51 394.91 543.502 396.03 543.502 397.598ZM554.497 394.14V395.008H553.965C552.719 395.008 551.921 395.848 551.921 397.136V401H550.955V394.224H551.865L551.935 395.274C552.201 394.546 552.915 394.07 553.867 394.07C554.077 394.07 554.259 394.084 554.497 394.14ZM557.454 401.168C556.012 401.168 555.158 400.356 555.158 399.166C555.158 397.92 556.11 397.136 557.692 397.01L559.932 396.828V396.604C559.932 395.274 559.134 394.854 558.14 394.854C556.964 394.854 556.264 395.386 556.264 396.296H555.382C555.382 394.924 556.502 394.042 558.168 394.042C559.736 394.042 560.884 394.826 560.884 396.618V401H560.072L559.946 399.81C559.526 400.664 558.602 401.168 557.454 401.168ZM557.678 400.384C559.106 400.384 559.932 399.39 559.932 397.92V397.556L557.93 397.71C556.656 397.822 556.138 398.382 556.138 399.138C556.138 399.964 556.754 400.384 557.678 400.384ZM562.36 397.416C562.36 395.568 563.55 394.042 565.538 394.042C566.714 394.042 567.61 394.588 568.044 395.582L568.142 394.224H568.982V400.79C568.982 402.806 567.694 404.122 565.706 404.122C563.97 404.122 562.752 403.142 562.486 401.504H563.452C563.662 402.596 564.502 403.24 565.72 403.24C567.106 403.24 568.03 402.302 568.03 400.888V399.278C567.568 400.23 566.63 400.79 565.468 400.79C563.536 400.79 562.36 399.264 562.36 397.416ZM563.326 397.402C563.326 398.788 564.18 399.922 565.608 399.922C567.078 399.922 567.946 398.858 567.946 397.402C567.946 395.96 567.106 394.896 565.622 394.896C564.166 394.896 563.326 396.03 563.326 397.402ZM573.84 401.168C571.852 401.168 570.522 399.74 570.522 397.612C570.522 395.498 571.838 394.042 573.77 394.042C575.604 394.042 576.85 395.344 576.85 397.262V397.738H571.46C571.53 399.39 572.398 400.342 573.854 400.342C574.96 400.342 575.674 399.866 575.926 398.97H576.85C576.486 400.398 575.436 401.168 573.84 401.168ZM573.77 394.868C572.496 394.868 571.656 395.708 571.488 397.038H575.884C575.884 395.736 575.044 394.868 573.77 394.868ZM586.31 397.318H583.496V401H582.488V390.976H586.31C588.242 390.976 589.46 392.236 589.46 394.126C589.46 395.946 588.228 397.318 586.31 397.318ZM586.17 391.886H583.496V396.408H586.114C587.57 396.408 588.41 395.484 588.41 394.112C588.41 392.726 587.556 391.886 586.17 391.886ZM594.419 394.14V395.008H593.887C592.641 395.008 591.843 395.848 591.843 397.136V401H590.877V394.224H591.787L591.857 395.274C592.123 394.546 592.837 394.07 593.789 394.07C593.999 394.07 594.181 394.084 594.419 394.14ZM594.968 397.612C594.968 395.54 596.424 394.042 598.412 394.042C600.4 394.042 601.856 395.54 601.856 397.612C601.856 399.67 600.4 401.168 598.412 401.168C596.424 401.168 594.968 399.67 594.968 397.612ZM595.948 397.598C595.948 399.194 596.956 400.3 598.412 400.3C599.854 400.3 600.876 399.194 600.876 397.598C600.876 396.03 599.854 394.91 598.412 394.91C596.956 394.91 595.948 396.03 595.948 397.598ZM604.99 401L602.218 394.224H603.254L605.004 398.592C605.186 399.082 605.368 399.544 605.494 399.992C605.62 399.53 605.802 399.082 605.998 398.592L607.776 394.224H608.77L605.956 401H604.99ZM610.384 392.362C609.992 392.362 609.67 392.04 609.67 391.648C609.67 391.256 609.992 390.92 610.384 390.92C610.776 390.92 611.112 391.256 611.112 391.648C611.112 392.04 610.776 392.362 610.384 392.362ZM609.908 401V394.224H610.874V401H609.908ZM615.549 401.168C613.575 401.168 612.413 399.656 612.413 397.626C612.413 395.582 613.575 394.042 615.591 394.042C616.711 394.042 617.607 394.532 618.083 395.512V390.794H619.049V401H618.209L618.111 399.614C617.635 400.664 616.683 401.168 615.549 401.168ZM615.717 400.286C617.201 400.286 618.069 399.166 618.069 397.598C618.069 396.044 617.201 394.91 615.717 394.91C614.247 394.91 613.393 396.044 613.393 397.598C613.393 399.166 614.247 400.286 615.717 400.286ZM623.907 401.168C621.919 401.168 620.589 399.74 620.589 397.612C620.589 395.498 621.905 394.042 623.837 394.042C625.671 394.042 626.917 395.344 626.917 397.262V397.738H621.527C621.597 399.39 622.465 400.342 623.921 400.342C625.027 400.342 625.741 399.866 625.993 398.97H626.917C626.553 400.398 625.503 401.168 623.907 401.168ZM623.837 394.868C622.563 394.868 621.723 395.708 621.555 397.038H625.951C625.951 395.736 625.111 394.868 623.837 394.868ZM632.003 394.14V395.008H631.471C630.225 395.008 629.427 395.848 629.427 397.136V401H628.461V394.224H629.371L629.441 395.274C629.707 394.546 630.421 394.07 631.373 394.07C631.583 394.07 631.765 394.084 632.003 394.14Z" fill="black"/>
<rect x="0.5" y="51.5" width="298" height="395" rx="7.5" fill="white" stroke="black" stroke-dasharray="4 4"/>
<circle cx="137.5" cy="144.223" r="44" fill="white" stroke="#FF8972"/>
<path d="M94.0195 144.223H181.344" stroke="#FF8972"/>
<path d="M137.681 187.887L137.681 100.562" stroke="#FF8972"/>
<ellipse cx="138.381" cy="144.225" rx="23.6517" ry="43.6622" stroke="#FF8972"/>
<path d="M170.977 115.613C162.078 122.324 150.352 126.401 137.502 126.401C124.588 126.401 112.809 122.283 103.894 115.512" stroke="#FF8972"/>
<path d="M170.977 172.836C162.078 166.125 150.352 162.048 137.502 162.048C124.588 162.048 112.809 166.166 103.894 172.938" stroke="#FF8972"/>
<circle cx="114.731" cy="144.226" r="5.06182" fill="white" stroke="#FF8972"/>
<circle cx="103.894" cy="115.394" r="5.06182" fill="white" stroke="#FF8972"/>
<circle cx="171.736" cy="115.394" r="5.06182" fill="white" stroke="#FF8972"/>
<circle cx="158.724" cy="165.343" r="5.06182" fill="white" stroke="#FF8972"/>
<circle cx="132.821" cy="100.562" r="5.06182" fill="white" stroke="#FF8972"/>
<circle cx="142.997" cy="186.199" r="5.06182" fill="white" stroke="#FF8972"/>
<path d="M171.735 147.539H181.322" stroke="#FF8972"/>
<path d="M171.735 152.934H189.861" stroke="#FF8972"/>
<path d="M171.735 157.793H189.861" stroke="#FF8972"/>
<path d="M171.735 162.656H189.861" stroke="#FF8972"/>
<path d="M189.264 144.215C188.672 144.238 188.185 143.752 188.208 143.159L188.413 137.909C188.448 137.023 189.521 136.603 190.148 137.23L195.193 142.275C195.82 142.902 195.4 143.975 194.514 144.01L189.264 144.215Z" fill="white" stroke="#FF8972"/>
<path d="M172.034 167.97H197.009C198.685 167.97 200.043 166.612 200.043 164.936V140.113C200.043 139.772 199.941 139.438 199.75 139.155C199.69 139.066 199.622 138.983 199.546 138.907L193.51 132.82C193.383 132.692 193.235 132.587 193.072 132.509C192.863 132.411 192.636 132.359 192.405 132.359H172.034C170.358 132.359 169 133.718 169 135.393V164.937C169 166.612 170.358 167.97 172.034 167.97Z" fill="white"/>
<path d="M172.034 168.47H197.009C198.961 168.47 200.543 166.888 200.543 164.936V140.853C200.543 139.911 200.167 139.008 199.498 138.344L193.994 132.884C193.333 132.228 192.438 131.859 191.506 131.859H172.034C170.082 131.859 168.5 133.441 168.5 135.393V164.936C168.5 166.888 170.082 168.47 172.034 168.47Z" fill="white" stroke="#FF8972"/>
<path d="M175.458 143.816H185.044" stroke="#FF8972"/>
<path d="M175.458 149.211H193.584" stroke="#FF8972"/>
<path d="M175.458 154.07H193.584" stroke="#FF8972"/>
<path d="M175.458 158.934H193.584" stroke="#FF8972"/>
<path d="M192.988 140.492C192.395 140.515 191.909 140.029 191.932 139.437L192.137 134.187C192.171 133.3 193.245 132.88 193.872 133.507L198.917 138.552C199.544 139.179 199.124 140.253 198.238 140.287L192.988 140.492Z" fill="white" stroke="#FF8972"/>
<path d="M175.757 164.783H200.733C202.408 164.783 203.767 163.424 203.767 161.749V136.926C203.767 136.584 203.665 136.251 203.474 135.968C203.414 135.879 203.345 135.796 203.27 135.72L197.234 129.633C197.107 129.504 196.959 129.399 196.795 129.322C196.587 129.223 196.359 129.172 196.129 129.172H175.757C174.082 129.172 172.724 130.53 172.724 132.205V161.749C172.724 163.424 174.082 164.783 175.757 164.783Z" fill="white"/>
<path d="M201.173 164.283H175.757C174.358 164.283 173.224 163.148 173.224 161.749V131.698C173.224 130.298 174.358 129.164 175.757 129.164H195.911C196.585 129.164 197.231 129.433 197.706 129.91L198.06 129.557L197.706 129.91L202.968 135.195C203.441 135.67 203.706 136.313 203.706 136.983V161.749C203.706 163.148 202.572 164.283 201.173 164.283Z" fill="white" stroke="#FF8972"/>
<path d="M179.182 140.625H188.768" stroke="#FF8972"/>
<path d="M179.182 146.02H197.307" stroke="#FF8972"/>
<path d="M179.182 150.883H197.307" stroke="#FF8972"/>
<path d="M179.182 155.742H197.307" stroke="#FF8972"/>
<path d="M196.431 137.545C195.839 137.568 195.352 137.082 195.376 136.49L195.622 130.179C195.657 129.293 196.73 128.873 197.357 129.5L203.421 135.564C204.048 136.191 203.628 137.264 202.742 137.299L196.431 137.545Z" fill="white" stroke="#FF8972"/>
<path d="M174.597 277.904C179.538 277.904 182.53 279.831 184.251 282.679C185.929 285.456 186.436 289.172 186.226 293H163.81L147.673 277.904L174.597 277.904Z" fill="white" stroke="#FF8972"/>
<path d="M159.112 277.977L159.114 277.977L172.958 277.916C169.54 279.891 165.502 284.779 165.168 294.347L165.168 294.347L165.168 294.359L164.761 345.849L164.761 345.853C164.752 352.718 159.378 358.161 152.398 358.161H150.374L105.8 342.119L105.872 290.388C105.881 283.534 111.555 277.977 118.546 277.977L159.112 277.977Z" fill="white" stroke="#FF8972"/>
<path d="M149.016 342.486C147.012 348.635 147.018 352.854 148.077 355.587C148.635 357.027 149.482 358.043 150.457 358.697L149.654 358.708H149.65H99.2833C92.8987 358.708 87.73 353.633 87.7387 347.372L87.7454 342.486H149.016Z" fill="white" stroke="#FF8972"/>
<path d="M119.413 294.465H153.885" stroke="#FF8972"/>
<path d="M119.396 306.309H153.868" stroke="#FF8972"/>
<path d="M119.38 318.156H153.851" stroke="#FF8972"/>
<path d="M119.363 330.004H140.386" stroke="#FF8972"/>
<circle cx="22.6706" cy="22.6706" r="22.1706" transform="matrix(1 0 -0.00135443 0.980631 152.813 309.609)" fill="white" stroke="#FF8972"/>
<path d="M164.937 331.522L175.437 317.113L185.971 331.522L175.396 346.575L164.937 331.522Z" fill="white"/>
<path d="M175.437 317.113L164.937 331.522M175.437 317.113L185.971 331.522M175.437 317.113L175.424 326.338M164.937 331.522L175.396 346.575M164.937 331.522L175.424 326.338M164.937 331.522L175.41 336.456M175.396 346.575L185.971 331.522M175.396 346.575L175.41 336.456M185.971 331.522L175.424 326.338M185.971 331.522L175.41 336.456M175.424 326.338L175.417 331.397L175.41 336.456" stroke="#FF8972"/>
<path d="M225.382 314.389C225.374 320.001 220.672 324.561 214.868 324.561C209.063 324.561 204.374 320.001 204.382 314.389C204.39 308.776 209.091 304.217 214.896 304.217C220.7 304.217 225.39 308.776 225.382 314.389Z" fill="white" stroke="#FF8972"/>
<path d="M209.78 314.235L214.874 307.324L219.986 314.235L214.854 321.454L209.78 314.235Z" fill="white"/>
<path d="M214.874 307.324L209.78 314.235M214.874 307.324L219.986 314.235M214.874 307.324L214.868 311.748M209.78 314.235L214.854 321.454M209.78 314.235L214.868 311.748M209.78 314.235L214.861 316.601M214.854 321.454L219.986 314.235M214.854 321.454L214.861 316.601M219.986 314.235L214.868 311.748M219.986 314.235L214.861 316.601M214.868 311.748L214.864 314.175L214.861 316.601" stroke="#FF8972" stroke-width="0.7"/>
<path d="M222.069 283.779C222.063 287.82 218.829 291.068 214.878 291.068C210.928 291.068 207.702 287.82 207.708 283.779C207.714 279.739 210.948 276.49 214.899 276.49C218.849 276.49 222.075 279.739 222.069 283.779Z" fill="white" stroke="#FF8972"/>
<path d="M219.824 283.781C219.82 286.671 217.578 288.962 214.88 288.962C212.181 288.962 209.945 286.671 209.949 283.781C209.953 280.89 212.196 278.6 214.894 278.6C217.592 278.6 219.828 280.89 219.824 283.781Z" fill="white" stroke="#FF8972"/>
<rect x="0.499323" y="0.490315" width="18.425" height="15.1994" rx="1.5" transform="matrix(1 0 -0.00135443 0.980631 205.175 284.486)" fill="white" stroke="#FF8972"/>
<path d="M216.482 292.419C216.481 293.429 216.253 294.32 215.911 294.94C215.558 295.58 215.154 295.824 214.833 295.824C214.513 295.824 214.11 295.58 213.758 294.94C213.418 294.32 213.192 293.429 213.194 292.419C213.195 291.408 213.423 290.518 213.765 289.897C214.119 289.257 214.522 289.014 214.843 289.014C215.163 289.014 215.566 289.257 215.918 289.897C216.258 290.518 216.484 291.408 216.482 292.419Z" fill="white" stroke="#FF8972"/>
<path d="M78.7534 228H75.7014V217.976H78.7254C81.7494 217.976 83.7654 219.992 83.7654 222.988C83.7654 225.984 81.7634 228 78.7534 228ZM78.6834 218.9H76.7094V227.076H78.7114C81.1614 227.076 82.7294 225.48 82.7294 222.988C82.7294 220.482 81.1614 218.9 78.6834 218.9ZM87.3222 228.168C85.8802 228.168 85.0262 227.356 85.0262 226.166C85.0262 224.92 85.9782 224.136 87.5602 224.01L89.8002 223.828V223.604C89.8002 222.274 89.0022 221.854 88.0082 221.854C86.8322 221.854 86.1322 222.386 86.1322 223.296H85.2502C85.2502 221.924 86.3702 221.042 88.0362 221.042C89.6042 221.042 90.7522 221.826 90.7522 223.618V228H89.9402L89.8142 226.81C89.3942 227.664 88.4702 228.168 87.3222 228.168ZM87.5462 227.384C88.9742 227.384 89.8002 226.39 89.8002 224.92V224.556L87.7982 224.71C86.5242 224.822 86.0062 225.382 86.0062 226.138C86.0062 226.964 86.6222 227.384 87.5462 227.384ZM94.1216 228H93.1696V222.036H91.8116V221.224H93.1696V219.082H94.1216V221.224H95.4796V222.036H94.1216V228ZM98.5741 228.168C97.1321 228.168 96.2781 227.356 96.2781 226.166C96.2781 224.92 97.2301 224.136 98.8121 224.01L101.052 223.828V223.604C101.052 222.274 100.254 221.854 99.2601 221.854C98.0841 221.854 97.3841 222.386 97.3841 223.296H96.5021C96.5021 221.924 97.6221 221.042 99.2881 221.042C100.856 221.042 102.004 221.826 102.004 223.618V228H101.192L101.066 226.81C100.646 227.664 99.7221 228.168 98.5741 228.168ZM98.7981 227.384C100.226 227.384 101.052 226.39 101.052 224.92V224.556L99.0501 224.71C97.7761 224.822 97.2581 225.382 97.2581 226.138C97.2581 226.964 97.8741 227.384 98.7981 227.384ZM108.035 228H107.013L110.695 217.976H111.941L115.665 228H114.615L113.635 225.34H109.015L108.035 228ZM111.185 219.39L109.323 224.458H113.313L111.437 219.39C111.395 219.25 111.325 219.082 111.311 218.984C111.297 219.068 111.241 219.25 111.185 219.39ZM118.288 228L115.516 221.224H116.552L118.302 225.592C118.484 226.082 118.666 226.544 118.792 226.992C118.918 226.53 119.1 226.082 119.296 225.592L121.074 221.224H122.068L119.254 228H118.288ZM124.851 228.168C123.409 228.168 122.555 227.356 122.555 226.166C122.555 224.92 123.507 224.136 125.089 224.01L127.329 223.828V223.604C127.329 222.274 126.531 221.854 125.537 221.854C124.361 221.854 123.661 222.386 123.661 223.296H122.779C122.779 221.924 123.899 221.042 125.565 221.042C127.133 221.042 128.281 221.826 128.281 223.618V228H127.469L127.343 226.81C126.923 227.664 125.999 228.168 124.851 228.168ZM125.075 227.384C126.503 227.384 127.329 226.39 127.329 224.92V224.556L125.327 224.71C124.053 224.822 123.535 225.382 123.535 226.138C123.535 226.964 124.151 227.384 125.075 227.384ZM130.696 219.362C130.304 219.362 129.982 219.04 129.982 218.648C129.982 218.256 130.304 217.92 130.696 217.92C131.088 217.92 131.424 218.256 131.424 218.648C131.424 219.04 131.088 219.362 130.696 219.362ZM130.22 228V221.224H131.186V228H130.22ZM134.208 228H133.242V217.794H134.208V228ZM138.209 228.168C136.767 228.168 135.913 227.356 135.913 226.166C135.913 224.92 136.865 224.136 138.447 224.01L140.687 223.828V223.604C140.687 222.274 139.889 221.854 138.895 221.854C137.719 221.854 137.019 222.386 137.019 223.296H136.137C136.137 221.924 137.257 221.042 138.923 221.042C140.491 221.042 141.639 221.826 141.639 223.618V228H140.827L140.701 226.81C140.281 227.664 139.357 228.168 138.209 228.168ZM138.433 227.384C139.861 227.384 140.687 226.39 140.687 224.92V224.556L138.685 224.71C137.411 224.822 136.893 225.382 136.893 226.138C136.893 226.964 137.509 227.384 138.433 227.384ZM144.417 228H143.577V217.794H144.543V222.54C145.019 221.546 145.943 221.042 147.091 221.042C149.065 221.042 150.213 222.582 150.213 224.626C150.213 226.656 149.037 228.168 147.063 228.168C145.929 228.168 144.991 227.664 144.515 226.614L144.417 228ZM144.557 224.598C144.557 226.166 145.425 227.286 146.909 227.286C148.379 227.286 149.233 226.166 149.233 224.598C149.233 223.044 148.379 221.91 146.909 221.91C145.425 221.91 144.557 223.044 144.557 224.598ZM152.229 219.362C151.837 219.362 151.515 219.04 151.515 218.648C151.515 218.256 151.837 217.92 152.229 217.92C152.621 217.92 152.957 218.256 152.957 218.648C152.957 219.04 152.621 219.362 152.229 219.362ZM151.753 228V221.224H152.719V228H151.753ZM155.742 228H154.776V217.794H155.742V228ZM158.272 219.362C157.88 219.362 157.558 219.04 157.558 218.648C157.558 218.256 157.88 217.92 158.272 217.92C158.664 217.92 159 218.256 159 218.648C159 219.04 158.664 219.362 158.272 219.362ZM157.796 228V221.224H158.762V228H157.796ZM162.331 228H161.379V222.036H160.021V221.224H161.379V219.082H162.331V221.224H163.689V222.036H162.331V228ZM164.26 230.954V230.156H165.002C165.59 230.156 166.178 230.114 166.514 229.204L166.808 228.406L164.064 221.224H165.086L167.27 227.132L169.412 221.224H170.406L167.298 229.554C166.906 230.618 166.248 231.052 165.282 231.052C164.876 231.052 164.568 231.024 164.26 230.954ZM176.637 228H175.629V217.976H176.651L182.167 226.32V217.976H183.161V228H182.167L176.637 219.656V228ZM188.242 228.168C186.254 228.168 184.924 226.74 184.924 224.612C184.924 222.498 186.24 221.042 188.172 221.042C190.006 221.042 191.252 222.344 191.252 224.262V224.738H185.862C185.932 226.39 186.8 227.342 188.256 227.342C189.362 227.342 190.076 226.866 190.328 225.97H191.252C190.888 227.398 189.838 228.168 188.242 228.168ZM188.172 221.868C186.898 221.868 186.058 222.708 185.89 224.038H190.286C190.286 222.736 189.446 221.868 188.172 221.868ZM194.282 228H193.33V222.036H191.972V221.224H193.33V219.082H194.282V221.224H195.64V222.036H194.282V228ZM198.326 228L196.086 221.224H197.08L198.41 225.312C198.564 225.76 198.69 226.222 198.83 226.768C198.942 226.222 199.166 225.536 199.236 225.312L200.58 221.224H201.574L202.904 225.312C203.03 225.676 203.198 226.264 203.324 226.768C203.464 226.208 203.492 226.04 203.73 225.312L205.074 221.224H206.082L203.786 228H202.848L201.448 223.744C201.28 223.24 201.168 222.82 201.084 222.414C200.986 222.778 200.874 223.184 200.692 223.744L199.292 228H198.326ZM206.511 224.612C206.511 222.54 207.967 221.042 209.955 221.042C211.943 221.042 213.399 222.54 213.399 224.612C213.399 226.67 211.943 228.168 209.955 228.168C207.967 228.168 206.511 226.67 206.511 224.612ZM207.491 224.598C207.491 226.194 208.499 227.3 209.955 227.3C211.397 227.3 212.419 226.194 212.419 224.598C212.419 223.03 211.397 221.91 209.955 221.91C208.499 221.91 207.491 223.03 207.491 224.598ZM218.487 221.14V222.008H217.955C216.709 222.008 215.911 222.848 215.911 224.136V228H214.945V221.224H215.855L215.925 222.274C216.191 221.546 216.905 221.07 217.857 221.07C218.067 221.07 218.249 221.084 218.487 221.14ZM220.779 228H219.813V217.794H220.779V224.724L224.139 221.224H225.357L222.753 223.926L225.371 228H224.251L222.095 224.612L220.779 225.97V228Z" fill="black"/>
<path d="M68.6635 397H62.6575V386.976H68.6495V387.9H63.6655V391.512H68.1875V392.422H63.6655V396.076H68.6635V397ZM72.0542 397H71.1022V391.036H69.7442V390.224H71.1022V388.082H72.0542V390.224H73.4122V391.036H72.0542V397ZM75.6361 396.986H74.6701V386.794H75.6361V391.4C76.0701 390.588 76.8961 390.042 78.0301 390.042C79.8081 390.042 80.6061 391.148 80.6061 392.856V397H79.6401V393.066C79.6401 391.484 78.8981 390.924 77.8481 390.924C76.3921 390.924 75.6361 392.002 75.6361 393.304V396.986ZM82.1394 389.58C82.1394 387.9 83.4834 386.794 85.4994 386.794C87.3054 386.794 88.4954 387.802 88.6494 389.482H87.6274C87.5154 388.348 86.7454 387.704 85.4854 387.704C84.0714 387.704 83.1474 388.432 83.1474 389.566C83.1474 390.448 83.6654 391.008 84.7154 391.274L86.4374 391.694C88.0054 392.072 88.8174 392.968 88.8174 394.326C88.8174 396.062 87.4734 397.168 85.4014 397.168C83.4554 397.168 82.1394 396.146 82.0134 394.508H83.0494C83.1054 395.558 84.0294 396.244 85.4014 396.244C86.8714 396.244 87.8094 395.53 87.8094 394.382C87.8094 393.486 87.3054 392.898 86.2274 392.646L84.5334 392.226C82.9654 391.848 82.1394 390.952 82.1394 389.58ZM91.9741 397H91.0221V391.036H89.6641V390.224H91.0221V388.082H91.9741V390.224H93.3321V391.036H91.9741V397ZM94.0457 393.612C94.0457 391.54 95.5017 390.042 97.4897 390.042C99.4777 390.042 100.934 391.54 100.934 393.612C100.934 395.67 99.4777 397.168 97.4897 397.168C95.5017 397.168 94.0457 395.67 94.0457 393.612ZM95.0257 393.598C95.0257 395.194 96.0337 396.3 97.4897 396.3C98.9317 396.3 99.9537 395.194 99.9537 393.598C99.9537 392.03 98.9317 390.91 97.4897 390.91C96.0337 390.91 95.0257 392.03 95.0257 393.598ZM106.021 390.14V391.008H105.489C104.243 391.008 103.445 391.848 103.445 393.136V397H102.479V390.224H103.389L103.459 391.274C103.725 390.546 104.439 390.07 105.391 390.07C105.601 390.07 105.783 390.084 106.021 390.14ZM108.977 397.168C107.535 397.168 106.681 396.356 106.681 395.166C106.681 393.92 107.633 393.136 109.215 393.01L111.455 392.828V392.604C111.455 391.274 110.657 390.854 109.663 390.854C108.487 390.854 107.787 391.386 107.787 392.296H106.905C106.905 390.924 108.025 390.042 109.691 390.042C111.259 390.042 112.407 390.826 112.407 392.618V397H111.595L111.469 395.81C111.049 396.664 110.125 397.168 108.977 397.168ZM109.201 396.384C110.629 396.384 111.455 395.39 111.455 393.92V393.556L109.453 393.71C108.179 393.822 107.661 394.382 107.661 395.138C107.661 395.964 108.277 396.384 109.201 396.384ZM113.884 393.416C113.884 391.568 115.074 390.042 117.062 390.042C118.238 390.042 119.134 390.588 119.568 391.582L119.666 390.224H120.506V396.79C120.506 398.806 119.218 400.122 117.23 400.122C115.494 400.122 114.276 399.142 114.01 397.504H114.976C115.186 398.596 116.026 399.24 117.244 399.24C118.63 399.24 119.554 398.302 119.554 396.888V395.278C119.092 396.23 118.154 396.79 116.992 396.79C115.06 396.79 113.884 395.264 113.884 393.416ZM114.85 393.402C114.85 394.788 115.704 395.922 117.132 395.922C118.602 395.922 119.47 394.858 119.47 393.402C119.47 391.96 118.63 390.896 117.146 390.896C115.69 390.896 114.85 392.03 114.85 393.402ZM125.364 397.168C123.376 397.168 122.046 395.74 122.046 393.612C122.046 391.498 123.362 390.042 125.294 390.042C127.128 390.042 128.374 391.344 128.374 393.262V393.738H122.984C123.054 395.39 123.922 396.342 125.378 396.342C126.484 396.342 127.198 395.866 127.45 394.97H128.374C128.01 396.398 126.96 397.168 125.364 397.168ZM125.294 390.868C124.02 390.868 123.18 391.708 123.012 393.038H127.408C127.408 391.736 126.568 390.868 125.294 390.868ZM133.409 389.58C133.409 387.9 134.753 386.794 136.769 386.794C138.575 386.794 139.765 387.802 139.919 389.482H138.897C138.785 388.348 138.015 387.704 136.755 387.704C135.341 387.704 134.417 388.432 134.417 389.566C134.417 390.448 134.935 391.008 135.985 391.274L137.707 391.694C139.275 392.072 140.087 392.968 140.087 394.326C140.087 396.062 138.743 397.168 136.671 397.168C134.725 397.168 133.409 396.146 133.283 394.508H134.319C134.375 395.558 135.299 396.244 136.671 396.244C138.141 396.244 139.079 395.53 139.079 394.382C139.079 393.486 138.575 392.898 137.497 392.646L135.803 392.226C134.235 391.848 133.409 390.952 133.409 389.58ZM143.244 397H142.292V391.036H140.934V390.224H142.292V388.082H143.244V390.224H144.602V391.036H143.244V397ZM145.315 393.612C145.315 391.54 146.771 390.042 148.759 390.042C150.747 390.042 152.203 391.54 152.203 393.612C152.203 395.67 150.747 397.168 148.759 397.168C146.771 397.168 145.315 395.67 145.315 393.612ZM146.295 393.598C146.295 395.194 147.303 396.3 148.759 396.3C150.201 396.3 151.223 395.194 151.223 393.598C151.223 392.03 150.201 390.91 148.759 390.91C147.303 390.91 146.295 392.03 146.295 393.598ZM157.29 390.14V391.008H156.758C155.512 391.008 154.714 391.848 154.714 393.136V397H153.748V390.224H154.658L154.728 391.274C154.994 390.546 155.708 390.07 156.66 390.07C156.87 390.07 157.052 390.084 157.29 390.14ZM160.247 397.168C158.805 397.168 157.951 396.356 157.951 395.166C157.951 393.92 158.903 393.136 160.485 393.01L162.725 392.828V392.604C162.725 391.274 161.927 390.854 160.933 390.854C159.757 390.854 159.057 391.386 159.057 392.296H158.175C158.175 390.924 159.295 390.042 160.961 390.042C162.529 390.042 163.677 390.826 163.677 392.618V397H162.865L162.739 395.81C162.319 396.664 161.395 397.168 160.247 397.168ZM160.471 396.384C161.899 396.384 162.725 395.39 162.725 393.92V393.556L160.723 393.71C159.449 393.822 158.931 394.382 158.931 395.138C158.931 395.964 159.547 396.384 160.471 396.384ZM165.153 393.416C165.153 391.568 166.343 390.042 168.331 390.042C169.507 390.042 170.403 390.588 170.837 391.582L170.935 390.224H171.775V396.79C171.775 398.806 170.487 400.122 168.499 400.122C166.763 400.122 165.545 399.142 165.279 397.504H166.245C166.455 398.596 167.295 399.24 168.513 399.24C169.899 399.24 170.823 398.302 170.823 396.888V395.278C170.361 396.23 169.423 396.79 168.261 396.79C166.329 396.79 165.153 395.264 165.153 393.416ZM166.119 393.402C166.119 394.788 166.973 395.922 168.401 395.922C169.871 395.922 170.739 394.858 170.739 393.402C170.739 391.96 169.899 390.896 168.415 390.896C166.959 390.896 166.119 392.03 166.119 393.402ZM176.633 397.168C174.645 397.168 173.315 395.74 173.315 393.612C173.315 391.498 174.631 390.042 176.563 390.042C178.397 390.042 179.643 391.344 179.643 393.262V393.738H174.253C174.323 395.39 175.191 396.342 176.647 396.342C177.753 396.342 178.467 395.866 178.719 394.97H179.643C179.279 396.398 178.229 397.168 176.633 397.168ZM176.563 390.868C175.289 390.868 174.449 391.708 174.281 393.038H178.677C178.677 391.736 177.837 390.868 176.563 390.868ZM189.369 397.154C186.569 397.154 184.665 395.068 184.665 391.988C184.665 388.908 186.597 386.808 189.425 386.808C191.581 386.808 193.275 388.11 193.681 390.098H192.603C192.183 388.656 190.951 387.774 189.383 387.774C187.185 387.774 185.715 389.454 185.715 391.988C185.715 394.508 187.185 396.188 189.383 396.188C190.965 396.188 192.225 395.334 192.659 393.99H193.737C193.275 395.88 191.525 397.154 189.369 397.154ZM194.794 393.612C194.794 391.54 196.25 390.042 198.238 390.042C200.226 390.042 201.682 391.54 201.682 393.612C201.682 395.67 200.226 397.168 198.238 397.168C196.25 397.168 194.794 395.67 194.794 393.612ZM195.774 393.598C195.774 395.194 196.782 396.3 198.238 396.3C199.68 396.3 200.702 395.194 200.702 393.598C200.702 392.03 199.68 390.91 198.238 390.91C196.782 390.91 195.774 392.03 195.774 393.598ZM204.193 397H203.227V390.224H204.067L204.207 391.4C204.655 390.532 205.551 390.042 206.531 390.042C208.393 390.042 209.163 391.148 209.163 392.856V397H208.197V393.066C208.197 391.484 207.483 390.924 206.363 390.924C204.977 390.924 204.193 391.932 204.193 393.458V397ZM212.642 397H211.69V391.036H210.332V390.224H211.69V388.082H212.642V390.224H214V391.036H212.642V397ZM218.8 390.14V391.008H218.268C217.022 391.008 216.224 391.848 216.224 393.136V397H215.258V390.224H216.168L216.238 391.274C216.504 390.546 217.218 390.07 218.17 390.07C218.38 390.07 218.562 390.084 218.8 390.14ZM221.757 397.168C220.315 397.168 219.461 396.356 219.461 395.166C219.461 393.92 220.413 393.136 221.995 393.01L224.235 392.828V392.604C224.235 391.274 223.437 390.854 222.443 390.854C221.267 390.854 220.567 391.386 220.567 392.296H219.685C219.685 390.924 220.805 390.042 222.471 390.042C224.039 390.042 225.187 390.826 225.187 392.618V397H224.375L224.249 395.81C223.829 396.664 222.905 397.168 221.757 397.168ZM221.981 396.384C223.409 396.384 224.235 395.39 224.235 393.92V393.556L222.233 393.71C220.959 393.822 220.441 394.382 220.441 395.138C220.441 395.964 221.057 396.384 221.981 396.384ZM226.649 393.626C226.649 391.498 227.951 390.042 229.925 390.042C231.493 390.042 232.641 390.952 232.907 392.352H231.941C231.689 391.414 230.877 390.896 229.939 390.896C228.567 390.896 227.601 391.946 227.601 393.612C227.601 395.222 228.497 396.3 229.869 396.3C230.877 396.3 231.689 395.74 231.955 394.872H232.935C232.613 396.258 231.409 397.168 229.869 397.168C227.951 397.168 226.649 395.754 226.649 393.626ZM235.953 397H235.001V391.036H233.643V390.224H235.001V388.082H235.953V390.224H237.311V391.036H235.953V397Z" fill="black"/>
<path d="M349.856 297.477L433.339 297.477" stroke="black"/>
<path d="M349.856 156.301L433.339 156.301" stroke="black"/>
<path d="M431.218 293.496L437.442 297.656L431.218 301.816L431.218 293.496Z" fill="black"/>
<path d="M431.218 152.316L437.442 156.476L431.218 160.636L431.218 152.316Z" fill="black"/>
<path d="M349.856 156V297.565" stroke="black"/>
<path d="M270.094 297.5H355" stroke="black"/>
</svg>
