<svg width="773" height="447" viewBox="0 0 773 447" fill="none" xmlns="http://www.w3.org/2000/svg">
<rect x="403.5" y="51.5" width="369" height="395" rx="7.5" fill="white" stroke="black" stroke-dasharray="4 4"/>
<path d="M617.114 129.046L617.108 129.63L617.686 129.546C619.236 129.319 620.822 129.202 622.436 129.202C640.415 129.202 654.989 143.777 654.989 161.755C654.989 179.734 640.415 194.309 622.436 194.309H546.688C528.709 194.309 514.135 179.734 514.135 161.755C514.135 143.777 528.709 129.202 546.688 129.202C548.302 129.202 549.888 129.319 551.438 129.546L552.016 129.63L552.01 129.046C552.009 128.931 552.009 128.817 552.009 128.702C552.009 110.723 566.583 96.1484 584.562 96.1484C602.541 96.1484 617.115 110.723 617.115 128.702C617.115 128.817 617.115 128.931 617.114 129.046Z" fill="white" stroke="#FF8972"/>
<path d="M546.733 189.3C531.372 189.3 518.762 176.8 518.762 161.319C518.762 145.838 531.257 133.339 546.733 133.339C548.108 133.339 549.484 133.453 550.86 133.683L556.821 134.6L556.706 128.293C556.706 112.927 569.201 100.312 584.677 100.312C600.153 100.312 612.648 112.812 612.648 128.293L612.533 134.6L618.494 133.683C619.87 133.453 621.245 133.339 622.621 133.339C637.982 133.339 650.592 145.838 650.592 161.319C650.592 176.8 638.097 189.3 622.621 189.3H546.733Z" fill="white" stroke="#FF8972"/>
<path d="M607.422 194.828C607.422 195.019 607.336 195.25 607.081 195.525C606.823 195.802 606.419 196.094 605.855 196.387C604.729 196.973 603.068 197.516 600.972 197.977C596.79 198.898 590.988 199.472 584.562 199.472C578.137 199.472 572.335 198.898 568.152 197.977C566.057 197.516 564.395 196.973 563.27 196.387C562.706 196.094 562.302 195.802 562.044 195.525C561.789 195.25 561.703 195.019 561.703 194.828V177.324H607.422V194.828Z" fill="white" stroke="#FF8972"/>
<path d="M590.881 190.41V204.521C590.881 206.731 592.672 208.521 594.881 208.521H636.371" stroke="#FF8972"/>
<circle cx="635.538" cy="208.52" r="2.25477" fill="white" stroke="#FF8972"/>
<path d="M577.293 190.41V204.521C577.293 206.731 575.502 208.521 573.293 208.521H531.803" stroke="#FF8972"/>
<circle cx="2.75477" cy="2.75477" r="2.25477" transform="matrix(-1 0 0 1 535.391 205.766)" fill="white" stroke="#FF8972"/>
<path d="M607.425 176.824C607.425 177.452 606.958 178.168 605.816 178.913C604.695 179.644 603.04 180.321 600.95 180.897C596.776 182.048 590.983 182.766 584.563 182.766C578.144 182.766 572.35 182.048 568.177 180.897C566.086 180.321 564.431 179.644 563.31 178.913C562.168 178.168 561.701 177.452 561.701 176.824C561.701 176.197 562.168 175.481 563.31 174.736C564.431 174.005 566.086 173.328 568.177 172.752C572.35 171.601 578.144 170.883 584.563 170.883C590.983 170.883 596.776 171.601 600.95 172.752C603.04 173.328 604.695 174.005 605.816 174.736C606.958 175.481 607.425 176.197 607.425 176.824Z" fill="white" stroke="#FF8972"/>
<path d="M607.422 172.09C607.422 172.281 607.336 172.512 607.081 172.786C606.823 173.064 606.419 173.356 605.855 173.649C604.729 174.235 603.068 174.778 600.972 175.239C596.79 176.16 590.988 176.734 584.562 176.734C578.137 176.734 572.335 176.16 568.152 175.239C566.057 174.778 564.395 174.235 563.27 173.649C562.706 173.356 562.302 173.064 562.044 172.786C561.789 172.512 561.703 172.281 561.703 172.09V154.586H607.422V172.09Z" fill="white" stroke="#FF8972"/>
<path d="M607.425 154.086C607.425 154.713 606.958 155.43 605.816 156.175C604.695 156.905 603.04 157.583 600.95 158.159C596.776 159.31 590.983 160.028 584.563 160.028C578.144 160.028 572.35 159.31 568.177 158.159C566.086 157.583 564.431 156.905 563.31 156.175C562.168 155.43 561.701 154.713 561.701 154.086C561.701 153.459 562.168 152.742 563.31 151.998C564.431 151.267 566.086 150.59 568.177 150.013C572.35 148.863 578.144 148.145 584.563 148.145C590.983 148.145 596.776 148.863 600.95 150.013C603.04 150.59 604.695 151.267 605.816 151.998C606.958 152.742 607.425 153.459 607.425 154.086Z" fill="white" stroke="#FF8972"/>
<path d="M590.381 154.695C590.381 154.857 590.3 155.064 590.042 155.306C589.784 155.548 589.383 155.789 588.845 156.002C587.774 156.428 586.26 156.702 584.561 156.702C582.863 156.702 581.349 156.428 580.277 156.002C579.74 155.789 579.339 155.548 579.081 155.306C578.823 155.064 578.742 154.857 578.742 154.695C578.742 154.532 578.823 154.325 579.081 154.083C579.339 153.841 579.74 153.6 580.277 153.387C581.349 152.961 582.863 152.688 584.561 152.688C586.26 152.688 587.774 152.961 588.845 153.387C589.383 153.6 589.784 153.841 590.042 154.083C590.3 154.325 590.381 154.532 590.381 154.695Z" fill="white" stroke="#FF8972"/>
<circle cx="577.499" cy="192.052" r="2.25477" fill="white" stroke="#FF8972"/>
<circle cx="590.88" cy="192.052" r="2.25477" fill="white" stroke="#FF8972"/>
<circle cx="561.202" cy="208.122" r="3.23124" fill="white" stroke="#FF8972"/>
<circle cx="545.924" cy="216.977" r="2.07481" fill="white" stroke="#FF8972"/>
<circle cx="606.505" cy="208.122" r="3.23124" fill="white" stroke="#FF8972"/>
<path d="M581.576 199.27V212.974C581.576 215.183 579.785 216.974 577.576 216.974H547.447" stroke="#FF8972"/>
<circle cx="2.57481" cy="2.57481" r="2.07481" transform="matrix(-1 0 0 1 625.137 214.402)" fill="white" stroke="#FF8972"/>
<path d="M586.91 199.27V212.974C586.91 215.183 588.701 216.974 590.91 216.974H621.039" stroke="#FF8972"/>
<path d="M617.114 260.495L617.108 261.08L617.686 260.995C619.236 260.768 620.822 260.651 622.436 260.651C640.415 260.651 654.989 275.226 654.989 293.205C654.989 311.183 640.415 325.758 622.436 325.758H546.688C528.709 325.758 514.135 311.183 514.135 293.205C514.135 275.226 528.709 260.651 546.688 260.651C548.302 260.651 549.888 260.768 551.438 260.995L552.016 261.08L552.01 260.495C552.009 260.381 552.009 260.266 552.009 260.151C552.009 242.172 566.583 227.598 584.562 227.598C602.541 227.598 617.115 242.172 617.115 260.151C617.115 260.266 617.115 260.381 617.114 260.495Z" fill="white" stroke="#FF8972"/>
<path d="M546.733 320.749C531.372 320.749 518.762 308.25 518.762 292.768C518.762 277.287 531.257 264.788 546.733 264.788C548.108 264.788 549.484 264.903 550.86 265.132L556.821 266.049L556.706 259.742C556.706 244.376 569.201 231.762 584.677 231.762C600.153 231.762 612.648 244.261 612.648 259.742L612.533 266.049L618.494 265.132C619.87 264.903 621.245 264.788 622.621 264.788C637.982 264.788 650.592 277.287 650.592 292.768C650.592 308.25 638.097 320.749 622.621 320.749H546.733Z" fill="white" stroke="#FF8972"/>
<path d="M607.422 326.278C607.422 326.468 607.336 326.699 607.081 326.974C606.823 327.251 606.419 327.543 605.855 327.836C604.729 328.422 603.068 328.965 600.972 329.427C596.79 330.348 590.988 330.922 584.562 330.922C578.137 330.922 572.335 330.348 568.152 329.427C566.057 328.965 564.395 328.422 563.27 327.836C562.706 327.543 562.302 327.251 562.044 326.974C561.789 326.699 561.703 326.468 561.703 326.278V308.773H607.422V326.278Z" fill="white" stroke="#FF8972"/>
<path d="M590.881 321.859V335.971C590.881 338.18 592.672 339.971 594.881 339.971H636.371" stroke="#FF8972"/>
<circle cx="635.538" cy="339.97" r="2.25477" fill="white" stroke="#FF8972"/>
<path d="M577.293 321.859V335.971C577.293 338.18 575.502 339.971 573.293 339.971H531.803" stroke="#FF8972"/>
<circle cx="2.75477" cy="2.75477" r="2.25477" transform="matrix(-1 0 0 1 535.391 337.215)" fill="white" stroke="#FF8972"/>
<path d="M607.425 308.274C607.425 308.901 606.958 309.618 605.816 310.362C604.695 311.093 603.04 311.77 600.95 312.347C596.776 313.497 590.983 314.215 584.563 314.215C578.144 314.215 572.35 313.497 568.177 312.347C566.086 311.77 564.431 311.093 563.31 310.362C562.168 309.618 561.701 308.901 561.701 308.274C561.701 307.646 562.168 306.93 563.31 306.185C564.431 305.454 566.086 304.777 568.177 304.201C572.35 303.05 578.144 302.332 584.563 302.332C590.983 302.332 596.776 303.05 600.95 304.201C603.04 304.777 604.695 305.454 605.816 306.185C606.958 306.93 607.425 307.646 607.425 308.274Z" fill="white" stroke="#FF8972"/>
<path d="M607.422 303.539C607.422 303.73 607.336 303.961 607.081 304.236C606.823 304.513 606.419 304.805 605.855 305.098C604.729 305.684 603.068 306.227 600.972 306.688C596.79 307.609 590.988 308.183 584.562 308.183C578.137 308.183 572.335 307.609 568.152 306.688C566.057 306.227 564.395 305.684 563.27 305.098C562.706 304.805 562.302 304.513 562.044 304.236C561.789 303.961 561.703 303.73 561.703 303.539V286.035H607.422V303.539Z" fill="white" stroke="#FF8972"/>
<path d="M607.425 285.535C607.425 286.163 606.958 286.879 605.816 287.624C604.695 288.355 603.04 289.032 600.95 289.608C596.776 290.759 590.983 291.477 584.563 291.477C578.144 291.477 572.35 290.759 568.177 289.608C566.086 289.032 564.431 288.355 563.31 287.624C562.168 286.879 561.701 286.163 561.701 285.535C561.701 284.908 562.168 284.191 563.31 283.447C564.431 282.716 566.086 282.039 568.177 281.462C572.35 280.312 578.144 279.594 584.563 279.594C590.983 279.594 596.776 280.312 600.95 281.462C603.04 282.039 604.695 282.716 605.816 283.447C606.958 284.191 607.425 284.908 607.425 285.535Z" fill="white" stroke="#FF8972"/>
<path d="M590.381 286.144C590.381 286.307 590.3 286.513 590.042 286.755C589.784 286.997 589.383 287.239 588.845 287.452C587.774 287.877 586.26 288.151 584.561 288.151C582.863 288.151 581.349 287.877 580.277 287.452C579.74 287.239 579.339 286.997 579.081 286.755C578.823 286.513 578.742 286.307 578.742 286.144C578.742 285.981 578.823 285.774 579.081 285.533C579.339 285.29 579.74 285.049 580.277 284.836C581.349 284.411 582.863 284.137 584.561 284.137C586.26 284.137 587.774 284.411 588.845 284.836C589.383 285.049 589.784 285.29 590.042 285.533C590.3 285.774 590.381 285.981 590.381 286.144Z" fill="white" stroke="#FF8972"/>
<circle cx="577.499" cy="323.501" r="2.25477" fill="white" stroke="#FF8972"/>
<circle cx="590.88" cy="323.501" r="2.25477" fill="white" stroke="#FF8972"/>
<circle cx="561.202" cy="339.571" r="3.23124" fill="white" stroke="#FF8972"/>
<circle cx="545.924" cy="348.426" r="2.07481" fill="white" stroke="#FF8972"/>
<circle cx="606.505" cy="339.571" r="3.23124" fill="white" stroke="#FF8972"/>
<path d="M581.576 330.719V344.423C581.576 346.632 579.785 348.423 577.576 348.423H547.447" stroke="#FF8972"/>
<circle cx="2.57481" cy="2.57481" r="2.07481" transform="matrix(-1 0 0 1 625.137 345.852)" fill="white" stroke="#FF8972"/>
<path d="M586.91 330.719V344.423C586.91 346.632 588.701 348.423 590.91 348.423H621.039" stroke="#FF8972"/>
<path d="M627.873 135.617H637.46" stroke="#FF8972"/>
<path d="M627.873 141.008H645.999" stroke="#FF8972"/>
<path d="M627.873 145.875H645.999" stroke="#FF8972"/>
<path d="M627.873 150.738H645.999" stroke="#FF8972"/>
<path d="M645.402 132.293C644.809 132.316 644.323 131.83 644.346 131.237L644.551 125.987C644.586 125.101 645.659 124.681 646.286 125.308L651.331 130.353C651.958 130.98 651.538 132.054 650.652 132.088L645.402 132.293Z" fill="white" stroke="#FF8972"/>
<path d="M628.17 156.052H653.146C654.821 156.052 656.18 154.694 656.18 153.019V128.195C656.18 127.854 656.078 127.52 655.887 127.237C655.827 127.148 655.759 127.065 655.683 126.989L649.647 120.902C649.52 120.774 649.372 120.669 649.208 120.591C649 120.493 648.772 120.441 648.542 120.441H628.17C626.495 120.441 625.137 121.8 625.137 123.475V153.019C625.137 154.694 626.495 156.052 628.17 156.052Z" fill="white"/>
<path d="M648.892 120.441H628.17C626.495 120.441 625.137 121.8 625.137 123.475V153.019C625.137 154.694 626.495 156.052 628.17 156.052H653.146C654.821 156.052 656.18 154.694 656.18 153.019V127.671" stroke="#FF8972"/>
<path d="M631.596 131.895H641.182" stroke="#FF8972"/>
<path d="M631.594 137.285H649.72" stroke="#FF8972"/>
<path d="M631.596 142.152H649.722" stroke="#FF8972"/>
<path d="M631.596 147.016H649.722" stroke="#FF8972"/>
<path d="M649.124 128.57C648.532 128.594 648.046 128.107 648.069 127.515L648.274 122.265C648.308 121.379 649.381 120.958 650.009 121.585L655.054 126.63C655.681 127.258 655.261 128.331 654.374 128.365L649.124 128.57Z" fill="white" stroke="#FF8972"/>
<path d="M631.895 152.861H656.871C658.546 152.861 659.904 151.503 659.904 149.827V125.004C659.904 124.662 659.802 124.329 659.611 124.046C659.551 123.957 659.483 123.874 659.408 123.798L653.372 117.711C653.245 117.582 653.096 117.477 652.933 117.4C652.725 117.301 652.497 117.25 652.266 117.25H631.895C630.219 117.25 628.861 118.608 628.861 120.284V149.827C628.861 151.503 630.219 152.861 631.895 152.861Z" fill="white"/>
<path d="M631.895 152.861H656.871C658.546 152.861 659.904 151.503 659.904 149.827V125.743C659.904 124.935 659.581 124.159 659.007 123.59L653.504 118.13C652.935 117.566 652.167 117.25 651.367 117.25H631.895C630.219 117.25 628.861 118.608 628.861 120.284V149.827C628.861 151.503 630.219 152.861 631.895 152.861Z" fill="white" stroke="#FF8972"/>
<path d="M635.32 128.703H644.907" stroke="#FF8972"/>
<path d="M635.32 134.102H653.446" stroke="#FF8972"/>
<path d="M635.32 138.961H653.446" stroke="#FF8972"/>
<path d="M635.32 143.824H653.446" stroke="#FF8972"/>
<path d="M652.57 125.623C651.978 125.647 651.491 125.16 651.514 124.568L651.761 118.257C651.795 117.371 652.868 116.951 653.496 117.578L659.56 123.642C660.187 124.269 659.767 125.342 658.88 125.377L652.57 125.623Z" fill="white" stroke="#FF8972"/>
<path d="M627.871 263.203H637.458" stroke="#FF8972"/>
<path d="M627.871 268.594H645.997" stroke="#FF8972"/>
<path d="M627.871 273.461H645.997" stroke="#FF8972"/>
<path d="M627.871 278.324H645.997" stroke="#FF8972"/>
<path d="M645.4 259.879C644.807 259.902 644.321 259.416 644.344 258.823L644.549 253.573C644.584 252.687 645.657 252.267 646.284 252.894L651.329 257.939C651.956 258.566 651.536 259.639 650.65 259.674L645.4 259.879Z" fill="white" stroke="#FF8972"/>
<path d="M628.168 283.638H653.144C654.82 283.638 656.178 282.28 656.178 280.604V255.781C656.178 255.44 656.076 255.106 655.885 254.823C655.825 254.734 655.757 254.651 655.681 254.575L649.645 248.488C649.518 248.36 649.37 248.255 649.207 248.177C648.998 248.079 648.77 248.027 648.54 248.027H628.168C626.493 248.027 625.135 249.386 625.135 251.061V280.604C625.135 282.28 626.493 283.638 628.168 283.638Z" fill="white"/>
<path d="M648.89 248.027H628.168C626.493 248.027 625.135 249.386 625.135 251.061V280.604C625.135 282.28 626.493 283.638 628.168 283.638H653.144C654.82 283.638 656.178 282.28 656.178 280.604V255.257" stroke="#FF8972"/>
<path d="M631.594 259.48H641.18" stroke="#FF8972"/>
<path d="M631.592 264.871H649.718" stroke="#FF8972"/>
<path d="M631.594 269.738H649.72" stroke="#FF8972"/>
<path d="M631.594 274.602H649.72" stroke="#FF8972"/>
<path d="M649.122 256.156C648.53 256.179 648.044 255.693 648.067 255.101L648.272 249.851C648.306 248.964 649.38 248.544 650.007 249.171L655.052 254.216C655.679 254.844 655.259 255.917 654.372 255.951L649.122 256.156Z" fill="white" stroke="#FF8972"/>
<path d="M631.893 280.447H656.869C658.544 280.447 659.902 279.088 659.902 277.413V252.59C659.902 252.248 659.8 251.915 659.609 251.632C659.549 251.543 659.481 251.46 659.406 251.384L653.37 245.297C653.243 245.168 653.094 245.063 652.931 244.986C652.723 244.887 652.495 244.836 652.264 244.836H631.893C630.218 244.836 628.859 246.194 628.859 247.869V277.413C628.859 279.088 630.218 280.447 631.893 280.447Z" fill="white"/>
<path d="M631.893 280.447H656.869C658.544 280.447 659.902 279.088 659.902 277.413V253.329C659.902 252.521 659.579 251.745 659.005 251.176L653.502 245.716C652.933 245.152 652.166 244.836 651.365 244.836H631.893C630.218 244.836 628.859 246.194 628.859 247.869V277.413C628.859 279.088 630.218 280.447 631.893 280.447Z" fill="white" stroke="#FF8972"/>
<path d="M635.318 256.289H644.905" stroke="#FF8972"/>
<path d="M635.318 261.688H653.444" stroke="#FF8972"/>
<path d="M635.318 266.547H653.444" stroke="#FF8972"/>
<path d="M635.318 271.41H653.444" stroke="#FF8972"/>
<path d="M652.568 253.209C651.976 253.232 651.489 252.746 651.512 252.154L651.759 245.843C651.793 244.957 652.867 244.537 653.494 245.164L659.558 251.228C660.185 251.855 659.765 252.928 658.878 252.963L652.568 253.209Z" fill="white" stroke="#FF8972"/>
<path d="M534.616 393.58C534.616 391.9 535.96 390.794 537.976 390.794C539.782 390.794 540.972 391.802 541.126 393.482H540.104C539.992 392.348 539.222 391.704 537.962 391.704C536.548 391.704 535.624 392.432 535.624 393.566C535.624 394.448 536.142 395.008 537.192 395.274L538.914 395.694C540.482 396.072 541.294 396.968 541.294 398.326C541.294 400.062 539.95 401.168 537.878 401.168C535.932 401.168 534.616 400.146 534.49 398.508H535.526C535.582 399.558 536.506 400.244 537.878 400.244C539.348 400.244 540.286 399.53 540.286 398.382C540.286 397.486 539.782 396.898 538.704 396.646L537.01 396.226C535.442 395.848 534.616 394.952 534.616 393.58ZM544.451 401H543.499V395.036H542.141V394.224H543.499V392.082H544.451V394.224H545.809V395.036H544.451V401ZM546.522 397.612C546.522 395.54 547.978 394.042 549.966 394.042C551.954 394.042 553.41 395.54 553.41 397.612C553.41 399.67 551.954 401.168 549.966 401.168C547.978 401.168 546.522 399.67 546.522 397.612ZM547.502 397.598C547.502 399.194 548.51 400.3 549.966 400.3C551.408 400.3 552.43 399.194 552.43 397.598C552.43 396.03 551.408 394.91 549.966 394.91C548.51 394.91 547.502 396.03 547.502 397.598ZM558.497 394.14V395.008H557.965C556.719 395.008 555.921 395.848 555.921 397.136V401H554.955V394.224H555.865L555.935 395.274C556.201 394.546 556.915 394.07 557.867 394.07C558.077 394.07 558.259 394.084 558.497 394.14ZM561.454 401.168C560.012 401.168 559.158 400.356 559.158 399.166C559.158 397.92 560.11 397.136 561.692 397.01L563.932 396.828V396.604C563.932 395.274 563.134 394.854 562.14 394.854C560.964 394.854 560.264 395.386 560.264 396.296H559.382C559.382 394.924 560.502 394.042 562.168 394.042C563.736 394.042 564.884 394.826 564.884 396.618V401H564.072L563.946 399.81C563.526 400.664 562.602 401.168 561.454 401.168ZM561.678 400.384C563.106 400.384 563.932 399.39 563.932 397.92V397.556L561.93 397.71C560.656 397.822 560.138 398.382 560.138 399.138C560.138 399.964 560.754 400.384 561.678 400.384ZM566.36 397.416C566.36 395.568 567.55 394.042 569.538 394.042C570.714 394.042 571.61 394.588 572.044 395.582L572.142 394.224H572.982V400.79C572.982 402.806 571.694 404.122 569.706 404.122C567.97 404.122 566.752 403.142 566.486 401.504H567.452C567.662 402.596 568.502 403.24 569.72 403.24C571.106 403.24 572.03 402.302 572.03 400.888V399.278C571.568 400.23 570.63 400.79 569.468 400.79C567.536 400.79 566.36 399.264 566.36 397.416ZM567.326 397.402C567.326 398.788 568.18 399.922 569.608 399.922C571.078 399.922 571.946 398.858 571.946 397.402C571.946 395.96 571.106 394.896 569.622 394.896C568.166 394.896 567.326 396.03 567.326 397.402ZM577.84 401.168C575.852 401.168 574.522 399.74 574.522 397.612C574.522 395.498 575.838 394.042 577.77 394.042C579.604 394.042 580.85 395.344 580.85 397.262V397.738H575.46C575.53 399.39 576.398 400.342 577.854 400.342C578.96 400.342 579.674 399.866 579.926 398.97H580.85C580.486 400.398 579.436 401.168 577.84 401.168ZM577.77 394.868C576.496 394.868 575.656 395.708 575.488 397.038H579.884C579.884 395.736 579.044 394.868 577.77 394.868ZM590.31 397.318H587.496V401H586.488V390.976H590.31C592.242 390.976 593.46 392.236 593.46 394.126C593.46 395.946 592.228 397.318 590.31 397.318ZM590.17 391.886H587.496V396.408H590.114C591.57 396.408 592.41 395.484 592.41 394.112C592.41 392.726 591.556 391.886 590.17 391.886ZM598.419 394.14V395.008H597.887C596.641 395.008 595.843 395.848 595.843 397.136V401H594.877V394.224H595.787L595.857 395.274C596.123 394.546 596.837 394.07 597.789 394.07C597.999 394.07 598.181 394.084 598.419 394.14ZM598.968 397.612C598.968 395.54 600.424 394.042 602.412 394.042C604.4 394.042 605.856 395.54 605.856 397.612C605.856 399.67 604.4 401.168 602.412 401.168C600.424 401.168 598.968 399.67 598.968 397.612ZM599.948 397.598C599.948 399.194 600.956 400.3 602.412 400.3C603.854 400.3 604.876 399.194 604.876 397.598C604.876 396.03 603.854 394.91 602.412 394.91C600.956 394.91 599.948 396.03 599.948 397.598ZM608.99 401L606.218 394.224H607.254L609.004 398.592C609.186 399.082 609.368 399.544 609.494 399.992C609.62 399.53 609.802 399.082 609.998 398.592L611.776 394.224H612.77L609.956 401H608.99ZM614.384 392.362C613.992 392.362 613.67 392.04 613.67 391.648C613.67 391.256 613.992 390.92 614.384 390.92C614.776 390.92 615.112 391.256 615.112 391.648C615.112 392.04 614.776 392.362 614.384 392.362ZM613.908 401V394.224H614.874V401H613.908ZM619.549 401.168C617.575 401.168 616.413 399.656 616.413 397.626C616.413 395.582 617.575 394.042 619.591 394.042C620.711 394.042 621.607 394.532 622.083 395.512V390.794H623.049V401H622.209L622.111 399.614C621.635 400.664 620.683 401.168 619.549 401.168ZM619.717 400.286C621.201 400.286 622.069 399.166 622.069 397.598C622.069 396.044 621.201 394.91 619.717 394.91C618.247 394.91 617.393 396.044 617.393 397.598C617.393 399.166 618.247 400.286 619.717 400.286ZM627.907 401.168C625.919 401.168 624.589 399.74 624.589 397.612C624.589 395.498 625.905 394.042 627.837 394.042C629.671 394.042 630.917 395.344 630.917 397.262V397.738H625.527C625.597 399.39 626.465 400.342 627.921 400.342C629.027 400.342 629.741 399.866 629.993 398.97H630.917C630.553 400.398 629.503 401.168 627.907 401.168ZM627.837 394.868C626.563 394.868 625.723 395.708 625.555 397.038H629.951C629.951 395.736 629.111 394.868 627.837 394.868ZM636.003 394.14V395.008H635.471C634.225 395.008 633.427 395.848 633.427 397.136V401H632.461V394.224H633.371L633.441 395.274C633.707 394.546 634.421 394.07 635.373 394.07C635.583 394.07 635.765 394.084 636.003 394.14Z" fill="black"/>
<path d="M10.7 21H1.62V6.38H10.7V8.74H4.18V12.5H10.02V14.76H4.18V18.64H10.7V21ZM16.4755 21H14.0355V13.16H12.1355V11.12H14.0355V8.04H16.4755V11.12H18.3955V13.16H16.4755V21ZM22.3523 21H19.9123V6.12H22.3723V12.4C22.9923 11.44 24.1523 10.82 25.5723 10.82C28.0123 10.82 29.2923 12.36 29.2923 14.92V21H26.8523V15.5C26.8523 13.84 26.0323 13.04 24.7923 13.04C23.2523 13.04 22.3523 14.12 22.3523 15.6V21ZM36.1097 21.26C33.1697 21.26 31.1097 19.12 31.1097 16.06C31.1097 12.96 33.1297 10.82 36.0297 10.82C38.9897 10.82 40.8697 12.8 40.8697 15.88V16.62L33.4297 16.64C33.6097 18.38 34.5297 19.26 36.1497 19.26C37.4897 19.26 38.3697 18.74 38.6497 17.8H40.9097C40.4897 19.96 38.6897 21.26 36.1097 21.26ZM36.0497 12.82C34.6097 12.82 33.7297 13.6 33.4897 15.08H38.4497C38.4497 13.72 37.5097 12.82 36.0497 12.82ZM49.0225 11.08V13.34H48.1225C46.3625 13.34 45.2625 14.28 45.2625 16.2V21H42.8225V11.14H45.1225L45.2625 12.58C45.6825 11.6 46.6225 10.94 47.9425 10.94C48.2825 10.94 48.6225 10.98 49.0225 11.08ZM54.762 21.26C51.822 21.26 49.762 19.12 49.762 16.06C49.762 12.96 51.782 10.82 54.682 10.82C57.642 10.82 59.522 12.8 59.522 15.88V16.62L52.082 16.64C52.262 18.38 53.182 19.26 54.802 19.26C56.142 19.26 57.022 18.74 57.302 17.8H59.562C59.142 19.96 57.342 21.26 54.762 21.26ZM54.702 12.82C53.262 12.82 52.382 13.6 52.142 15.08H57.102C57.102 13.72 56.162 12.82 54.702 12.82ZM68.1748 11.12H70.6148V21H68.3548L68.1748 19.68C67.5748 20.62 66.2948 21.26 64.9748 21.26C62.6948 21.26 61.3548 19.72 61.3548 17.3V11.12H63.7948V16.44C63.7948 18.32 64.5348 19.08 65.8948 19.08C67.4348 19.08 68.1748 18.18 68.1748 16.3V11.12ZM75.575 21H73.135V11.12H75.375L75.575 12.28C76.075 11.46 77.075 10.82 78.495 10.82C79.995 10.82 81.035 11.56 81.555 12.7C82.055 11.56 83.215 10.82 84.715 10.82C87.115 10.82 88.435 12.26 88.435 14.54V21H86.015V15.18C86.015 13.76 85.255 13.02 84.095 13.02C82.915 13.02 82.015 13.78 82.015 15.4V21H79.575V15.16C79.575 13.78 78.835 13.04 77.675 13.04C76.515 13.04 75.575 13.8 75.575 15.4V21ZM99.1409 6.38V18.64H105.261V21H96.5809V6.38H99.1409ZM109.603 8.68H106.403V6.38H112.063V21H109.603V8.68Z" fill="black"/>
<path d="M413.7 21H404.62V6.38H413.7V8.74H407.18V12.5H413.02V14.76H407.18V18.64H413.7V21ZM419.475 21H417.035V13.16H415.135V11.12H417.035V8.04H419.475V11.12H421.395V13.16H419.475V21ZM425.352 21H422.912V6.12H425.372V12.4C425.992 11.44 427.152 10.82 428.572 10.82C431.012 10.82 432.292 12.36 432.292 14.92V21H429.852V15.5C429.852 13.84 429.032 13.04 427.792 13.04C426.252 13.04 425.352 14.12 425.352 15.6V21ZM434.21 10.46C434.21 7.9 436.33 6.12 439.41 6.12C442.37 6.12 444.25 7.76 444.33 10.4H441.77C441.71 9.14 440.81 8.4 439.37 8.4C437.79 8.4 436.77 9.16 436.77 10.38C436.77 11.42 437.33 12 438.55 12.28L440.85 12.78C443.35 13.32 444.57 14.6 444.57 16.78C444.57 19.5 442.45 21.26 439.23 21.26C436.11 21.26 434.07 19.6 434.01 16.98H436.57C436.59 18.22 437.59 18.96 439.23 18.96C440.93 18.96 442.01 18.22 442.01 17C442.01 16.02 441.51 15.44 440.31 15.18L437.99 14.66C435.51 14.12 434.21 12.7 434.21 10.46ZM449.886 21H447.446V13.16H445.546V11.12H447.446V8.04H449.886V11.12H451.806V13.16H449.886V21ZM452.645 16.04C452.645 12.96 454.865 10.84 457.925 10.84C460.985 10.84 463.205 12.96 463.205 16.04C463.205 19.12 460.985 21.24 457.925 21.24C454.865 21.24 452.645 19.12 452.645 16.04ZM455.085 16.04C455.085 17.84 456.245 19.06 457.925 19.06C459.605 19.06 460.765 17.84 460.765 16.04C460.765 14.24 459.605 13.02 457.925 13.02C456.245 13.02 455.085 14.24 455.085 16.04ZM471.339 11.08V13.34H470.439C468.679 13.34 467.579 14.28 467.579 16.2V21H465.139V11.14H467.439L467.579 12.58C467.999 11.6 468.939 10.94 470.259 10.94C470.599 10.94 470.939 10.98 471.339 11.08ZM475.54 21.26C473.44 21.26 472.16 20.04 472.16 18.18C472.16 16.36 473.48 15.22 475.82 15.04L478.78 14.82V14.6C478.78 13.26 477.98 12.72 476.74 12.72C475.3 12.72 474.5 13.32 474.5 14.36H472.42C472.42 12.22 474.18 10.82 476.86 10.82C479.52 10.82 481.16 12.26 481.16 15V21H479.02L478.84 19.54C478.42 20.56 477.08 21.26 475.54 21.26ZM476.34 19.42C477.84 19.42 478.8 18.52 478.8 17V16.48L476.74 16.64C475.22 16.78 474.64 17.28 474.64 18.08C474.64 18.98 475.24 19.42 476.34 19.42ZM482.997 15.84C482.997 12.96 484.877 10.8 487.697 10.8C489.177 10.8 490.337 11.42 490.917 12.48L491.057 11.12H493.317V20.5C493.317 23.8 491.337 25.86 488.137 25.86C485.297 25.86 483.357 24.24 483.057 21.6H485.497C485.657 22.88 486.637 23.64 488.137 23.64C489.817 23.64 490.897 22.58 490.897 20.94V19.3C490.277 20.22 489.057 20.8 487.637 20.8C484.837 20.8 482.997 18.7 482.997 15.84ZM485.457 15.78C485.457 17.44 486.517 18.68 488.117 18.68C489.797 18.68 490.837 17.5 490.837 15.78C490.837 14.1 489.817 12.94 488.117 12.94C486.497 12.94 485.457 14.16 485.457 15.78ZM500.262 21.26C497.322 21.26 495.262 19.12 495.262 16.06C495.262 12.96 497.282 10.82 500.182 10.82C503.142 10.82 505.022 12.8 505.022 15.88V16.62L497.582 16.64C497.762 18.38 498.682 19.26 500.302 19.26C501.642 19.26 502.522 18.74 502.802 17.8H505.062C504.642 19.96 502.842 21.26 500.262 21.26ZM500.202 12.82C498.762 12.82 497.882 13.6 497.642 15.08H502.602C502.602 13.72 501.662 12.82 500.202 12.82ZM515.285 6.38V18.64H521.405V21H512.725V6.38H515.285ZM532.927 20.98L522.787 21V19.08L527.567 15.04C529.547 13.36 530.207 12.4 530.207 11C530.207 9.34 529.307 8.4 527.767 8.4C526.167 8.4 525.167 9.52 525.147 11.4H522.607C522.627 8.2 524.667 6.12 527.767 6.12C530.887 6.12 532.827 7.9 532.827 10.86C532.827 12.9 531.707 14.44 529.487 16.34L526.847 18.6H532.927V20.98ZM543.175 21H540.655V6.38H543.195L550.055 16.74V6.38H552.575V21H550.055L543.175 10.64V21ZM559.871 21.26C556.931 21.26 554.871 19.12 554.871 16.06C554.871 12.96 556.891 10.82 559.791 10.82C562.751 10.82 564.631 12.8 564.631 15.88V16.62L557.191 16.64C557.371 18.38 558.291 19.26 559.911 19.26C561.251 19.26 562.131 18.74 562.411 17.8H564.671C564.251 19.96 562.451 21.26 559.871 21.26ZM559.811 12.82C558.371 12.82 557.491 13.6 557.251 15.08H562.211C562.211 13.72 561.271 12.82 559.811 12.82ZM569.847 21H567.407V13.16H565.507V11.12H567.407V8.04H569.847V11.12H571.767V13.16H569.847V21ZM575.463 21L572.263 11.12H574.803L576.103 15.36C576.323 16.14 576.523 17 576.703 17.92C576.883 16.96 577.063 16.34 577.383 15.36L578.743 11.12H581.223L582.543 15.36C582.663 15.76 583.063 17.24 583.183 17.9C583.343 17.16 583.663 15.98 583.843 15.36L585.163 11.12H587.743L584.323 21H582.043L580.683 16.72C580.283 15.42 580.063 14.48 579.983 13.98C579.883 14.44 579.703 15.14 579.203 16.76L577.843 21H575.463ZM588.153 16.04C588.153 12.96 590.373 10.84 593.433 10.84C596.493 10.84 598.713 12.96 598.713 16.04C598.713 19.12 596.493 21.24 593.433 21.24C590.373 21.24 588.153 19.12 588.153 16.04ZM590.593 16.04C590.593 17.84 591.753 19.06 593.433 19.06C595.113 19.06 596.273 17.84 596.273 16.04C596.273 14.24 595.113 13.02 593.433 13.02C591.753 13.02 590.593 14.24 590.593 16.04ZM606.847 11.08V13.34H605.947C604.187 13.34 603.087 14.28 603.087 16.2V21H600.647V11.14H602.947L603.087 12.58C603.507 11.6 604.447 10.94 605.767 10.94C606.107 10.94 606.447 10.98 606.847 11.08ZM610.958 21H608.538V6.12H610.958V15.26L614.798 11.12H617.858L614.098 15.04L617.778 21H614.978L612.398 16.84L610.958 18.34V21Z" fill="black"/>
<rect x="0.5" y="51.5" width="328" height="395" rx="7.5" fill="white" stroke="black" stroke-dasharray="4 4"/>
<path d="M174.597 277.904C179.538 277.904 182.53 279.831 184.251 282.679C185.929 285.456 186.436 289.172 186.226 293H163.81L147.673 277.904L174.597 277.904Z" fill="white" stroke="#FF8972"/>
<path d="M159.112 277.977L159.114 277.977L172.958 277.916C169.54 279.891 165.502 284.779 165.168 294.347L165.168 294.347L165.168 294.359L164.761 345.849L164.761 345.853C164.752 352.718 159.378 358.161 152.398 358.161H150.374L105.8 342.119L105.872 290.388C105.881 283.534 111.555 277.977 118.546 277.977L159.112 277.977Z" fill="white" stroke="#FF8972"/>
<path d="M149.015 342.486C147.011 348.635 147.017 352.854 148.076 355.587C148.634 357.027 149.481 358.043 150.456 358.697L149.653 358.708H149.649H99.2823C92.8978 358.708 87.729 353.633 87.7377 347.372L87.7444 342.486H149.015Z" fill="white" stroke="#FF8972"/>
<path d="M119.412 294.461H153.884" stroke="#FF8972"/>
<path d="M119.396 306.309H153.868" stroke="#FF8972"/>
<path d="M119.38 318.156H153.851" stroke="#FF8972"/>
<path d="M119.363 330.004H140.386" stroke="#FF8972"/>
<circle cx="22.6706" cy="22.6706" r="22.1706" transform="matrix(1 0 -0.00135443 0.980631 152.813 309.609)" fill="white" stroke="#FF8972"/>
<path d="M164.936 331.518L175.436 317.109L185.97 331.518L175.395 346.571L164.936 331.518Z" fill="white"/>
<path d="M175.436 317.109L164.936 331.518M175.436 317.109L185.97 331.518M175.436 317.109L175.423 326.334M164.936 331.518L175.395 346.571M164.936 331.518L175.423 326.334M164.936 331.518L175.409 336.453M175.395 346.571L185.97 331.518M175.395 346.571L175.409 336.453M185.97 331.518L175.423 326.334M185.97 331.518L175.409 336.453M175.423 326.334L175.416 331.393L175.409 336.453" stroke="#FF8972"/>
<path d="M225.381 314.389C225.373 320.001 220.671 324.561 214.867 324.561C209.062 324.561 204.373 320.001 204.381 314.389C204.389 308.776 209.09 304.217 214.895 304.217C220.699 304.217 225.389 308.776 225.381 314.389Z" fill="white" stroke="#FF8972"/>
<path d="M209.779 314.235L214.873 307.324L219.985 314.235L214.853 321.454L209.779 314.235Z" fill="white"/>
<path d="M214.873 307.324L209.779 314.235M214.873 307.324L219.985 314.235M214.873 307.324L214.867 311.748M209.779 314.235L214.853 321.454M209.779 314.235L214.867 311.748M209.779 314.235L214.86 316.601M214.853 321.454L219.985 314.235M214.853 321.454L214.86 316.601M219.985 314.235L214.867 311.748M219.985 314.235L214.86 316.601M214.867 311.748L214.863 314.175L214.86 316.601" stroke="#FF8972" stroke-width="0.7"/>
<path d="M218.208 283.779C218.202 287.82 214.968 291.068 211.017 291.068C207.067 291.068 203.841 287.82 203.847 283.779C203.852 279.739 207.087 276.49 211.037 276.49C214.988 276.49 218.213 279.739 218.208 283.779Z" fill="white" stroke="#FF8972"/>
<path d="M215.963 283.781C215.959 286.671 213.717 288.962 211.018 288.962C208.32 288.962 206.084 286.671 206.088 283.781C206.092 280.89 208.334 278.6 211.033 278.6C213.731 278.6 215.967 280.89 215.963 283.781Z" fill="white" stroke="#FF8972"/>
<rect x="0.499323" y="0.490315" width="18.425" height="15.1994" rx="1.5" transform="matrix(1 0 -0.00135443 0.980631 201.314 284.49)" fill="white" stroke="#FF8972"/>
<path d="M212.62 292.419C212.619 293.429 212.391 294.32 212.048 294.94C211.695 295.58 211.292 295.824 210.971 295.824C210.65 295.824 210.247 295.58 209.896 294.94C209.555 294.32 209.33 293.429 209.332 292.419C209.333 291.408 209.561 290.518 209.903 289.897C210.256 289.257 210.66 289.014 210.98 289.014C211.301 289.014 211.704 289.257 212.055 289.897C212.396 290.518 212.621 291.408 212.62 292.419Z" fill="white" stroke="#FF8972"/>
<path d="M78.7524 228H75.7004V217.976H78.7244C81.7484 217.976 83.7644 219.992 83.7644 222.988C83.7644 225.984 81.7624 228 78.7524 228ZM78.6824 218.9H76.7084V227.076H78.7104C81.1604 227.076 82.7284 225.48 82.7284 222.988C82.7284 220.482 81.1604 218.9 78.6824 218.9ZM87.3212 228.168C85.8792 228.168 85.0252 227.356 85.0252 226.166C85.0252 224.92 85.9772 224.136 87.5592 224.01L89.7992 223.828V223.604C89.7992 222.274 89.0012 221.854 88.0072 221.854C86.8312 221.854 86.1312 222.386 86.1312 223.296H85.2492C85.2492 221.924 86.3692 221.042 88.0352 221.042C89.6032 221.042 90.7512 221.826 90.7512 223.618V228H89.9392L89.8132 226.81C89.3932 227.664 88.4692 228.168 87.3212 228.168ZM87.5452 227.384C88.9732 227.384 89.7992 226.39 89.7992 224.92V224.556L87.7972 224.71C86.5232 224.822 86.0052 225.382 86.0052 226.138C86.0052 226.964 86.6212 227.384 87.5452 227.384ZM94.1206 228H93.1686V222.036H91.8106V221.224H93.1686V219.082H94.1206V221.224H95.4786V222.036H94.1206V228ZM98.5731 228.168C97.1311 228.168 96.2771 227.356 96.2771 226.166C96.2771 224.92 97.2291 224.136 98.8111 224.01L101.051 223.828V223.604C101.051 222.274 100.253 221.854 99.2591 221.854C98.0831 221.854 97.3831 222.386 97.3831 223.296H96.5011C96.5011 221.924 97.6211 221.042 99.2871 221.042C100.855 221.042 102.003 221.826 102.003 223.618V228H101.191L101.065 226.81C100.645 227.664 99.7211 228.168 98.5731 228.168ZM98.7971 227.384C100.225 227.384 101.051 226.39 101.051 224.92V224.556L99.0491 224.71C97.7751 224.822 97.2571 225.382 97.2571 226.138C97.2571 226.964 97.8731 227.384 98.7971 227.384ZM108.034 228H107.012L110.694 217.976H111.94L115.664 228H114.614L113.634 225.34H109.014L108.034 228ZM111.184 219.39L109.322 224.458H113.312L111.436 219.39C111.394 219.25 111.324 219.082 111.31 218.984C111.296 219.068 111.24 219.25 111.184 219.39ZM118.287 228L115.515 221.224H116.551L118.301 225.592C118.483 226.082 118.665 226.544 118.791 226.992C118.917 226.53 119.099 226.082 119.295 225.592L121.073 221.224H122.067L119.253 228H118.287ZM124.85 228.168C123.408 228.168 122.554 227.356 122.554 226.166C122.554 224.92 123.506 224.136 125.088 224.01L127.328 223.828V223.604C127.328 222.274 126.53 221.854 125.536 221.854C124.36 221.854 123.66 222.386 123.66 223.296H122.778C122.778 221.924 123.898 221.042 125.564 221.042C127.132 221.042 128.28 221.826 128.28 223.618V228H127.468L127.342 226.81C126.922 227.664 125.998 228.168 124.85 228.168ZM125.074 227.384C126.502 227.384 127.328 226.39 127.328 224.92V224.556L125.326 224.71C124.052 224.822 123.534 225.382 123.534 226.138C123.534 226.964 124.15 227.384 125.074 227.384ZM130.695 219.362C130.303 219.362 129.981 219.04 129.981 218.648C129.981 218.256 130.303 217.92 130.695 217.92C131.087 217.92 131.423 218.256 131.423 218.648C131.423 219.04 131.087 219.362 130.695 219.362ZM130.219 228V221.224H131.185V228H130.219ZM134.207 228H133.241V217.794H134.207V228ZM138.208 228.168C136.766 228.168 135.912 227.356 135.912 226.166C135.912 224.92 136.864 224.136 138.446 224.01L140.686 223.828V223.604C140.686 222.274 139.888 221.854 138.894 221.854C137.718 221.854 137.018 222.386 137.018 223.296H136.136C136.136 221.924 137.256 221.042 138.922 221.042C140.49 221.042 141.638 221.826 141.638 223.618V228H140.826L140.7 226.81C140.28 227.664 139.356 228.168 138.208 228.168ZM138.432 227.384C139.86 227.384 140.686 226.39 140.686 224.92V224.556L138.684 224.71C137.41 224.822 136.892 225.382 136.892 226.138C136.892 226.964 137.508 227.384 138.432 227.384ZM144.416 228H143.576V217.794H144.542V222.54C145.018 221.546 145.942 221.042 147.09 221.042C149.064 221.042 150.212 222.582 150.212 224.626C150.212 226.656 149.036 228.168 147.062 228.168C145.928 228.168 144.99 227.664 144.514 226.614L144.416 228ZM144.556 224.598C144.556 226.166 145.424 227.286 146.908 227.286C148.378 227.286 149.232 226.166 149.232 224.598C149.232 223.044 148.378 221.91 146.908 221.91C145.424 221.91 144.556 223.044 144.556 224.598ZM152.228 219.362C151.836 219.362 151.514 219.04 151.514 218.648C151.514 218.256 151.836 217.92 152.228 217.92C152.62 217.92 152.956 218.256 152.956 218.648C152.956 219.04 152.62 219.362 152.228 219.362ZM151.752 228V221.224H152.718V228H151.752ZM155.741 228H154.775V217.794H155.741V228ZM158.271 219.362C157.879 219.362 157.557 219.04 157.557 218.648C157.557 218.256 157.879 217.92 158.271 217.92C158.663 217.92 158.999 218.256 158.999 218.648C158.999 219.04 158.663 219.362 158.271 219.362ZM157.795 228V221.224H158.761V228H157.795ZM162.33 228H161.378V222.036H160.02V221.224H161.378V219.082H162.33V221.224H163.688V222.036H162.33V228ZM164.26 230.954V230.156H165.002C165.59 230.156 166.178 230.114 166.514 229.204L166.808 228.406L164.064 221.224H165.086L167.27 227.132L169.412 221.224H170.406L167.298 229.554C166.906 230.618 166.248 231.052 165.282 231.052C164.876 231.052 164.568 231.024 164.26 230.954ZM176.636 228H175.628V217.976H176.65L182.166 226.32V217.976H183.16V228H182.166L176.636 219.656V228ZM188.241 228.168C186.253 228.168 184.923 226.74 184.923 224.612C184.923 222.498 186.239 221.042 188.171 221.042C190.005 221.042 191.251 222.344 191.251 224.262V224.738H185.861C185.931 226.39 186.799 227.342 188.255 227.342C189.361 227.342 190.075 226.866 190.327 225.97H191.251C190.887 227.398 189.837 228.168 188.241 228.168ZM188.171 221.868C186.897 221.868 186.057 222.708 185.889 224.038H190.285C190.285 222.736 189.445 221.868 188.171 221.868ZM194.281 228H193.329V222.036H191.971V221.224H193.329V219.082H194.281V221.224H195.639V222.036H194.281V228ZM198.325 228L196.085 221.224H197.079L198.409 225.312C198.563 225.76 198.689 226.222 198.829 226.768C198.941 226.222 199.165 225.536 199.235 225.312L200.579 221.224H201.573L202.903 225.312C203.029 225.676 203.197 226.264 203.323 226.768C203.463 226.208 203.491 226.04 203.729 225.312L205.073 221.224H206.081L203.785 228H202.847L201.447 223.744C201.279 223.24 201.167 222.82 201.083 222.414C200.985 222.778 200.873 223.184 200.691 223.744L199.291 228H198.325ZM206.511 224.612C206.511 222.54 207.967 221.042 209.955 221.042C211.943 221.042 213.399 222.54 213.399 224.612C213.399 226.67 211.943 228.168 209.955 228.168C207.967 228.168 206.511 226.67 206.511 224.612ZM207.491 224.598C207.491 226.194 208.499 227.3 209.955 227.3C211.397 227.3 212.419 226.194 212.419 224.598C212.419 223.03 211.397 221.91 209.955 221.91C208.499 221.91 207.491 223.03 207.491 224.598ZM218.486 221.14V222.008H217.954C216.708 222.008 215.91 222.848 215.91 224.136V228H214.944V221.224H215.854L215.924 222.274C216.19 221.546 216.904 221.07 217.856 221.07C218.066 221.07 218.248 221.084 218.486 221.14ZM220.778 228H219.812V217.794H220.778V224.724L224.138 221.224H225.356L222.752 223.926L225.37 228H224.25L222.094 224.612L220.778 225.97V228Z" fill="black"/>
<circle cx="137.5" cy="144.227" r="44" fill="white" stroke="#FF8972"/>
<path d="M94.0195 144.227H181.344" stroke="#FF8972"/>
<path d="M137.68 187.883L137.68 100.558" stroke="#FF8972"/>
<ellipse cx="138.381" cy="144.225" rx="23.6517" ry="43.6622" stroke="#FF8972"/>
<path d="M170.977 115.613C162.078 122.324 150.352 126.401 137.502 126.401C124.588 126.401 112.809 122.283 103.894 115.512" stroke="#FF8972"/>
<path d="M170.977 172.836C162.078 166.125 150.352 162.048 137.502 162.048C124.588 162.048 112.809 166.166 103.894 172.938" stroke="#FF8972"/>
<circle cx="114.731" cy="144.226" r="5.06182" fill="white" stroke="#FF8972"/>
<circle cx="103.893" cy="115.394" r="5.06182" fill="white" stroke="#FF8972"/>
<circle cx="171.735" cy="115.394" r="5.06182" fill="white" stroke="#FF8972"/>
<circle cx="158.723" cy="165.339" r="5.06182" fill="white" stroke="#FF8972"/>
<circle cx="132.821" cy="100.562" r="5.06182" fill="white" stroke="#FF8972"/>
<circle cx="142.997" cy="186.195" r="5.06182" fill="white" stroke="#FF8972"/>
<path d="M171.736 147.539H181.323" stroke="#FF8972"/>
<path d="M171.735 152.93H189.861" stroke="#FF8972"/>
<path d="M171.735 157.797H189.861" stroke="#FF8972"/>
<path d="M171.735 162.66H189.861" stroke="#FF8972"/>
<path d="M189.265 144.215C188.673 144.238 188.186 143.752 188.209 143.159L188.414 137.909C188.449 137.023 189.522 136.603 190.149 137.23L195.194 142.275C195.821 142.902 195.401 143.975 194.515 144.01L189.265 144.215Z" fill="white" stroke="#FF8972"/>
<path d="M172.033 167.974H197.008C198.684 167.974 200.042 166.616 200.042 164.94V140.117C200.042 139.776 199.94 139.442 199.749 139.159C199.689 139.07 199.621 138.987 199.545 138.911L193.509 132.824C193.382 132.696 193.234 132.591 193.071 132.513C192.862 132.415 192.635 132.363 192.404 132.363H172.033C170.357 132.363 168.999 133.721 168.999 135.397V164.94C168.999 166.616 170.357 167.974 172.033 167.974Z" fill="white"/>
<path d="M172.033 168.474H197.008C198.96 168.474 200.542 166.892 200.542 164.94V140.857C200.542 139.915 200.166 139.012 199.497 138.348L193.993 132.888C193.332 132.232 192.437 131.863 191.505 131.863H172.033C170.081 131.863 168.499 133.445 168.499 135.397V164.94C168.499 166.892 170.081 168.474 172.033 168.474Z" fill="white" stroke="#FF8972"/>
<path d="M175.458 143.816H185.044" stroke="#FF8972"/>
<path d="M175.457 149.207H193.583" stroke="#FF8972"/>
<path d="M175.457 154.074H193.583" stroke="#FF8972"/>
<path d="M175.457 158.938H193.583" stroke="#FF8972"/>
<path d="M192.987 140.492C192.394 140.515 191.908 140.029 191.931 139.437L192.136 134.187C192.171 133.3 193.244 132.88 193.871 133.507L198.916 138.552C199.543 139.179 199.123 140.253 198.237 140.287L192.987 140.492Z" fill="white" stroke="#FF8972"/>
<path d="M175.756 164.783H200.732C202.407 164.783 203.766 163.424 203.766 161.749V136.926C203.766 136.584 203.664 136.251 203.473 135.968C203.413 135.879 203.344 135.796 203.269 135.72L197.233 129.633C197.106 129.504 196.958 129.399 196.794 129.322C196.586 129.223 196.358 129.172 196.128 129.172H175.756C174.081 129.172 172.723 130.53 172.723 132.205V161.749C172.723 163.424 174.081 164.783 175.756 164.783Z" fill="white"/>
<path d="M201.173 164.283H175.757C174.358 164.283 173.224 163.148 173.224 161.749V131.698C173.224 130.298 174.358 129.164 175.757 129.164H195.911C196.585 129.164 197.231 129.433 197.706 129.91L198.06 129.557L197.706 129.91L202.968 135.195C203.441 135.67 203.706 136.313 203.706 136.983V161.749C203.706 163.148 202.572 164.283 201.173 164.283Z" fill="white" stroke="#FF8972"/>
<path d="M179.182 140.625H188.768" stroke="#FF8972"/>
<path d="M179.182 146.023H197.307" stroke="#FF8972"/>
<path d="M179.181 150.883H197.307" stroke="#FF8972"/>
<path d="M179.181 155.746H197.307" stroke="#FF8972"/>
<path d="M196.431 137.545C195.839 137.568 195.352 137.082 195.376 136.49L195.622 130.179C195.657 129.293 196.73 128.873 197.357 129.5L203.421 135.564C204.048 136.191 203.628 137.264 202.742 137.299L196.431 137.545Z" fill="white" stroke="#FF8972"/>
<path d="M68.6625 397H62.6565V386.976H68.6485V387.9H63.6645V391.512H68.1865V392.422H63.6645V396.076H68.6625V397ZM72.0532 397H71.1012V391.036H69.7432V390.224H71.1012V388.082H72.0532V390.224H73.4112V391.036H72.0532V397ZM75.6351 396.986H74.6691V386.794H75.6351V391.4C76.0691 390.588 76.8951 390.042 78.0291 390.042C79.8071 390.042 80.6051 391.148 80.6051 392.856V397H79.6391V393.066C79.6391 391.484 78.8971 390.924 77.8471 390.924C76.3911 390.924 75.6351 392.002 75.6351 393.304V396.986ZM82.1385 389.58C82.1385 387.9 83.4825 386.794 85.4985 386.794C87.3045 386.794 88.4945 387.802 88.6485 389.482H87.6265C87.5145 388.348 86.7445 387.704 85.4845 387.704C84.0705 387.704 83.1465 388.432 83.1465 389.566C83.1465 390.448 83.6645 391.008 84.7145 391.274L86.4365 391.694C88.0045 392.072 88.8165 392.968 88.8165 394.326C88.8165 396.062 87.4725 397.168 85.4005 397.168C83.4545 397.168 82.1385 396.146 82.0125 394.508H83.0485C83.1045 395.558 84.0285 396.244 85.4005 396.244C86.8705 396.244 87.8085 395.53 87.8085 394.382C87.8085 393.486 87.3045 392.898 86.2265 392.646L84.5325 392.226C82.9645 391.848 82.1385 390.952 82.1385 389.58ZM91.9731 397H91.0211V391.036H89.6631V390.224H91.0211V388.082H91.9731V390.224H93.3311V391.036H91.9731V397ZM94.0447 393.612C94.0447 391.54 95.5007 390.042 97.4887 390.042C99.4767 390.042 100.933 391.54 100.933 393.612C100.933 395.67 99.4767 397.168 97.4887 397.168C95.5007 397.168 94.0447 395.67 94.0447 393.612ZM95.0247 393.598C95.0247 395.194 96.0327 396.3 97.4887 396.3C98.9307 396.3 99.9527 395.194 99.9527 393.598C99.9527 392.03 98.9307 390.91 97.4887 390.91C96.0327 390.91 95.0247 392.03 95.0247 393.598ZM106.02 390.14V391.008H105.488C104.242 391.008 103.444 391.848 103.444 393.136V397H102.478V390.224H103.388L103.458 391.274C103.724 390.546 104.438 390.07 105.39 390.07C105.6 390.07 105.782 390.084 106.02 390.14ZM108.976 397.168C107.534 397.168 106.68 396.356 106.68 395.166C106.68 393.92 107.632 393.136 109.214 393.01L111.454 392.828V392.604C111.454 391.274 110.656 390.854 109.662 390.854C108.486 390.854 107.786 391.386 107.786 392.296H106.904C106.904 390.924 108.024 390.042 109.69 390.042C111.258 390.042 112.406 390.826 112.406 392.618V397H111.594L111.468 395.81C111.048 396.664 110.124 397.168 108.976 397.168ZM109.2 396.384C110.628 396.384 111.454 395.39 111.454 393.92V393.556L109.452 393.71C108.178 393.822 107.66 394.382 107.66 395.138C107.66 395.964 108.276 396.384 109.2 396.384ZM113.883 393.416C113.883 391.568 115.073 390.042 117.061 390.042C118.237 390.042 119.133 390.588 119.567 391.582L119.665 390.224H120.505V396.79C120.505 398.806 119.217 400.122 117.229 400.122C115.493 400.122 114.275 399.142 114.009 397.504H114.975C115.185 398.596 116.025 399.24 117.243 399.24C118.629 399.24 119.553 398.302 119.553 396.888V395.278C119.091 396.23 118.153 396.79 116.991 396.79C115.059 396.79 113.883 395.264 113.883 393.416ZM114.849 393.402C114.849 394.788 115.703 395.922 117.131 395.922C118.601 395.922 119.469 394.858 119.469 393.402C119.469 391.96 118.629 390.896 117.145 390.896C115.689 390.896 114.849 392.03 114.849 393.402ZM125.363 397.168C123.375 397.168 122.045 395.74 122.045 393.612C122.045 391.498 123.361 390.042 125.293 390.042C127.127 390.042 128.373 391.344 128.373 393.262V393.738H122.983C123.053 395.39 123.921 396.342 125.377 396.342C126.483 396.342 127.197 395.866 127.449 394.97H128.373C128.009 396.398 126.959 397.168 125.363 397.168ZM125.293 390.868C124.019 390.868 123.179 391.708 123.011 393.038H127.407C127.407 391.736 126.567 390.868 125.293 390.868ZM133.408 389.58C133.408 387.9 134.752 386.794 136.768 386.794C138.574 386.794 139.764 387.802 139.918 389.482H138.896C138.784 388.348 138.014 387.704 136.754 387.704C135.34 387.704 134.416 388.432 134.416 389.566C134.416 390.448 134.934 391.008 135.984 391.274L137.706 391.694C139.274 392.072 140.086 392.968 140.086 394.326C140.086 396.062 138.742 397.168 136.67 397.168C134.724 397.168 133.408 396.146 133.282 394.508H134.318C134.374 395.558 135.298 396.244 136.67 396.244C138.14 396.244 139.078 395.53 139.078 394.382C139.078 393.486 138.574 392.898 137.496 392.646L135.802 392.226C134.234 391.848 133.408 390.952 133.408 389.58ZM143.243 397H142.291V391.036H140.933V390.224H142.291V388.082H143.243V390.224H144.601V391.036H143.243V397ZM145.314 393.612C145.314 391.54 146.77 390.042 148.758 390.042C150.746 390.042 152.202 391.54 152.202 393.612C152.202 395.67 150.746 397.168 148.758 397.168C146.77 397.168 145.314 395.67 145.314 393.612ZM146.294 393.598C146.294 395.194 147.302 396.3 148.758 396.3C150.2 396.3 151.222 395.194 151.222 393.598C151.222 392.03 150.2 390.91 148.758 390.91C147.302 390.91 146.294 392.03 146.294 393.598ZM157.289 390.14V391.008H156.757C155.511 391.008 154.713 391.848 154.713 393.136V397H153.747V390.224H154.657L154.727 391.274C154.993 390.546 155.707 390.07 156.659 390.07C156.869 390.07 157.051 390.084 157.289 390.14ZM160.246 397.168C158.804 397.168 157.95 396.356 157.95 395.166C157.95 393.92 158.902 393.136 160.484 393.01L162.724 392.828V392.604C162.724 391.274 161.926 390.854 160.932 390.854C159.756 390.854 159.056 391.386 159.056 392.296H158.174C158.174 390.924 159.294 390.042 160.96 390.042C162.528 390.042 163.676 390.826 163.676 392.618V397H162.864L162.738 395.81C162.318 396.664 161.394 397.168 160.246 397.168ZM160.47 396.384C161.898 396.384 162.724 395.39 162.724 393.92V393.556L160.722 393.71C159.448 393.822 158.93 394.382 158.93 395.138C158.93 395.964 159.546 396.384 160.47 396.384ZM165.152 393.416C165.152 391.568 166.342 390.042 168.33 390.042C169.506 390.042 170.402 390.588 170.836 391.582L170.934 390.224H171.774V396.79C171.774 398.806 170.486 400.122 168.498 400.122C166.762 400.122 165.544 399.142 165.278 397.504H166.244C166.454 398.596 167.294 399.24 168.512 399.24C169.898 399.24 170.822 398.302 170.822 396.888V395.278C170.36 396.23 169.422 396.79 168.26 396.79C166.328 396.79 165.152 395.264 165.152 393.416ZM166.118 393.402C166.118 394.788 166.972 395.922 168.4 395.922C169.87 395.922 170.738 394.858 170.738 393.402C170.738 391.96 169.898 390.896 168.414 390.896C166.958 390.896 166.118 392.03 166.118 393.402ZM176.632 397.168C174.644 397.168 173.314 395.74 173.314 393.612C173.314 391.498 174.63 390.042 176.562 390.042C178.396 390.042 179.642 391.344 179.642 393.262V393.738H174.252C174.322 395.39 175.19 396.342 176.646 396.342C177.752 396.342 178.466 395.866 178.718 394.97H179.642C179.278 396.398 178.228 397.168 176.632 397.168ZM176.562 390.868C175.288 390.868 174.448 391.708 174.28 393.038H178.676C178.676 391.736 177.836 390.868 176.562 390.868ZM189.368 397.154C186.568 397.154 184.664 395.068 184.664 391.988C184.664 388.908 186.596 386.808 189.424 386.808C191.58 386.808 193.274 388.11 193.68 390.098H192.602C192.182 388.656 190.95 387.774 189.382 387.774C187.184 387.774 185.714 389.454 185.714 391.988C185.714 394.508 187.184 396.188 189.382 396.188C190.964 396.188 192.224 395.334 192.658 393.99H193.736C193.274 395.88 191.524 397.154 189.368 397.154ZM194.793 393.612C194.793 391.54 196.249 390.042 198.237 390.042C200.225 390.042 201.681 391.54 201.681 393.612C201.681 395.67 200.225 397.168 198.237 397.168C196.249 397.168 194.793 395.67 194.793 393.612ZM195.773 393.598C195.773 395.194 196.781 396.3 198.237 396.3C199.679 396.3 200.701 395.194 200.701 393.598C200.701 392.03 199.679 390.91 198.237 390.91C196.781 390.91 195.773 392.03 195.773 393.598ZM204.192 397H203.226V390.224H204.066L204.206 391.4C204.654 390.532 205.55 390.042 206.53 390.042C208.392 390.042 209.162 391.148 209.162 392.856V397H208.196V393.066C208.196 391.484 207.482 390.924 206.362 390.924C204.976 390.924 204.192 391.932 204.192 393.458V397ZM212.641 397H211.689V391.036H210.331V390.224H211.689V388.082H212.641V390.224H213.999V391.036H212.641V397ZM218.799 390.14V391.008H218.267C217.021 391.008 216.223 391.848 216.223 393.136V397H215.257V390.224H216.167L216.237 391.274C216.503 390.546 217.217 390.07 218.169 390.07C218.379 390.07 218.561 390.084 218.799 390.14ZM221.756 397.168C220.314 397.168 219.46 396.356 219.46 395.166C219.46 393.92 220.412 393.136 221.994 393.01L224.234 392.828V392.604C224.234 391.274 223.436 390.854 222.442 390.854C221.266 390.854 220.566 391.386 220.566 392.296H219.684C219.684 390.924 220.804 390.042 222.47 390.042C224.038 390.042 225.186 390.826 225.186 392.618V397H224.374L224.248 395.81C223.828 396.664 222.904 397.168 221.756 397.168ZM221.98 396.384C223.408 396.384 224.234 395.39 224.234 393.92V393.556L222.232 393.71C220.958 393.822 220.44 394.382 220.44 395.138C220.44 395.964 221.056 396.384 221.98 396.384ZM226.648 393.626C226.648 391.498 227.95 390.042 229.924 390.042C231.492 390.042 232.64 390.952 232.906 392.352H231.94C231.688 391.414 230.876 390.896 229.938 390.896C228.566 390.896 227.6 391.946 227.6 393.612C227.6 395.222 228.496 396.3 229.868 396.3C230.876 396.3 231.688 395.74 231.954 394.872H232.934C232.612 396.258 231.408 397.168 229.868 397.168C227.95 397.168 226.648 395.754 226.648 393.626ZM235.952 397H235V391.036H233.642V390.224H235V388.082H235.952V390.224H237.31V391.036H235.952V397Z" fill="black"/>
<path d="M357.68 287.477L268.629 287.477" stroke="black"/>
<path d="M461.633 287.5H352.535" stroke="black"/>
<path d="M461.306 283.496L467.53 287.656L461.306 291.816L461.306 283.496Z" fill="black"/>
<rect width="23.6023" height="21.8651" transform="translate(230.457 278.129)" fill="white"/>
<path d="M232.146 299.327H246.048C246.981 299.327 247.737 298.57 247.737 297.638V283.82C247.737 283.63 247.68 283.444 247.574 283.287C247.541 283.237 247.503 283.191 247.461 283.149L244.101 279.76C244.03 279.689 243.947 279.63 243.857 279.587C243.741 279.532 243.614 279.504 243.485 279.504H232.146C231.213 279.504 230.457 280.26 230.457 281.193V297.638C230.457 298.57 231.213 299.327 232.146 299.327Z" fill="white"/>
<path d="M243.68 279.504H232.146C231.213 279.504 230.457 280.26 230.457 281.193V297.638C230.457 298.57 231.213 299.327 232.146 299.327H246.048C246.981 299.327 247.737 298.57 247.737 297.638V283.528" stroke="#FF8972"/>
<path d="M234.052 285.883H239.388" stroke="#FF8972" stroke-linecap="round"/>
<path d="M234.053 290.086H244.142" stroke="#FF8972" stroke-linecap="round"/>
<path d="M234.052 294.297H244.141" stroke="#FF8972" stroke-linecap="round"/>
<path d="M243.49 283.953C243.373 283.957 243.277 283.862 243.282 283.745L243.438 279.748C243.445 279.573 243.656 279.49 243.78 279.614L247.621 283.455C247.744 283.579 247.662 283.79 247.487 283.797L243.49 283.953Z" fill="white" stroke="#FF8972"/>
<rect x="246.313" y="293.332" width="1.53003" height="8.42554" rx="0.765015" transform="rotate(-45 246.313 293.332)" fill="white" stroke="#FF8972"/>
<circle cx="245.269" cy="291.453" r="5.06982" fill="white" stroke="#FF8972"/>
<circle cx="245.269" cy="291.452" r="3.66675" stroke="#FF8972" stroke-width="0.5"/>
<circle cx="365.022" cy="287.642" r="16.8801" fill="white"/>
<path d="M375.515 287.662C375.507 293.275 370.805 297.834 365.001 297.834C359.196 297.834 354.507 293.275 354.515 287.662C354.522 282.05 359.224 277.49 365.029 277.49C370.833 277.49 375.522 282.05 375.515 287.662Z" fill="white" stroke="#FF8972"/>
<path d="M359.912 287.508L365.007 280.598L370.118 287.508L364.987 294.727L359.912 287.508Z" fill="white"/>
<path d="M365.007 280.598L359.912 287.508M365.007 280.598L370.118 287.508M365.007 280.598L365.001 285.022M359.912 287.508L364.987 294.727M359.912 287.508L365.001 285.022M359.912 287.508L364.994 289.875M364.987 294.727L370.118 287.508M364.987 294.727L364.994 289.875M370.118 287.508L365.001 285.022M370.118 287.508L364.994 289.875M365.001 285.022L364.997 287.448L364.994 289.875" stroke="#FF8972" stroke-width="0.7"/>
</svg>
