<svg width="773" height="447" viewBox="0 0 773 447" fill="none" xmlns="http://www.w3.org/2000/svg">
<path d="M11.115 21H2.03504V6.38H11.115V8.74H4.59504V12.5H10.435V14.76H4.59504V18.64H11.115V21ZM16.8905 21H14.4505V13.16H12.5505V11.12H14.4505V8.04H16.8905V11.12H18.8105V13.16H16.8905V21ZM22.7674 21H20.3274V6.12H22.7874V12.4C23.4074 11.44 24.5674 10.82 25.9874 10.82C28.4274 10.82 29.7074 12.36 29.7074 14.92V21H27.2674V15.5C27.2674 13.84 26.4474 13.04 25.2074 13.04C23.6674 13.04 22.7674 14.12 22.7674 15.6V21ZM36.5247 21.26C33.5847 21.26 31.5247 19.12 31.5247 16.06C31.5247 12.96 33.5447 10.82 36.4447 10.82C39.4047 10.82 41.2847 12.8 41.2847 15.88V16.62L33.8447 16.64C34.0247 18.38 34.9447 19.26 36.5647 19.26C37.9047 19.26 38.7847 18.74 39.0647 17.8H41.3247C40.9047 19.96 39.1047 21.26 36.5247 21.26ZM36.4647 12.82C35.0247 12.82 34.1447 13.6 33.9047 15.08H38.8647C38.8647 13.72 37.9247 12.82 36.4647 12.82ZM49.4375 11.08V13.34H48.5375C46.7775 13.34 45.6775 14.28 45.6775 16.2V21H43.2375V11.14H45.5375L45.6775 12.58C46.0975 11.6 47.0375 10.94 48.3575 10.94C48.6975 10.94 49.0375 10.98 49.4375 11.08ZM55.1771 21.26C52.2371 21.26 50.1771 19.12 50.1771 16.06C50.1771 12.96 52.1971 10.82 55.0971 10.82C58.0571 10.82 59.9371 12.8 59.9371 15.88V16.62L52.4971 16.64C52.6771 18.38 53.5971 19.26 55.2171 19.26C56.5571 19.26 57.4371 18.74 57.7171 17.8H59.9771C59.5571 19.96 57.7571 21.26 55.1771 21.26ZM55.1171 12.82C53.6771 12.82 52.7971 13.6 52.5571 15.08H57.5171C57.5171 13.72 56.5771 12.82 55.1171 12.82ZM68.5899 11.12H71.0299V21H68.7699L68.5899 19.68C67.9899 20.62 66.7099 21.26 65.3899 21.26C63.1099 21.26 61.7699 19.72 61.7699 17.3V11.12H64.2099V16.44C64.2099 18.32 64.9499 19.08 66.3099 19.08C67.8499 19.08 68.5899 18.18 68.5899 16.3V11.12ZM75.99 21H73.55V11.12H75.79L75.99 12.28C76.49 11.46 77.49 10.82 78.91 10.82C80.41 10.82 81.45 11.56 81.97 12.7C82.47 11.56 83.63 10.82 85.13 10.82C87.53 10.82 88.85 12.26 88.85 14.54V21H86.43V15.18C86.43 13.76 85.67 13.02 84.51 13.02C83.33 13.02 82.43 13.78 82.43 15.4V21H79.99V15.16C79.99 13.78 79.25 13.04 78.09 13.04C76.93 13.04 75.99 13.8 75.99 15.4V21ZM99.556 6.38V18.64H105.676V21H96.996V6.38H99.556ZM110.018 8.68H106.818V6.38H112.478V21H110.018V8.68Z" fill="black"/>
<rect x="403.5" y="51.5" width="369" height="395" rx="7.5" fill="white" stroke="black" stroke-dasharray="4 4"/>
<path d="M413.7 21H404.62V6.38H413.7V8.74H407.18V12.5H413.02V14.76H407.18V18.64H413.7V21ZM419.475 21H417.035V13.16H415.135V11.12H417.035V8.04H419.475V11.12H421.395V13.16H419.475V21ZM425.352 21H422.912V6.12H425.372V12.4C425.992 11.44 427.152 10.82 428.572 10.82C431.012 10.82 432.292 12.36 432.292 14.92V21H429.852V15.5C429.852 13.84 429.032 13.04 427.792 13.04C426.252 13.04 425.352 14.12 425.352 15.6V21ZM434.21 10.46C434.21 7.9 436.33 6.12 439.41 6.12C442.37 6.12 444.25 7.76 444.33 10.4H441.77C441.71 9.14 440.81 8.4 439.37 8.4C437.79 8.4 436.77 9.16 436.77 10.38C436.77 11.42 437.33 12 438.55 12.28L440.85 12.78C443.35 13.32 444.57 14.6 444.57 16.78C444.57 19.5 442.45 21.26 439.23 21.26C436.11 21.26 434.07 19.6 434.01 16.98H436.57C436.59 18.22 437.59 18.96 439.23 18.96C440.93 18.96 442.01 18.22 442.01 17C442.01 16.02 441.51 15.44 440.31 15.18L437.99 14.66C435.51 14.12 434.21 12.7 434.21 10.46ZM449.886 21H447.446V13.16H445.546V11.12H447.446V8.04H449.886V11.12H451.806V13.16H449.886V21ZM452.645 16.04C452.645 12.96 454.865 10.84 457.925 10.84C460.985 10.84 463.205 12.96 463.205 16.04C463.205 19.12 460.985 21.24 457.925 21.24C454.865 21.24 452.645 19.12 452.645 16.04ZM455.085 16.04C455.085 17.84 456.245 19.06 457.925 19.06C459.605 19.06 460.765 17.84 460.765 16.04C460.765 14.24 459.605 13.02 457.925 13.02C456.245 13.02 455.085 14.24 455.085 16.04ZM471.339 11.08V13.34H470.439C468.679 13.34 467.579 14.28 467.579 16.2V21H465.139V11.14H467.439L467.579 12.58C467.999 11.6 468.939 10.94 470.259 10.94C470.599 10.94 470.939 10.98 471.339 11.08ZM475.54 21.26C473.44 21.26 472.16 20.04 472.16 18.18C472.16 16.36 473.48 15.22 475.82 15.04L478.78 14.82V14.6C478.78 13.26 477.98 12.72 476.74 12.72C475.3 12.72 474.5 13.32 474.5 14.36H472.42C472.42 12.22 474.18 10.82 476.86 10.82C479.52 10.82 481.16 12.26 481.16 15V21H479.02L478.84 19.54C478.42 20.56 477.08 21.26 475.54 21.26ZM476.34 19.42C477.84 19.42 478.8 18.52 478.8 17V16.48L476.74 16.64C475.22 16.78 474.64 17.28 474.64 18.08C474.64 18.98 475.24 19.42 476.34 19.42ZM482.997 15.84C482.997 12.96 484.877 10.8 487.697 10.8C489.177 10.8 490.337 11.42 490.917 12.48L491.057 11.12H493.317V20.5C493.317 23.8 491.337 25.86 488.137 25.86C485.297 25.86 483.357 24.24 483.057 21.6H485.497C485.657 22.88 486.637 23.64 488.137 23.64C489.817 23.64 490.897 22.58 490.897 20.94V19.3C490.277 20.22 489.057 20.8 487.637 20.8C484.837 20.8 482.997 18.7 482.997 15.84ZM485.457 15.78C485.457 17.44 486.517 18.68 488.117 18.68C489.797 18.68 490.837 17.5 490.837 15.78C490.837 14.1 489.817 12.94 488.117 12.94C486.497 12.94 485.457 14.16 485.457 15.78ZM500.262 21.26C497.322 21.26 495.262 19.12 495.262 16.06C495.262 12.96 497.282 10.82 500.182 10.82C503.142 10.82 505.022 12.8 505.022 15.88V16.62L497.582 16.64C497.762 18.38 498.682 19.26 500.302 19.26C501.642 19.26 502.522 18.74 502.802 17.8H505.062C504.642 19.96 502.842 21.26 500.262 21.26ZM500.202 12.82C498.762 12.82 497.882 13.6 497.642 15.08H502.602C502.602 13.72 501.662 12.82 500.202 12.82ZM515.285 6.38V18.64H521.405V21H512.725V6.38H515.285ZM532.927 20.98L522.787 21V19.08L527.567 15.04C529.547 13.36 530.207 12.4 530.207 11C530.207 9.34 529.307 8.4 527.767 8.4C526.167 8.4 525.167 9.52 525.147 11.4H522.607C522.627 8.2 524.667 6.12 527.767 6.12C530.887 6.12 532.827 7.9 532.827 10.86C532.827 12.9 531.707 14.44 529.487 16.34L526.847 18.6H532.927V20.98ZM543.175 21H540.655V6.38H543.195L550.055 16.74V6.38H552.575V21H550.055L543.175 10.64V21ZM559.871 21.26C556.931 21.26 554.871 19.12 554.871 16.06C554.871 12.96 556.891 10.82 559.791 10.82C562.751 10.82 564.631 12.8 564.631 15.88V16.62L557.191 16.64C557.371 18.38 558.291 19.26 559.911 19.26C561.251 19.26 562.131 18.74 562.411 17.8H564.671C564.251 19.96 562.451 21.26 559.871 21.26ZM559.811 12.82C558.371 12.82 557.491 13.6 557.251 15.08H562.211C562.211 13.72 561.271 12.82 559.811 12.82ZM569.847 21H567.407V13.16H565.507V11.12H567.407V8.04H569.847V11.12H571.767V13.16H569.847V21ZM575.463 21L572.263 11.12H574.803L576.103 15.36C576.323 16.14 576.523 17 576.703 17.92C576.883 16.96 577.063 16.34 577.383 15.36L578.743 11.12H581.223L582.543 15.36C582.663 15.76 583.063 17.24 583.183 17.9C583.343 17.16 583.663 15.98 583.843 15.36L585.163 11.12H587.743L584.323 21H582.043L580.683 16.72C580.283 15.42 580.063 14.48 579.983 13.98C579.883 14.44 579.703 15.14 579.203 16.76L577.843 21H575.463ZM588.153 16.04C588.153 12.96 590.373 10.84 593.433 10.84C596.493 10.84 598.713 12.96 598.713 16.04C598.713 19.12 596.493 21.24 593.433 21.24C590.373 21.24 588.153 19.12 588.153 16.04ZM590.593 16.04C590.593 17.84 591.753 19.06 593.433 19.06C595.113 19.06 596.273 17.84 596.273 16.04C596.273 14.24 595.113 13.02 593.433 13.02C591.753 13.02 590.593 14.24 590.593 16.04ZM606.847 11.08V13.34H605.947C604.187 13.34 603.087 14.28 603.087 16.2V21H600.647V11.14H602.947L603.087 12.58C603.507 11.6 604.447 10.94 605.767 10.94C606.107 10.94 606.447 10.98 606.847 11.08ZM610.958 21H608.538V6.12H610.958V15.26L614.798 11.12H617.858L614.098 15.04L617.778 21H614.978L612.398 16.84L610.958 18.34V21Z" fill="black"/>
<path d="M533.616 393.58C533.616 391.9 534.96 390.794 536.976 390.794C538.782 390.794 539.972 391.802 540.126 393.482H539.104C538.992 392.348 538.222 391.704 536.962 391.704C535.548 391.704 534.624 392.432 534.624 393.566C534.624 394.448 535.142 395.008 536.192 395.274L537.914 395.694C539.482 396.072 540.294 396.968 540.294 398.326C540.294 400.062 538.95 401.168 536.878 401.168C534.932 401.168 533.616 400.146 533.49 398.508H534.526C534.582 399.558 535.506 400.244 536.878 400.244C538.348 400.244 539.286 399.53 539.286 398.382C539.286 397.486 538.782 396.898 537.704 396.646L536.01 396.226C534.442 395.848 533.616 394.952 533.616 393.58ZM543.451 401H542.499V395.036H541.141V394.224H542.499V392.082H543.451V394.224H544.809V395.036H543.451V401ZM545.522 397.612C545.522 395.54 546.978 394.042 548.966 394.042C550.954 394.042 552.41 395.54 552.41 397.612C552.41 399.67 550.954 401.168 548.966 401.168C546.978 401.168 545.522 399.67 545.522 397.612ZM546.502 397.598C546.502 399.194 547.51 400.3 548.966 400.3C550.408 400.3 551.43 399.194 551.43 397.598C551.43 396.03 550.408 394.91 548.966 394.91C547.51 394.91 546.502 396.03 546.502 397.598ZM557.497 394.14V395.008H556.965C555.719 395.008 554.921 395.848 554.921 397.136V401H553.955V394.224H554.865L554.935 395.274C555.201 394.546 555.915 394.07 556.867 394.07C557.077 394.07 557.259 394.084 557.497 394.14ZM560.454 401.168C559.012 401.168 558.158 400.356 558.158 399.166C558.158 397.92 559.11 397.136 560.692 397.01L562.932 396.828V396.604C562.932 395.274 562.134 394.854 561.14 394.854C559.964 394.854 559.264 395.386 559.264 396.296H558.382C558.382 394.924 559.502 394.042 561.168 394.042C562.736 394.042 563.884 394.826 563.884 396.618V401H563.072L562.946 399.81C562.526 400.664 561.602 401.168 560.454 401.168ZM560.678 400.384C562.106 400.384 562.932 399.39 562.932 397.92V397.556L560.93 397.71C559.656 397.822 559.138 398.382 559.138 399.138C559.138 399.964 559.754 400.384 560.678 400.384ZM565.36 397.416C565.36 395.568 566.55 394.042 568.538 394.042C569.714 394.042 570.61 394.588 571.044 395.582L571.142 394.224H571.982V400.79C571.982 402.806 570.694 404.122 568.706 404.122C566.97 404.122 565.752 403.142 565.486 401.504H566.452C566.662 402.596 567.502 403.24 568.72 403.24C570.106 403.24 571.03 402.302 571.03 400.888V399.278C570.568 400.23 569.63 400.79 568.468 400.79C566.536 400.79 565.36 399.264 565.36 397.416ZM566.326 397.402C566.326 398.788 567.18 399.922 568.608 399.922C570.078 399.922 570.946 398.858 570.946 397.402C570.946 395.96 570.106 394.896 568.622 394.896C567.166 394.896 566.326 396.03 566.326 397.402ZM576.84 401.168C574.852 401.168 573.522 399.74 573.522 397.612C573.522 395.498 574.838 394.042 576.77 394.042C578.604 394.042 579.85 395.344 579.85 397.262V397.738H574.46C574.53 399.39 575.398 400.342 576.854 400.342C577.96 400.342 578.674 399.866 578.926 398.97H579.85C579.486 400.398 578.436 401.168 576.84 401.168ZM576.77 394.868C575.496 394.868 574.656 395.708 574.488 397.038H578.884C578.884 395.736 578.044 394.868 576.77 394.868ZM589.31 397.318H586.496V401H585.488V390.976H589.31C591.242 390.976 592.46 392.236 592.46 394.126C592.46 395.946 591.228 397.318 589.31 397.318ZM589.17 391.886H586.496V396.408H589.114C590.57 396.408 591.41 395.484 591.41 394.112C591.41 392.726 590.556 391.886 589.17 391.886ZM597.419 394.14V395.008H596.887C595.641 395.008 594.843 395.848 594.843 397.136V401H593.877V394.224H594.787L594.857 395.274C595.123 394.546 595.837 394.07 596.789 394.07C596.999 394.07 597.181 394.084 597.419 394.14ZM597.968 397.612C597.968 395.54 599.424 394.042 601.412 394.042C603.4 394.042 604.856 395.54 604.856 397.612C604.856 399.67 603.4 401.168 601.412 401.168C599.424 401.168 597.968 399.67 597.968 397.612ZM598.948 397.598C598.948 399.194 599.956 400.3 601.412 400.3C602.854 400.3 603.876 399.194 603.876 397.598C603.876 396.03 602.854 394.91 601.412 394.91C599.956 394.91 598.948 396.03 598.948 397.598ZM607.99 401L605.218 394.224H606.254L608.004 398.592C608.186 399.082 608.368 399.544 608.494 399.992C608.62 399.53 608.802 399.082 608.998 398.592L610.776 394.224H611.77L608.956 401H607.99ZM613.384 392.362C612.992 392.362 612.67 392.04 612.67 391.648C612.67 391.256 612.992 390.92 613.384 390.92C613.776 390.92 614.112 391.256 614.112 391.648C614.112 392.04 613.776 392.362 613.384 392.362ZM612.908 401V394.224H613.874V401H612.908ZM618.549 401.168C616.575 401.168 615.413 399.656 615.413 397.626C615.413 395.582 616.575 394.042 618.591 394.042C619.711 394.042 620.607 394.532 621.083 395.512V390.794H622.049V401H621.209L621.111 399.614C620.635 400.664 619.683 401.168 618.549 401.168ZM618.717 400.286C620.201 400.286 621.069 399.166 621.069 397.598C621.069 396.044 620.201 394.91 618.717 394.91C617.247 394.91 616.393 396.044 616.393 397.598C616.393 399.166 617.247 400.286 618.717 400.286ZM626.907 401.168C624.919 401.168 623.589 399.74 623.589 397.612C623.589 395.498 624.905 394.042 626.837 394.042C628.671 394.042 629.917 395.344 629.917 397.262V397.738H624.527C624.597 399.39 625.465 400.342 626.921 400.342C628.027 400.342 628.741 399.866 628.993 398.97H629.917C629.553 400.398 628.503 401.168 626.907 401.168ZM626.837 394.868C625.563 394.868 624.723 395.708 624.555 397.038H628.951C628.951 395.736 628.111 394.868 626.837 394.868ZM635.003 394.14V395.008H634.471C633.225 395.008 632.427 395.848 632.427 397.136V401H631.461V394.224H632.371L632.441 395.274C632.707 394.546 633.421 394.07 634.373 394.07C634.583 394.07 634.765 394.084 635.003 394.14Z" fill="black"/>
<rect x="0.5" y="51.5" width="298" height="395" rx="7.5" fill="white" stroke="black" stroke-dasharray="4 4"/>
<circle cx="137.5" cy="144.227" r="44" fill="white" stroke="#9671FF"/>
<path d="M94.0195 144.227H181.344" stroke="#9671FF"/>
<path d="M137.68 187.883L137.68 100.558" stroke="#9671FF"/>
<ellipse cx="138.381" cy="144.225" rx="23.6517" ry="43.6622" stroke="#9671FF"/>
<path d="M170.977 115.613C162.078 122.324 150.352 126.401 137.502 126.401C124.588 126.401 112.809 122.283 103.894 115.512" stroke="#9671FF"/>
<path d="M170.977 172.836C162.078 166.125 150.352 162.048 137.502 162.048C124.588 162.048 112.809 166.166 103.894 172.938" stroke="#9671FF"/>
<circle cx="114.731" cy="144.226" r="5.06182" fill="white" stroke="#9671FF"/>
<circle cx="103.893" cy="115.394" r="5.06182" fill="white" stroke="#9671FF"/>
<circle cx="171.735" cy="115.394" r="5.06182" fill="white" stroke="#9671FF"/>
<circle cx="158.723" cy="165.339" r="5.06182" fill="white" stroke="#9671FF"/>
<circle cx="132.821" cy="100.562" r="5.06182" fill="white" stroke="#9671FF"/>
<circle cx="142.997" cy="186.195" r="5.06182" fill="white" stroke="#9671FF"/>
<path d="M171.736 147.539H181.323" stroke="#9671FF"/>
<path d="M171.735 152.93H189.861" stroke="#9671FF"/>
<path d="M171.735 157.797H189.861" stroke="#9671FF"/>
<path d="M171.735 162.66H189.861" stroke="#9671FF"/>
<path d="M189.265 144.215C188.673 144.238 188.186 143.752 188.209 143.159L188.414 137.909C188.449 137.023 189.522 136.603 190.149 137.23L195.194 142.275C195.821 142.902 195.401 143.975 194.515 144.01L189.265 144.215Z" fill="white" stroke="#9671FF"/>
<path d="M172.033 167.974H197.008C198.684 167.974 200.042 166.616 200.042 164.94V140.117C200.042 139.776 199.94 139.442 199.749 139.159C199.689 139.07 199.621 138.987 199.545 138.911L193.509 132.824C193.382 132.696 193.234 132.591 193.071 132.513C192.862 132.415 192.635 132.363 192.404 132.363H172.033C170.357 132.363 168.999 133.721 168.999 135.397V164.94C168.999 166.616 170.357 167.974 172.033 167.974Z" fill="white"/>
<path d="M172.033 168.474H197.008C198.96 168.474 200.542 166.892 200.542 164.94V140.857C200.542 139.915 200.166 139.012 199.497 138.348L193.993 132.888C193.332 132.232 192.437 131.863 191.505 131.863H172.033C170.081 131.863 168.499 133.445 168.499 135.397V164.94C168.499 166.892 170.081 168.474 172.033 168.474Z" fill="white" stroke="#9671FF"/>
<path d="M175.458 143.816H185.044" stroke="#9671FF"/>
<path d="M175.457 149.207H193.583" stroke="#9671FF"/>
<path d="M175.457 154.074H193.583" stroke="#9671FF"/>
<path d="M175.457 158.938H193.583" stroke="#9671FF"/>
<path d="M192.987 140.492C192.394 140.515 191.908 140.029 191.931 139.437L192.136 134.187C192.171 133.3 193.244 132.88 193.871 133.507L198.916 138.552C199.543 139.179 199.123 140.253 198.237 140.287L192.987 140.492Z" fill="white" stroke="#9671FF"/>
<path d="M175.756 164.783H200.732C202.407 164.783 203.766 163.424 203.766 161.749V136.926C203.766 136.584 203.664 136.251 203.473 135.968C203.413 135.879 203.344 135.796 203.269 135.72L197.233 129.633C197.106 129.504 196.958 129.399 196.794 129.322C196.586 129.223 196.358 129.172 196.128 129.172H175.756C174.081 129.172 172.723 130.53 172.723 132.205V161.749C172.723 163.424 174.081 164.783 175.756 164.783Z" fill="white"/>
<path d="M201.173 164.283H175.757C174.358 164.283 173.224 163.148 173.224 161.749V131.698C173.224 130.298 174.358 129.164 175.757 129.164H195.911C196.585 129.164 197.231 129.433 197.706 129.91L198.06 129.557L197.706 129.91L202.968 135.195C203.441 135.67 203.706 136.313 203.706 136.983V161.749C203.706 163.148 202.572 164.283 201.173 164.283Z" fill="white" stroke="#9671FF"/>
<path d="M179.182 140.625H188.768" stroke="#9671FF"/>
<path d="M179.182 146.023H197.307" stroke="#9671FF"/>
<path d="M179.181 150.883H197.307" stroke="#9671FF"/>
<path d="M179.181 155.746H197.307" stroke="#9671FF"/>
<path d="M196.431 137.545C195.839 137.568 195.352 137.082 195.376 136.49L195.622 130.179C195.657 129.293 196.73 128.873 197.357 129.5L203.421 135.564C204.048 136.191 203.628 137.264 202.742 137.299L196.431 137.545Z" fill="white" stroke="#9671FF"/>
<path d="M78.7534 228H75.7014V217.976H78.7254C81.7494 217.976 83.7654 219.992 83.7654 222.988C83.7654 225.984 81.7634 228 78.7534 228ZM78.6834 218.9H76.7094V227.076H78.7114C81.1614 227.076 82.7294 225.48 82.7294 222.988C82.7294 220.482 81.1614 218.9 78.6834 218.9ZM87.3222 228.168C85.8802 228.168 85.0262 227.356 85.0262 226.166C85.0262 224.92 85.9782 224.136 87.5602 224.01L89.8002 223.828V223.604C89.8002 222.274 89.0022 221.854 88.0082 221.854C86.8322 221.854 86.1322 222.386 86.1322 223.296H85.2502C85.2502 221.924 86.3702 221.042 88.0362 221.042C89.6042 221.042 90.7522 221.826 90.7522 223.618V228H89.9402L89.8142 226.81C89.3942 227.664 88.4702 228.168 87.3222 228.168ZM87.5462 227.384C88.9742 227.384 89.8002 226.39 89.8002 224.92V224.556L87.7982 224.71C86.5242 224.822 86.0062 225.382 86.0062 226.138C86.0062 226.964 86.6222 227.384 87.5462 227.384ZM94.1216 228H93.1696V222.036H91.8116V221.224H93.1696V219.082H94.1216V221.224H95.4796V222.036H94.1216V228ZM98.5741 228.168C97.1321 228.168 96.2781 227.356 96.2781 226.166C96.2781 224.92 97.2301 224.136 98.8121 224.01L101.052 223.828V223.604C101.052 222.274 100.254 221.854 99.2601 221.854C98.0841 221.854 97.3841 222.386 97.3841 223.296H96.5021C96.5021 221.924 97.6221 221.042 99.2881 221.042C100.856 221.042 102.004 221.826 102.004 223.618V228H101.192L101.066 226.81C100.646 227.664 99.7221 228.168 98.5741 228.168ZM98.7981 227.384C100.226 227.384 101.052 226.39 101.052 224.92V224.556L99.0501 224.71C97.7761 224.822 97.2581 225.382 97.2581 226.138C97.2581 226.964 97.8741 227.384 98.7981 227.384ZM108.035 228H107.013L110.695 217.976H111.941L115.665 228H114.615L113.635 225.34H109.015L108.035 228ZM111.185 219.39L109.323 224.458H113.313L111.437 219.39C111.395 219.25 111.325 219.082 111.311 218.984C111.297 219.068 111.241 219.25 111.185 219.39ZM118.288 228L115.516 221.224H116.552L118.302 225.592C118.484 226.082 118.666 226.544 118.792 226.992C118.918 226.53 119.1 226.082 119.296 225.592L121.074 221.224H122.068L119.254 228H118.288ZM124.851 228.168C123.409 228.168 122.555 227.356 122.555 226.166C122.555 224.92 123.507 224.136 125.089 224.01L127.329 223.828V223.604C127.329 222.274 126.531 221.854 125.537 221.854C124.361 221.854 123.661 222.386 123.661 223.296H122.779C122.779 221.924 123.899 221.042 125.565 221.042C127.133 221.042 128.281 221.826 128.281 223.618V228H127.469L127.343 226.81C126.923 227.664 125.999 228.168 124.851 228.168ZM125.075 227.384C126.503 227.384 127.329 226.39 127.329 224.92V224.556L125.327 224.71C124.053 224.822 123.535 225.382 123.535 226.138C123.535 226.964 124.151 227.384 125.075 227.384ZM130.696 219.362C130.304 219.362 129.982 219.04 129.982 218.648C129.982 218.256 130.304 217.92 130.696 217.92C131.088 217.92 131.424 218.256 131.424 218.648C131.424 219.04 131.088 219.362 130.696 219.362ZM130.22 228V221.224H131.186V228H130.22ZM134.208 228H133.242V217.794H134.208V228ZM138.209 228.168C136.767 228.168 135.913 227.356 135.913 226.166C135.913 224.92 136.865 224.136 138.447 224.01L140.687 223.828V223.604C140.687 222.274 139.889 221.854 138.895 221.854C137.719 221.854 137.019 222.386 137.019 223.296H136.137C136.137 221.924 137.257 221.042 138.923 221.042C140.491 221.042 141.639 221.826 141.639 223.618V228H140.827L140.701 226.81C140.281 227.664 139.357 228.168 138.209 228.168ZM138.433 227.384C139.861 227.384 140.687 226.39 140.687 224.92V224.556L138.685 224.71C137.411 224.822 136.893 225.382 136.893 226.138C136.893 226.964 137.509 227.384 138.433 227.384ZM144.417 228H143.577V217.794H144.543V222.54C145.019 221.546 145.943 221.042 147.091 221.042C149.065 221.042 150.213 222.582 150.213 224.626C150.213 226.656 149.037 228.168 147.063 228.168C145.929 228.168 144.991 227.664 144.515 226.614L144.417 228ZM144.557 224.598C144.557 226.166 145.425 227.286 146.909 227.286C148.379 227.286 149.233 226.166 149.233 224.598C149.233 223.044 148.379 221.91 146.909 221.91C145.425 221.91 144.557 223.044 144.557 224.598ZM152.229 219.362C151.837 219.362 151.515 219.04 151.515 218.648C151.515 218.256 151.837 217.92 152.229 217.92C152.621 217.92 152.957 218.256 152.957 218.648C152.957 219.04 152.621 219.362 152.229 219.362ZM151.753 228V221.224H152.719V228H151.753ZM155.742 228H154.776V217.794H155.742V228ZM158.272 219.362C157.88 219.362 157.558 219.04 157.558 218.648C157.558 218.256 157.88 217.92 158.272 217.92C158.664 217.92 159 218.256 159 218.648C159 219.04 158.664 219.362 158.272 219.362ZM157.796 228V221.224H158.762V228H157.796ZM162.331 228H161.379V222.036H160.021V221.224H161.379V219.082H162.331V221.224H163.689V222.036H162.331V228ZM164.26 230.954V230.156H165.002C165.59 230.156 166.178 230.114 166.514 229.204L166.808 228.406L164.064 221.224H165.086L167.27 227.132L169.412 221.224H170.406L167.298 229.554C166.906 230.618 166.248 231.052 165.282 231.052C164.876 231.052 164.568 231.024 164.26 230.954ZM176.637 228H175.629V217.976H176.651L182.167 226.32V217.976H183.161V228H182.167L176.637 219.656V228ZM188.242 228.168C186.254 228.168 184.924 226.74 184.924 224.612C184.924 222.498 186.24 221.042 188.172 221.042C190.006 221.042 191.252 222.344 191.252 224.262V224.738H185.862C185.932 226.39 186.8 227.342 188.256 227.342C189.362 227.342 190.076 226.866 190.328 225.97H191.252C190.888 227.398 189.838 228.168 188.242 228.168ZM188.172 221.868C186.898 221.868 186.058 222.708 185.89 224.038H190.286C190.286 222.736 189.446 221.868 188.172 221.868ZM194.282 228H193.33V222.036H191.972V221.224H193.33V219.082H194.282V221.224H195.64V222.036H194.282V228ZM198.326 228L196.086 221.224H197.08L198.41 225.312C198.564 225.76 198.69 226.222 198.83 226.768C198.942 226.222 199.166 225.536 199.236 225.312L200.58 221.224H201.574L202.904 225.312C203.03 225.676 203.198 226.264 203.324 226.768C203.464 226.208 203.492 226.04 203.73 225.312L205.074 221.224H206.082L203.786 228H202.848L201.448 223.744C201.28 223.24 201.168 222.82 201.084 222.414C200.986 222.778 200.874 223.184 200.692 223.744L199.292 228H198.326ZM206.511 224.612C206.511 222.54 207.967 221.042 209.955 221.042C211.943 221.042 213.399 222.54 213.399 224.612C213.399 226.67 211.943 228.168 209.955 228.168C207.967 228.168 206.511 226.67 206.511 224.612ZM207.491 224.598C207.491 226.194 208.499 227.3 209.955 227.3C211.397 227.3 212.419 226.194 212.419 224.598C212.419 223.03 211.397 221.91 209.955 221.91C208.499 221.91 207.491 223.03 207.491 224.598ZM218.487 221.14V222.008H217.955C216.709 222.008 215.911 222.848 215.911 224.136V228H214.945V221.224H215.855L215.925 222.274C216.191 221.546 216.905 221.07 217.857 221.07C218.067 221.07 218.249 221.084 218.487 221.14ZM220.779 228H219.813V217.794H220.779V224.724L224.139 221.224H225.357L222.753 223.926L225.371 228H224.251L222.095 224.612L220.779 225.97V228Z" fill="black"/>
<path d="M68.6635 397H62.6575V386.976H68.6495V387.9H63.6655V391.512H68.1875V392.422H63.6655V396.076H68.6635V397ZM72.0542 397H71.1022V391.036H69.7442V390.224H71.1022V388.082H72.0542V390.224H73.4122V391.036H72.0542V397ZM75.6361 396.986H74.6701V386.794H75.6361V391.4C76.0701 390.588 76.8961 390.042 78.0301 390.042C79.8081 390.042 80.6061 391.148 80.6061 392.856V397H79.6401V393.066C79.6401 391.484 78.8981 390.924 77.8481 390.924C76.3921 390.924 75.6361 392.002 75.6361 393.304V396.986ZM82.1394 389.58C82.1394 387.9 83.4834 386.794 85.4994 386.794C87.3054 386.794 88.4954 387.802 88.6494 389.482H87.6274C87.5154 388.348 86.7454 387.704 85.4854 387.704C84.0714 387.704 83.1474 388.432 83.1474 389.566C83.1474 390.448 83.6654 391.008 84.7154 391.274L86.4374 391.694C88.0054 392.072 88.8174 392.968 88.8174 394.326C88.8174 396.062 87.4734 397.168 85.4014 397.168C83.4554 397.168 82.1394 396.146 82.0134 394.508H83.0494C83.1054 395.558 84.0294 396.244 85.4014 396.244C86.8714 396.244 87.8094 395.53 87.8094 394.382C87.8094 393.486 87.3054 392.898 86.2274 392.646L84.5334 392.226C82.9654 391.848 82.1394 390.952 82.1394 389.58ZM91.9741 397H91.0221V391.036H89.6641V390.224H91.0221V388.082H91.9741V390.224H93.3321V391.036H91.9741V397ZM94.0457 393.612C94.0457 391.54 95.5017 390.042 97.4897 390.042C99.4777 390.042 100.934 391.54 100.934 393.612C100.934 395.67 99.4777 397.168 97.4897 397.168C95.5017 397.168 94.0457 395.67 94.0457 393.612ZM95.0257 393.598C95.0257 395.194 96.0337 396.3 97.4897 396.3C98.9317 396.3 99.9537 395.194 99.9537 393.598C99.9537 392.03 98.9317 390.91 97.4897 390.91C96.0337 390.91 95.0257 392.03 95.0257 393.598ZM106.021 390.14V391.008H105.489C104.243 391.008 103.445 391.848 103.445 393.136V397H102.479V390.224H103.389L103.459 391.274C103.725 390.546 104.439 390.07 105.391 390.07C105.601 390.07 105.783 390.084 106.021 390.14ZM108.977 397.168C107.535 397.168 106.681 396.356 106.681 395.166C106.681 393.92 107.633 393.136 109.215 393.01L111.455 392.828V392.604C111.455 391.274 110.657 390.854 109.663 390.854C108.487 390.854 107.787 391.386 107.787 392.296H106.905C106.905 390.924 108.025 390.042 109.691 390.042C111.259 390.042 112.407 390.826 112.407 392.618V397H111.595L111.469 395.81C111.049 396.664 110.125 397.168 108.977 397.168ZM109.201 396.384C110.629 396.384 111.455 395.39 111.455 393.92V393.556L109.453 393.71C108.179 393.822 107.661 394.382 107.661 395.138C107.661 395.964 108.277 396.384 109.201 396.384ZM113.884 393.416C113.884 391.568 115.074 390.042 117.062 390.042C118.238 390.042 119.134 390.588 119.568 391.582L119.666 390.224H120.506V396.79C120.506 398.806 119.218 400.122 117.23 400.122C115.494 400.122 114.276 399.142 114.01 397.504H114.976C115.186 398.596 116.026 399.24 117.244 399.24C118.63 399.24 119.554 398.302 119.554 396.888V395.278C119.092 396.23 118.154 396.79 116.992 396.79C115.06 396.79 113.884 395.264 113.884 393.416ZM114.85 393.402C114.85 394.788 115.704 395.922 117.132 395.922C118.602 395.922 119.47 394.858 119.47 393.402C119.47 391.96 118.63 390.896 117.146 390.896C115.69 390.896 114.85 392.03 114.85 393.402ZM125.364 397.168C123.376 397.168 122.046 395.74 122.046 393.612C122.046 391.498 123.362 390.042 125.294 390.042C127.128 390.042 128.374 391.344 128.374 393.262V393.738H122.984C123.054 395.39 123.922 396.342 125.378 396.342C126.484 396.342 127.198 395.866 127.45 394.97H128.374C128.01 396.398 126.96 397.168 125.364 397.168ZM125.294 390.868C124.02 390.868 123.18 391.708 123.012 393.038H127.408C127.408 391.736 126.568 390.868 125.294 390.868ZM133.409 389.58C133.409 387.9 134.753 386.794 136.769 386.794C138.575 386.794 139.765 387.802 139.919 389.482H138.897C138.785 388.348 138.015 387.704 136.755 387.704C135.341 387.704 134.417 388.432 134.417 389.566C134.417 390.448 134.935 391.008 135.985 391.274L137.707 391.694C139.275 392.072 140.087 392.968 140.087 394.326C140.087 396.062 138.743 397.168 136.671 397.168C134.725 397.168 133.409 396.146 133.283 394.508H134.319C134.375 395.558 135.299 396.244 136.671 396.244C138.141 396.244 139.079 395.53 139.079 394.382C139.079 393.486 138.575 392.898 137.497 392.646L135.803 392.226C134.235 391.848 133.409 390.952 133.409 389.58ZM143.244 397H142.292V391.036H140.934V390.224H142.292V388.082H143.244V390.224H144.602V391.036H143.244V397ZM145.315 393.612C145.315 391.54 146.771 390.042 148.759 390.042C150.747 390.042 152.203 391.54 152.203 393.612C152.203 395.67 150.747 397.168 148.759 397.168C146.771 397.168 145.315 395.67 145.315 393.612ZM146.295 393.598C146.295 395.194 147.303 396.3 148.759 396.3C150.201 396.3 151.223 395.194 151.223 393.598C151.223 392.03 150.201 390.91 148.759 390.91C147.303 390.91 146.295 392.03 146.295 393.598ZM157.29 390.14V391.008H156.758C155.512 391.008 154.714 391.848 154.714 393.136V397H153.748V390.224H154.658L154.728 391.274C154.994 390.546 155.708 390.07 156.66 390.07C156.87 390.07 157.052 390.084 157.29 390.14ZM160.247 397.168C158.805 397.168 157.951 396.356 157.951 395.166C157.951 393.92 158.903 393.136 160.485 393.01L162.725 392.828V392.604C162.725 391.274 161.927 390.854 160.933 390.854C159.757 390.854 159.057 391.386 159.057 392.296H158.175C158.175 390.924 159.295 390.042 160.961 390.042C162.529 390.042 163.677 390.826 163.677 392.618V397H162.865L162.739 395.81C162.319 396.664 161.395 397.168 160.247 397.168ZM160.471 396.384C161.899 396.384 162.725 395.39 162.725 393.92V393.556L160.723 393.71C159.449 393.822 158.931 394.382 158.931 395.138C158.931 395.964 159.547 396.384 160.471 396.384ZM165.153 393.416C165.153 391.568 166.343 390.042 168.331 390.042C169.507 390.042 170.403 390.588 170.837 391.582L170.935 390.224H171.775V396.79C171.775 398.806 170.487 400.122 168.499 400.122C166.763 400.122 165.545 399.142 165.279 397.504H166.245C166.455 398.596 167.295 399.24 168.513 399.24C169.899 399.24 170.823 398.302 170.823 396.888V395.278C170.361 396.23 169.423 396.79 168.261 396.79C166.329 396.79 165.153 395.264 165.153 393.416ZM166.119 393.402C166.119 394.788 166.973 395.922 168.401 395.922C169.871 395.922 170.739 394.858 170.739 393.402C170.739 391.96 169.899 390.896 168.415 390.896C166.959 390.896 166.119 392.03 166.119 393.402ZM176.633 397.168C174.645 397.168 173.315 395.74 173.315 393.612C173.315 391.498 174.631 390.042 176.563 390.042C178.397 390.042 179.643 391.344 179.643 393.262V393.738H174.253C174.323 395.39 175.191 396.342 176.647 396.342C177.753 396.342 178.467 395.866 178.719 394.97H179.643C179.279 396.398 178.229 397.168 176.633 397.168ZM176.563 390.868C175.289 390.868 174.449 391.708 174.281 393.038H178.677C178.677 391.736 177.837 390.868 176.563 390.868ZM189.369 397.154C186.569 397.154 184.665 395.068 184.665 391.988C184.665 388.908 186.597 386.808 189.425 386.808C191.581 386.808 193.275 388.11 193.681 390.098H192.603C192.183 388.656 190.951 387.774 189.383 387.774C187.185 387.774 185.715 389.454 185.715 391.988C185.715 394.508 187.185 396.188 189.383 396.188C190.965 396.188 192.225 395.334 192.659 393.99H193.737C193.275 395.88 191.525 397.154 189.369 397.154ZM194.794 393.612C194.794 391.54 196.25 390.042 198.238 390.042C200.226 390.042 201.682 391.54 201.682 393.612C201.682 395.67 200.226 397.168 198.238 397.168C196.25 397.168 194.794 395.67 194.794 393.612ZM195.774 393.598C195.774 395.194 196.782 396.3 198.238 396.3C199.68 396.3 200.702 395.194 200.702 393.598C200.702 392.03 199.68 390.91 198.238 390.91C196.782 390.91 195.774 392.03 195.774 393.598ZM204.193 397H203.227V390.224H204.067L204.207 391.4C204.655 390.532 205.551 390.042 206.531 390.042C208.393 390.042 209.163 391.148 209.163 392.856V397H208.197V393.066C208.197 391.484 207.483 390.924 206.363 390.924C204.977 390.924 204.193 391.932 204.193 393.458V397ZM212.642 397H211.69V391.036H210.332V390.224H211.69V388.082H212.642V390.224H214V391.036H212.642V397ZM218.8 390.14V391.008H218.268C217.022 391.008 216.224 391.848 216.224 393.136V397H215.258V390.224H216.168L216.238 391.274C216.504 390.546 217.218 390.07 218.17 390.07C218.38 390.07 218.562 390.084 218.8 390.14ZM221.757 397.168C220.315 397.168 219.461 396.356 219.461 395.166C219.461 393.92 220.413 393.136 221.995 393.01L224.235 392.828V392.604C224.235 391.274 223.437 390.854 222.443 390.854C221.267 390.854 220.567 391.386 220.567 392.296H219.685C219.685 390.924 220.805 390.042 222.471 390.042C224.039 390.042 225.187 390.826 225.187 392.618V397H224.375L224.249 395.81C223.829 396.664 222.905 397.168 221.757 397.168ZM221.981 396.384C223.409 396.384 224.235 395.39 224.235 393.92V393.556L222.233 393.71C220.959 393.822 220.441 394.382 220.441 395.138C220.441 395.964 221.057 396.384 221.981 396.384ZM226.649 393.626C226.649 391.498 227.951 390.042 229.925 390.042C231.493 390.042 232.641 390.952 232.907 392.352H231.941C231.689 391.414 230.877 390.896 229.939 390.896C228.567 390.896 227.601 391.946 227.601 393.612C227.601 395.222 228.497 396.3 229.869 396.3C230.877 396.3 231.689 395.74 231.955 394.872H232.935C232.613 396.258 231.409 397.168 229.869 397.168C227.951 397.168 226.649 395.754 226.649 393.626ZM235.953 397H235.001V391.036H233.643V390.224H235.001V388.082H235.953V390.224H237.311V391.036H235.953V397Z" fill="black"/>
<path d="M174.597 277.904C179.538 277.904 182.53 279.831 184.251 282.679C185.929 285.456 186.436 289.172 186.226 293H163.81L147.673 277.904L174.597 277.904Z" fill="white" stroke="#9671FF"/>
<path d="M159.112 277.977L159.114 277.977L172.958 277.916C169.54 279.891 165.502 284.779 165.168 294.347L165.168 294.347L165.168 294.359L164.761 345.849L164.761 345.853C164.752 352.718 159.378 358.161 152.398 358.161H150.374L105.8 342.119L105.872 290.388C105.881 283.534 111.555 277.977 118.546 277.977L159.112 277.977Z" fill="white" stroke="#9671FF"/>
<path d="M149.016 342.486C147.012 348.635 147.018 352.854 148.077 355.587C148.635 357.027 149.482 358.043 150.457 358.697L149.654 358.708H149.65H99.2833C92.8987 358.708 87.73 353.633 87.7387 347.372L87.7454 342.486H149.016Z" fill="white" stroke="#9671FF"/>
<path d="M119.413 294.465H153.885" stroke="#9671FF"/>
<path d="M119.396 306.309H153.868" stroke="#9671FF"/>
<path d="M119.38 318.156H153.851" stroke="#9671FF"/>
<path d="M119.363 330.004H140.386" stroke="#9671FF"/>
<circle cx="22.6706" cy="22.6706" r="22.1706" transform="matrix(1 0 -0.00135443 0.980631 152.813 309.609)" fill="white" stroke="#9671FF"/>
<path d="M164.937 331.522L175.437 317.113L185.971 331.522L175.396 346.575L164.937 331.522Z" fill="white"/>
<path d="M175.437 317.113L164.937 331.522M175.437 317.113L185.971 331.522M175.437 317.113L175.424 326.338M164.937 331.522L175.396 346.575M164.937 331.522L175.424 326.338M164.937 331.522L175.41 336.456M175.396 346.575L185.971 331.522M175.396 346.575L175.41 336.456M185.971 331.522L175.424 326.338M185.971 331.522L175.41 336.456M175.424 326.338L175.417 331.397L175.41 336.456" stroke="#9671FF"/>
<path d="M225.382 314.389C225.374 320.001 220.672 324.561 214.868 324.561C209.063 324.561 204.374 320.001 204.382 314.389C204.39 308.776 209.091 304.217 214.896 304.217C220.7 304.217 225.39 308.776 225.382 314.389Z" fill="white" stroke="#9671FF"/>
<path d="M209.78 314.235L214.874 307.324L219.986 314.235L214.854 321.454L209.78 314.235Z" fill="white"/>
<path d="M214.874 307.324L209.78 314.235M214.874 307.324L219.986 314.235M214.874 307.324L214.868 311.748M209.78 314.235L214.854 321.454M209.78 314.235L214.868 311.748M209.78 314.235L214.861 316.601M214.854 321.454L219.986 314.235M214.854 321.454L214.861 316.601M219.986 314.235L214.868 311.748M219.986 314.235L214.861 316.601M214.868 311.748L214.864 314.175L214.861 316.601" stroke="#9671FF" stroke-width="0.7"/>
<path d="M222.069 283.779C222.063 287.82 218.829 291.068 214.878 291.068C210.928 291.068 207.702 287.82 207.708 283.779C207.714 279.739 210.948 276.49 214.899 276.49C218.849 276.49 222.075 279.739 222.069 283.779Z" fill="white" stroke="#9671FF"/>
<path d="M219.824 283.781C219.82 286.671 217.578 288.962 214.88 288.962C212.181 288.962 209.945 286.671 209.949 283.781C209.953 280.89 212.196 278.6 214.894 278.6C217.592 278.6 219.828 280.89 219.824 283.781Z" fill="white" stroke="#9671FF"/>
<rect x="0.499323" y="0.490315" width="18.425" height="15.1994" rx="1.5" transform="matrix(1 0 -0.00135443 0.980631 205.175 284.486)" fill="white" stroke="#9671FF"/>
<path d="M216.482 292.419C216.481 293.429 216.253 294.32 215.911 294.94C215.558 295.58 215.154 295.824 214.833 295.824C214.513 295.824 214.11 295.58 213.758 294.94C213.418 294.32 213.192 293.429 213.194 292.419C213.195 291.408 213.423 290.518 213.765 289.897C214.119 289.257 214.522 289.014 214.843 289.014C215.163 289.014 215.566 289.257 215.918 289.897C216.258 290.518 216.484 291.408 216.482 292.419Z" fill="white" stroke="#9671FF"/>
<path d="M350.385 297.281L433.867 297.281" stroke="black"/>
<path d="M431.746 293.296L437.97 297.457L431.746 301.617L431.746 293.296Z" fill="black"/>
<path d="M350.385 156.422L433.867 156.422" stroke="black"/>
<path d="M431.746 152.437L437.97 156.597L431.746 160.758L431.746 152.437Z" fill="black"/>
<path d="M350.644 155.98V297.545" stroke="black"/>
<path d="M255 156.457H356.448" stroke="black"/>
<path d="M617.115 133.397L617.109 133.982L617.687 133.897C619.237 133.671 620.823 133.553 622.437 133.553C640.416 133.553 654.99 148.128 654.99 166.107C654.99 184.086 640.416 198.66 622.437 198.66H546.689C528.71 198.66 514.136 184.086 514.136 166.107C514.136 148.128 528.71 133.553 546.689 133.553C548.303 133.553 549.889 133.671 551.439 133.897L552.017 133.982L552.011 133.398C552.01 133.283 552.01 133.168 552.01 133.053C552.01 115.075 566.584 100.5 584.563 100.5C602.542 100.5 617.116 115.075 617.116 133.053C617.116 133.168 617.116 133.283 617.115 133.397Z" fill="white" stroke="#9671FF"/>
<path d="M546.733 193.651C531.372 193.651 518.762 181.152 518.762 165.671C518.762 150.19 531.257 137.69 546.733 137.69C548.108 137.69 549.484 137.805 550.86 138.034L556.821 138.952L556.706 132.645C556.706 117.278 569.201 104.664 584.677 104.664C600.153 104.664 612.648 117.164 612.648 132.645L612.533 138.952L618.494 138.034C619.87 137.805 621.245 137.69 622.621 137.69C637.982 137.69 650.592 150.19 650.592 165.671C650.592 181.152 638.097 193.651 622.621 193.651H546.733Z" fill="white" stroke="#9671FF"/>
<path d="M607.422 199.172C607.422 199.363 607.336 199.594 607.081 199.868C606.823 200.146 606.419 200.438 605.855 200.731C604.729 201.317 603.068 201.86 600.972 202.321C596.79 203.242 590.988 203.816 584.562 203.816C578.137 203.816 572.335 203.242 568.152 202.321C566.057 201.86 564.395 201.317 563.27 200.731C562.706 200.438 562.302 200.146 562.044 199.868C561.789 199.594 561.703 199.363 561.703 199.172V181.668H607.422V199.172Z" fill="white" stroke="#9671FF"/>
<path d="M590.881 194.754V208.865C590.881 211.074 592.672 212.865 594.881 212.865H636.371" stroke="#9671FF"/>
<circle cx="635.538" cy="212.868" r="2.25477" fill="white" stroke="#9671FF"/>
<path d="M577.293 194.754V208.865C577.293 211.074 575.502 212.865 573.293 212.865H531.803" stroke="#9671FF"/>
<circle cx="2.75477" cy="2.75477" r="2.25477" transform="matrix(-1 0 0 1 535.391 210.113)" fill="white" stroke="#9671FF"/>
<path d="M607.424 181.168C607.424 181.795 606.957 182.512 605.815 183.257C604.694 183.988 603.039 184.665 600.949 185.241C596.775 186.392 590.982 187.11 584.562 187.11C578.143 187.11 572.349 186.392 568.176 185.241C566.085 184.665 564.43 183.988 563.309 183.257C562.167 182.512 561.7 181.795 561.7 181.168C561.7 180.541 562.167 179.824 563.309 179.08C564.43 178.349 566.085 177.672 568.176 177.095C572.349 175.945 578.143 175.227 584.562 175.227C590.982 175.227 596.775 175.945 600.949 177.095C603.039 177.672 604.694 178.349 605.815 179.08C606.957 179.824 607.424 180.541 607.424 181.168Z" fill="white" stroke="#9671FF"/>
<path d="M607.422 176.438C607.422 176.628 607.336 176.859 607.081 177.134C606.823 177.412 606.419 177.703 605.855 177.997C604.729 178.583 603.068 179.125 600.972 179.587C596.79 180.508 590.988 181.082 584.562 181.082C578.137 181.082 572.335 180.508 568.152 179.587C566.057 179.125 564.395 178.583 563.27 177.997C562.706 177.703 562.302 177.412 562.044 177.134C561.789 176.859 561.703 176.628 561.703 176.438V158.934H607.422V176.438Z" fill="white" stroke="#9671FF"/>
<path d="M607.424 158.434C607.424 159.061 606.957 159.778 605.815 160.522C604.694 161.253 603.039 161.93 600.949 162.507C596.775 163.657 590.982 164.375 584.562 164.375C578.143 164.375 572.349 163.657 568.176 162.507C566.085 161.93 564.43 161.253 563.309 160.522C562.167 159.778 561.7 159.061 561.7 158.434C561.7 157.807 562.167 157.09 563.309 156.345C564.43 155.614 566.085 154.937 568.176 154.361C572.349 153.21 578.143 152.492 584.562 152.492C590.982 152.492 596.775 153.21 600.949 154.361C603.039 154.937 604.694 155.614 605.815 156.345C606.957 157.09 607.424 157.807 607.424 158.434Z" fill="white" stroke="#9671FF"/>
<path d="M590.381 159.046C590.381 159.209 590.3 159.416 590.042 159.657C589.784 159.9 589.383 160.141 588.845 160.354C587.774 160.779 586.26 161.053 584.561 161.053C582.863 161.053 581.349 160.779 580.277 160.354C579.74 160.141 579.339 159.9 579.081 159.657C578.823 159.416 578.742 159.209 578.742 159.046C578.742 158.883 578.823 158.676 579.081 158.435C579.339 158.193 579.74 157.951 580.277 157.738C581.349 157.313 582.863 157.039 584.561 157.039C586.26 157.039 587.774 157.313 588.845 157.738C589.383 157.951 589.784 158.193 590.042 158.435C590.3 158.676 590.381 158.883 590.381 159.046Z" fill="white" stroke="#9671FF"/>
<circle cx="577.501" cy="196.407" r="2.25477" fill="white" stroke="#9671FF"/>
<circle cx="590.882" cy="196.407" r="2.25477" fill="white" stroke="#9671FF"/>
<circle cx="561.203" cy="212.473" r="3.23124" fill="white" stroke="#9671FF"/>
<circle cx="545.924" cy="221.325" r="2.07481" fill="white" stroke="#9671FF"/>
<circle cx="606.506" cy="212.473" r="3.23124" fill="white" stroke="#9671FF"/>
<path d="M581.576 203.621V217.326C581.576 219.535 579.785 221.326 577.576 221.326H547.447" stroke="#9671FF"/>
<circle cx="2.57481" cy="2.57481" r="2.07481" transform="matrix(-1 0 0 1 625.138 218.75)" fill="white" stroke="#9671FF"/>
<path d="M586.912 203.621V217.326C586.912 219.535 588.703 221.326 590.912 221.326H621.041" stroke="#9671FF"/>
<path d="M617.115 264.847L617.109 265.431L617.687 265.347C619.237 265.12 620.823 265.003 622.437 265.003C640.416 265.003 654.99 279.577 654.99 297.556C654.99 315.535 640.416 330.11 622.437 330.11H546.689C528.71 330.109 514.136 315.535 514.136 297.556C514.136 279.577 528.71 265.003 546.689 265.003C548.303 265.003 549.889 265.12 551.439 265.347L552.017 265.431L552.011 264.847C552.01 264.732 552.01 264.617 552.01 264.503C552.01 246.524 566.584 231.949 584.563 231.949C602.542 231.949 617.116 246.524 617.116 264.503C617.116 264.617 617.116 264.732 617.115 264.847Z" fill="white" stroke="#9671FF"/>
<path d="M546.733 325.101C531.372 325.101 518.762 312.601 518.762 297.12C518.762 281.639 531.257 269.139 546.733 269.139C548.108 269.139 549.484 269.254 550.86 269.484L556.821 270.401L556.706 264.094C556.706 248.727 569.201 236.113 584.677 236.113C600.153 236.113 612.648 248.613 612.648 264.094L612.533 270.401L618.494 269.484C619.87 269.254 621.245 269.139 622.621 269.139C637.982 269.139 650.592 281.639 650.592 297.12C650.592 312.601 638.097 325.101 622.621 325.101H546.733Z" fill="white" stroke="#9671FF"/>
<path d="M607.422 330.621C607.422 330.812 607.336 331.043 607.081 331.318C606.823 331.595 606.419 331.887 605.855 332.18C604.729 332.766 603.068 333.309 600.972 333.77C596.79 334.691 590.988 335.265 584.562 335.265C578.137 335.265 572.335 334.691 568.152 333.77C566.057 333.309 564.395 332.766 563.27 332.18C562.706 331.887 562.302 331.595 562.044 331.318C561.789 331.043 561.703 330.812 561.703 330.621V313.117H607.422V330.621Z" fill="white" stroke="#9671FF"/>
<path d="M590.881 326.203V340.314C590.881 342.523 592.672 344.314 594.881 344.314H636.371" stroke="#9671FF"/>
<circle cx="635.538" cy="344.317" r="2.25477" fill="white" stroke="#9671FF"/>
<path d="M577.293 326.203V340.314C577.293 342.523 575.502 344.314 573.293 344.314H531.803" stroke="#9671FF"/>
<circle cx="2.75477" cy="2.75477" r="2.25477" transform="matrix(-1 0 0 1 535.391 341.562)" fill="white" stroke="#9671FF"/>
<path d="M607.424 312.617C607.424 313.245 606.957 313.961 605.815 314.706C604.694 315.437 603.039 316.114 600.949 316.69C596.775 317.841 590.982 318.559 584.562 318.559C578.143 318.559 572.349 317.841 568.176 316.69C566.085 316.114 564.43 315.437 563.309 314.706C562.167 313.961 561.7 313.245 561.7 312.617C561.7 311.99 562.167 311.274 563.309 310.529C564.43 309.798 566.085 309.121 568.176 308.544C572.349 307.394 578.143 306.676 584.562 306.676C590.982 306.676 596.775 307.394 600.949 308.544C603.039 309.121 604.694 309.798 605.815 310.529C606.957 311.274 607.424 311.99 607.424 312.617Z" fill="white" stroke="#9671FF"/>
<path d="M607.422 307.887C607.422 308.078 607.336 308.308 607.081 308.583C606.823 308.861 606.419 309.152 605.855 309.446C604.729 310.032 603.068 310.575 600.972 311.036C596.79 311.957 590.988 312.531 584.562 312.531C578.137 312.531 572.335 311.957 568.152 311.036C566.057 310.575 564.395 310.032 563.27 309.446C562.706 309.152 562.302 308.861 562.044 308.583C561.789 308.308 561.703 308.078 561.703 307.887V290.383H607.422V307.887Z" fill="white" stroke="#9671FF"/>
<path d="M607.424 289.883C607.424 290.51 606.957 291.227 605.815 291.972C604.694 292.702 603.039 293.38 600.949 293.956C596.775 295.107 590.982 295.825 584.562 295.825C578.143 295.825 572.349 295.107 568.176 293.956C566.085 293.38 564.43 292.702 563.309 291.972C562.167 291.227 561.7 290.51 561.7 289.883C561.7 289.256 562.167 288.539 563.309 287.795C564.43 287.064 566.085 286.386 568.176 285.81C572.349 284.659 578.143 283.941 584.562 283.941C590.982 283.941 596.775 284.659 600.949 285.81C603.039 286.386 604.694 287.064 605.815 287.795C606.957 288.539 607.424 289.256 607.424 289.883Z" fill="white" stroke="#9671FF"/>
<path d="M590.381 290.495C590.381 290.658 590.3 290.865 590.042 291.106C589.784 291.349 589.383 291.59 588.845 291.803C587.774 292.228 586.26 292.502 584.561 292.502C582.863 292.502 581.349 292.228 580.277 291.803C579.74 291.59 579.339 291.349 579.081 291.106C578.823 290.865 578.742 290.658 578.742 290.495C578.742 290.333 578.823 290.126 579.081 289.884C579.339 289.642 579.74 289.4 580.277 289.187C581.349 288.762 582.863 288.488 584.561 288.488C586.26 288.488 587.774 288.762 588.845 289.187C589.383 289.4 589.784 289.642 590.042 289.884C590.3 290.126 590.381 290.333 590.381 290.495Z" fill="white" stroke="#9671FF"/>
<circle cx="577.501" cy="327.856" r="2.25477" fill="white" stroke="#9671FF"/>
<circle cx="590.882" cy="327.856" r="2.25477" fill="white" stroke="#9671FF"/>
<circle cx="561.203" cy="343.923" r="3.23124" fill="white" stroke="#9671FF"/>
<circle cx="545.924" cy="352.774" r="2.07481" fill="white" stroke="#9671FF"/>
<circle cx="606.506" cy="343.923" r="3.23124" fill="white" stroke="#9671FF"/>
<path d="M581.576 335.07V348.775C581.576 350.984 579.785 352.775 577.576 352.775H547.447" stroke="#9671FF"/>
<circle cx="2.57481" cy="2.57481" r="2.07481" transform="matrix(-1 0 0 1 625.138 350.199)" fill="white" stroke="#9671FF"/>
<path d="M586.912 335.07V348.775C586.912 350.984 588.703 352.775 590.912 352.775H621.041" stroke="#9671FF"/>
<path d="M627.873 139.973H637.46" stroke="#9671FF"/>
<path d="M627.873 145.367H645.999" stroke="#9671FF"/>
<path d="M627.873 150.227H645.999" stroke="#9671FF"/>
<path d="M627.873 155.09H645.999" stroke="#9671FF"/>
<path d="M645.402 136.649C644.809 136.672 644.323 136.185 644.346 135.593L644.551 130.343C644.586 129.457 645.659 129.036 646.286 129.664L651.331 134.709C651.958 135.336 651.538 136.409 650.652 136.444L645.402 136.649Z" fill="white" stroke="#9671FF"/>
<path d="M628.171 160.404H653.147C654.822 160.404 656.181 159.045 656.181 157.37V132.547C656.181 132.205 656.079 131.872 655.888 131.589C655.828 131.5 655.76 131.417 655.684 131.341L649.648 125.254C649.521 125.125 649.373 125.02 649.209 124.943C649.001 124.844 648.773 124.793 648.543 124.793H628.171C626.496 124.793 625.138 126.151 625.138 127.827V157.37C625.138 159.045 626.496 160.404 628.171 160.404Z" fill="white"/>
<path d="M648.893 124.793H628.171C626.496 124.793 625.138 126.151 625.138 127.827V157.37C625.138 159.045 626.496 160.404 628.171 160.404H653.147C654.822 160.404 656.181 159.045 656.181 157.37V132.023" stroke="#9671FF"/>
<path d="M631.596 136.25H641.182" stroke="#9671FF"/>
<path d="M631.596 141.645H649.722" stroke="#9671FF"/>
<path d="M631.596 146.504H649.722" stroke="#9671FF"/>
<path d="M631.596 151.367H649.722" stroke="#9671FF"/>
<path d="M649.125 132.926C648.533 132.949 648.047 132.463 648.07 131.87L648.275 126.62C648.309 125.734 649.382 125.314 650.01 125.941L655.055 130.986C655.682 131.613 655.262 132.686 654.375 132.721L649.125 132.926Z" fill="white" stroke="#9671FF"/>
<path d="M631.895 157.216H656.871C658.546 157.216 659.904 155.858 659.904 154.183V129.359C659.904 129.018 659.802 128.684 659.611 128.401C659.551 128.312 659.483 128.229 659.408 128.153L653.372 122.066C653.245 121.938 653.096 121.833 652.933 121.755C652.725 121.657 652.497 121.605 652.266 121.605H631.895C630.219 121.605 628.861 122.964 628.861 124.639V154.183C628.861 155.858 630.219 157.216 631.895 157.216Z" fill="white"/>
<path d="M631.895 157.216H656.871C658.546 157.216 659.904 155.858 659.904 154.183V130.099C659.904 129.29 659.581 128.515 659.007 127.945L653.504 122.485C652.935 121.922 652.167 121.605 651.367 121.605H631.895C630.219 121.605 628.861 122.964 628.861 124.639V154.183C628.861 155.858 630.219 157.216 631.895 157.216Z" fill="white" stroke="#9671FF"/>
<path d="M635.319 133.059H644.906" stroke="#9671FF"/>
<path d="M635.319 138.453H653.445" stroke="#9671FF"/>
<path d="M635.319 143.316H653.445" stroke="#9671FF"/>
<path d="M635.319 148.176H653.445" stroke="#9671FF"/>
<path d="M652.569 129.979C651.977 130.002 651.49 129.516 651.513 128.923L651.76 122.613C651.794 121.727 652.867 121.306 653.495 121.933L659.559 127.998C660.186 128.625 659.766 129.698 658.879 129.733L652.569 129.979Z" fill="white" stroke="#9671FF"/>
<path d="M627.873 267.559H637.46" stroke="#9671FF"/>
<path d="M627.873 272.953H645.999" stroke="#9671FF"/>
<path d="M627.873 277.812H645.999" stroke="#9671FF"/>
<path d="M627.873 282.676H645.999" stroke="#9671FF"/>
<path d="M645.402 264.234C644.809 264.258 644.323 263.771 644.346 263.179L644.551 257.929C644.586 257.043 645.659 256.622 646.286 257.249L651.331 262.295C651.958 262.922 651.538 263.995 650.652 264.03L645.402 264.234Z" fill="white" stroke="#9671FF"/>
<path d="M628.171 287.99H653.147C654.822 287.99 656.181 286.631 656.181 284.956V260.133C656.181 259.791 656.079 259.458 655.888 259.175C655.828 259.086 655.76 259.003 655.684 258.927L649.648 252.84C649.521 252.711 649.373 252.606 649.209 252.529C649.001 252.43 648.773 252.379 648.543 252.379H628.171C626.496 252.379 625.138 253.737 625.138 255.412V284.956C625.138 286.631 626.496 287.99 628.171 287.99Z" fill="white"/>
<path d="M648.893 252.379H628.171C626.496 252.379 625.138 253.737 625.138 255.412V284.956C625.138 286.631 626.496 287.99 628.171 287.99H653.147C654.822 287.99 656.181 286.631 656.181 284.956V259.609" stroke="#9671FF"/>
<path d="M631.596 263.836H641.182" stroke="#9671FF"/>
<path d="M631.596 269.23H649.722" stroke="#9671FF"/>
<path d="M631.596 274.09H649.722" stroke="#9671FF"/>
<path d="M631.596 278.953H649.722" stroke="#9671FF"/>
<path d="M649.125 260.512C648.533 260.535 648.047 260.048 648.07 259.456L648.275 254.206C648.309 253.32 649.382 252.9 650.01 253.527L655.055 258.572C655.682 259.199 655.262 260.272 654.375 260.307L649.125 260.512Z" fill="white" stroke="#9671FF"/>
<path d="M631.895 284.802H656.871C658.546 284.802 659.904 283.444 659.904 281.769V256.945C659.904 256.604 659.802 256.27 659.611 255.987C659.551 255.898 659.483 255.815 659.408 255.739L653.372 249.652C653.245 249.524 653.096 249.419 652.933 249.341C652.725 249.243 652.497 249.191 652.266 249.191H631.895C630.219 249.191 628.861 250.55 628.861 252.225V281.769C628.861 283.444 630.219 284.802 631.895 284.802Z" fill="white"/>
<path d="M631.895 284.802H656.871C658.546 284.802 659.904 283.444 659.904 281.769V257.685C659.904 256.876 659.581 256.101 659.007 255.531L653.504 250.071C652.935 249.508 652.167 249.191 651.367 249.191H631.895C630.219 249.191 628.861 250.55 628.861 252.225V281.769C628.861 283.444 630.219 284.802 631.895 284.802Z" fill="white" stroke="#9671FF"/>
<path d="M635.319 260.645H644.906" stroke="#9671FF"/>
<path d="M635.319 266.039H653.445" stroke="#9671FF"/>
<path d="M635.319 270.902H653.445" stroke="#9671FF"/>
<path d="M635.319 275.762H653.445" stroke="#9671FF"/>
<path d="M652.569 257.565C651.977 257.588 651.49 257.101 651.513 256.509L651.76 250.199C651.794 249.313 652.867 248.892 653.495 249.519L659.559 255.584C660.186 256.211 659.766 257.284 658.879 257.318L652.569 257.565Z" fill="white" stroke="#9671FF"/>
</svg>
